<svg id="Layer_1" data-name="Layer 1" xmlns="http://www.w3.org/2000/svg" viewBox="0 0 512 235.67">
  <g>
    <g>
      <g>
        <path d="M294.18,55.31a22.5,22.5,0,1,0-16.35,0c-34.59,4.9-33,40.19-33,40.19l81.79.35S328.46,60.18,294.18,55.31Z" style="fill: #ebebeb"/>
        <g>
          <g>
            <circle cx="322.19" cy="89.98" r="24" transform="translate(229.04 411.26) rotate(-89.43)" style="fill: #e0e0e0"/>
            <path d="M346.05,92.56a2.39,2.39,0,0,1,0-.39c0-.28,0-.66,0-1.14,0-.26,0-.54,0-.84s0-.65-.05-1a17.56,17.56,0,0,0-.24-2.51,23.11,23.11,0,0,0-2-6.6,24,24,0,0,0-14.8-12.85,24.26,24.26,0,0,0-15.74.72,23.59,23.59,0,0,0-3.1,1.55,26.53,26.53,0,0,0-2.93,2,27.58,27.58,0,0,0-2.6,2.48,23,23,0,0,0-4.08,6.14A23.5,23.5,0,0,0,299,95a23.38,23.38,0,0,0,2.67,6.87,28,28,0,0,0,2,3,26.91,26.91,0,0,0,2.43,2.57,25,25,0,0,0,2.69,2.17,25.58,25.58,0,0,0,2.94,1.69,23.85,23.85,0,0,0,12.3,2.38,23.6,23.6,0,0,0,10.44-3.32,24,24,0,0,0,6.76-6.06,23.11,23.11,0,0,0,3.34-6,19.75,19.75,0,0,0,.77-2.4c.09-.36.19-.68.26-1s.1-.58.14-.83c.09-.47.16-.84.21-1.12a2.09,2.09,0,0,1,.09-.38,2.89,2.89,0,0,1,0,.39l-.15,1.13-.12.83c-.06.31-.16.64-.24,1a17.43,17.43,0,0,1-.73,2.44,22.83,22.83,0,0,1-3.3,6.12,24.15,24.15,0,0,1-17.4,9.65,24.36,24.36,0,0,1-12.54-2.39,23.67,23.67,0,0,1-3-1.72,25,25,0,0,1-2.76-2.21,28.07,28.07,0,0,1-2.48-2.62,25.92,25.92,0,0,1-2.07-3,23.47,23.47,0,0,1-2.73-7,24,24,0,0,1,1.65-15.22,23.26,23.26,0,0,1,4.17-6.27A27.78,27.78,0,0,1,307,71.08a27,27,0,0,1,3-2,23.82,23.82,0,0,1,3.16-1.57,25.19,25.19,0,0,1,3.3-1,24.29,24.29,0,0,1,12.76.36A24.2,24.2,0,0,1,344.13,80a22.76,22.76,0,0,1,1.9,6.69,16,16,0,0,1,.19,2.53c0,.37,0,.71,0,1s0,.59-.06.84q-.06.72-.09,1.14A2.94,2.94,0,0,1,346.05,92.56Z" style="fill: #fff"/>
          </g>
          <polygon points="320.48 101.15 308.03 90.72 311.67 86.38 320.02 93.37 332.82 79.77 336.95 83.65 320.48 101.15" style="fill: #fff"/>
        </g>
      </g>
      <path d="M356.82,52.56a69.69,69.69,0,0,1-5.88,6.31,72.69,72.69,0,0,1-6.26,5.95,69.83,69.83,0,0,1,5.89-6.32A72.53,72.53,0,0,1,356.82,52.56Z" style="fill: #e0e0e0"/>
      <path d="M378.24,70.49a4.52,4.52,0,0,1-1,.48c-.66.29-1.63.67-2.83,1.11-2.41.9-5.79,2-9.57,3.07S357.57,77,355,77.44c-1.26.23-2.29.4-3,.5a5.37,5.37,0,0,1-1.11.11,3.88,3.88,0,0,1,1.07-.31l3-.66c2.5-.57,5.95-1.39,9.72-2.43s7.15-2.11,9.59-2.91l2.88-1A4.92,4.92,0,0,1,378.24,70.49Z" style="fill: #e0e0e0"/>
      <path d="M366,103.62a65,65,0,0,1-7.39-3.84,65.37,65.37,0,0,1-7.14-4.3,69.19,69.19,0,0,1,7.39,3.84A68.58,68.58,0,0,1,366,103.62Z" style="fill: #e0e0e0"/>
    </g>
    <path d="M329.53,40.2a7.74,7.74,0,1,0-5.62,0C312,41.89,312.55,54,312.55,54l28.13.12S341.32,41.88,329.53,40.2Z" style="fill: #ebebeb"/>
  </g>
  <g>
    <g>
      <g>
        <rect x="30.74" y="163.37" width="147.36" height="59.28" rx="8.89" style="fill: #fff"/>
        <path d="M169.22,222.66l.26,0c.17,0,.43,0,.76-.06a8.87,8.87,0,0,0,2.86-.87,8.77,8.77,0,0,0,3.57-3.22,8.64,8.64,0,0,0,1.16-2.86,16.73,16.73,0,0,0,.19-3.53c0-5,0-11.2,0-18.35,0-3.58,0-7.41,0-11.46,0-2,0-4.11,0-6.26v-3.25a9.66,9.66,0,0,0-.45-3.24,8.7,8.7,0,0,0-4.3-5,8.55,8.55,0,0,0-3.35-.93c-1.17-.06-2.41,0-3.63,0H150.9l-33.81,0H39.64a8.7,8.7,0,0,0-7.92,5.14,8.53,8.53,0,0,0-.66,2.37,18.75,18.75,0,0,0-.09,2.5V208c0,1.59,0,3.17,0,4.75a10.06,10.06,0,0,0,.75,4.5,8.71,8.71,0,0,0,6.95,5.09c.73.07,1.49.06,2.25.06h6.76l63.26.05,42.65.08,11.6,0,3,0,1,0-1,0-3,0-11.6.05-42.65.07-63.26.05H40.91a19.86,19.86,0,0,1-2.3-.06,9.13,9.13,0,0,1-7.3-5.34,10.33,10.33,0,0,1-.79-4.68V198.41q0-9.72,0-19.76v-5a18.42,18.42,0,0,1,.09-2.56,9.12,9.12,0,0,1,9-7.91l77.45,0,33.81,0h15.32c1.23,0,2.43,0,3.66,0a9,9,0,0,1,7.93,6.2,10.1,10.1,0,0,1,.46,3.34c0,1.1,0,2.18,0,3.25,0,2.15,0,4.23,0,6.26,0,4.05,0,7.88,0,11.46,0,7.15,0,13.31,0,18.35a17.81,17.81,0,0,1-.21,3.56,8.74,8.74,0,0,1-1.21,2.9,8.89,8.89,0,0,1-3.64,3.24,9.11,9.11,0,0,1-2.89.83C169.57,222.67,169.22,222.66,169.22,222.66Z" style="fill: #263238"/>
      </g>
      <path d="M157.16,205.82a10.9,10.9,0,1,1,10.9-10.9A10.91,10.91,0,0,1,157.16,205.82Zm0-20a9.12,9.12,0,1,0,9.13,9.12A9.13,9.13,0,0,0,157.16,185.8Z" style="fill: #f43f5e"/>
      <path d="M134,202.36H96.39a6,6,0,0,1-6-6h0a6,6,0,0,1,6-6H134a6,6,0,0,1,6,6h0A6,6,0,0,1,134,202.36Z" style="fill: #e0e0e0"/>
    </g>
    <g>
      <g>
        <circle cx="62.2" cy="194.72" r="22.62" transform="translate(-58.34 29.63) rotate(-18.42)" style="fill: #fff"/>
        <path d="M84.78,196.19a2.71,2.71,0,0,1,0-.37V194c0-.29-.05-.6-.08-.95a15.48,15.48,0,0,0-.32-2.36,22,22,0,0,0-2.11-6.14A22.58,22.58,0,0,0,67.78,173a21.58,21.58,0,0,0-2.82-.51c-.48,0-1-.13-1.45-.15l-1.49,0c-.25,0-.5,0-.76,0l-.75.07c-.5.05-1,.07-1.52.14a23.52,23.52,0,0,0-3.05.69,23,23,0,0,0-3,1.09c-.49.23-1,.5-1.45.74a11.34,11.34,0,0,0-1.42.85,25.09,25.09,0,0,0-2.68,2A26.2,26.2,0,0,0,45,180.31a21.65,21.65,0,0,0-3.6,6,22.23,22.23,0,0,0-.93,14.13,21.89,21.89,0,0,0,2.8,6.38,25.22,25.22,0,0,0,2,2.74,26.32,26.32,0,0,0,2.4,2.33,12.56,12.56,0,0,0,1.29,1c.45.31.89.64,1.34.92a24,24,0,0,0,2.84,1.48,23.46,23.46,0,0,0,2.93,1.07c.5.14,1,.23,1.49.34l.74.17c.25.05.5.06.75.1l1.48.17c.49,0,1,0,1.46,0a20.68,20.68,0,0,0,2.86-.14,22.6,22.6,0,0,0,15.84-9.57,21.81,21.81,0,0,0,2.9-5.82,17,17,0,0,0,.62-2.29c.07-.34.15-.65.2-.94s.07-.55.1-.78c.06-.46.11-.81.14-1.07s.07-.36.07-.36l0,.36c0,.26-.06.62-.11,1.08,0,.23,0,.5-.08.79s-.12.6-.19.94a16.73,16.73,0,0,1-.59,2.31,21.57,21.57,0,0,1-2.86,5.89,22.81,22.81,0,0,1-16,9.75,21.33,21.33,0,0,1-2.9.15c-.49,0-1,0-1.48,0l-1.5-.17c-.25,0-.51,0-.76-.09l-.75-.17c-.5-.11-1-.21-1.51-.34a25.31,25.31,0,0,1-3-1.08,23.82,23.82,0,0,1-2.88-1.49c-.47-.3-.91-.63-1.36-.94a13,13,0,0,1-1.32-1A20.88,20.88,0,0,1,43,207a21.92,21.92,0,0,1-2.84-6.48,22.54,22.54,0,0,1,.93-14.35,22.37,22.37,0,0,1,3.66-6.06,26.93,26.93,0,0,1,2.41-2.48,24.85,24.85,0,0,1,2.72-2,11.65,11.65,0,0,1,1.44-.86c.49-.25,1-.52,1.47-.75a22.31,22.31,0,0,1,3.05-1.1,22.85,22.85,0,0,1,3.09-.69c.52-.07,1-.1,1.55-.15l.76-.06c.26,0,.51,0,.76,0l1.51,0c.5,0,1,.11,1.48.16a20.48,20.48,0,0,1,2.85.53,22.69,22.69,0,0,1,14.57,11.73,21.53,21.53,0,0,1,2.08,6.21,17.88,17.88,0,0,1,.29,2.37c0,.35.06.67.06,1l0,.8c0,.46,0,.82,0,1.07S84.78,196.19,84.78,196.19Z" style="fill: #263238"/>
      </g>
      <g>
        <path d="M43.09,206.44l10-3,16.19,2.5,10.87,2.42a22.26,22.26,0,0,1-17.94,8.81,22.65,22.65,0,0,1-14.44-5.3A21.08,21.08,0,0,1,43.09,206.44Z" style="fill: #f43f5e"/>
        <g>
          <path d="M75,194.26c0-3-.66-9.29-1.29-14.94a11.73,11.73,0,0,0-12-10.45l-.6,0c-6.54.57-9.7,6.44-9,13l1.41,22.64,9.06,5.77,6.28-2.65-.07-5.9S75.12,200.55,75,194.26Z" style="fill: #ffbf9d"/>
          <path d="M71.55,185.4a.9.9,0,0,1-.84.93.86.86,0,0,1-.95-.78.9.9,0,0,1,.84-.94A.86.86,0,0,1,71.55,185.4Z" style="fill: #263238"/>
          <path d="M72.56,182.1c-.11.12-.81-.37-1.78-.34s-1.66.54-1.76.42,0-.26.35-.5a2.53,2.53,0,0,1,1.41-.48,2.47,2.47,0,0,1,1.42.41C72.5,181.83,72.61,182,72.56,182.1Z" style="fill: #263238"/>
          <path d="M62.65,185.4a.9.9,0,0,1-.84.93.86.86,0,0,1-1-.78.9.9,0,0,1,.84-.94A.86.86,0,0,1,62.65,185.4Z" style="fill: #263238"/>
          <path d="M62.91,182.11c-.09.13-.84-.28-1.79-.14s-1.6.71-1.72.6,0-.27.3-.53a2.51,2.51,0,0,1,1.35-.63,2.4,2.4,0,0,1,1.45.25C62.83,181.85,63,182.05,62.91,182.11Z" style="fill: #263238"/>
          <path d="M66.69,190a5.86,5.86,0,0,1,1.56-.33c.25,0,.48-.09.52-.26a1.29,1.29,0,0,0-.19-.73l-.78-1.86A32.09,32.09,0,0,1,66,181.91a32.08,32.08,0,0,1,2.17,4.72c.27.65.52,1.27.76,1.87a1.4,1.4,0,0,1,.15,1,.61.61,0,0,1-.39.38,1.83,1.83,0,0,1-.42.07A6.71,6.71,0,0,1,66.69,190Z" style="fill: #263238"/>
          <path d="M62.92,177.93c-.08.27-1.05.17-2.18.34s-2,.5-2.2.27.08-.36.44-.63a3.69,3.69,0,0,1,1.62-.61,3.53,3.53,0,0,1,1.72.15C62.75,177.6,63,177.8,62.92,177.93Z" style="fill: #263238"/>
          <path d="M72.29,178.36c-.16.23-.84,0-1.64,0s-1.47.19-1.64,0,0-.34.32-.55a2.25,2.25,0,0,1,1.32-.4,2.3,2.3,0,0,1,1.32.4C72.26,178,72.36,178.25,72.29,178.36Z" style="fill: #263238"/>
          <path d="M52.83,186.49c-.11,0-4.36-1.15-4.1,3.15s4.52,3.14,4.52,3S52.83,186.49,52.83,186.49Z" style="fill: #ffbf9d"/>
          <path d="M51.84,191.11s-.07.06-.19.13a.78.78,0,0,1-.56,0,1.86,1.86,0,0,1-1-1.61,2.37,2.37,0,0,1,.14-1.08.87.87,0,0,1,.53-.61.38.38,0,0,1,.46.18c.06.11,0,.2.06.21s.09-.08,0-.26a.51.51,0,0,0-.18-.26.59.59,0,0,0-.42-.08,1.05,1.05,0,0,0-.74.71,2.56,2.56,0,0,0-.19,1.22A1.94,1.94,0,0,0,51,191.49a.79.79,0,0,0,.67-.16C51.84,191.22,51.86,191.12,51.84,191.11Z" style="fill: #ff9a6c"/>
          <path d="M74.22,172a2.21,2.21,0,0,0-1.7-1.71c0-.13-.89-.57-1.61-1.07s-.87-1.71-1.52-1.12a2,2,0,0,0-2.79-1.71c0-.77-1.1-1-1.84-1.21s-1-.3-1.37.37a2.92,2.92,0,0,0-4.56-.24,3.75,3.75,0,0,0-4.48,2.14,3.54,3.54,0,0,0-3.05,2.53c-.9.1-1.12.81-1.48,1.64s-.86,1.74-.33,2.47a1.93,1.93,0,0,0-.31,3.05,1.83,1.83,0,0,0-.61.53,2,2,0,0,0-.5,2.81A2,2,0,0,0,49.41,184c-.69,1,.21,2.36.73,2.65,0,0,1.76-.75,2.06.55h0a.8.8,0,0,0,1.08.81,2.87,2.87,0,0,0,1.08-1.27,6,6,0,0,0,.85-1.72,1.5,1.5,0,0,0-.64-1.68,2.21,2.21,0,0,0,1.31-1.81,6.59,6.59,0,0,0-.2-2.33c-.23-1.13-.47-2.26-.7-3.39a4.28,4.28,0,0,0,3.64-2.55,2.47,2.47,0,0,0,3.55-1,3.21,3.21,0,0,0,4,1.87c-.14.89,1.48,1.67,2.36,1.88a3.16,3.16,0,0,0,2-.44s1.54.85,2.35.5,1.86-1.42,1.3-2.25A4,4,0,0,0,74.22,172Z" style="fill: #263238"/>
          <path d="M66,166.23a1.53,1.53,0,0,0-.49-.27.93.93,0,0,0-1.14.69l-.05.25-.13-.22a1.57,1.57,0,0,0-1.35-.7,1.51,1.51,0,0,0-1.39,1.12l-.07.28-.19-.22a1.94,1.94,0,0,0-1.51-.68,1.87,1.87,0,0,0-1.75,1.6l0,.18-.18,0a1.84,1.84,0,0,0-2,1,1.88,1.88,0,0,0,.36,2l.17.17-.23.05a2,2,0,0,0-1.27.86,2.08,2.08,0,0,0-.33,1.15,3.2,3.2,0,0,0,.26,1s-.08-.07-.17-.23a2.05,2.05,0,0,1-.24-.8,2.11,2.11,0,0,1,.3-1.27,2.24,2.24,0,0,1,1.39-1l-.06.22a2.08,2.08,0,0,1,1.92-3.52l-.2.13a2.18,2.18,0,0,1,2.07-1.87,2.16,2.16,0,0,1,1.74.8l-.26.05a1.8,1.8,0,0,1,1.68-1.3,1.76,1.76,0,0,1,1.52.86l-.18,0a1.07,1.07,0,0,1,.64-.74,1,1,0,0,1,.72,0,1,1,0,0,1,.38.24C66,166.18,66,166.22,66,166.23Z" style="fill: #455a64"/>
          <path d="M74.84,190.82a1.34,1.34,0,0,0-2,.66,1.68,1.68,0,0,0-3,.51,1.37,1.37,0,0,0-2.29-.39,1.09,1.09,0,0,0-1.17-.47,1.08,1.08,0,0,0-.54-1.06,1.1,1.1,0,0,0-1.19.12,1.73,1.73,0,0,0-2.56-.42,1,1,0,0,0-1-.68,1,1,0,0,0-.9.74,1.56,1.56,0,0,0-1.8-.46,1,1,0,0,0-1.29-1c.15-.53-.63-.77-1-1.15-.18-.17-.29-.4-.49-.56a.46.46,0,0,0-.65,0,.89.89,0,0,0-1.67-.58,2.7,2.7,0,0,0-.15.76c-.12.82-.58,1.8,0,2.38a.91.91,0,0,1,.29.33c.07.24-.16.47-.18.72s.25.51.37.78a2.65,2.65,0,0,1,0,1.28c0,.43.22,1,.65.93a1.52,1.52,0,0,0,.47,1.88,1.48,1.48,0,0,0,.87,1.94.76.76,0,0,0-.06,1,2.19,2.19,0,0,0,.89.63.63.63,0,0,0-.15.89,1.38,1.38,0,0,0,.84.51.61.61,0,0,1,.37.2c.16.22-.05.53,0,.8s.65.52.82.9,0,.81.22,1.06.45.14.68.22c.4.14.58.59.84.93a3.56,3.56,0,0,0,2.09,1.13c.39.1.8.19,1.2.26.8.15,1.62.25,2.43.35.4,0,.9.05,1.11-.3a1.39,1.39,0,0,0,2.23-.26,3.45,3.45,0,0,0,2.18-.41l.71-.31c.71-.31,1.5-.71,1.71-1.46a1.56,1.56,0,0,0,1.12-2.14c.33.1.64-.23.69-.56a3.08,3.08,0,0,0-.12-1c-.25-1.35.46-2.72.28-4.08-.13-.95-.7-1.89-.43-2.81a1.7,1.7,0,0,0,.14-.57c0-.2-.2-.4-.39-.35a.87.87,0,0,0-.88-1.16" style="fill: #263238"/>
          <path d="M63.49,190.92c.16,0,.19,1,1.11,1.76s2,.57,2.05.72-.25.21-.72.23a2.59,2.59,0,0,1-1.7-.54,2.25,2.25,0,0,1-.87-1.47C63.31,191.18,63.42,190.92,63.49,190.92Z" style="fill: #fff"/>
          <path d="M57.72,198.1a10.19,10.19,0,0,1-.4-2.22,9.38,9.38,0,0,1,.31-2.24,1.8,1.8,0,0,0-.26.62,5.34,5.34,0,0,0,.06,3.23A2,2,0,0,0,57.72,198.1Z" style="fill: #455a64"/>
          <path d="M56.74,196.58a3,3,0,0,1-.24-.47,3.08,3.08,0,0,1-.11-1.27c.08-1,.36-1.81.31-1.82a4.14,4.14,0,0,0-.48,1.8,2.71,2.71,0,0,0,.16,1.33C56.53,196.47,56.73,196.6,56.74,196.58Z" style="fill: #455a64"/>
          <path d="M55.68,195.71a6.25,6.25,0,0,1-.46-1.87,6.37,6.37,0,0,1,.3-1.91,1.34,1.34,0,0,0-.26.52,3.52,3.52,0,0,0-.2,1.4,3.75,3.75,0,0,0,.31,1.37A1.25,1.25,0,0,0,55.68,195.71Z" style="fill: #455a64"/>
          <path d="M73.19,202.14a1.07,1.07,0,0,0,.6-.38,3.52,3.52,0,0,0,.75-1.54,5.33,5.33,0,0,0,.14-1.7,1.85,1.85,0,0,0-.14-.69,8.26,8.26,0,0,1-.17,2.35,3.75,3.75,0,0,1-.67,1.5A3.45,3.45,0,0,1,73.19,202.14Z" style="fill: #455a64"/>
          <path d="M72.27,201.91s.22-.08.49-.34a3.32,3.32,0,0,0,.79-1.19,3.21,3.21,0,0,0,.23-1.41,1.67,1.67,0,0,0-.12-.58,3.11,3.11,0,0,0,0,.59,3.9,3.9,0,0,1-1,2.51A5.78,5.78,0,0,0,72.27,201.91Z" style="fill: #455a64"/>
          <path d="M73.87,175.53a8.18,8.18,0,0,0-4.25-3.08c-5.2-1.54-12.5-2.13-20.22,5.47l-1.12.51a19,19,0,0,1,.16-4.51c.27-1.28,2.6-8.74,10.94-9.52C59.38,164.4,72.12,162.32,73.87,175.53Z" style="fill: #455a64"/>
          <g style="opacity: 0.30000000000000004">
            <path d="M73.87,175.53a8.18,8.18,0,0,0-4.25-3.08c-5.2-1.54-12.5-2.13-20.22,5.47l-1.12.51a19,19,0,0,1,.16-4.51c.27-1.28,2.6-8.74,10.94-9.52C59.38,164.4,72.12,162.32,73.87,175.53Z"/>
          </g>
          <path d="M49.4,177.92c3.17-3.47,7.24-5.46,11.53-7a62,62,0,0,1,15.6-2.9,9.74,9.74,0,0,1,4.06.4,3.68,3.68,0,0,1,2.45,3c.07,1.72-3.34,3.64-4.9,4.35s-4.75,1.95-4.75,1.95-.86-3.89-3.94-5C63.06,170.4,49.17,178.05,49.4,177.92Z" style="fill: #455a64"/>
          <path d="M74.26,173a2.45,2.45,0,0,0-2.64-1.54.92.92,0,0,0,0-1.11,1.7,1.7,0,0,0-1-.6,3.11,3.11,0,0,0-3.45,1.8,3,3,0,0,0-2.79-.76,2.32,2.32,0,0,0-1.92,2,1.89,1.89,0,0,0,1.13,1.71,2.81,2.81,0,0,0,2.53-.28,2.6,2.6,0,0,0,4.12,1.1A2.37,2.37,0,0,0,74.26,173Z" style="fill: #263238"/>
        </g>
      </g>
    </g>
  </g>
  <g>
    <g>
      <g>
        <rect x="30.96" y="87.46" width="150.5" height="60.55" rx="8.89" style="fill: #fff"/>
        <path d="M172.57,148l.27,0c.17,0,.44,0,.78-.07a9,9,0,0,0,2.92-.9,8.82,8.82,0,0,0,3.58-3.35,8.71,8.71,0,0,0,1.11-3,20.12,20.12,0,0,0,.14-3.61c0-5.15,0-11.45,0-18.76,0-3.66,0-7.57,0-11.71,0-2.07,0-4.21,0-6.39V96.9a9.81,9.81,0,0,0-.45-3.31,8.77,8.77,0,0,0-4.45-5.07,8.66,8.66,0,0,0-3.45-.87c-1.21,0-2.47,0-3.72,0l-15.66,0-34.55,0-79.17,0a9.72,9.72,0,0,0-2.52.37A9.16,9.16,0,0,0,35,89.15,8.73,8.73,0,0,0,31.85,93a9.48,9.48,0,0,0-.62,2.45c-.06.83,0,1.7,0,2.56v5.15q0,10.26,0,20.2v14.69a9.77,9.77,0,0,0,.77,4.6,8.67,8.67,0,0,0,7.17,5.08c3.08.07,6.18,0,9.22,0l64.66.05,43.59.07,11.85.05,3.08,0,1,0s-.35,0-1,0l-3.08,0-11.85,0-43.59.08-64.66.05c-3.05,0-6.11,0-9.26,0a9.11,9.11,0,0,1-7.54-5.33,10.46,10.46,0,0,1-.81-4.78V98c0-.86,0-1.71,0-2.61a9.07,9.07,0,0,1,4-6.65,9.59,9.59,0,0,1,2.42-1.15,10,10,0,0,1,2.66-.4l79.17,0,34.55,0,15.66,0c1.26,0,2.49,0,3.74,0a9,9,0,0,1,3.58.91,9.1,9.1,0,0,1,4.61,5.28,10,10,0,0,1,.46,3.41v3.33c0,2.18,0,4.32,0,6.39,0,4.14,0,8,0,11.71,0,7.31,0,13.61,0,18.76a21.51,21.51,0,0,1-.16,3.64,8.94,8.94,0,0,1-4.81,6.36,9,9,0,0,1-3,.87A8.27,8.27,0,0,1,172.57,148Z" style="fill: #263238"/>
      </g>
      <g>
        <path d="M159.34,129.87h0a10.23,10.23,0,0,1-9.47-10.93h0a10.22,10.22,0,0,1,10.94-9.46h0a10.22,10.22,0,0,1,9.46,10.93h0A10.22,10.22,0,0,1,159.34,129.87Z" style="fill: #f43f5e"/>
        <polygon points="159.45 125.05 153.32 120.28 154.98 118.14 159.09 121.33 164.98 114.61 167.02 116.39 159.45 125.05" style="fill: #fff"/>
      </g>
      <path d="M136.46,127.27H98a6.15,6.15,0,0,1-6.15-6.16h0A6.15,6.15,0,0,1,98,115h38.46a6.15,6.15,0,0,1,6.15,6.15h0A6.15,6.15,0,0,1,136.46,127.27Z" style="fill: #e0e0e0"/>
    </g>
    <g>
      <g>
        <circle cx="63.03" cy="117.66" r="23.1" transform="translate(-60.02 65.94) rotate(-39.02)" style="fill: #fff"/>
        <path d="M42.51,128s.08.11.2.32l.55,1,.41.71c.16.25.36.51.56.8a17.51,17.51,0,0,0,1.49,1.94,22.35,22.35,0,0,0,5,4.38A23.24,23.24,0,0,0,69.54,140a20.84,20.84,0,0,0,2.77-1c.45-.2.92-.38,1.37-.61l1.34-.75c.22-.13.45-.24.67-.38l.63-.45c.43-.3.87-.59,1.29-.91A25.27,25.27,0,0,0,80,133.71a24.56,24.56,0,0,0,2.11-2.51c.32-.46.6-.94.91-1.41a11.73,11.73,0,0,0,.82-1.47,26.76,26.76,0,0,0,1.37-3.15,24.47,24.47,0,0,0,.84-3.4,22.52,22.52,0,0,0,.16-7.15,22.94,22.94,0,0,0-6.43-13.06l-1.31-1.25L77,99.19a4.76,4.76,0,0,0-.73-.51l-.75-.48-.75-.48-.79-.4a26,26,0,0,0-3.21-1.4,24.6,24.6,0,0,0-3.33-.84,12,12,0,0,0-1.67-.25c-.56,0-1.12-.11-1.67-.13a23.73,23.73,0,0,0-3.28.14,25.12,25.12,0,0,0-3.16.55c-.51.13-1,.31-1.5.46l-.75.23c-.24.08-.47.2-.71.3L53.3,97c-.45.22-.88.48-1.32.72a20.4,20.4,0,0,0-2.47,1.59,23.22,23.22,0,0,0-9.19,16.63,21.84,21.84,0,0,0,.41,6.66,16.62,16.62,0,0,0,.62,2.36c.11.34.19.66.3.94s.22.52.31.75l.42,1c.09.23.13.35.13.35s-.06-.11-.16-.34-.26-.57-.45-1l-.33-.74c-.11-.28-.2-.6-.32-.93a16.92,16.92,0,0,1-.65-2.37,21.89,21.89,0,0,1-.47-6.7,23.33,23.33,0,0,1,9.21-16.85,22.79,22.79,0,0,1,2.5-1.62c.44-.24.87-.5,1.34-.72l1.42-.62c.24-.1.47-.22.72-.3l.75-.24c.51-.15,1-.33,1.52-.47a25.76,25.76,0,0,1,3.2-.56,24.52,24.52,0,0,1,3.33-.15c.56,0,1.13.09,1.69.13a12.45,12.45,0,0,1,1.7.25,27.4,27.4,0,0,1,3.38.85A25.81,25.81,0,0,1,74.14,97l.8.4.76.48.77.49a6.53,6.53,0,0,1,.74.52l1.44,1.13L80,101.33a23.23,23.23,0,0,1,6.52,13.24,22.62,22.62,0,0,1-.16,7.26,26.61,26.61,0,0,1-.86,3.44,26,26,0,0,1-1.39,3.19,11.54,11.54,0,0,1-.84,1.5c-.31.47-.6,1-.92,1.42a26.57,26.57,0,0,1-2.15,2.55,26.05,26.05,0,0,1-2.4,2.19c-.42.33-.87.61-1.3.92l-.64.45c-.22.14-.46.26-.68.39l-1.36.75c-.45.23-.93.41-1.39.62a21.75,21.75,0,0,1-2.8,1,23.32,23.32,0,0,1-19-3,22,22,0,0,1-5-4.46,16.09,16.09,0,0,1-1.47-2c-.2-.3-.4-.56-.55-.82s-.28-.5-.39-.72l-.53-1Z" style="fill: #263238"/>
      </g>
      <path d="M48.82,135.72s1.1-.37,4.9-1.53,16.26.57,16.26.57l7.14,1.47s-5.07,5.23-14.82,4.56S48.82,135.72,48.82,135.72Z" style="fill: #f43f5e"/>
      <g>
        <g>
          <g>
            <path d="M75.42,106a2.92,2.92,0,0,0,1-5.72,3,3,0,0,0-2.83-5A3.63,3.63,0,0,0,68,92.52a4.08,4.08,0,0,0-5,.08,2.91,2.91,0,0,0-2.39,5" style="fill: #263238"/>
            <g>
              <g>
                <path d="M70.7,135.23l-.11-5.12s6.86-1.27,6.72-7.91c-.08-3.21-.76-9.81-1.45-15.78A12.4,12.4,0,0,0,63.12,95.48l-.64,0c-6.89.65-10.2,6.86-9.36,13.74l1,25s8.72,4.63,10.67,4A52.55,52.55,0,0,0,70.7,135.23Z" style="fill: #ae7461"/>
                <path d="M70.59,130.11a15.39,15.39,0,0,1-8.48-2.26s1.87,4.86,8.48,4Z" style="fill: #6f4439"/>
                <path d="M73.17,113a1,1,0,0,1-.88,1,.9.9,0,0,1-1-.82,1,1,0,0,1,.88-1A.92.92,0,0,1,73.17,113Z" style="fill: #263238"/>
                <path d="M74.54,109.73c-.11.13-.85-.38-1.87-.34s-1.75.57-1.86.45,0-.28.37-.53a2.58,2.58,0,0,1,1.49-.51,2.47,2.47,0,0,1,1.49.42C74.48,109.45,74.6,109.67,74.54,109.73Z" style="fill: #263238"/>
                <path d="M64,113.19a.94.94,0,0,1-.88,1,.91.91,0,0,1-1-.82,1,1,0,0,1,.88-1A.91.91,0,0,1,64,113.19Z" style="fill: #263238"/>
                <path d="M64.52,110.27c-.12.13-.85-.38-1.87-.34s-1.75.57-1.87.45,0-.28.37-.53a2.63,2.63,0,0,1,1.49-.51,2.5,2.5,0,0,1,1.5.42C64.46,110,64.57,110.21,64.52,110.27Z" style="fill: #263238"/>
                <path d="M68.48,117.71a6.9,6.9,0,0,1,1.65-.36c.26,0,.51-.09.54-.27a1.28,1.28,0,0,0-.2-.77c-.26-.62-.54-1.27-.84-2a34.09,34.09,0,0,1-1.91-5.13,35.26,35.26,0,0,1,2.32,5l.81,2a1.48,1.48,0,0,1,.17,1,.65.65,0,0,1-.41.4,1.65,1.65,0,0,1-.45.08A6.6,6.6,0,0,1,68.48,117.71Z" style="fill: #263238"/>
                <path d="M64.71,106.78c-.13.27-1,0-2.09,0s-2,.21-2.09,0,.14-.37.52-.59a3.31,3.31,0,0,1,1.6-.4,3.12,3.12,0,0,1,1.58.43C64.59,106.42,64.76,106.66,64.71,106.78Z" style="fill: #263238"/>
                <path d="M74.54,106.11c-.21.24-1.06,0-2.07,0s-1.87.22-2.07,0,0-.35.4-.59a3.57,3.57,0,0,1,3.34,0C74.5,105.76,74.63,106,74.54,106.11Z" style="fill: #263238"/>
                <path d="M54.41,115.67a1.8,1.8,0,0,0-2-1.67c-1.23.16-2.58.91-2.41,3.46.3,4.54,4.79,3.3,4.79,3.17S54.55,117.56,54.41,115.67Z" style="fill: #ae7461"/>
                <path d="M53.68,119s-.08.06-.21.13a.79.79,0,0,1-.59,0,2,2,0,0,1-1-1.69,2.56,2.56,0,0,1,.15-1.15.87.87,0,0,1,.55-.64.39.39,0,0,1,.48.18c.07.12.05.22.07.22s.1-.08,0-.26a.57.57,0,0,0-.2-.28.62.62,0,0,0-.45-.08,1.09,1.09,0,0,0-.77.75,2.6,2.6,0,0,0-.19,1.29,2.06,2.06,0,0,0,1.28,1.88.84.84,0,0,0,.71-.17C53.68,119.1,53.69,119,53.68,119Z" style="fill: #6f4439"/>
              </g>
              <path d="M71.75,97.12a1.23,1.23,0,0,0-.17-.32,2.9,2.9,0,0,0-2.3-1.21A11.25,11.25,0,0,0,67.66,95a3.95,3.95,0,0,0-6.72,0l-.55.11A4,4,0,0,0,54.31,97a2.93,2.93,0,0,0-3.16,4.38,2.77,2.77,0,0,0-1.45,2.27,1.62,1.62,0,0,0,1.7,1.59,61.83,61.83,0,0,0,.43,7c.14,1.59,2.19,2.46,2.37,3.54.9,5.48,2.6,2.37,2.89-9.06l.34-.3c.23-.22.28-.49.48-.75s.69-.22,1.08-.19a2.9,2.9,0,0,0,2.93-2.19,1.21,1.21,0,0,0,1.64.1A6.52,6.52,0,0,0,64.75,102a1.88,1.88,0,0,1,1.53-.83,3.9,3.9,0,0,0,1,.18c.59-.07.86-.78.93-1.37a2.67,2.67,0,0,1,.41-1.44,3.25,3.25,0,0,1,1.14-.37l.68.08h.32a3.08,3.08,0,0,1,.42.15c2,.9,3.93,5,3.93,5A7.93,7.93,0,0,0,71.75,97.12Z" style="fill: #263238"/>
            </g>
          </g>
          <path d="M58.14,96.42s0,0,0-.12a1.92,1.92,0,0,1,.18-.33,3.56,3.56,0,0,1,1-1,3.4,3.4,0,0,1,2-.5,3.56,3.56,0,0,1,2.34,1.18h-.14a5.21,5.21,0,0,1,1-.85,3.94,3.94,0,0,1,3-.51,3,3,0,0,1,2,1.54A2.69,2.69,0,0,1,70,97.54a1.92,1.92,0,0,1-.13.45c0,.1-.07.14-.08.14a3.24,3.24,0,0,0,.14-.6,2.7,2.7,0,0,0-.31-1.62,2.9,2.9,0,0,0-1.91-1.43,3.77,3.77,0,0,0-2.9.5,5.1,5.1,0,0,0-1,.82l-.07.07-.07-.08a3.41,3.41,0,0,0-2.22-1.14,3.21,3.21,0,0,0-2,.45,3.49,3.49,0,0,0-1,.91C58.23,96.27,58.15,96.43,58.14,96.42Z" style="fill: #fff"/>
          <path d="M50.57,101.63a.28.28,0,0,1,0-.07,1.29,1.29,0,0,1,.14-.18,2.38,2.38,0,0,1,.69-.54,2.83,2.83,0,0,1,1.33-.34,2.65,2.65,0,0,1,1.71.57l-.12.05a3.59,3.59,0,0,1,1.8-2.34,4.6,4.6,0,0,1,1.61-.56,5.48,5.48,0,0,1,1.8.07,9.09,9.09,0,0,1,3.09,1.32l-.13,0a4,4,0,0,1,2-2.22,3.84,3.84,0,0,1,2.32-.36,4,4,0,0,1,1.45.52c.15.1.27.18.34.24s.11.09.1.1-.16-.11-.47-.29a4.18,4.18,0,0,0-1.44-.46,3.79,3.79,0,0,0-2.23.38,4,4,0,0,0-1.88,2.15l0,.1-.1-.06a9.31,9.31,0,0,0-3-1.29,5.31,5.31,0,0,0-1.73-.06,4.24,4.24,0,0,0-1.55.52,3.45,3.45,0,0,0-1.74,2.22l0,.12-.09-.08a2.57,2.57,0,0,0-1.62-.57,2.83,2.83,0,0,0-1.29.29A2.91,2.91,0,0,0,50.57,101.63Z" style="fill: #fff"/>
          <path d="M68.65,98.24s0,.07-.07.18a4.28,4.28,0,0,0-.15.53c-.06.24-.1.53-.17.87a2.84,2.84,0,0,1-.4,1.14,1,1,0,0,1-.63.36,3.32,3.32,0,0,1-.77,0,1.44,1.44,0,0,0-.77.08,2.14,2.14,0,0,0-.65.53c-.19.23-.37.48-.56.73a3.52,3.52,0,0,1-.66.75,2.25,2.25,0,0,1-1,.37,1.7,1.7,0,0,1-.55,0,.81.81,0,0,1-.5-.31l.17,0a2.53,2.53,0,0,1-.81,1.44,3.07,3.07,0,0,1-1.57.72,3.5,3.5,0,0,1-.72.06,1.44,1.44,0,0,0-.66,0,.93.93,0,0,0-.48.4,3.75,3.75,0,0,1-.44.53,3.58,3.58,0,0,1-2.3,1.18,3.3,3.3,0,0,1-2.16-.84,3.36,3.36,0,0,1-1.06-1.7l.08,0a1.82,1.82,0,0,1-1.49-.3,1.69,1.69,0,0,1-.62-1,1.66,1.66,0,0,1,0-.73.56.56,0,0,1,0-.18l0-.06a2.08,2.08,0,0,0,0,1,1.65,1.65,0,0,0,2,1.15h.06l0,.06a3.21,3.21,0,0,0,1,1.61,3.09,3.09,0,0,0,2,.78,3.38,3.38,0,0,0,2.18-1.13,4.22,4.22,0,0,0,.42-.51,1.13,1.13,0,0,1,.56-.47,1.21,1.21,0,0,1,.38-.06l.35,0a4,4,0,0,0,.69,0,3.06,3.06,0,0,0,1.48-.68,2.85,2.85,0,0,0,.49-.61,2.7,2.7,0,0,0,.26-.72l0-.21.12.18a.94.94,0,0,0,.88.25,2,2,0,0,0,.9-.33,3.3,3.3,0,0,0,.63-.71c.19-.25.37-.5.58-.73a2.15,2.15,0,0,1,.7-.57,1.64,1.64,0,0,1,.84-.08,3.76,3.76,0,0,0,.74,0,.82.82,0,0,0,.56-.3,2.89,2.89,0,0,0,.41-1.08c.07-.34.12-.64.19-.87a3.14,3.14,0,0,1,.18-.53A1.06,1.06,0,0,1,68.65,98.24Z" style="fill: #455a64"/>
        </g>
        <g>
          <path d="M65.37,119.6a2.5,2.5,0,0,0,1,3,1.7,1.7,0,0,0,1.25.12,1.64,1.64,0,0,0,1.15-1,3.2,3.2,0,0,0,.26-1.52C68,120.06,66.41,119.83,65.37,119.6Z" style="fill: #6f4439"/>
          <path d="M68.67,122.11s-.07.13-.26.28a2,2,0,0,1-1,.38,2,2,0,0,1-1.47-.45,2.35,2.35,0,0,1-.88-1.66,3.07,3.07,0,0,1,.09-1l0-.08.08,0c1.07.19,2,.37,2.67.5a5.25,5.25,0,0,1,1.06.25,7.89,7.89,0,0,1-1.08-.13l-2.68-.44.1-.07a2.67,2.67,0,0,0-.08.94,2.18,2.18,0,0,0,.8,1.55,2,2,0,0,0,2.29.14C68.56,122.2,68.66,122.1,68.67,122.11Z" style="fill: #263238"/>
        </g>
      </g>
    </g>
  </g>
  <g>
    <g>
      <g>
        <rect x="30.79" y="15.6" width="147.26" height="59.24" rx="8.89" style="fill: #fff"/>
        <path d="M169.17,74.85l.26,0c.17,0,.43,0,.76-.06a8.94,8.94,0,0,0,2.86-.87,8.75,8.75,0,0,0,3.56-3.22,8.59,8.59,0,0,0,1.17-2.85,17.47,17.47,0,0,0,.19-3.53c0-5,0-11.19,0-18.34,0-3.57,0-7.4,0-11.45,0-2,0-4.11,0-6.25V25a9.66,9.66,0,0,0-.45-3.24,8.7,8.7,0,0,0-4.29-5,8.61,8.61,0,0,0-3.35-.94c-1.18-.06-2.41,0-3.63,0H150.87l-33.78,0H39.69A8.68,8.68,0,0,0,31.78,21a8.55,8.55,0,0,0-.67,2.37,20.59,20.59,0,0,0-.09,2.5V65a9.85,9.85,0,0,0,.74,4.49,8.73,8.73,0,0,0,6.94,5.1c.74.07,1.5.06,2.26.06h6.75l63.21.05,42.62.08,11.59,0,3,0,1,0-1,0-3,0-11.59,0L110.92,75l-63.21,0H41a22.22,22.22,0,0,1-2.3-.06,9.14,9.14,0,0,1-7.3-5.35A10.27,10.27,0,0,1,30.57,65V50.61q0-9.7,0-19.75v-5a22.14,22.14,0,0,1,.09-2.56,9,9,0,0,1,.71-2.49,9.12,9.12,0,0,1,8.33-5.41l77.4,0,33.78,0h15.31c1.23,0,2.43,0,3.66,0a9,9,0,0,1,7.92,6.2,9.83,9.83,0,0,1,.45,3.34v3.25c0,2.14,0,4.22,0,6.25,0,4,0,7.88,0,11.45,0,7.15,0,13.3,0,18.34a16.48,16.48,0,0,1-.21,3.56,8.61,8.61,0,0,1-1.2,2.9A8.93,8.93,0,0,1,173.09,74a9.11,9.11,0,0,1-2.89.83C169.52,74.86,169.17,74.85,169.17,74.85Z" style="fill: #263238"/>
      </g>
      <g>
        <path d="M157.53,58h0a10,10,0,0,1-9.26-10.69h0A10,10,0,0,1,159,38h0a10,10,0,0,1,9.26,10.69h0A10,10,0,0,1,157.53,58Z" style="fill: #f43f5e"/>
        <polygon points="157.64 53.23 151.64 48.56 153.27 46.47 157.29 49.6 163.05 43.02 165.05 44.77 157.64 53.23" style="fill: #fff"/>
      </g>
      <rect x="91.5" y="43.36" width="49.67" height="12.05" rx="6.03" style="fill: #e0e0e0"/>
    </g>
    <g>
      <g>
        <circle cx="63.3" cy="46" r="22.6" transform="translate(-14.91 48.45) rotate(-37.8)" style="fill: #fff"/>
        <path d="M43.23,56.12l.19.32.54.93.4.69c.15.25.35.51.54.79a16.09,16.09,0,0,0,1.47,1.89A21.26,21.26,0,0,0,51.28,65a22.65,22.65,0,0,0,18.39,2.8,21.41,21.41,0,0,0,2.71-1c.44-.2.9-.37,1.34-.6L75,65.53c.22-.12.45-.23.66-.37l.62-.44c.41-.3.85-.57,1.25-.89a23,23,0,0,0,2.31-2.12,23.41,23.41,0,0,0,2.07-2.46c.31-.45.59-.92.89-1.38a11.86,11.86,0,0,0,.81-1.44A26.47,26.47,0,0,0,85,53.35,26.14,26.14,0,0,0,85.8,50,21.87,21.87,0,0,0,86,43a22.41,22.41,0,0,0-6.29-12.77L78.38,29,77,27.93a5.79,5.79,0,0,0-.72-.5L75.53,27l-.73-.47L74,26.1a24.26,24.26,0,0,0-3.14-1.37,24.94,24.94,0,0,0-3.25-.82A10.3,10.3,0,0,0,66,23.67c-.55-.05-1.09-.11-1.63-.14a26.17,26.17,0,0,0-3.21.14,24,24,0,0,0-3.09.54c-.5.13-1,.3-1.48.45l-.72.23c-.24.08-.47.19-.7.29l-1.37.59c-.45.21-.87.47-1.3.7A18.87,18.87,0,0,0,50.07,28a22.72,22.72,0,0,0-9,16.27,21.58,21.58,0,0,0,.4,6.52,15,15,0,0,0,.61,2.31c.1.33.19.64.29.91l.31.74.41,1c.09.22.13.34.13.34s-.06-.11-.16-.33-.26-.56-.45-1c-.09-.22-.2-.46-.32-.73s-.19-.58-.31-.91a17.18,17.18,0,0,1-.64-2.32,21.89,21.89,0,0,1-.46-6.55A22.63,22.63,0,0,1,52.35,26.22c.43-.23.86-.5,1.31-.71l1.39-.6c.24-.1.47-.21.71-.3l.73-.23c.5-.15,1-.33,1.49-.46a25.19,25.19,0,0,1,6.39-.7c.55,0,1.1.09,1.65.14a10.38,10.38,0,0,1,1.66.24,24.65,24.65,0,0,1,3.31.83,25.46,25.46,0,0,1,3.18,1.38l.79.4.74.47.75.48a6,6,0,0,1,.73.51l1.41,1.11L79.9,30a24.72,24.72,0,0,1,4.25,6,24.48,24.48,0,0,1,2.12,7,21.93,21.93,0,0,1-.15,7.1,26.77,26.77,0,0,1-.84,3.37,26.48,26.48,0,0,1-1.36,3.12A12.32,12.32,0,0,1,83.1,58c-.31.46-.59.94-.91,1.39a24,24,0,0,1-2.1,2.49,24.71,24.71,0,0,1-2.34,2.14c-.42.32-.86.6-1.28.9l-.63.44c-.21.15-.44.26-.66.39l-1.33.73c-.44.23-.91.4-1.36.6a20.84,20.84,0,0,1-2.74,1,22.79,22.79,0,0,1-18.57-2.9,21.66,21.66,0,0,1-4.91-4.36,16.69,16.69,0,0,1-1.45-1.92c-.19-.29-.38-.55-.53-.8l-.39-.71-.51-.95C43.28,56.24,43.23,56.12,43.23,56.12Z" style="fill: #263238"/>
      </g>
      <path d="M46.37,60.74l8.67-3,13.84-.53,12.76,2.45S75.45,69.24,64,68.91A24.43,24.43,0,0,1,46.37,60.74Z" style="fill: #f43f5e"/>
      <g>
        <path d="M72.64,26.19c2.92.06,5.42,4.41,5,6.85-.21,1.19-.75,2.55.21,3.43s3,.8,3.86,1.69a3.73,3.73,0,0,1,1,2.66c-.13,1.5.12,3.49,1.31,4L78.1,47c-.61-.61-.86-1.59-1.47-2.21.7.65,1.38,3-1.79,3.22l-2-1.74c-5.4,1.39-11.07,3.11-15.38.76" style="fill: #263238"/>
        <path d="M45.16,39.16a33.57,33.57,0,0,0,1.3-3.32c.58-2.48-.59-5.32.67-7.54.89-1.59,2.74-2.34,4.49-2.84s3.42-.8,4.74-2.05c1-.91,1.53-2.19,2.49-3.11a8,8,0,0,1,5.28-1.81,11.3,11.3,0,0,1,5.69,1A6.24,6.24,0,0,1,73.26,24a17.86,17.86,0,0,0,.28,2.84,19.26,19.26,0,0,0,1.53,2.72,5,5,0,0,1-1.36,6L60,52.54c-2.83,1-5.9-2.59-8-4.7S44.17,42,45.16,39.16Z" style="fill: #263238"/>
        <path d="M73.4,33.33c-.48-3.94-3.37-8.63-7.28-8L54,29.16c-1.18.19-1.82,1.14-2.23,1l3.54,28.13,8.3,5.88L68.79,58s-.38-3.86-.38-3.84,5-1.13,5.66-7.76C74.4,43.05,73.93,37.69,73.4,33.33Z" style="fill: #ffbf9d"/>
        <g>
          <g>
            <g>
              <path d="M62.81,39.31a.86.86,0,0,1-.77.9.81.81,0,0,1-.91-.71.84.84,0,0,1,.76-.9A.81.81,0,0,1,62.81,39.31Z" style="fill: #263238"/>
              <path d="M71.14,38.89a.85.85,0,0,1-.77.9.81.81,0,0,1-.91-.71.84.84,0,0,1,.76-.9A.81.81,0,0,1,71.14,38.89Z" style="fill: #263238"/>
              <path d="M72.62,36.33c-.1.15-.87-.36-1.85-.23s-1.63.78-1.76.66,0-.32.3-.63a2.3,2.3,0,0,1,1.38-.7,2.27,2.27,0,0,1,1.5.36C72.53,36,72.67,36.26,72.62,36.33Z" style="fill: #263238"/>
            </g>
            <path d="M63.62,37.15c-.12.14-.88-.43-1.93-.41s-1.82.61-1.94.47.06-.31.39-.58a2.58,2.58,0,0,1,1.55-.54,2.48,2.48,0,0,1,1.54.49C63.56,36.84,63.68,37.09,63.62,37.15Z" style="fill: #263238"/>
            <path d="M67.17,43.41a6.07,6.07,0,0,1,1.45-.35c.23,0,.45-.1.48-.26a1.14,1.14,0,0,0-.19-.68c-.25-.55-.52-1.12-.79-1.72a30.43,30.43,0,0,1-1.81-4.53,30.51,30.51,0,0,1,2.17,4.37c.26.61.52,1.19.76,1.74a1.35,1.35,0,0,1,.17.9.56.56,0,0,1-.36.36,1.29,1.29,0,0,1-.39.08A6.2,6.2,0,0,1,67.17,43.41Z" style="fill: #263238"/>
            <path d="M68.41,54.11a16.77,16.77,0,0,1-8.94-1.84S62,57,68.51,56Z" style="fill: #ff9a6c"/>
            <path d="M66.91,45.62a1.63,1.63,0,0,0-1.5-.53,1.51,1.51,0,0,0-1,.62.93.93,0,0,0,0,1.08,1.12,1.12,0,0,0,1.21.24,3.64,3.64,0,0,0,1.12-.76A1.32,1.32,0,0,0,67,46a.32.32,0,0,0,0-.34" style="fill: #f43f5e"/>
            <path d="M64.53,44.19c.15,0,.21,1,1.09,1.62s1.93.48,1.94.62-.22.2-.66.24a2.44,2.44,0,0,1-1.62-.46,2.15,2.15,0,0,1-.85-1.36C64.37,44.44,64.46,44.19,64.53,44.19Z" style="fill: #263238"/>
          </g>
          <path d="M63.59,34.06c-.07.25-1,.19-2,.38s-1.9.53-2.06.32.07-.35.4-.61a3.61,3.61,0,0,1,1.5-.62,3.38,3.38,0,0,1,1.63.1C63.42,33.76,63.63,33.94,63.59,34.06Z" style="fill: #263238"/>
          <path d="M72.34,33.06c-.17.21-.9,0-1.76.08s-1.58.23-1.76,0,0-.31.33-.52A2.88,2.88,0,0,1,72,32.55C72.3,32.74,72.41,33,72.34,33.06Z" style="fill: #263238"/>
        </g>
        <path d="M41.27,37.9c.62-1.15-.58-2.43.38-3.49s3.16-1,4-2a2.1,2.1,0,0,0,.68-1.69c0-.91.44-4.7,6-5.47l.77,3.45c.34-.16.7-.3,1.06-.43A60.5,60.5,0,0,1,68.1,25a2.44,2.44,0,0,1-.9,3,11,11,0,0,1-3.14,1.34,4.24,4.24,0,0,0-2.65,2c-.49,1.11-.12,2.44-.55,3.58-.75,1.95-3.51,2.54-4.24,4.49-.56,1.48.91,3.18,1.1,4.75.21,1.78.58,4.53-.75,5.74a33,33,0,0,1-3.11,2.34L37.52,42C36.67,39.92,40.41,39.47,41.27,37.9Z" style="fill: #263238"/>
      </g>
      <path d="M52.87,50.54a4.6,4.6,0,0,0,1.28-.44,6.43,6.43,0,0,0,2.69-2.46,6.61,6.61,0,0,0,.83-2.41,6.52,6.52,0,0,0-.27-2.91c-.15-.49-.34-1-.46-1.49a3.51,3.51,0,0,1,0-1.58A1.93,1.93,0,0,1,57.83,38a9.17,9.17,0,0,1,1.59-.68,3.34,3.34,0,0,0,1.49-1,3,3,0,0,0,.57-1.64,11,11,0,0,1,.28-3.15l.07-.17.09-.16a1.54,1.54,0,0,1,.21-.29,2.63,2.63,0,0,1,.54-.46A5.18,5.18,0,0,1,63.94,30a9.12,9.12,0,0,0,2.39-.88,5.16,5.16,0,0,0,1.51-1.46,5,5,0,0,0,.69-1.43,4.48,4.48,0,0,0,.18-1,1.55,1.55,0,0,0,0-.35,6.19,6.19,0,0,1-.26,1.31,5.43,5.43,0,0,1-.7,1.38,5.22,5.22,0,0,1-1.5,1.4,9.59,9.59,0,0,1-2.36.84,5.48,5.48,0,0,0-1.32.54,2.75,2.75,0,0,0-.59.49,2.62,2.62,0,0,0-.23.32l-.1.17-.08.18a10.72,10.72,0,0,0-.3,3.21,2.75,2.75,0,0,1-.52,1.52,3.24,3.24,0,0,1-1.41.9,9.32,9.32,0,0,0-1.62.7,2.37,2.37,0,0,0-.67.59,2.22,2.22,0,0,0-.36.8,3.61,3.61,0,0,0,.05,1.67c.13.53.32,1,.47,1.51a6.38,6.38,0,0,1-.5,5.18A6.56,6.56,0,0,1,54.11,50a7.37,7.37,0,0,1-.91.39Z" style="fill: #263238"/>
      <path d="M72,26.51s.35-.11,1-.17A4.65,4.65,0,0,1,78,30a8.3,8.3,0,0,1,.09,2.4c0,.43-.08.85-.12,1.29a4.46,4.46,0,0,0,0,1.36,1.62,1.62,0,0,0,.79,1.13,2.76,2.76,0,0,0,1.31.23,4.75,4.75,0,0,1,1.21.1,3,3,0,0,1,1,.51,2.92,2.92,0,0,1,1.12,1.78,6,6,0,0,1,0,1.89,14.29,14.29,0,0,0-.15,1.59,4.16,4.16,0,0,0,.14,1.2,2.74,2.74,0,0,0,.32.7l.12.15,0,0a3.33,3.33,0,0,1-.41-.92,4.19,4.19,0,0,1-.1-1.18,14.85,14.85,0,0,1,.18-1.57,6,6,0,0,0,0-1.95,3.08,3.08,0,0,0-1.17-1.89,3,3,0,0,0-1.09-.55,5,5,0,0,0-1.27-.12A2.58,2.58,0,0,1,78.91,36a1.43,1.43,0,0,1-.68-1,10.14,10.14,0,0,1,.07-2.58A8.72,8.72,0,0,0,78.19,30a4.79,4.79,0,0,0-2.47-3.25A4.74,4.74,0,0,0,73,26.25a4.28,4.28,0,0,0-.75.17A1.68,1.68,0,0,0,72,26.51Z" style="fill: #263238"/>
      <path d="M44.46,46.17a.49.49,0,0,0,0-.11,2.28,2.28,0,0,1-.1-.29,2.64,2.64,0,0,1,0-1.2,2.92,2.92,0,0,1,.9-1.64,2.38,2.38,0,0,1,1-.57c.41-.12.86-.15,1.32-.31a2,2,0,0,0,.64-.37,1.7,1.7,0,0,0,.42-.65,3.72,3.72,0,0,0,.2-1.6,8.86,8.86,0,0,1,0-1.71,2.1,2.1,0,0,1,.28-.83,2.07,2.07,0,0,1,.62-.63,6.08,6.08,0,0,1,1.78-.64,5.69,5.69,0,0,0,1.89-.69,2.31,2.31,0,0,0,.72-.77,3.2,3.2,0,0,0,.34-1c.14-.7.14-1.42.27-2.12a4.12,4.12,0,0,1,2.56-3,6.8,6.8,0,0,1,1.95-.32,5.35,5.35,0,0,0,1-.18A2.06,2.06,0,0,0,61,27a4.29,4.29,0,0,0,.82-1.64,4.18,4.18,0,0,1,.86-1.46,4.29,4.29,0,0,1,2.66-1.36,3.94,3.94,0,0,1,2.42.52,4.5,4.5,0,0,1,1.39,1.29,4,4,0,0,1,.54,1.09,2.32,2.32,0,0,1,.08.3l0,.1a2.18,2.18,0,0,0-.09-.41,3.76,3.76,0,0,0-.51-1.1A4.5,4.5,0,0,0,67.76,23a4,4,0,0,0-2.47-.56,4.3,4.3,0,0,0-3.62,2.88,4,4,0,0,1-.8,1.59,2.69,2.69,0,0,1-1.72.63,6.91,6.91,0,0,0-2,.33A4.2,4.2,0,0,0,54.52,31c-.13.71-.13,1.43-.27,2.11a2.93,2.93,0,0,1-.33,1,2.13,2.13,0,0,1-.68.72c-1.13.73-2.56.64-3.66,1.34a2.22,2.22,0,0,0-.66.67,2.35,2.35,0,0,0-.29.87,8.28,8.28,0,0,0,0,1.73A3.88,3.88,0,0,1,48.48,41a1.8,1.8,0,0,1-.4.61,1.75,1.75,0,0,1-.6.35c-.44.16-.9.2-1.31.32a2.51,2.51,0,0,0-1.05.59,3,3,0,0,0-.9,1.69,2.76,2.76,0,0,0,.07,1.21,2,2,0,0,0,.12.3Z" style="fill: #455a64"/>
    </g>
  </g>
  <g>
    <path d="M394.51-30.63s-9.22,1.71-3,21.49,11.1,29.9,11.1,29.9.92,4.5-2.8,4.54S388.34,22.72,386,26.79c-2.47,4.22.1,9,6.17,13.93s19,16.07,20.14,17.09,2.08,3.18-.45,3.6-20.7-.81-20.78,7.72,19.1,19.4,21.18,20.63,2.44,2.25,2,3.42-6.46.19-11.64,0-11.22.59-10.85,5.52,10.75,16.92,39.72,24.83l13.67,2.8,9.52-10.15c19-23,20.46-38.66,17.88-42.89s-7.94-1.4-12.09,1.67-8.53,7.32-9.54,6.59-1.3-1.77-.33-4,10.27-22,5.21-28.9-19.18,4.44-21.5,5.53-2.83-1.22-2.48-2.68,4.34-18,6.43-25.42,1.37-12.84-3.11-14.88c-4.33-2-9.1,4.55-12.15,6.64s-4.95-2.11-4.95-2.11-1.91-11.06-8.45-30.73-15.27-15.68-15.27-15.68" style="fill: #ebebeb"/>
    <path d="M445.31,129.69c-4.75-14.46-12.75-40.31-19.74-62.46s-13.32-42.2-18-56.69C405.23,3.32,403.34-2.54,402-6.61l-1.51-4.66-.38-1.22-.12-.42a3.46,3.46,0,0,1,.16.41c.1.29.24.69.43,1.2.36,1.08.9,2.64,1.58,4.64,1.37,4,3.31,9.88,5.68,17.11C412.61,24.92,419,45,426,67.1s14.94,48,19.61,62.5" style="fill: #e0e0e0"/>
    <path d="M396.6,30.87a5.21,5.21,0,0,1,.91.43c.58.3,1.39.75,2.4,1.32,2,1.15,4.74,2.8,7.72,4.67l7.62,4.83,2.31,1.44a3.89,3.89,0,0,1,.83.57,4.62,4.62,0,0,1-.91-.42c-.58-.3-1.4-.75-2.39-1.34-2-1.16-4.71-2.84-7.69-4.72l-7.65-4.77-2.32-1.44A3.89,3.89,0,0,1,396.6,30.87Z" style="fill: #e0e0e0"/>
    <path d="M419.49,43.43c-.11-.06,3.1-5.76,7.16-12.74s7.44-12.57,7.54-12.52-3.1,5.76-7.16,12.74S419.59,43.48,419.49,43.43Z" style="fill: #e0e0e0"/>
    <path d="M428.66,77.92a5,5,0,0,1,.7-.74l2-1.91c1.7-1.62,4-3.87,6.53-6.44s4.68-5,6.24-6.72c.74-.82,1.36-1.51,1.85-2.07a4.57,4.57,0,0,1,.72-.73,3.72,3.72,0,0,1-.59.84c-.4.52-1,1.26-1.75,2.16-1.5,1.8-3.65,4.24-6.15,6.81s-4.88,4.8-6.64,6.37c-.88.78-1.6,1.4-2.11,1.81A4.91,4.91,0,0,1,428.66,77.92Z" style="fill: #e0e0e0"/>
    <path d="M405.42,71.06a3.75,3.75,0,0,1,.93.17l2.51.64c2.11.55,5,1.35,8.23,2.25s6.11,1.75,8.2,2.38l2.47.76a4.51,4.51,0,0,1,.89.34,3.49,3.49,0,0,1-.93-.18l-2.51-.63c-2.12-.56-5-1.35-8.24-2.26s-6.1-1.74-8.19-2.37l-2.47-.77A4.65,4.65,0,0,1,405.42,71.06Z" style="fill: #e0e0e0"/>
    <path d="M409.58,102.52a7.9,7.9,0,0,1,1.2.24l3.22.81c2.71.69,6.45,1.68,10.57,2.8s7.85,2.16,10.54,2.93l3.19.94a7.93,7.93,0,0,1,1.15.39,5.93,5.93,0,0,1-1.2-.23l-3.22-.81c-2.71-.69-6.45-1.69-10.57-2.81s-7.85-2.15-10.54-2.92l-3.19-.94A7.11,7.11,0,0,1,409.58,102.52Z" style="fill: #e0e0e0"/>
    <path d="M438.79,110.24a7.81,7.81,0,0,1,.87-1l2.47-2.52c2.08-2.13,4.95-5.08,8-8.42s5.78-6.44,7.72-8.7l2.3-2.67a6.73,6.73,0,0,1,.89-1,8,8,0,0,1-.76,1c-.5.66-1.25,1.61-2.19,2.76-1.89,2.31-4.56,5.44-7.64,8.79s-6,6.28-8.12,8.35c-1.08,1-2,1.87-2.57,2.43A8,8,0,0,1,438.79,110.24Z" style="fill: #e0e0e0"/>
  </g>
  <g>
    <path d="M486.22,219.53H370.78a5.2,5.2,0,0,1-5.2-5.2V182.75a5.2,5.2,0,0,1,5.2-5.2H486.22a5.2,5.2,0,0,1,5.2,5.2v31.58A5.2,5.2,0,0,1,486.22,219.53Zm-115.44-41a4.21,4.21,0,0,0-4.2,4.2v31.58a4.21,4.21,0,0,0,4.2,4.2H486.22a4.2,4.2,0,0,0,4.2-4.2V182.75a4.2,4.2,0,0,0-4.2-4.2Z" style="fill: #e0e0e0"/>
    <path d="M397.35,196.07a9.35,9.35,0,1,0-17.41,4.73h0l0,0c.36.6.81,1,1.26,1.67l5.43,7.19a1.69,1.69,0,0,0,2.7,0l5.34-7.07a20.46,20.46,0,0,0,1.35-1.8l0,0h0A9.26,9.26,0,0,0,397.35,196.07ZM388,200.14a4.12,4.12,0,1,1,4.12-4.11A4.11,4.11,0,0,1,388,200.14Z" style="fill: #f43f5e"/>
    <rect x="411.72" y="193.36" width="67.77" height="11.1" rx="4.95" style="fill: #e0e0e0"/>
  </g>
  <g>
    <g>
      <path d="M360,118.46c0-4.21,3.23-7.21,7.62-7.21a7.36,7.36,0,0,1,6,2.62l-2.5,2.26a4.1,4.1,0,0,0-3.27-1.63,4,4,0,0,0,0,7.93,4.1,4.1,0,0,0,3.27-1.63l2.5,2.26a7.36,7.36,0,0,1-6,2.61C363.21,125.67,360,122.68,360,118.46Z" style="fill: #f43f5e"/>
      <path d="M374.3,118.46c0-4.16,3.27-7.21,7.7-7.21s7.71,3,7.71,7.21-3.27,7.21-7.71,7.21S374.3,122.62,374.3,118.46Zm11.45,0a3.75,3.75,0,1,0-3.75,4A3.72,3.72,0,0,0,385.75,118.46Z" style="fill: #f43f5e"/>
      <path d="M405,111.53V125.4h-3.23L395.61,118v7.39h-3.84V111.53H395l6.12,7.39v-7.39Z" style="fill: #f43f5e"/>
      <path d="M411.65,114.56v3h6.12v3h-6.12v4.76h-3.92V111.53H418.6v3Z" style="fill: #f43f5e"/>
      <path d="M420.44,111.53h3.93V125.4h-3.93Z" style="fill: #f43f5e"/>
      <path d="M433.22,121.71h-2.14v3.69h-3.92V111.53h6.34c3.78,0,6.16,2,6.16,5.13a4.61,4.61,0,0,1-2.72,4.38l3,4.36h-4.2Zm0-7.09h-2.18v4.06h2.18c1.62,0,2.43-.75,2.43-2S434.88,114.62,433.26,114.62Z" style="fill: #f43f5e"/>
      <path d="M454.33,125.4l0-7.35-3.56,6H449l-3.54-5.78v7.15h-3.63V111.53H445l4.87,8,4.76-8h3.23l0,13.87Z" style="fill: #f43f5e"/>
      <path d="M471.84,122.37v3H460.71V111.53h10.87v3h-7v2.34h6.16v2.93h-6.16v2.54Z" style="fill: #f43f5e"/>
      <path d="M474,111.53h6.55c4.6,0,7.75,2.68,7.75,6.93s-3.15,6.94-7.75,6.94H474Zm6.39,10.74a3.81,3.81,0,1,0,0-7.61h-2.47v7.61Z" style="fill: #f43f5e"/>
    </g>
    <g>
      <path d="M377.56,141.55h-5.85l-1.26,2.81H369.3l4.8-10.5h1.09l4.8,10.5h-1.17Zm-.4-.9L374.64,135l-2.52,5.64Z" style="fill: #f43f5e"/>
      <path d="M383.25,134.82h-3.69v-1h8.49v1h-3.69v9.54h-1.11Z" style="fill: #f43f5e"/>
      <path d="M392,134.82h-3.69v-1h8.49v1h-3.69v9.54H392Z" style="fill: #f43f5e"/>
      <path d="M406,143.4v1h-7.42v-10.5h7.19v1h-6.09v3.73h5.43v.95h-5.43v3.9Z" style="fill: #f43f5e"/>
      <path d="M417.38,133.86v10.5h-.91l-6.75-8.52v8.52h-1.11v-10.5h.91l6.77,8.52v-8.52Z" style="fill: #f43f5e"/>
      <path d="M420.8,133.86h4.28c3.36,0,5.62,2.16,5.62,5.25s-2.26,5.25-5.62,5.25H420.8ZM425,143.4c2.79,0,4.59-1.77,4.59-4.29s-1.8-4.29-4.59-4.29h-3.11v8.58Z" style="fill: #f43f5e"/>
      <path d="M439.63,141.55h-5.85l-1.26,2.81h-1.16l4.8-10.5h1.1l4.8,10.5h-1.17Zm-.41-.9L436.7,135l-2.52,5.64Z" style="fill: #f43f5e"/>
      <path d="M452.57,133.86v10.5h-.91l-6.75-8.52v8.52H443.8v-10.5h.91l6.77,8.52v-8.52Z" style="fill: #f43f5e"/>
      <path d="M455.06,139.11a5.27,5.27,0,0,1,5.5-5.34,5.07,5.07,0,0,1,3.84,1.53l-.7.7a4.17,4.17,0,0,0-3.1-1.24,4.35,4.35,0,1,0,0,8.7,4.15,4.15,0,0,0,3.1-1.26l.7.7a5.09,5.09,0,0,1-3.85,1.55A5.27,5.27,0,0,1,455.06,139.11Z" style="fill: #f43f5e"/>
      <path d="M474.2,143.4v1h-7.43v-10.5H474v1h-6.09v3.73h5.43v.95h-5.43v3.9Z" style="fill: #f43f5e"/>
    </g>
    <rect x="375.82" y="156.63" width="96.66" height="9.57" rx="4.27" style="fill: #e0e0e0"/>
  </g>
  <g>
    <g>
      <path d="M481.59,47.82,409.42,36.24a6.67,6.67,0,0,0-7.66,5.54L390.17,114a6.7,6.7,0,0,0,5.54,7.66l2.16.35L418,125.18l49.93,8a6.67,6.67,0,0,0,7.66-5.54l11.59-72.17A6.7,6.7,0,0,0,481.59,47.82Z" style="fill: #fff"/>
      <g>
        <path d="M400.11,41.86h86.47a0,0,0,0,1,0,0V63.57A5.58,5.58,0,0,1,481,69.16H405.92a5.82,5.82,0,0,1-5.82-5.82V41.86a0,0,0,0,1,0,0Z" transform="translate(872.28 180.57) rotate(-170.88)" style="fill: #f43f5e"/>
        <g>
          <path d="M433.77,79l-4.66,29L422.39,107l3.8-23.63-5.81-.93.87-5.39Z" style="fill: #263238"/>
          <path d="M461.55,83.47l-.7,4.36-14.74,22.94-7.3-1.17L453,87.72l-9.62-1.55-.76,4.73-6-1,1.64-10.2Z" style="fill: #263238"/>
        </g>
        <path d="M431.12,55.41c0,.15,5.83,1.21,13.06,2.37s13.12,2,13.15,1.83-5.83-1.21-13.06-2.37S431.15,55.26,431.12,55.41Z" style="fill: #263238"/>
      </g>
    </g>
    <path d="M481.59,47.82a5.9,5.9,0,0,1,.84.18,6.22,6.22,0,0,1,2.26,1.14,6.73,6.73,0,0,1,2.56,6c-.11.94-.29,1.92-.45,3-1.32,8.37-3.24,20.46-5.6,35.39-1.19,7.47-2.5,15.65-3.9,24.44-.35,2.19-.7,4.43-1.06,6.7-.19,1.13-.35,2.27-.57,3.43a6.83,6.83,0,0,1-4.74,5.13,7.4,7.4,0,0,1-3.68.12l-7.32-1.17-64.25-10.3a7,7,0,0,1-5.77-6,7.3,7.3,0,0,1,.07-2.19l.33-2.1c.23-1.39.45-2.79.67-4.17q1.35-8.32,2.64-16.4l5-31c.79-4.94,1.57-9.76,2.32-14.43.19-1.17.38-2.33.56-3.49a9.72,9.72,0,0,1,.43-1.73,7.15,7.15,0,0,1,.85-1.56A6.89,6.89,0,0,1,408.82,36c8.82,1.37,17,2.73,24.45,3.93l35.36,5.75,9.61,1.59,2.5.42.85.16-.86-.11-2.5-.38-9.63-1.5-35.39-5.6c-7.46-1.18-15.66-2.53-24.42-3.86a6.59,6.59,0,0,0-3.17.59,6.61,6.61,0,0,0-3.32,3.57,8.12,8.12,0,0,0-.4,1.65c-.18,1.15-.37,2.31-.56,3.48-.74,4.68-1.51,9.5-2.3,14.43l-5,31q-1.31,8.05-2.63,16.39c-.22,1.39-.45,2.78-.67,4.18a16,16,0,0,0-.4,4.16,6.49,6.49,0,0,0,5.38,5.56L460,131.71l7.31,1.18a7.13,7.13,0,0,0,3.5-.1,6.49,6.49,0,0,0,4.46-4.81c.22-1.13.38-2.29.57-3.42q.54-3.41,1.08-6.7c1.42-8.77,2.74-17,3.95-24.42,2.43-14.92,4.39-27,5.75-35.37.16-1,.35-2,.47-3a6.74,6.74,0,0,0-.22-2.57,6.64,6.64,0,0,0-2.24-3.34A6.44,6.44,0,0,0,482.42,48a5.2,5.2,0,0,0-.62-.16Z" style="fill: #263238"/>
    <g>
      <rect x="422.89" y="38.46" width="19.53" height="5.63" rx="2.72" transform="translate(323.29 461.9) rotate(-80.88)" style="fill: #e0e0e0"/>
      <path d="M431,50.9a3.48,3.48,0,0,1-1.47-.9,2.62,2.62,0,0,1-.66-1.84c.08-.77.29-1.72.45-2.73.35-2.06.76-4.48,1.21-7.15l.69-4.23a2.47,2.47,0,0,1,3-2.13,2.47,2.47,0,0,1,1.69,1.13,2.64,2.64,0,0,1,.29,2c-.23,1.47-.46,2.88-.67,4.23-.41,2.68-.77,5.1-1.09,7.18-.07.5-.14,1-.21,1.45a7.86,7.86,0,0,1-.24,1.26,2.71,2.71,0,0,1-1.3,1.46,3.65,3.65,0,0,1-1.71.28,1.1,1.1,0,0,0,.46.11,2.65,2.65,0,0,0,1.34-.2,2.86,2.86,0,0,0,1.5-1.54A6.23,6.23,0,0,0,434.6,48c.09-.46.17-1,.26-1.45.35-2.07.75-4.49,1.21-7.15.22-1.35.45-2.77.69-4.23a3.12,3.12,0,0,0-.36-2.37,3,3,0,0,0-2.07-1.39,3.07,3.07,0,0,0-2.42.51A3,3,0,0,0,430.7,34c-.23,1.46-.45,2.88-.66,4.23-.41,2.67-.78,5.1-1.1,7.17-.13,1-.31,1.92-.37,2.78a2.82,2.82,0,0,0,.81,2,2.71,2.71,0,0,0,1.16.7A1.13,1.13,0,0,0,431,50.9Z" style="fill: #263238"/>
    </g>
    <g>
      <rect x="448.95" y="42.64" width="19.53" height="5.63" rx="2.72" transform="translate(341.09 491.16) rotate(-80.88)" style="fill: #e0e0e0"/>
      <path d="M457.07,55.08a3.48,3.48,0,0,1-1.47-.9,2.62,2.62,0,0,1-.66-1.84c.09-.77.29-1.72.45-2.73.35-2.06.76-4.48,1.21-7.15.22-1.35.46-2.76.7-4.22a2.44,2.44,0,0,1,1-1.73,2.52,2.52,0,0,1,2-.41A2.45,2.45,0,0,1,462,37.23a2.61,2.61,0,0,1,.29,2c-.23,1.46-.45,2.88-.67,4.23-.4,2.67-.77,5.1-1.09,7.17-.07.51-.14,1-.21,1.46a6.77,6.77,0,0,1-.24,1.25,2.64,2.64,0,0,1-1.3,1.46,3.65,3.65,0,0,1-1.71.28,1.19,1.19,0,0,0,.46.12,2.68,2.68,0,0,0,1.34-.21,2.79,2.79,0,0,0,1.5-1.54,6.94,6.94,0,0,0,.3-1.31c.08-.46.16-.94.25-1.45.35-2.06.76-4.48,1.21-7.15l.69-4.23a3.12,3.12,0,0,0-.35-2.37,3.09,3.09,0,0,0-5.71,1.21l-.66,4.23c-.41,2.68-.78,5.1-1.09,7.17-.14,1-.32,1.92-.38,2.78a2.84,2.84,0,0,0,.81,2,2.54,2.54,0,0,0,1.17.69A1.08,1.08,0,0,0,457.07,55.08Z" style="fill: #263238"/>
    </g>
  </g>
  <g>
    <g>
      <circle cx="279.68" cy="136.11" r="70.23" transform="translate(-17.24 43.45) rotate(-8.62)" style="fill: #f5f5f5"/>
      <g>
        <g>
          <path d="M340.54,122.54l.8,29.9L330.68,136l-25-.24,5.59,9.9c5.83,8.66,9.37,15.93,17.05,24.24,3.82,4.14,7.38,9.92,9.12,11.14,4.17,2.91,10.42,5.26,15.85.55,7.58-6.55,6.68-19.17,4.29-32.06-2.66-14.31-4.05-28.11-4.05-28.11Z" style="fill: #ffbf9d"/>
          <path d="M343.49,104.44s-2.3-4.45-4.13-4-4.3,2-4.6,3.53.1,2.83.79,2.78a11.21,11.21,0,0,0,2.71-1.39l2.34,3.29-1,4.16L337.12,114l-1.4-2.91.57-3.28s-1.65-1.4-2.58,1.22-2,7.37.66,9.66A78.87,78.87,0,0,0,342,124.1l12-1L356.84,109s4.77-4.85,5.08-6.83.57-8,.57-8a1.45,1.45,0,0,0-2.27.61c-.82,1.67-1.62,6.56-1.62,6.56l-4,3.85,1.57-17.26s-2.4-1.55-3.39,2.32-2.06,13.47-2.54,13.47-1.94,0-1.73-2-.45-17.38-.45-17.38-3.45.75-3.24,4,.09,13.42,0,14.19S343.49,104.44,343.49,104.44Z" style="fill: #ffbf9d"/>
          <path d="M343.48,167.12a38.2,38.2,0,0,1-1.47-7.33,37.87,37.87,0,0,1-.54-7.5,72.34,72.34,0,0,1,1.11,7.4A70.94,70.94,0,0,1,343.48,167.12Z" style="fill: #ff9a6c"/>
          <path d="M346.87,119.12c-.09,0-.27-.47-.69-1.18a7.86,7.86,0,0,0-2.14-2.36,8,8,0,0,0-2.91-1.31c-.8-.18-1.33-.19-1.34-.29a2.48,2.48,0,0,1,1.41-.11,6.82,6.82,0,0,1,5.34,3.88C346.9,118.56,346.93,119.11,346.87,119.12Z" style="fill: #ff9a6c"/>
        </g>
        <g>
          <polygon points="253.96 119.7 270.05 118.07 297.4 119.27 309.85 123.56 292.52 141.1 269.63 138.25 259.36 132.43 253.96 119.7" style="fill: #ffbf9d"/>
          <g>
            <path d="M290.09,51.53c2.82-1.79,3.5-5.94,2-8.91s-4.77-4.77-8.07-5.3a15.38,15.38,0,0,0-13.24,4.38c-1.82,1.88-3.29,4.32-5.76,5.18-2.16.75-4.56.07-6.84.37a10.29,10.29,0,0,0-7.23,5.21,22.19,22.19,0,0,0-2.57,8.8c-.34,2.8-.55,5.88-2.5,7.93S241,71.61,238.59,73a9.92,9.92,0,0,0-2.94,13.56c.93,1.37,2.27,2.62,2.38,4.26s-.87,2.85-1.33,4.29a6.7,6.7,0,0,0,5.74,8.32c1.95.11,4.05-.65,5.8.23s2.4,3,3.51,4.56A8.38,8.38,0,0,0,262,110.89c1.44-.7,2.8-1.87,4.4-1.76s2.85,1.47,4.42,1.77c2.06.4,4-1.11,5.24-2.82s2.07-3.7,3.64-5.09c2.05-1.83,4.93-2.28,7.52-3.17a21.22,21.22,0,0,0,12-29.72" style="fill: #263238"/>
            <path d="M260.26,88.39A5.74,5.74,0,0,0,258,86.88h.18a4.17,4.17,0,0,0-.49-.08,2.27,2.27,0,0,0-1.79.22h0a4.26,4.26,0,0,0-2.32,2,5,5,0,0,0,.59,5.16,3.83,3.83,0,0,0,7-1.32A4.74,4.74,0,0,0,260.26,88.39Z" style="fill: #455a64"/>
            <g>
              <path d="M297.4,119.27l3-55a4.66,4.66,0,0,0-4-4.85l-24.58-7C263.86,51.4,258.31,61,257.58,69c-.81,8.83-1.44,19.63-.58,26.26,1.73,13.33,12.64,15.34,12.64,15.34s.09,13.57,0,18.4l8.18,17.71Z" style="fill: #ffbf9d"/>
              <path d="M262.56,79a1.71,1.71,0,0,0,1.59,1.76,1.63,1.63,0,0,0,1.8-1.48,1.71,1.71,0,0,0-1.59-1.77A1.63,1.63,0,0,0,262.56,79Z" style="fill: #263238"/>
              <path d="M259.83,73.76c.21.22,1.52-.69,3.35-.64s3.15,1,3.35.8-.1-.51-.67-1a4.7,4.7,0,0,0-2.68-.91,4.53,4.53,0,0,0-2.67.78C259.93,73.26,259.73,73.65,259.83,73.76Z" style="fill: #263238"/>
              <path d="M279,79.39a1.69,1.69,0,0,0,1.59,1.76,1.62,1.62,0,0,0,1.8-1.48,1.7,1.7,0,0,0-1.59-1.77A1.64,1.64,0,0,0,279,79.39Z" style="fill: #263238"/>
              <path d="M277.82,74.61c.2.23,1.52-.69,3.35-.63s3.15,1,3.35.79-.1-.51-.68-1a4.67,4.67,0,0,0-2.67-.91,4.59,4.59,0,0,0-2.68.78C277.92,74.11,277.72,74.51,277.82,74.61Z" style="fill: #263238"/>
              <path d="M270.79,88a11.38,11.38,0,0,0-3-.62c-.47-.07-.91-.17-1-.49a2.26,2.26,0,0,1,.35-1.38L268.69,82c2.06-5,3.57-9.14,3.37-9.22s-2,3.91-4.1,8.93c-.5,1.23-1,2.41-1.43,3.54a2.72,2.72,0,0,0-.29,1.83,1.14,1.14,0,0,0,.74.7,3.21,3.21,0,0,0,.8.14A12.28,12.28,0,0,0,270.79,88Z" style="fill: #263238"/>
              <path d="M269.71,110.52a31.85,31.85,0,0,0,17.1-4.27s-3.84,9.86-17.08,8.24Z" style="fill: #ff9a6c"/>
              <path d="M270.94,92.36a4.47,4.47,0,0,1,3.76-1.86,2.93,2.93,0,0,1,2.37,1.37,2.85,2.85,0,0,1-.12,3,2.82,2.82,0,0,1-3,1,6.68,6.68,0,0,1-2.64-1.75,2,2,0,0,1-.56-.7.94.94,0,0,1,.09-.93" style="fill: #ff9a6c"/>
              <path d="M276.14,89.42c-.3,0-.36,2-2.1,3.32s-3.85,1.08-3.87,1.36c0,.12.46.4,1.35.45a5,5,0,0,0,3.23-1,4.35,4.35,0,0,0,1.64-2.79C276.48,89.91,276.28,89.41,276.14,89.42Z" style="fill: #263238"/>
              <path d="M277.22,67.05c.17.5,2,.32,4.14.64s3.87,1,4.16.51c.14-.21-.15-.68-.84-1.19a7.28,7.28,0,0,0-6.32-.88C277.56,66.43,277.15,66.81,277.22,67.05Z" style="fill: #263238"/>
              <path d="M260.66,67.47c.31.43,1.58,0,3.1.06s2.79.35,3.1-.07c.13-.21-.06-.63-.61-1a4.5,4.5,0,0,0-5,0C260.71,66.84,260.52,67.27,260.66,67.47Z" style="fill: #263238"/>
            </g>
            <path d="M248.7,65.28a9.11,9.11,0,0,1,3.5-5c1-.63,2.07-1,3-1.72,1.92-1.55,2.37-4.24,3.55-6.41a10,10,0,0,1,7.63-5.06c2.63-.27,5.34.52,7.9-.13,1.9-.47,3.55-1.7,5.47-2.07,3.74-.71,7.21,2,9.92,4.64,0,2.68-2.12,4.47-4.17,6.18a9.27,9.27,0,0,1-7.51,2c-2.05-.38-4.28-1.41-6.05-.32s-1.94,4-3.58,5.38c-2.36,2-6.11.12-9.1,1-2.31.69-3.75,2.89-5.28,4.75s-3.83,3.62-6.14,2.94A26.5,26.5,0,0,1,248.7,65.28Z" style="fill: #263238"/>
            <path d="M276.76,54c1.68-.48,5.1-1.57,6-3a10.23,10.23,0,0,1,8.91-5.12,8.45,8.45,0,0,1,7.61,6.68,12.15,12.15,0,0,1,10.44,6.73,12.49,12.49,0,0,1,.67,1.55,9.28,9.28,0,0,1,.62,7.77c-.58,1.51-1.57,3.19-.79,4.61s2.79,1.5,4.35,2a6.15,6.15,0,0,1,3.87,6.86,7.43,7.43,0,0,0-.49,3,6.6,6.6,0,0,0,1.81,2.61,7.65,7.65,0,0,1-4.48,12.44c-1.19.21-2.49.16-3.52.8s-1.7,2.15-2.53,3.26a6.58,6.58,0,0,1-7.14,2.23,5.55,5.55,0,0,1-1.44-.72,4.72,4.72,0,0,1-4.19,1.86l.49-28a2.33,2.33,0,0,1-1.7,1.33c-4.49,1-5.14-8.24-4.14-10.75a25.92,25.92,0,0,1-4.51-4.73c-1.24-1.84-2.33-6.83-2.06-9.08C282.92,56.45,276,54.18,276.76,54Z" style="fill: #263238"/>
            <path d="M295.71,81.86c.14-2.84,3.62-3.45,6.09-2,1.35.78,2.39,2.35,2.26,5.37-.33,8.05-8.34,6.06-8.35,5.82S295.55,85.19,295.71,81.86Z" style="fill: #ffbf9d"/>
            <path d="M298.3,88.09s.13.1.37.22a1.41,1.41,0,0,0,1,.06c.87-.27,1.64-1.6,1.74-3a4.74,4.74,0,0,0-.31-2,1.64,1.64,0,0,0-1-1.12.73.73,0,0,0-.85.35c-.11.22-.07.39-.11.4s-.17-.14-.09-.47a.9.9,0,0,1,.34-.5,1.11,1.11,0,0,1,.78-.17,2,2,0,0,1,1.41,1.31,4.76,4.76,0,0,1,.4,2.26c-.12,1.62-1,3.11-2.19,3.4a1.54,1.54,0,0,1-1.28-.27C298.3,88.28,298.27,88.1,298.3,88.09Z" style="fill: #ff9a6c"/>
            <path d="M287.84,51.79a4.79,4.79,0,0,1,1.61,1.35c.8,1.1,1.1,3.2.59,5.57l0,.2.2.05a7.76,7.76,0,0,1,5.18,4.57,5.92,5.92,0,0,1,.42,2,12.45,12.45,0,0,1-.25,2.13,16.22,16.22,0,0,0-.31,2.29,3.82,3.82,0,0,0,.64,2.37,9.64,9.64,0,0,0,4,3,13.69,13.69,0,0,1,3.74,2.45,10.06,10.06,0,0,1,3,6.74,10.7,10.7,0,0,1-1.06,5c-.54,1.1-1,1.62-.94,1.66a2.25,2.25,0,0,0,.34-.37,8,8,0,0,0,.79-1.19A10.17,10.17,0,0,0,307,84.46a10.37,10.37,0,0,0-3-7.1,13.72,13.72,0,0,0-3.85-2.57A9.3,9.3,0,0,1,296.36,72c-.9-1.22-.5-2.81-.26-4.26a12.69,12.69,0,0,0,.25-2.23,6.36,6.36,0,0,0-.48-2.15,8.13,8.13,0,0,0-5.57-4.78l.15.25c.48-2.48.1-4.66-.81-5.8a3.29,3.29,0,0,0-1.26-1A2.19,2.19,0,0,0,287.84,51.79Z" style="fill: #455a64"/>
            <path d="M301.3,91.1A5.77,5.77,0,0,0,299,89.59h.17a4.17,4.17,0,0,0-.49-.08,2.27,2.27,0,0,0-1.79.22h0a4.23,4.23,0,0,0-2.31,2,5,5,0,0,0,.59,5.17,3.83,3.83,0,0,0,7-1.32A4.74,4.74,0,0,0,301.3,91.1Z" style="fill: #455a64"/>
          </g>
        </g>
        <g>
          <path d="M316.46,195.15l.16-33.83,3.14,6.24L339.44,148s-9.52-17.31-13.92-20.67-21.63-6.84-22.74-7.49c0,0-4.46,7.52-18.37,11.68s-25.55-13.76-25.55-13.76l-15.82.7s-1.34,23.74-1.58,40c-.07,4.78.21,9,.33,11.63.52,11.8,12.42,32.11,12.42,32.11s16.91,6,34.79,3.81S316.46,195.15,316.46,195.15Z" style="fill: #455a64"/>
          <path d="M243,118.46c-8.24,1.74-15.63,12.11-24.48,32.44l24.06,17.95Z" style="fill: #455a64"/>
          <path d="M317.65,140.6a3.53,3.53,0,0,1,.15,1.07c.06.68.12,1.68.16,2.91.08,2.46.07,5.87-.16,9.62s-.63,7.14-1,9.58c-.19,1.21-.36,2.19-.51,2.87a4.21,4.21,0,0,1-.27,1,29.89,29.89,0,0,1,.36-4c.27-2.44.6-5.82.82-9.55s.31-7.13.33-9.59A31.28,31.28,0,0,1,317.65,140.6Z" style="fill: #263238"/>
          <path d="M243.79,135.31a5.49,5.49,0,0,1-.12,1.33c-.14,1-.31,2.16-.51,3.58-.44,3-1,7.19-1.39,11.83a108.31,108.31,0,0,0-.21,11.9c.06,1.42.12,2.63.17,3.61a5.07,5.07,0,0,1,0,1.33,5.85,5.85,0,0,1-.23-1.31c-.13-.85-.25-2.08-.36-3.61a82.24,82.24,0,0,1,0-12,113.89,113.89,0,0,1,1.56-11.86c.27-1.51.52-2.72.7-3.55A5.9,5.9,0,0,1,243.79,135.31Z" style="fill: #263238"/>
        </g>
      </g>
      <g>
        <path d="M281.45,147.69l.81,32.31a3,3,0,0,1-2.91,3.05l-13.62.32a3,3,0,0,1-3-2.78l-2.2-32a3,3,0,0,1,2.84-3.19l15-.66A3,3,0,0,1,281.45,147.69Z" style="fill: #263238"/>
        <path d="M269.63,151.37a1.25,1.25,0,1,0,1.2-1.31A1.25,1.25,0,0,0,269.63,151.37Z" style="fill: #fff"/>
      </g>
      <g>
        <path d="M261.15,156s-3.68,4.78-5,6.9-1.56,8.79-1.56,8.79l.06,4.65-7.37,3.26,5.69,15.88,11.18-9.67,11.29-2.12s5.21-5.36,6-7.76a11,11,0,0,0,.64-4.23,80.63,80.63,0,0,0,2.74-7.62,28.57,28.57,0,0,0,.27-5.45s-1.46-.34-2.58,2.07l1.77-4.08s-1.16-3-3.69.06-6.71,8.3-6.71,8.3L269,169.21l-.64-.69s8.43-11.25,8.14-13.19-2.14-2-4,.18-9.39,12.73-10.41,12.88-1.39-1.28-1.39-1.28l.55-3.92.37-.84Z" style="fill: #ffbf9d"/>
        <path d="M275.69,171.59a3.16,3.16,0,0,0,.34-.4c.21-.27.5-.66.85-1.15.7-1,1.63-2.36,2.6-3.93s1.79-3,2.35-4.08c.29-.53.51-1,.65-1.27a2.54,2.54,0,0,0,.21-.49,2.13,2.13,0,0,0-.29.44l-.72,1.24c-.6,1-1.44,2.47-2.4,4s-1.88,2.95-2.54,3.95c-.31.47-.57.87-.79,1.19A1.76,1.76,0,0,0,275.69,171.59Z" style="fill: #ff9a6c"/>
        <path d="M278.31,176.61a30.56,30.56,0,0,0,2.28-3.26,29.92,29.92,0,0,0,2.08-3.39,31.88,31.88,0,0,0-2.28,3.26A33.92,33.92,0,0,0,278.31,176.61Z" style="fill: #ff9a6c"/>
      </g>
      <path d="M222,153.48s-12.47,32.67-13,44c-.54,10.3,8.37,16.52,15.1,15.54,15.8-2.29,40.06-27.16,40.06-27.16L255,176.14l-21.32,9.55,6.63-18.56Z" style="fill: #ffbf9d"/>
    </g>
    <g style="opacity: 0.30000000000000004">
      <path d="M339.11,184.26c2.64-6.45.67-14.26-4.05-19.4s-11.76-7.74-18.73-8a33.53,33.53,0,0,0-30.67,49.44,28.23,28.23,0,0,0,9.86-2.42C299.72,201.75,339.11,184.26,339.11,184.26Z"/>
    </g>
    <g>
      <circle cx="314.43" cy="189.39" r="26.59" transform="translate(-52.63 187.7) rotate(-30.8)" style="fill: #f43f5e"/>
      <polygon points="312.54 201.78 298.75 190.22 302.78 185.41 312.03 193.16 326.21 178.08 330.78 182.39 312.54 201.78" style="fill: #fff"/>
    </g>
  </g>
</svg>
