<svg id="Layer_1" data-name="Layer 1" xmlns="http://www.w3.org/2000/svg" viewBox="0 0 512 235.67">
  <g>
    <g>
      <rect x="61.25" y="67.83" width="62.02" height="49.58" transform="translate(-15.46 18.54) rotate(-10.6)" style="fill: #f5f5f5"/>
      <path d="M118.18,62.55l-.3.07-.85.17-3.31.65-12.48,2.39-44,8.33.17-.25,9.14,48.73h0l-.28-.19,61-11.37-.16.23L120.59,76c-.77-4.25-1.38-7.6-1.79-9.89-.21-1.14-.36-2-.47-2.62s-.15-.91-.15-.91.07.28.18.86l.51,2.57,1.89,9.83c1.62,8.54,3.94,20.73,6.73,35.44l0,.2-.2,0L66.38,122.93l-.24,0,0-.23h0C62.82,105.13,59.72,88.5,57,74l0-.21.21,0,44.16-8.15,12.45-2.27,3.28-.59.83-.14Z" style="fill: #e0e0e0"/>
    </g>
    <rect x="63.39" y="70.96" width="57.66" height="43.34" transform="matrix(0.98, -0.18, 0.18, 0.98, -15.46, 18.54)" style="fill: #ebebeb"/>
    <polygon points="67.86 119.23 82.71 89.05 98.07 103.32 104.73 92.91 124.54 108.63 67.86 119.23" style="fill: #e0e0e0"/>
    <path d="M99.57,82.53a4.54,4.54,0,1,1-5.3-3.62A4.54,4.54,0,0,1,99.57,82.53Z" style="fill: #e0e0e0"/>
  </g>
  <g>
    <g>
      <rect x="325.6" y="-10.87" width="175.22" height="129.73" transform="translate(286.46 450.98) rotate(-79.74)" style="fill: #fafafa"/>
      <path d="M461.44,151.77s0-.29.13-.83.24-1.36.43-2.42l1.67-9.39c1.47-8.2,3.62-20.19,6.35-35.37,5.46-30.34,13.22-73.42,22.42-124.45l.17.25L365-43.53h0l.28-.19C353.57,20.59,342.77,80.17,334,128.69l-.16-.23,92.76,16.9,25.77,4.71,6.77,1.25,2.33.45-2.3-.4-6.74-1.2-25.74-4.61-92.92-16.71-.19,0,0-.19c8.77-48.52,19.54-108.11,31.17-172.43l0-.23.24,0h0L492.69-20.87l.21,0,0,.21L470.21,103.94c-2.77,15.15-5,27.11-6.45,35.3-.75,4.08-1.33,7.21-1.72,9.33q-.3,1.58-.45,2.4Z" style="fill: #e0e0e0"/>
    </g>
    <rect x="371.05" y="-21.02" width="55.08" height="47.99" transform="translate(6.91 -70.96) rotate(10.26)" style="fill: #e0e0e0"/>
    <rect x="364.8" y="40.34" width="100.65" height="6.26" transform="translate(14.38 -73.26) rotate(10.26)" style="fill: #e0e0e0"/>
    <rect x="362.83" y="51.18" width="100.65" height="6.26" transform="matrix(0.98, 0.18, -0.18, 0.98, 16.28, -72.73)" style="fill: #e0e0e0"/>
    <rect x="360.87" y="62.03" width="100.65" height="6.26" transform="translate(18.19 -72.21) rotate(10.26)" style="fill: #e0e0e0"/>
    <rect x="358.91" y="72.87" width="100.65" height="6.26" transform="translate(20.09 -71.69) rotate(10.26)" style="fill: #e0e0e0"/>
    <rect x="356.94" y="83.72" width="100.65" height="6.26" transform="translate(21.99 -71.16) rotate(10.26)" style="fill: #e0e0e0"/>
    <rect x="350.21" y="120.89" width="100.65" height="6.26" transform="matrix(0.98, 0.18, -0.18, 0.98, 28.5, -69.37)" style="fill: #e0e0e0"/>
    <rect x="355.34" y="90.52" width="55.25" height="6.26" transform="translate(22.81 -66.73) rotate(10.26)" style="fill: #e0e0e0"/>
    <rect x="435.86" y="-1.12" width="35.27" height="6.26" transform="translate(7.61 -80.76) rotate(10.26)" style="fill: #e0e0e0"/>
    <rect x="434.05" y="8.85" width="35.27" height="6.26" transform="matrix(0.98, 0.18, -0.18, 0.98, 9.36, -80.28)" style="fill: #e0e0e0"/>
    <rect x="432.35" y="17.62" width="21.75" height="6.26" transform="translate(10.79 -78.63) rotate(10.26)" style="fill: #e0e0e0"/>
  </g>
  <g>
    <g>
      <rect x="33.99" y="168.76" width="53.09" height="42.45" transform="translate(-57.06 28.96) rotate(-18.47)" style="fill: #f5f5f5"/>
      <rect x="35.82" y="171.45" width="49.36" height="37.1" transform="translate(-57.07 28.95) rotate(-18.47)" style="fill: #ebebeb"/>
      <polygon points="42.97 215.41 52.01 188.07 66.71 198.38 71.14 188.77 89.79 199.77 42.97 215.41" style="fill: #e0e0e0"/>
      <path d="M65.55,180.58a3.88,3.88,0,1,1-4.92-2.46A3.88,3.88,0,0,1,65.55,180.58Z" style="fill: #e0e0e0"/>
    </g>
    <g>
      <g>
        <rect x="81.54" y="113.68" width="64.14" height="80.23" transform="translate(-59.15 235.72) rotate(-78.92)" style="fill: #f5f5f5"/>
        <path d="M159.14,130l-.39-.06-1.11-.21-4.28-.81-16.13-3.1-56.87-11,.26-.17c-3.67,18.74-7.86,40.22-12.31,62.94h0l-.19-.28,78.73,15.46-.24.15c3.76-18.94,6.87-34.64,9-45.62l2.55-12.75.69-3.37c.15-.76.25-1.16.25-1.16s-.06.38-.2,1.13-.36,1.88-.63,3.33c-.57,2.95-1.39,7.25-2.44,12.73-2.14,11-5.19,26.78-8.87,45.79l0,.2-.2,0L68,177.79l-.23,0,0-.23h0c4.46-22.72,8.68-44.2,12.35-62.93l0-.21.21,0,57,11.26,16.06,3.21,4.23.85,1.08.23Z" style="fill: #e0e0e0"/>
      </g>
      <rect x="85.52" y="116.49" width="56.06" height="74.59" transform="translate(-59.18 235.66) rotate(-78.92)" style="fill: #ebebeb"/>
      <polygon points="71.57 174.12 103.83 144.93 115.48 169.43 128.46 160.09 144.77 188.46 71.57 174.12" style="fill: #e0e0e0"/>
      <path d="M127.21,145.16a5.87,5.87,0,1,1-4.63-6.89A5.86,5.86,0,0,1,127.21,145.16Z" style="fill: #e0e0e0"/>
    </g>
  </g>
  <g>
    <g>
      <polygon points="24.96 112.75 29.03 160.23 47.44 165.22 83.14 161.06 78.12 107.63 24.96 112.75" style="fill: #f5f5f5"/>
      <path d="M34.64,156,29,160.23a20.41,20.41,0,0,0,7.32,4.06,29.62,29.62,0,0,0,11.09.93S38.93,163.74,34.64,156Z" style="fill: #ebebeb"/>
    </g>
    <path d="M73.82,125.08c0,.09-9,1-20.19,2.12s-20.21,1.89-20.22,1.8,9-1,20.19-2.12S73.81,125,73.82,125.08Z" style="fill: #e0e0e0"/>
    <path d="M74.35,132.39c0,.08-9,1-20.19,2.11s-20.22,1.89-20.22,1.8,9-1,20.19-2.11S74.34,132.3,74.35,132.39Z" style="fill: #e0e0e0"/>
    <path d="M75.2,138.83c0,.08-9,1-20.19,2.11s-20.21,1.89-20.22,1.8,9-1,20.19-2.12S75.19,138.74,75.2,138.83Z" style="fill: #e0e0e0"/>
    <path d="M75.76,145.05c0,.09-9,1-20.19,2.12s-20.21,1.89-20.22,1.8,9-1,20.19-2.12S75.75,145,75.76,145.05Z" style="fill: #e0e0e0"/>
  </g>
  <path d="M468,223.23c0,.13-94.43.24-210.89.24s-210.91-.11-210.91-.24S140.6,223,257.1,223,468,223.1,468,223.23Z" style="fill: #263238"/>
  <g>
    <polygon points="71.57 -76.51 109.35 139.8 268.63 114.78 276.01 96.95 232.92 -103.06 83.62 -94.15 71.57 -76.51" style="fill: #e0e0e0"/>
    <polygon points="109.35 139.8 120.66 122.45 82.89 -93.86 71.57 -76.51 109.35 139.8" style="opacity: 0.30000000000000004"/>
    <g>
      <polygon points="82.89 -93.86 120.66 122.45 276.01 96.95 236.77 -115.8 82.89 -93.86" style="fill: #fafafa"/>
      <path d="M82.89-93.86,236.74-116l.18,0,0,.18L276.25,96.9l0,.25-.24,0-2.56.43L120.7,122.67l-.21,0,0-.21C98.27-5.28,83.22-91.95,82.89-93.86c.33,1.91,15.55,88.55,38,216.27l-.25-.18,152.78-25.1,2.56-.42-.19.28c-14.68-79.66-28.25-153.3-39.2-212.76l.21.16Z" style="fill: #263238"/>
    </g>
    <circle cx="181.19" cy="5.08" r="26.48" transform="translate(152.3 184.03) rotate(-82.43)" style="fill: #f43f5e"/>
    <path d="M169.06,12l-1.21-7.62L194.26.24l1.13,7.14s-1.61,6.16-12.29,7.85S169.06,12,169.06,12Z" style="fill: #fff"/>
    <polygon points="163.69 4.46 182.53 7.8 198.87 -1.39 180 -4.37 163.69 4.46" style="fill: #fff"/>
    <rect x="161.61" y="83.45" width="64.32" height="6.24" rx="2.35" transform="translate(-11.13 31.3) rotate(-8.98)" style="fill: #e0e0e0"/>
    <path d="M268,103l-.76.14-2.22.38-8.59,1.44-31.91,5.23L116.75,127.67l-.23,0,0-.23c-1.51-8.55-3.09-17.52-4.7-26.65-8.63-49-16.44-93.45-22.1-125.6L83-62.84c-.78-4.49-1.38-8-1.79-10.35Q81-75,80.8-75.89c-.1-.6-.13-.92-.13-.92s.07.31.18.92.28,1.51.5,2.68l1.87,10.34c1.61,9,3.93,22,6.79,38.05,5.69,32.14,13.56,76.53,22.24,125.57L117,127.4l-.27-.2,107.81-17.36,31.93-5.09L265,103.4l2.23-.34Z" style="fill: #263238"/>
    <path d="M256.17,111.1l-.71.13-2.1.37L245.25,113l-30.18,5L112.69,135l-.23,0,0-.23c-1.88-10.31-3.83-21-5.83-32L84.13-21.06C81.28-36.91,79-49.73,77.37-58.6,76.59-63,76-66.47,75.56-68.81c-.2-1.16-.35-2-.46-2.66s-.14-.91-.14-.91.07.3.19.9.28,1.49.51,2.65c.43,2.34,1.07,5.78,1.9,10.19l6.9,37.52c5.79,31.69,13.78,75.46,22.6,123.82,2,11,4,21.68,5.82,32l-.27-.19L215,117.72l30.2-4.91,8.13-1.29,2.1-.33Z" style="fill: #263238"/>
    <g>
      <polygon points="86.64 -2.26 83.14 2.69 91.64 53.66 96.7 55.38 86.64 -2.26" style="fill: #263238"/>
      <rect x="91.49" y="-4.81" width="24.62" height="58.51" transform="translate(-2.66 18.22) rotate(-9.91)" style="fill: #263238"/>
      <rect x="113.83" y="-9.07" width="4.92" height="62.57" rx="1.85" transform="translate(-2.09 20.33) rotate(-9.9)" style="fill: #263238"/>
      <path d="M105.68,12.41,89.94,21.35A10.17,10.17,0,0,0,81,18.22a10.22,10.22,0,1,0,3.24,20.17,10.19,10.19,0,0,0,7.65-6.11l17.77,2.84A1.18,1.18,0,0,0,111,33.75l-3.58-20.51A1.19,1.19,0,0,0,105.68,12.41Z" style="fill: none;stroke: #455a64;stroke-miterlimit: 10;stroke-width: 2px"/>
      <path d="M118.83,51.07a2.64,2.64,0,0,1-.13-.57c-.08-.43-.18-1-.31-1.65-.27-1.5-.65-3.56-1.11-6.09-.93-5.19-2.19-12.27-3.59-20.09s-2.58-14.92-3.48-20.12l-1-6.1c-.1-.69-.18-1.24-.25-1.67a2.31,2.31,0,0,1,0-.58,4,4,0,0,1,.15.56c.08.43.2,1,.33,1.65.29,1.5.68,3.56,1.16,6.08.95,5.14,2.24,12.24,3.62,20.09s2.61,15,3.45,20.12c.43,2.58.76,4.67,1,6.12.1.72.18,1.28.22,1.67A2.82,2.82,0,0,1,118.83,51.07Z" style="fill: #455a64"/>
      <path d="M96.23,55.58A2.87,2.87,0,0,1,96.1,55c-.08-.43-.18-1-.31-1.65-.28-1.5-.65-3.56-1.12-6.09-.92-5.19-2.19-12.27-3.58-20.09S88.5,12.25,87.6,7.05c-.41-2.53-.76-4.6-1-6.1-.11-.68-.19-1.24-.25-1.67a4.17,4.17,0,0,1-.06-.58,2.3,2.3,0,0,1,.15.57c.09.42.2,1,.34,1.65.29,1.49.68,3.55,1.16,6.07,1,5.14,2.24,12.24,3.62,20.1s2.6,15,3.45,20.12c.42,2.57.75,4.66,1,6.11.1.72.19,1.28.22,1.67A3.74,3.74,0,0,1,96.23,55.58Z" style="fill: #455a64"/>
    </g>
    <path d="M198.87-1.39a8.23,8.23,0,0,1-1.23.8l-3.47,2c-2.93,1.7-7,4-11.53,6.56l-.07,0h-.09l-.18,0c-5.15-.92-9.81-1.77-13.18-2.41l-4-.79a9.86,9.86,0,0,1-1.45-.35,9.26,9.26,0,0,1,1.48.17l4,.63c3.38.56,8,1.36,13.2,2.27l.19,0-.16,0C186.93,5.05,191,2.78,194,1.15l3.54-1.9A9,9,0,0,1,198.87-1.39Z" style="fill: #263238"/>
  </g>
  <g>
    <g>
      <path d="M214.29,103.08h74.55a0,0,0,0,1,0,0v40.09a0,0,0,0,1,0,0H214.29a17.65,17.65,0,0,1-17.65-17.65v-4.79A17.65,17.65,0,0,1,214.29,103.08Z" style="fill: #f43f5e"/>
      <path d="M268.88,103.08H429.69a2.93,2.93,0,0,1,2.93,2.93v.8a2.93,2.93,0,0,1-2.93,2.93H268.88a0,0,0,0,1,0,0v-6.65A0,0,0,0,1,268.88,103.08Z" style="fill: #f43f5e"/>
      <path d="M268.88,136.51H429.69a2.93,2.93,0,0,1,2.93,2.93v.8a2.93,2.93,0,0,1-2.93,2.93H268.88a0,0,0,0,1,0,0v-6.65A0,0,0,0,1,268.88,136.51Z" style="fill: #f43f5e"/>
      <path d="M427.74,136.51H287.15a13.39,13.39,0,0,1-13.39-13.39h0a13.4,13.4,0,0,1,13.39-13.39H427.74A33.12,33.12,0,0,0,427.74,136.51Z" style="fill: #f5f5f5"/>
      <path d="M273.76,143.16h-61A16.12,16.12,0,0,1,196.65,127v-8a16,16,0,0,1,16-16h62.64C260.77,111.87,261.86,132.93,273.76,143.16Z" style="opacity: 0.30000000000000004"/>
      <path d="M410.66,124.36c0,.14-28.86.24-64.45.24s-64.45-.1-64.45-.24,28.85-.24,64.45-.24S410.66,124.23,410.66,124.36Z" style="fill: #263238"/>
      <path d="M423.92,130.32c0,.13-28.85.24-64.44.24s-64.45-.11-64.45-.24,28.85-.24,64.45-.24S423.92,130.18,423.92,130.32Z" style="fill: #263238"/>
      <path d="M420,115.92c0,.14-28.86.24-64.44.24s-64.45-.1-64.45-.24,28.85-.24,64.45-.24S420,115.79,420,115.92Z" style="fill: #263238"/>
      <path d="M266.7,140.36c0,.13-13.5.23-30.16.23s-30.17-.1-30.17-.23,13.5-.24,30.17-.24S266.7,140.22,266.7,140.36Z" style="fill: #263238"/>
      <path d="M266.7,106.41c0,.13-13.5.23-30.16.23s-30.17-.1-30.17-.23,13.5-.24,30.17-.24S266.7,106.27,266.7,106.41Z" style="fill: #263238"/>
    </g>
    <g>
      <path d="M180.57,171.3H281.66a0,0,0,0,1,0,0v51.63a0,0,0,0,1,0,0H180.57a17.65,17.65,0,0,1-17.65-17.65V189A17.65,17.65,0,0,1,180.57,171.3Z" style="fill: #f43f5e"/>
      <path d="M255.94,171.3H463.89a2.93,2.93,0,0,1,2.93,2.93v2.71a2.93,2.93,0,0,1-2.93,2.93H255.94a0,0,0,0,1,0,0V171.3A0,0,0,0,1,255.94,171.3Z" style="fill: #f43f5e"/>
      <path d="M255.94,214.36H463.89a2.93,2.93,0,0,1,2.93,2.93V220a2.93,2.93,0,0,1-2.93,2.93H255.94a0,0,0,0,1,0,0v-8.57A0,0,0,0,1,255.94,214.36Z" style="fill: #f43f5e"/>
      <path d="M460.53,214.36h-181a17.24,17.24,0,0,1-17.25-17.24h0a17.25,17.25,0,0,1,17.25-17.25h181A42.7,42.7,0,0,0,460.53,214.36Z" style="fill: #f5f5f5"/>
      <path d="M262.23,222.93h-83.7a15.61,15.61,0,0,1-15.61-15.61V187.46a16.17,16.17,0,0,1,16.16-16.16H264.2C245.51,182.63,246.9,209.74,262.23,222.93Z" style="opacity: 0.30000000000000004"/>
      <path d="M438.54,198.72c0,.13-37.17.24-83,.24s-83-.11-83-.24,37.15-.24,83-.24S438.54,198.58,438.54,198.72Z" style="fill: #263238"/>
      <path d="M455.62,206.38c0,.13-37.17.24-83,.24s-83-.11-83-.24,37.15-.24,83-.24S455.62,206.25,455.62,206.38Z" style="fill: #263238"/>
      <path d="M450.58,191.6c0,.14-37.16.24-83,.24s-83-.1-83-.24,37.16-.24,83-.24S450.58,191.47,450.58,191.6Z" style="fill: #263238"/>
      <path d="M253.14,219.31c0,.13-17.39.24-38.84.24s-38.86-.11-38.86-.24,17.39-.24,38.86-.24S253.14,219.18,253.14,219.31Z" style="fill: #263238"/>
      <path d="M253.14,175.59c0,.13-17.39.24-38.84.24s-38.86-.11-38.86-.24,17.39-.24,38.86-.24S253.14,175.46,253.14,175.59Z" style="fill: #263238"/>
    </g>
    <g>
      <path d="M229,141.93H312.5a0,0,0,0,1,0,0v29.56a0,0,0,0,1,0,0H229a13,13,0,0,1-13-13v-3.53A13,13,0,0,1,229,141.93Z" style="fill: #455a64"/>
      <path d="M291.6,141.93H459.87a3.07,3.07,0,0,1,3.07,3.07v.83a3.07,3.07,0,0,1-3.07,3.07H291.6a0,0,0,0,1,0,0v-7A0,0,0,0,1,291.6,141.93Z" style="fill: #455a64"/>
      <path d="M291.6,164.53H459.87a3.07,3.07,0,0,1,3.07,3.07v.83a3.07,3.07,0,0,1-3.07,3.07H291.6a0,0,0,0,1,0,0v-7a0,0,0,0,1,0,0Z" style="fill: #455a64"/>
      <path d="M457.83,164.53H304.53a7.82,7.82,0,0,1-7.82-7.82h0a7.82,7.82,0,0,1,7.82-7.81h153.3Q451.91,156.72,457.83,164.53Z" style="fill: #f5f5f5"/>
      <path d="M296.71,171.49H227.76A11.73,11.73,0,0,1,216,159.76v-5.85a12,12,0,0,1,12-12h70.31C283.12,148.42,284.26,163.94,296.71,171.49Z" style="opacity: 0.30000000000000004"/>
      <path d="M440,155.48c0,.13-30.19.24-67.43.24s-67.43-.11-67.43-.24,30.18-.24,67.43-.24S440,155.35,440,155.48Z" style="fill: #263238"/>
      <path d="M453.83,159.69c0,.13-30.19.24-67.43.24s-67.44-.11-67.44-.24,30.19-.24,67.44-.24S453.83,159.56,453.83,159.69Z" style="fill: #263238"/>
      <path d="M289.33,168.55c0,.14-14.13.24-31.56.24s-31.57-.1-31.57-.24,14.13-.24,31.57-.24S289.33,168.42,289.33,168.55Z" style="fill: #263238"/>
      <path d="M289.33,145.41c0,.14-14.13.24-31.56.24s-31.57-.1-31.57-.24,14.13-.23,31.57-.23S289.33,145.28,289.33,145.41Z" style="fill: #263238"/>
      <path d="M460.92,141.93c0,.14-51.84.24-115.78.24s-115.8-.1-115.8-.24,51.84-.24,115.8-.24S460.92,141.8,460.92,141.93Z" style="fill: #263238"/>
    </g>
    <polygon points="367.95 115.48 367.95 131.54 373.51 127.97 379.72 131.54 379.72 115.48 367.95 115.48" style="fill: #f43f5e"/>
  </g>
  <g>
    <polygon points="424.49 -43.88 396.48 -20.55 353.86 63.64 380.43 75.65 421.87 -6.92 424.49 -43.88" style="fill: #f43f5e"/>
    <path d="M407.83-13.68,366.75,69l-12.89-5.37,42.62-84.19.21-.17a7.28,7.28,0,0,0,.58,3.28A7.83,7.83,0,0,0,400-14.07a7.5,7.5,0,0,0,5.1,1.24A7.62,7.62,0,0,0,407.83-13.68Z" style="opacity: 0.30000000000000004"/>
    <path d="M419.23-9.09,377,74.11l3.4,1.54L421.87-6.92a2.29,2.29,0,0,1-2.62-1.63A3,3,0,0,1,419.23-9.09Z" style="opacity: 0.30000000000000004"/>
  </g>
  <g>
    <path d="M453.08,48.85v73.39a.58.58,0,0,0,1.15,0V48.85a.58.58,0,0,0-1.15,0Z" style="fill: #f43f5e"/>
    <path d="M457.81,106.07a4.14,4.14,0,1,1-4.14-4.14A4.14,4.14,0,0,1,457.81,106.07Z" style="fill: #f43f5e"/>
    <path d="M452.5,108.21s-3,3-3.92,11.86-1.1,13.26-1.1,13.26l8.14.51V127.5c0,.31,1.6,4.73,1.6,4.73l6.43-2.11S461.34,106.6,452.5,108.21Z" style="fill: #f43f5e"/>
    <rect x="272.03" y="54.86" width="138.16" height="49.81" style="fill: #263238"/>
    <rect x="222.4" y="46.28" width="236.31" height="8.57" style="fill: #263238"/>
    <path d="M272,90.53s42-15,69.08-20.61,69.08-3.71,69.08-3.71V54.86H272Z" style="opacity: 0.30000000000000004"/>
    <rect x="222.4" y="46.28" width="85.48" height="8.57" style="opacity: 0.30000000000000004"/>
    <path d="M457,54.86c0,.13-52.54.24-117.35.24S222.29,55,222.29,54.86s52.54-.24,117.36-.24S457,54.72,457,54.86Z" style="fill: #455a64"/>
    <path d="M307.74,54.93a20.19,20.19,0,0,1-.24-4.36,20.19,20.19,0,0,1,.24-4.36,20.19,20.19,0,0,1,.24,4.36A20.19,20.19,0,0,1,307.74,54.93Z" style="fill: #455a64"/>
    <path d="M327.45,104.67c-.13,0-.24-9.72-.24-21.71s.11-21.7.24-21.7.24,9.71.24,21.7S327.58,104.67,327.45,104.67Z" style="fill: #455a64"/>
  </g>
  <g>
    <g>
      <path d="M127.58,165.84l15.88-6.42,12.14-31.69,16.17,8.33s-1.56,3.13-4.91,10.88c-1.29,3-5.56,11.32-7.31,15.38a21.33,21.33,0,0,1-19.05,13l-14.91.39Z" style="fill: #ffbf9d"/>
      <path d="M119.69,159.7l-2.4-2.52a2.66,2.66,0,0,0-1.55-.43l-7.61.23a4.74,4.74,0,0,0-3.51,2.13l-2.77,4.7s-1.86,3.22-1.62,4a1.39,1.39,0,0,0,1.6.95s.27,1.48.77,1.79a2.32,2.32,0,0,0,1.84.11,1.58,1.58,0,0,0,1.5.91,1.78,1.78,0,0,0,.39-.07c.91-.28,1.31-2,1.31-2l3.86-.72s5.53,3.7,7.49,6.13,7.06.57,7.06.57l1.91-9.14Z" style="fill: #ffbf9d"/>
      <path d="M114.09,160.79a6.59,6.59,0,0,1-1.67.28c-1,.11-2.53.16-4.2.37l.18-.13a14.23,14.23,0,0,1-1,1.82,20.58,20.58,0,0,1-3.65,4.33,7,7,0,0,1-1.91,1.36c0-.06.67-.6,1.68-1.61a25.34,25.34,0,0,0,3.48-4.33,18.42,18.42,0,0,0,1-1.76L108,161l.12,0c1.72-.19,3.2-.17,4.24-.21A8.15,8.15,0,0,1,114.09,160.79Z" style="fill: #ff9a6c"/>
      <path d="M114.26,164.42a3.58,3.58,0,0,1-1.43.38,11.18,11.18,0,0,1-3.72-.13l.27-.15a10.4,10.4,0,0,1-.56,1.37,11.5,11.5,0,0,1-2.85,3.76,4.8,4.8,0,0,1-1.64,1.07c0-.06.57-.49,1.41-1.32a13.44,13.44,0,0,0,2.65-3.71,14.29,14.29,0,0,0,.55-1.32l.07-.2.2,0A18.41,18.41,0,0,0,114.26,164.42Z" style="fill: #ff9a6c"/>
      <g>
        <path d="M123.91,166.29l-6.78-3.15a7.25,7.25,0,0,0-2.95-.88,7.1,7.1,0,0,0-3.14,1.05l-3.65,1.89a.85.85,0,0,0-.48.43c-.1.28.11.56.31.77a5.36,5.36,0,0,0,7.06.29,14.94,14.94,0,0,0,2.29,4.52,5,5,0,0,0,4.47,1.9" style="fill: #ffbf9d"/>
        <path d="M121,173.11l-.18.06a2.33,2.33,0,0,1-.55.06,4.31,4.31,0,0,1-2-.49,6.5,6.5,0,0,1-2.4-2.19,17.77,17.77,0,0,1-1.78-3.79l.34.09a5.41,5.41,0,0,1-3.94,1.24,5.86,5.86,0,0,1-2.21-.62,5,5,0,0,1-1-.68,2.62,2.62,0,0,1-.44-.44.91.91,0,0,1-.2-.74.94.94,0,0,1,.41-.51c.16-.1.3-.16.44-.24l.85-.43,1.65-.86a15.43,15.43,0,0,1,3.27-1.42,5,5,0,0,1,3.22.49c.91.41,1.74.82,2.51,1.19l3.61,1.76a8.21,8.21,0,0,1,1.29.7,8.8,8.8,0,0,1-1.37-.53l-3.67-1.63L116.34,163a4.68,4.68,0,0,0-3-.42,14.92,14.92,0,0,0-3.15,1.41l-1.65.86-.85.44c-.29.14-.59.29-.6.43s.2.49.48.71a4.9,4.9,0,0,0,.89.62,5.19,5.19,0,0,0,2,.57,5,5,0,0,0,3.64-1.09l.23-.2.1.29a18.53,18.53,0,0,0,1.67,3.73,6.3,6.3,0,0,0,2.23,2.16A4.8,4.8,0,0,0,121,173.11Z" style="fill: #ff9a6c"/>
      </g>
    </g>
    <g>
      <path d="M212.11,77.52c.06-5.09.87-10.16.67-15.25s-1.53-10.38-5.08-14-9.71-5-13.86-2.09L193,50.48c1.63,19.62,1.41,39.56,3,59.18.22,2.58,2.31,4.91,3.48,7.22s3.53,4.21,6.11,4.05c3.38-.21,5.59-3.63,6.64-6.85C216.07,102.42,212,89.79,212.11,77.52Z" style="fill: #263238"/>
      <path d="M199.87,51.13a13.91,13.91,0,0,0-2.58-3.5,4.88,4.88,0,0,0-4-1.34,2,2,0,0,0-1.59,1.16,1.1,1.1,0,0,0,.95,1.46l.14.12q2.29,2,4.65,3.95a3.94,3.94,0,0,0,1.3.81,1.36,1.36,0,0,0,1.42-.31C200.71,52.85,200.3,51.86,199.87,51.13Z" style="fill: #f43f5e"/>
      <path d="M202.75,56.13a25.66,25.66,0,0,0-19.89-9.9c-4.52-.07-6.39.86-9.64,1.74a14.31,14.31,0,0,0-8.13,5.38c-2.31,3.27-4.24,6.94-4.68,10.92a67.53,67.53,0,0,0-.59,12.3,22.48,22.48,0,0,0,3.84,11.55l10.43,1.82c5.76.19,11.6.38,17.22-.93s11.06-4.34,14.07-9.26C209.56,72.92,207.82,62.33,202.75,56.13Z" style="fill: #263238"/>
      <g>
        <path d="M193.47,56.06l-13.91-5.53-3.63.43c-8.18,0-13.82,9-13.87,15.66C162,74,162.22,83,163.39,88.38c2.35,10.9,11.65,11.81,11.65,11.81s-.19,5.81-.26,9.47l21.29-1.53,1.07-48.33A3.87,3.87,0,0,0,193.47,56.06Z" style="fill: #ffbf9d"/>
        <path d="M179.74,85.83a2.29,2.29,0,0,0-.8-1.43,2.38,2.38,0,0,0-2.88-.17,3.21,3.21,0,0,0-1.21,3h0a2.93,2.93,0,0,0,2.07,1.2h.39a2.63,2.63,0,0,0,1.75-.69A2.33,2.33,0,0,0,179.74,85.83Z" style="fill: #ff9a6c"/>
        <g>
          <path d="M165.75,75.93a1.41,1.41,0,0,0,1.43,1.35,1.36,1.36,0,0,0,1.39-1.35,1.42,1.42,0,0,0-1.44-1.35A1.34,1.34,0,0,0,165.75,75.93Z" style="fill: #263238"/>
          <path d="M164.55,70.3c.19.17,1.21-.68,2.73-.76s2.67.62,2.83.43-.12-.41-.63-.74a3.87,3.87,0,0,0-2.27-.56,3.68,3.68,0,0,0-2.16.83C164.6,69.88,164.46,70.22,164.55,70.3Z" style="fill: #263238"/>
          <path d="M174.31,82.2a11.06,11.06,0,0,0-2.49-.31c-.39,0-.76-.07-.84-.33a2,2,0,0,1,.19-1.17c.32-1,.64-2,1-3,1.36-4.29,2.32-7.81,2.15-7.86s-1.42,3.38-2.78,7.67l-.94,3a2.26,2.26,0,0,0-.11,1.53,1,1,0,0,0,.66.53,2.81,2.81,0,0,0,.67.06A9.42,9.42,0,0,0,174.31,82.2Z" style="fill: #263238"/>
          <path d="M175,100.18a28,28,0,0,0,14.52-4.74S186,103.28,175,102.86Z" style="fill: #ff9a6c"/>
          <path d="M178.83,83c-.25,0-.16,1.64-1.51,2.89s-3.1,1.16-3.1,1.39.4.3,1.15.28A4.07,4.07,0,0,0,178,86.5a3.52,3.52,0,0,0,1.15-2.42C179.15,83.39,178.94,83,178.83,83Z" style="fill: #263238"/>
          <path d="M165.07,65c.28.36,1.42,0,2.79.09s2.51.33,2.79,0c.12-.17-.05-.52-.54-.87a4.11,4.11,0,0,0-2.24-.66,4,4,0,0,0-2.25.61C165.12,64.46,165,64.81,165.07,65Z" style="fill: #263238"/>
          <path d="M182.31,75.55A1.42,1.42,0,0,1,181,77a1.35,1.35,0,0,1-1.47-1.25,1.4,1.4,0,0,1,1.33-1.45A1.35,1.35,0,0,1,182.31,75.55Z" style="fill: #263238"/>
          <path d="M185.09,69.71c-.17.19-1.25-.58-2.77-.55s-2.62.81-2.79.62.09-.41.57-.78a3.93,3.93,0,0,1,2.23-.73,3.72,3.72,0,0,1,2.21.68C185,69.3,185.18,69.63,185.09,69.71Z" style="fill: #263238"/>
          <path d="M184.18,64.85c-.29.35-1.47,0-2.88,0s-2.6.28-2.88-.08c-.13-.17.06-.52.57-.86a4.42,4.42,0,0,1,2.34-.6,4.28,4.28,0,0,1,2.31.65C184.14,64.33,184.31,64.68,184.18,64.85Z" style="fill: #263238"/>
        </g>
        <g>
          <path d="M195.26,78.28c0-.82.79-2.8,1.59-3,2.15-.45,6.05-.49,6.39,5,.46,7.5-7.16,6.42-7.19,6.2S195.4,81.11,195.26,78.28Z" style="fill: #ffbf9d"/>
          <path d="M198,83.63s.14.08.36.17a1.34,1.34,0,0,0,1,0,3.26,3.26,0,0,0,1.32-3,4.47,4.47,0,0,0-.48-1.85,1.49,1.49,0,0,0-1-.94.67.67,0,0,0-.75.4c-.08.22,0,.36-.07.38s-.16-.12-.12-.43a.88.88,0,0,1,.26-.49,1,1,0,0,1,.71-.23,1.82,1.82,0,0,1,1.44,1.08,4.51,4.51,0,0,1,.58,2.06c0,1.51-.64,3-1.71,3.35a1.4,1.4,0,0,1-1.2-.12C198,83.81,197.92,83.64,198,83.63Z" style="fill: #ff9a6c"/>
        </g>
      </g>
      <path d="M197.16,75.33l-1.9,2C187,69.43,171,49.72,171.86,50.89a24,24,0,0,1,11.75-1.27c6.11,1,17.71,4.1,17.53,11.31S197.16,75.33,197.16,75.33Z" style="fill: #263238"/>
      <path d="M208.05,73.67a1.33,1.33,0,0,0-.11-.43,7.41,7.41,0,0,0-.51-1.18,10.82,10.82,0,0,0-3.14-3.53,20.54,20.54,0,0,0-6.3-3c-2.51-.82-5.34-1.45-8.11-2.65a36.82,36.82,0,0,1-7.41-4.14,38.91,38.91,0,0,1-5.22-4.57,41.54,41.54,0,0,1-3-3.59l-.75-1a1.63,1.63,0,0,0-.28-.35,2,2,0,0,0,.22.39c.15.25.37.62.69,1.08a34.4,34.4,0,0,0,3,3.68A36.48,36.48,0,0,0,182.26,59a36,36,0,0,0,7.47,4.22,83.49,83.49,0,0,0,8.15,2.62,20.89,20.89,0,0,1,6.25,2.92,11.28,11.28,0,0,1,3.17,3.38C207.85,73.09,208,73.69,208.05,73.67Z" style="fill: #455a64"/>
      <path d="M205.87,74.85a3.87,3.87,0,0,0-.29-1.64,7.74,7.74,0,0,0-2.82-3.53,16.92,16.92,0,0,0-6.25-2.45,37.24,37.24,0,0,1-7.78-2.46,33.32,33.32,0,0,1-6.92-4.28,34.18,34.18,0,0,1-4.76-4.67,36.06,36.06,0,0,1-2.64-3.64l-.64-1a2.89,2.89,0,0,0-.24-.36s.05.14.17.39.34.65.58,1.09A30.19,30.19,0,0,0,176.84,56a33.09,33.09,0,0,0,4.74,4.77,32.4,32.4,0,0,0,7,4.35,36.47,36.47,0,0,0,7.85,2.47,17.09,17.09,0,0,1,6.18,2.33,7.7,7.7,0,0,1,2.83,3.36A8.88,8.88,0,0,1,205.87,74.85Z" style="fill: #455a64"/>
      <path d="M196.91,88s.64-.14,1.75-.43a10.66,10.66,0,0,0,4.19-2.34,15,15,0,0,0,3.9-6,26.35,26.35,0,0,0,1.63-8.65A20.82,20.82,0,0,0,202.89,56a35.07,35.07,0,0,0-5-4.38,1.62,1.62,0,0,1,.41.21c.26.16.66.38,1.13.72a22.24,22.24,0,0,1,3.74,3.22,21.22,21.22,0,0,1,4.05,6.1,22.62,22.62,0,0,1,1.3,4.15,22.13,22.13,0,0,1,.38,4.65,25.94,25.94,0,0,1-1.7,8.8,15,15,0,0,1-4.09,6.06,10.46,10.46,0,0,1-4.37,2.27,8.87,8.87,0,0,1-1.33.21A2.77,2.77,0,0,1,196.91,88Z" style="fill: #455a64"/>
    </g>
    <g>
      <path d="M206.45,180.24l-44.33,6.43c-16.66,4.72-34.2,6.1-52.54,4.51L176.3,222.3l26.79.42s8.15,0,9.58-7.12,3-28.78,3-28.78S210.39,182.21,206.45,180.24Z" style="fill: #263238"/>
      <g style="opacity: 0.30000000000000004">
        <path d="M206.32,198.9a64.22,64.22,0,0,1,.78,13.43,13.31,13.31,0,0,0,3.29-11.2c-.39-2.19-1.3-4.6-.16-6.5.77-1.28,2.81-2.75,2.51-4.22,0,0-1.78,0-3.4-.06l-4-.13a14.27,14.27,0,0,1,.72,8.8"/>
      </g>
      <g>
        <polygon points="174.85 107.83 196.39 105.5 200.34 109.09 184.96 118.13 178.17 121.64 171.47 119.61 169.35 115.62 174.85 107.83" style="fill: #ffbf9d"/>
        <g>
          <path d="M145.81,134.06s6.76-13,8.43-15.79a22.69,22.69,0,0,1,8.17-7.56l12.44-2.88s-1.29,6.23,6.45,6.66c9.85.55,16-8.89,16-8.89s11.24,1.15,14.35,2.46,11.88,5,13.17,16.65l3,19-23.74,1.81.33,25.37-10.09,8.25s-29,10-30.82,10.63c-.88.31-.67-12-2.74-22.55l-3.91-9.49a36.91,36.91,0,0,1-2.76-11.93c-.16-2.7-.08-4.75-.08-4.75S147.89,139,145.81,134.06Z" style="fill: #455a64"/>
          <g>
            <path d="M164.52,179.86l39.81-12-.28-22.34L224.32,144s-1.62,11.57-1.85,17.51c-.34,8.54-4.45,20.47-7.2,23s-51.8,5.28-51.8,5.28Z" style="fill: #ffbf9d"/>
            <path d="M142,186.89a1.57,1.57,0,0,0,1.57.76,1.9,1.9,0,0,0,.39-.11c.87-.36.65-2.18.65-2.18l4.23-1s5.86,3.17,8,5.4,7.09-.09,7.09-.09l1-9.29-8.45-6.53s.52.39-.13-.9-3.09-.6-3.09-.6c-.44-.63-2.08-.74-2.08-.74l-6.86,1.33a4.77,4.77,0,0,0-3.3,2.45l-2.57,4.87s-1.29,3.46-1,4.21a1.38,1.38,0,0,0,1.68.79s.51,2.17,1.09,2.2a4.81,4.81,0,0,0,1.69-.54Z" style="fill: #ffbf9d"/>
            <path d="M156.18,179.18c0,.07-.93,0-2.4.23a21.22,21.22,0,0,0-5.57,1.5,20.07,20.07,0,0,0-2.82,1.47c-.8.54-1.65,1-1.87,1.62a.84.84,0,0,0,.14.82,1.18,1.18,0,0,0,.56.4c.37.13.6,0,.61.05s-.2.2-.65.12a1.28,1.28,0,0,1-.71-.41,1.12,1.12,0,0,1-.25-1.07,2.17,2.17,0,0,1,.79-1,13.88,13.88,0,0,1,1.16-.83A17.86,17.86,0,0,1,148,180.5a18.36,18.36,0,0,1,5.72-1.4A7.76,7.76,0,0,1,156.18,179.18Z" style="fill: #ff9a6c"/>
            <path d="M157,183.56c0,.13-2.83.23-6.28.7s-6.2,1.11-6.23,1a7.17,7.17,0,0,1,1.77-.58,39.84,39.84,0,0,1,4.41-.84,40.47,40.47,0,0,1,4.47-.35A6.76,6.76,0,0,1,157,183.56Z" style="fill: #ff9a6c"/>
            <path d="M142,186.71a3.85,3.85,0,0,1-.14-.73,15.14,15.14,0,0,1-.16-2,7.9,7.9,0,0,1,.08-1.42,4.1,4.1,0,0,1,.57-1.56,9.36,9.36,0,0,1,2.39-2.86,13.25,13.25,0,0,1,3.18-1.94,11.79,11.79,0,0,1,3-.68c.85-.1,1.54-.13,2-.15a2.62,2.62,0,0,1,.75,0,21.13,21.13,0,0,1-2.73.45,13,13,0,0,0-2.85.75,14.18,14.18,0,0,0-3.06,1.9,9.44,9.44,0,0,0-2.31,2.72A5.32,5.32,0,0,0,142,184C141.94,185.64,142.07,186.7,142,186.71Z" style="fill: #ff9a6c"/>
            <path d="M151,173.36c0,.07-1,.18-2.67.5s-4.12.68-5.4,3a23.81,23.81,0,0,0-3.08,5.7,13.85,13.85,0,0,0-.45,2.65,1.71,1.71,0,0,1-.1-.73,6.82,6.82,0,0,1,.25-2,20.59,20.59,0,0,1,3-5.87,7.67,7.67,0,0,1,1.24-1.47,5.18,5.18,0,0,1,1.57-.89,15,15,0,0,1,2.9-.69A11.38,11.38,0,0,1,151,173.36Z" style="fill: #ff9a6c"/>
            <path d="M155.19,188.37a2.64,2.64,0,0,1-.43-.28l-1.24-.84a47.6,47.6,0,0,0-4.79-2.79h.1l-4.23,1.07.13-.2a4.7,4.7,0,0,1,0,1.06,1.93,1.93,0,0,1-.41,1.07,1,1,0,0,1-.54.3,1.37,1.37,0,0,1-.6.08,1.75,1.75,0,0,1-1.12-.5l-.2-.24-.05-.07,0,0v0h0l.26.07h0l-.13.06a4.41,4.41,0,0,1-.54.24,4.77,4.77,0,0,1-.57.2l-.32.05a.65.65,0,0,1-.4,0,1.25,1.25,0,0,1-.47-.54,5.86,5.86,0,0,1-.26-.57,11.7,11.7,0,0,1-.36-1.19l.26.15a1.63,1.63,0,0,1-1.64-.42,1.3,1.3,0,0,1-.36-.84,3.8,3.8,0,0,1,.08-.84,23.12,23.12,0,0,1,.95-3.18h0l1.37-2.6.87-1.64a8.4,8.4,0,0,1,1-1.61,4.81,4.81,0,0,1,1.47-1.15,6.1,6.1,0,0,1,1.74-.5l6.48-1.24h.05a5.75,5.75,0,0,1,1.17.22,1.9,1.9,0,0,1,1,.61l-.24-.05a2.38,2.38,0,0,1,2.23,0,2.81,2.81,0,0,1,1.24,1.67l-.06-.09,5.82,4.48L164,179.4a4,4,0,0,1,.53.46,4.3,4.3,0,0,1-.58-.38l-1.63-1.17L156.4,174l0,0,0-.06a2.51,2.51,0,0,0-1.08-1.45,2.07,2.07,0,0,0-1.89.06l-.14.08-.1-.13a1.71,1.71,0,0,0-.85-.47,6.36,6.36,0,0,0-1.09-.18h.05l-6.47,1.28a5.42,5.42,0,0,0-1.62.47,4.1,4.1,0,0,0-1.33,1,7.77,7.77,0,0,0-.92,1.52c-.29.55-.58,1.09-.87,1.65l-1.37,2.59v0a23.24,23.24,0,0,0-.93,3.1,3.22,3.22,0,0,0-.08.74.87.87,0,0,0,.25.57,1.19,1.19,0,0,0,1.2.31l.21-.05.06.2a8.36,8.36,0,0,0,.34,1.14,2.12,2.12,0,0,0,.52.9.48.48,0,0,0,.18,0l.26-.05a3.62,3.62,0,0,0,.53-.17l.51-.22.12-.06h0l.27.07h0v0l0,0c0,.06.1.13.16.19a1.38,1.38,0,0,0,.86.4,1.07,1.07,0,0,0,.47-.06.73.73,0,0,0,.38-.2,2.62,2.62,0,0,0,.33-1.82v-.16l.14,0,4.25-1h.05l.05,0a42,42,0,0,1,4.75,2.91c.53.39.93.7,1.2.91A2.37,2.37,0,0,1,155.19,188.37Z" style="fill: #ff9a6c"/>
          </g>
        </g>
      </g>
      <g>
        <g>
          <path d="M134.5,194.13s-28.09-8.82-36.91-11.68c-15.19-4.93-25.14.05-28.27,5.48-4.07,7.06,5.69,20.81,9.45,24C89.9,221.26,109,222.52,109,222.52h0l68.65-.13L157.6,195.22Z" style="fill: #263238"/>
          <g>
            <path d="M138.7,206.87A68.41,68.41,0,0,1,105,202.29a42.84,42.84,0,0,0-5.63-2.09,16.42,16.42,0,0,0-5.8-.41,5.72,5.72,0,0,0-4.09,1.85c-1.37,1.81-.67,4.37.09,6.51.9,2.5,1.82,5.07,3.57,7.07,2,2.34,5,3.69,7.95,4.62,5.8,1.82,11.92,2.35,18,2.59L140,221.29Z" style="fill: #e0e0e0"/>
            <path d="M98.42,200.21s.15.18.32.56a9.09,9.09,0,0,1,.55,1.66A10.77,10.77,0,0,1,95.89,213a9.42,9.42,0,0,1-1.42,1,1.9,1.9,0,0,1-.59.27c0-.07.76-.52,1.8-1.53A11.35,11.35,0,0,0,99,202.5C98.73,201.07,98.35,200.23,98.42,200.21Z" style="fill: #263238"/>
          </g>
          <path d="M206.19,192.41c-1.63-4.62-1.9-11.41-12-14.68s-17.66,3-22.82,5.17S138,200.56,138,200.56s-5.32,9.49-3.81,13.68,8.4,8.34,8.4,8.34h31.6c8.15,0,23.32-.28,23.32-.28A92,92,0,0,0,202.93,212l.27-1.36C203.2,209.53,207.82,197,206.19,192.41Z" style="fill: #263238"/>
          <path d="M188.68,216.41a.87.87,0,0,1-.23.43,5.35,5.35,0,0,1-1,.94,27,27,0,0,1-4.47,2.51,28.46,28.46,0,0,1-3.3,1.29,23.27,23.27,0,0,1-4,.86,76.28,76.28,0,0,1-9.28.37c-6.58.1-12.53.35-16.85.3-2.16,0-3.9-.1-5.11-.23-.6-.06-1.06-.13-1.38-.19a2.71,2.71,0,0,1-.47-.11c0-.05.67.07,1.87.13s2.94.11,5.09.09c4.31,0,10.26-.33,16.84-.43a82,82,0,0,0,9.24-.33,23.94,23.94,0,0,0,3.93-.81,31.47,31.47,0,0,0,3.28-1.23,30.71,30.71,0,0,0,4.49-2.36,6.45,6.45,0,0,0,1.07-.85A2.7,2.7,0,0,0,188.68,216.41Z" style="fill: #263238"/>
        </g>
        <path d="M142.57,222.58s-.15-.07-.42-.23-.66-.4-1.17-.73a29,29,0,0,1-4.16-3.3,13,13,0,0,1-2.35-3,7,7,0,0,1-.46-4.49,37.6,37.6,0,0,1,3.82-10.31l0,0,.05,0c5.17-2.84,11.11-6.09,17.6-9.57,3.24-1.74,6.62-3.54,10.13-5.35,1.76-.9,3.54-1.83,5.4-2.66s3.63-1.82,5.49-2.77a31.3,31.3,0,0,1,8.16-3.07,19.76,19.76,0,0,1,4.26-.39,19.06,19.06,0,0,1,4.14.6,19.55,19.55,0,0,1,7.23,3.46,14.24,14.24,0,0,1,2.64,2.85,16.64,16.64,0,0,1,1.69,3.34,35.74,35.74,0,0,1,1.09,3.43,27.58,27.58,0,0,1,.9,3.35,22,22,0,0,1-.54,6.46c-.4,2-.9,3.89-1.4,5.65-.25.87-.5,1.72-.74,2.54a23.44,23.44,0,0,0-.62,2.34v0c-.11.52-.2.94-.28,1.36h0a33.13,33.13,0,0,1-3.63,7.87,13.69,13.69,0,0,1-1.93,2.42l.12-.16.38-.46a21.33,21.33,0,0,0,1.32-1.87,34,34,0,0,0,3.5-7.87h0c.52-.43.41-.85.27-1.36v0a21,21,0,0,1,.62-2.42c.23-.82.47-1.67.72-2.54.48-1.76,1-3.63,1.36-5.64a21.76,21.76,0,0,0,.5-6.35,29.11,29.11,0,0,0-.9-3.29c-.33-1.12-.65-2.27-1.09-3.39a16.2,16.2,0,0,0-1.67-3.26,14.1,14.1,0,0,0-2.55-2.75,19.39,19.39,0,0,0-7.09-3.37,18.74,18.74,0,0,0-4-.57,19.53,19.53,0,0,0-4.16.38,30.54,30.54,0,0,0-8.05,3c-1.84.93-3.63,2-5.51,2.77s-3.62,1.75-5.38,2.64c-3.51,1.81-6.89,3.61-10.14,5.34l-17.63,9.5.07-.07a37.65,37.65,0,0,0-3.85,10.19,6.8,6.8,0,0,0,.4,4.35,13.13,13.13,0,0,0,2.28,3,30.87,30.87,0,0,0,4.07,3.36l1.15.77C142.44,222.48,142.57,222.58,142.57,222.58Z" style="fill: #263238"/>
        <g>
          <path d="M194,210.85s9.41,1.13,8.58,5.74-3.92,6.15-3.92,6.15l-25.58.06S188.36,221.73,194,210.85Z" style="fill: #e0e0e0"/>
          <path d="M194.91,208.61a3.13,3.13,0,0,1-.28,1.31,10.2,10.2,0,0,1-1.53,2.85,7.57,7.57,0,0,1-3.6,2.76,20.25,20.25,0,0,0,3.25-3A25.15,25.15,0,0,0,194.91,208.61Z" style="fill: #263238"/>
        </g>
        <path d="M191.65,210.42a6.23,6.23,0,0,1-.91,3.28,7.12,7.12,0,0,1-2.06,2.71c-.1-.08.83-1.27,1.66-2.91S191.52,210.4,191.65,210.42Z" style="fill: #263238"/>
        <path d="M203.66,221.46c-.07,0,.53-1.21,1.27-3.18a34.81,34.81,0,0,0,1.92-8,34.46,34.46,0,0,0-.07-8.22c-.27-2.09-.6-3.37-.52-3.38a3.83,3.83,0,0,1,.3.87,23,23,0,0,1,.53,2.47,30.24,30.24,0,0,1-1.87,16.36,21.37,21.37,0,0,1-1.08,2.28A4.17,4.17,0,0,1,203.66,221.46Z" style="fill: #455a64"/>
        <g style="opacity: 0.30000000000000004">
          <path d="M198.33,208.37c-.07-.62-.31-1.35-.92-1.48s-1.26.71-1.56,1.4c-3.24,7.51-13.92,13.35-22.06,14.11a75.39,75.39,0,0,0,11.82-1,17.94,17.94,0,0,0,9-4.12A10.89,10.89,0,0,0,198.33,208.37Z"/>
        </g>
        <path d="M136,198.16a26.94,26.94,0,0,1-4.53-1.72,26.43,26.43,0,0,1-4.35-2.13,27.67,27.67,0,0,1,4.53,1.72A27.4,27.4,0,0,1,136,198.16Z" style="fill: #263238"/>
      </g>
      <g style="opacity: 0.2">
        <path d="M145.12,194.2q-18.28-3.49-36.69-6.21l-9.14,2.89c2.56,4.77,7.62,7.8,12.88,9.06s10.77,1,16.15.46c5.94-.55,12-1.38,17.19-4.35.4-.23.84-.57.79-1S145.62,194.3,145.12,194.2Z"/>
      </g>
      <g>
        <g>
          <path d="M85.12,157.91l15.35,34a4,4,0,0,0,3.57,2.34l44.78.58,5.64-3-8.84-.65-13.75-33a2.86,2.86,0,0,0-2.61-1.75L86.36,156A1.36,1.36,0,0,0,85.12,157.91Z" style="fill: #e0e0e0"/>
          <path d="M85.12,157.91a1,1,0,0,1-.13-.41,1.35,1.35,0,0,1,.42-1.18,1.4,1.4,0,0,1,.87-.37h3.93l18,.06,12.48.06,7,0,1.83,0a3.1,3.1,0,0,1,1.8.76,3.78,3.78,0,0,1,1,1.65c.25.58.49,1.16.73,1.75L145.86,191l-.22-.16,8.54.63.3,0,.86.06-.76.41-5.64,3-.06,0h-.06l-34-.47-7.58-.11c-1.24,0-2.42,0-3.65-.07a4.18,4.18,0,0,1-3-1.88c-2-4.2-3.67-8.1-5.29-11.65-3.17-7.1-5.73-12.83-7.51-16.8l-2-4.55-.51-1.19c-.11-.27-.16-.41-.16-.41a4.11,4.11,0,0,1,.2.39c.14.28.32.67.56,1.17L88,164c1.81,4,4.42,9.66,7.65,16.74,1.63,3.52,3.36,7.48,5.31,11.57a3.78,3.78,0,0,0,2.75,1.68c1.15.06,2.39,0,3.6.06l7.58.09,34,.42-.12,0,5.65-3,.1.47-.31,0-8.53-.63h-.16l-.06-.14c-4.56-11-8.87-21.36-12.78-30.75-.24-.59-.48-1.17-.73-1.75a3.34,3.34,0,0,0-.9-1.49,2.64,2.64,0,0,0-1.54-.66l-1.8,0-7-.07-12.49-.12-18-.21-2.81,0H86.28a1.32,1.32,0,0,0-.81.32,1.36,1.36,0,0,0-.44,1.1C85.06,157.77,85.14,157.9,85.12,157.91Z" style="fill: #263238"/>
        </g>
        <path d="M144.31,194.73a1.3,1.3,0,0,1-.21-.37c-.14-.3-.3-.66-.51-1.1l-1.8-4.07c-1.49-3.44-3.53-8.22-5.72-13.51s-4.11-10.12-5.45-13.63c-.67-1.75-1.2-3.18-1.55-4.17l-.38-1.15c-.09-.26-.13-.4-.11-.41a2.09,2.09,0,0,1,.19.38c.12.3.28.67.46,1.12l1.68,4.12,5.57,13.57,5.6,13.56c.68,1.69,1.25,3.09,1.67,4.12.17.45.32.83.43,1.13A1.64,1.64,0,0,1,144.31,194.73Z" style="fill: #263238"/>
        <path d="M116.53,174.37a2.2,2.2,0,1,1-2.2-2.19A2.2,2.2,0,0,1,116.53,174.37Z" style="fill: #fff"/>
      </g>
      <path d="M160.13,119.74c.06,0-.58,1.25-1.49,3.26a58.4,58.4,0,0,0-2.93,8.09,59.16,59.16,0,0,0-1.68,8.43c-.26,2.19-.34,3.56-.41,3.56a3.4,3.4,0,0,1-.05-1c0-.62,0-1.51.13-2.62a47.75,47.75,0,0,1,1.54-8.53,46.41,46.41,0,0,1,3.1-8.1c.49-1,.92-1.79,1.25-2.32A3.92,3.92,0,0,1,160.13,119.74Z" style="fill: #263238"/>
      <path d="M227.79,143.76a1.86,1.86,0,0,1-.49.08l-1.42.14-5.33.44-18.19,1.38h-.24v-.23c-.16-2.42-.32-5-.48-7.59-.26-4.57-.48-8.93-.55-12.89a18.31,18.31,0,0,1,2.33-10.23,12.62,12.62,0,0,1,5.1-4.9,10.23,10.23,0,0,1,1.81-.7,3.17,3.17,0,0,1,.66-.16,25.09,25.09,0,0,0-2.38,1,12.63,12.63,0,0,0-4.89,4.9,18.06,18.06,0,0,0-2.19,10c.09,3.95.33,8.3.59,12.87.16,2.62.31,5.17.46,7.59l-.25-.22,18.21-1.2,5.33-.31,1.44-.06Z" style="fill: #263238"/>
      <path d="M183.15,159.28a2.76,2.76,0,0,1-.79-.29,6.77,6.77,0,0,1-.89-.45,9.31,9.31,0,0,1-1.13-.69,15.88,15.88,0,0,1-2.62-2.22,17.29,17.29,0,0,1-4.13-7.27A15.66,15.66,0,0,1,173,145a9.91,9.91,0,0,1,0-1.32,6.75,6.75,0,0,1,.07-1,2.67,2.67,0,0,1,.16-.84c.09,0-.06,1.21.12,3.12a18.2,18.2,0,0,0,.66,3.29,18.31,18.31,0,0,0,4,7.1,17.55,17.55,0,0,0,2.49,2.25C182.08,158.72,183.19,159.2,183.15,159.28Z" style="fill: #263238"/>
    </g>
  </g>
</svg>
