<svg viewBox="0 0 512 512" xmlns="http://www.w3.org/2000/svg"><path d="m506.89 450.58c0 .16-112.51.29-251.27.29s-251.3-.13-251.3-.29 112.49-.28 251.3-.28 251.27.13 251.27.28z" fill="#263238"/><path d="m185.84 42.59a2.12 2.12 0 0 0 -2.67-1.42l-9.65 3-132.17 35 47.07 183.5 16.38 8.62 134.53-37.4a4.05 4.05 0 0 0 2.79-5.08z" fill="#be123c"/><path d="m170.89 35.32 13.17 7.72 56.38 187.87-135.86 38.78-15.43-8.37z" fill="#f5f5f5"/><path d="m222 223.1-133.58 39.57-54-182.22a4.57 4.57 0 0 1 3-5.66l132.13-41.47a2.54 2.54 0 0 1 3.21 1.68l52.24 182.64a4.42 4.42 0 0 1 -3 5.46z" fill="#e60053"/><path d="m105.51 255c-.15 0-12.58-40.75-27.76-91.12s-27.36-91.28-27.2-91.33 12.57 40.75 27.75 91.13 27.36 91.23 27.21 91.32z" fill="#263238"/><path d="m100.8 259.67c-.15.05-12.58-40.75-27.76-91.12s-27.36-91.24-27.2-91.29 12.57 40.74 27.75 91.13 27.41 91.23 27.21 91.28z" fill="#263238"/><g fill="#fff"><path d="m95 122.29c.89 2.82-.57 5.39-3.63 6.35l-4 1.26-3-9.46 4.08-1.29c2.98-.94 5.62.33 6.55 3.14zm-2.51.82a2.67 2.67 0 0 0 -3.49-1.93l-1.55.49 1.72 5.45 1.67-.53a2.59 2.59 0 0 0 1.6-3.48z"/><path d="m97.17 116.4 3 9.46-2.47.78-3-9.47z"/><path d="m104.14 116.42a2.81 2.81 0 0 0 1.68 5.35 3.69 3.69 0 0 0 2-1.85l1.93 1.1a5.92 5.92 0 0 1 -3.37 3 5.05 5.05 0 1 1 -2.94-9.66 5.66 5.66 0 0 1 4.33.41l-.89 2.17a3.38 3.38 0 0 0 -2.74-.52z"/><path d="m115.64 110.57.64 2-2.84.9 2.34 7.42-2.47.78-2.31-7.39-2.8.89-.65-2z"/><path d="m119.11 109.48 3 9.46-2.47.78-3-9.46z"/><path d="m132.06 110.59a5.38 5.38 0 1 1 -6.63-3.18 5.1 5.1 0 0 1 6.63 3.18zm-7.69 2.41a2.8 2.8 0 0 0 3.46 1.91 2.76 2.76 0 0 0 1.7-3.54 2.73 2.73 0 0 0 -3.41-1.89 2.77 2.77 0 0 0 -1.75 3.52z"/><path d="m134 104.79 6.08 4.35-1.79-5.7 2.29-.72 3 9.46-2.16.68-6.07-4.32 1.78 5.67-2.31.73-3-9.46z"/><path d="m151.17 107.93-4.09 1.29-.13 1.89-2.54.8 1.08-10.75 2.54-.8 6.95 8.21-2.63.83zm-1.32-1.65-2.36-3-.26 3.79z"/><path d="m161.52 106.51-2.2-2.18h-.06l-1.78.56.83 2.62-2.47.78-3-9.47 4.26-1.34c2.51-.79 4.32 0 5 2.08a3.36 3.36 0 0 1 -.72 3.58l2.94 2.47zm-4.66-3.57 1.8-.57a1.45 1.45 0 0 0 1.11-2 1.43 1.43 0 0 0 -2-.93l-1.77.56z"/><path d="m169.55 100.66.95 3-2.47.78-.93-2.95-5.54-5.41 2.47-.78 3.53 3.36.9-4.76 2.47-.77z"/><path d="m126.4 151.35-10.75 3.39-.35 4.95-6.67 2.1 2.84-28.24 6.67-2.1 18.27 21.55-6.92 2.19zm-3.48-4.35-6.2-7.8-.68 10z"/><path d="m143.51 136.6 1.28 4-9.4 3-1.28-4.05z"/><path d="m164.47 116.85 1.34 4.26-8.27 19.53 13.34-4.2 1.64 5.21-22 6.95-1.33-4.23 8.26-19.57-12.66 4-1.65-5.22z"/></g><path d="m229 227.87a1.41 1.41 0 0 1 -.31.12l-.93.32-3.59 1.15-13.23 4.13-43.75 13.41-43.76 13.27-13.28 3.95-3.62 1.05-1 .26a1.11 1.11 0 0 1 -.33.07l.31-.13.93-.31 3.59-1.15 13.23-4.13 43.74-13.41 43.76-13.27 13.28-4 3.62-1 .94-.26a1.24 1.24 0 0 1 .4-.07z" fill="#263238"/><path d="m154.07 247.39-20.26 6.22a96.39 96.39 0 0 1 10 27.89 28.29 28.29 0 0 0 4.55-14.9 105.2 105.2 0 0 0 11.16 11.48 77 77 0 0 0 -5.45-30.69z" fill="#455a64"/><path d="m226.48 225.4a1.17 1.17 0 0 1 -.31.12l-.93.32-3.59 1.16-13.22 4.13-43.71 13.43-43.72 13.26-13.28 3.95-3.62 1.05-1 .26a1.11 1.11 0 0 1 -.33.07l.31-.12.93-.32 3.59-1.15 13.23-4.13 43.72-13.43 43.76-13.27 13.28-3.95 3.62-1.05.95-.26a1.14 1.14 0 0 1 .32-.07z" fill="#263238"/><path d="m230.58 220.21a2.29 2.29 0 0 1 -.16-.46c-.1-.33-.23-.78-.41-1.36-.35-1.22-.85-3-1.5-5.24l-5.51-19.28c-4.62-16.28-11.05-38.76-18.3-63.55s-14-47.19-18.86-63.4c-2.43-8.08-4.41-14.63-5.78-19.19-.67-2.25-1.19-4-1.56-5.22-.16-.58-.29-1-.39-1.36a3.43 3.43 0 0 1 -.11-.47 3.58 3.58 0 0 1 .17.45l.44 1.34c.39 1.22 1 3 1.66 5.2 1.42 4.54 3.45 11.07 6 19.13 5 16.18 11.76 38.57 19 63.36s13.62 47.29 18.14 63.6l5.3 19.34c.61 2.26 1.08 4 1.41 5.26.14.59.26 1 .35 1.38a4.21 4.21 0 0 1 .11.47z" fill="#263238"/><path d="m172.45 75.85-.14-.38c-.09-.27-.21-.63-.36-1.11l-1.38-4.29c-1.19-3.74-2.92-9.18-5.1-16.06l.2.11-100.4 31.44.19-.36c2.34 7.5 4.62 14.84 6.82 21.89l-.35-.18 71.6-22.2 21.19-6.52 5.72-1.75 1.5-.44.52-.15-.46.15-1.45.47-5.64 1.8-21.11 6.73-71.71 22.44-.27.09-.09-.27-6.83-21.89-.08-.27.27-.09 100.48-31.2.15-.05.05.16 5 16.2 1.23 4.28c.14.47.24.83.32 1.09a3.31 3.31 0 0 1 .13.36z" fill="#fff"/><circle cx="421.76" cy="101.56" fill="#fff" r="45.7" transform="matrix(.92606829 -.37735595 .37735595 .92606829 -7.14 166.65)"/><path d="m384.42 146.75a13 13 0 0 0 -.29-1.34 6.07 6.07 0 0 0 -2.11-3 5.79 5.79 0 0 0 -2.28-1.06 5 5 0 0 0 -2.83.24 5.48 5.48 0 0 0 -.32 10.27 5 5 0 0 0 2.82.42 5.65 5.65 0 0 0 2.33-.92 6.14 6.14 0 0 0 2.3-2.83c.31-.82.32-1.33.37-1.32a1.63 1.63 0 0 1 0 .36 2.91 2.91 0 0 1 -.07.43 3.11 3.11 0 0 1 -.15.58 6.15 6.15 0 0 1 -4.73 4 5.3 5.3 0 0 1 -3-.41 6.24 6.24 0 0 1 -2.59-2.16 5.49 5.49 0 0 1 .21-6.84 6.19 6.19 0 0 1 2.72-2 5.37 5.37 0 0 1 3.05-.23 6.15 6.15 0 0 1 2.39 1.17 6 6 0 0 1 2.08 3.16 3.09 3.09 0 0 1 .12.59 1.77 1.77 0 0 1 0 .44c0 .33 0 .45-.02.45z" fill="#263238"/><path d="m414.05 147 .74.07 2.18.23 1.6.18h1.95 2.26a9 9 0 0 0 1.26-.05l1.32-.12a43.86 43.86 0 0 0 12.91-3 45.75 45.75 0 0 0 14.79-9.32l1.79-1.71c.57-.61 1.1-1.26 1.66-1.9l.84-1a7.17 7.17 0 0 0 .81-1l1.53-2.16c.25-.36.52-.72.77-1.09s.44-.79.67-1.18l1.36-2.39c.43-.81.77-1.69 1.16-2.54.2-.43.39-.86.58-1.3.09-.21.2-.43.28-.65l.23-.68a42.55 42.55 0 0 0 1.63-5.6c.2-1 .46-1.94.62-2.93s.23-2 .35-3c.05-.5.14-1 .16-1.52s0-1 0-1.55c0-1 .06-2.08 0-3.12a49 49 0 0 0 -.75-6.33c-.1-.53-.19-1.06-.29-1.59-.06-.27-.1-.54-.16-.8l-.22-.79c-.31-1-.61-2.09-.92-3.15s-.8-2.06-1.2-3.1c-.22-.52-.39-1.05-.64-1.55l-.72-1.36a52.29 52.29 0 0 0 -3.49-5.86l-2.11-2.77-.54-.68c-.19-.22-.4-.43-.6-.64l-1.2-1.27-1.22-1.27-1.33-1.17-1.34-1.16-.68-.58c-.23-.18-.48-.35-.72-.52l-2.96-2.08-3.13-1.79a49.21 49.21 0 0 0 -13.86-4.75 48.64 48.64 0 0 0 -14.65-.09l-3.56.66-3.44 1-.86.25-.83.33-1.65.65-1.64.66-1.57.8-1.56.8-.77.41-.74.47-2.92 1.86a52.9 52.9 0 0 0 -5.23 4.38l-1.22 1.16c-.41.39-.75.84-1.12 1.25-.72.85-1.48 1.66-2.16 2.53l-1.91 2.68-.47.66c-.14.23-.27.47-.41.71-.27.47-.53.94-.8 1.4a48 48 0 0 0 -2.79 5.73c-.38 1-.67 2-1 3l-.49 1.47c-.15.49-.23 1-.35 1.49-.22 1-.44 2-.66 3s-.26 2-.39 3a44.26 44.26 0 0 0 -.31 5.83v.72.71l.12 1.41c.09.94.12 1.87.26 2.79s.34 1.81.5 2.7l.24 1.33c.13.43.25.86.37 1.29.24.85.49 1.7.73 2.54a7.69 7.69 0 0 0 .43 1.22c.15.4.31.8.47 1.2.32.79.61 1.58.94 2.35l1.13 2.2a45.63 45.63 0 0 0 10.89 13.57c.49.42 1 .85 1.44 1.24l1.5 1.07 1.45 1c.23.17.46.34.7.49l.73.42 2.76 1.59c.89.48 1.8.83 2.62 1.22l1.21.54a8.17 8.17 0 0 0 1.17.47l2.15.72c.67.22 1.28.45 1.85.6l1.57.36 2.13.5.73.18-.74-.14-2.14-.45-1.58-.34c-.57-.15-1.19-.38-1.86-.59l-2.16-.71a7.61 7.61 0 0 1 -1.17-.45l-1.23-.54c-.83-.39-1.73-.73-2.63-1.21s-1.82-1-2.78-1.58l-.74-.41c-.24-.15-.47-.33-.71-.49l-1.46-1-1.47-1.07c-.48-.39-1-.82-1.46-1.24a45.83 45.83 0 0 1 -11-13.72c-.37-.73-.75-1.47-1.14-2.21s-.63-1.57-.95-2.37q-.24-.58-.48-1.2a8.55 8.55 0 0 1 -.44-1.23l-.74-2.56c-.12-.43-.26-.86-.37-1.29s-.17-.9-.25-1.35c-.17-.89-.34-1.8-.51-2.72s-.17-1.86-.27-2.8l-.12-1.43c0-.23 0-.47-.05-.71v-.72a43.31 43.31 0 0 1 .3-5.88c.13-1 .2-2 .38-3l.66-3c.12-.5.21-1 .36-1.51s.32-1 .49-1.48c.34-1 .63-2 1-3a49.61 49.61 0 0 1 2.81-5.78l.81-1.42c.13-.23.26-.48.41-.71l.47-.67 1.92-2.71c.69-.87 1.45-1.69 2.18-2.55.37-.42.71-.87 1.12-1.26l1.24-1.17a51.31 51.31 0 0 1 5.29-4.39l2.94-1.92.74-.47.78-.41 1.58-.81 1.58-.81 1.65-.66 1.67-.67.83-.33.87-.25 3.48-1 3.58-.59a45.87 45.87 0 0 1 28.78 4.88l3.16 1.82 2.95 2.09c.25.18.5.34.74.53l.67.59 1.36 1.09 1.34 1.17 1.23 1.29 1.21 1.28c.21.22.41.42.61.64l.54.7 2.16 2.75a53.22 53.22 0 0 1 3.55 5.95l.77 1.51c.27.5.43 1 .65 1.56.41 1.05.86 2.08 1.21 3.13s.62 2.13.92 3.19l.23.79c.06.26.1.53.15.8l.3 1.61a48.17 48.17 0 0 1 .74 6.38v3.15 1.56s-.11 1-.17 1.54l-.36 3c-.15 1-.42 2-.62 2.95a42.76 42.76 0 0 1 -1.66 5.64l-.23.69c-.08.22-.19.44-.28.66-.2.43-.39.87-.59 1.3-.4.86-.74 1.74-1.18 2.56l-1.37 2.4-.68 1.18c-.25.38-.52.74-.78 1.11l-1.54 2.17a9.89 9.89 0 0 1 -.82 1c-.28.32-.56.65-.85 1-.56.65-1.11 1.3-1.68 1.92l-1.81 1.71a45.84 45.84 0 0 1 -14.91 9.32 43.82 43.82 0 0 1 -13 2.92l-1.33.1a7.6 7.6 0 0 1 -1.25.05l-2.28-.05c-.7 0-1.35 0-1.95-.06l-1.6-.2-2.18-.28c-.56-.03-.8-.09-.8-.09z" fill="#263238"/><path d="m410.81 91.53h6.44s0-5.42 5.63-5.51a5.22 5.22 0 0 1 5.05 3.33 5.78 5.78 0 0 1 -.46 5.22c-1.09 1.8-3.49 3.44-7.83 2.67v14.53h6.36v-8.51a12.44 12.44 0 0 0 9-12.16c0-9.42-8.45-11.61-12.07-11.61-2.82 0-12.24.67-12.12 12.04z" fill="#263238"/><path d="m419.62 114.77h6.47v6.04h-6.47z" fill="#263238"/><path d="m259.22 113.69c-6.43-4.93-7.19-15.1-2.87-21.94s12.54-10.51 20.65-11.1a37.29 37.29 0 0 1 31 13.42c4 4.91 7 11.13 12.81 13.73 5.07 2.28 11 1.15 16.45 2.35 7.29 1.6 13.14 7.4 16.36 14.13s4.12 14.34 4.34 21.8c.2 6.84.08 14.33 4.34 19.69s11.31 6.88 16.71 10.81c10.15 7.4 12.22 23.7 4.23 33.4-2.54 3.09-6.05 5.82-6.66 9.78-.56 3.62 1.5 7.06 2.3 10.63 2 9.19-6.22 19.17-15.63 18.89-4.75-.15-9.65-2.44-14.08-.7s-6.41 6.67-9.44 10.29a20.34 20.34 0 0 1 -25.25 4.2c-3.33-2-6.36-5.12-10.25-5.2s-7.21 2.94-11.07 3.34c-5.05.53-9.44-3.55-12-7.92s-4.22-9.39-7.7-13.08c-4.57-4.84-11.42-6.55-17.5-9.26a51.45 51.45 0 0 1 -22.61-74.35" fill="#263238"/><path d="m323.41 209.07a14 14 0 0 1 5.85-3.14l-.42-.07a8 8 0 0 1 1.2-.09 5.5 5.5 0 0 1 4.27.91 10.27 10.27 0 0 1 5.16 5.36 12.14 12.14 0 0 1 -2.53 12.35c-2.59 2.84-6.76 4.48-10.4 3.25-3.35-1.13-5.61-4.46-6.28-7.93a11.52 11.52 0 0 1 3.15-10.64z" fill="#455a64"/><path d="m334 162.71c-.07-19.34-11.43-43.75-30.75-42.86l-60.86 11.58a11.33 11.33 0 0 0 -10.8 10.86l-8.39 163.14 68.89-.36c.83-11.67 3.91-44.54 3.91-44.43s26.81-2.55 33.82-34.37c3.51-15.82 4.27-42.06 4.18-63.56z" fill="#ffbf9d"/><path d="m319.58 189.06a4.13 4.13 0 0 1 -4.22 3.92 4 4 0 0 1 -4-4 4.12 4.12 0 0 1 4.22-3.92 4 4 0 0 1 4 4z" fill="#263238"/><path d="m327.56 173.82c-.54.51-3.52-2-8-2.24s-7.81 1.77-8.26 1.2c-.22-.26.35-1.2 1.83-2.14a11.35 11.35 0 0 1 6.66-1.63 10.85 10.85 0 0 1 6.29 2.46c1.34 1.13 1.75 2.12 1.48 2.35z" fill="#263238"/><path d="m279.7 186.31a4.11 4.11 0 0 1 -4.22 3.92 4 4 0 0 1 -4-4 4.15 4.15 0 0 1 4.22-3.93 4 4 0 0 1 4 4.01z" fill="#263238"/><path d="m283.94 172.05c-.55.51-3.54-2-8-2.24s-7.81 1.77-8.26 1.2c-.22-.26.35-1.2 1.84-2.14a11.3 11.3 0 0 1 6.65-1.63 10.91 10.91 0 0 1 6.3 2.46c1.32 1.12 1.73 2.12 1.47 2.35z" fill="#263238"/><path d="m298.06 205.89c0-.26 2.78-.57 7.28-.87 1.14-.05 2.23-.21 2.46-1s-.08-2-.55-3.4l-2.84-8.82c-3.91-12.55-6.68-22.84-6.17-23s4.09 9.89 8 22.44c.94 3.1 1.84 6 2.69 8.87.35 1.31 1 2.81.32 4.47a2.83 2.83 0 0 1 -2 1.55 7.58 7.58 0 0 1 -1.94.15c-4.45.01-7.24-.14-7.25-.39z" fill="#263238"/><path d="m296.3 260.21s-19.76.18-40.4-14c0 0 7.17 24.66 39.5 23.57z" fill="#ff9a6c"/><path d="m296.78 216.39a10.94 10.94 0 0 0 -8.7-5.3 7.12 7.12 0 0 0 -6 2.82 6.88 6.88 0 0 0 -.32 7.18 6.8 6.8 0 0 0 7 3c2.54-.45 4.71-2 6.77-3.65a5 5 0 0 0 1.5-1.57 2.28 2.28 0 0 0 0-2.26" fill="#ff9a6c"/><path d="m284.83 208.17c.73 0 .45 4.82 4.37 8.48s9.06 3.44 9.06 4.11c.05.31-1.2.87-3.36.8a12.05 12.05 0 0 1 -7.59-3.16 10.49 10.49 0 0 1 -3.35-7.09c-.06-2.02.55-3.18.87-3.14z" fill="#263238"/><path d="m287 153.91c-.51 1.18-4.9.35-10.14.67s-9.53 1.48-10.15.36c-.28-.54.52-1.63 2.28-2.69a17.63 17.63 0 0 1 15.47-.78c1.84.88 2.74 1.88 2.54 2.44z" fill="#263238"/><path d="m326.91 158.47c-.84 1-3.83-.27-7.5-.53s-6.82.27-7.48-.83c-.28-.53.27-1.51 1.69-2.38a10.87 10.87 0 0 1 12.06 1.09c1.24 1.12 1.6 2.18 1.23 2.65z" fill="#263238"/><path d="m356.25 155.71c-1.07-4.94-3.41-9.76-7.38-12.88-2.18-1.7-4.78-2.86-6.77-4.78-4.3-4.14-4.8-10.74-7.2-16.22a24.27 24.27 0 0 0 -17.36-13.83c-6.29-1.21-13 .12-19.05-2-4.47-1.56-8.21-4.88-12.77-6.17-8.87-2.51-17.83 3.23-25 9.1-.59 6.46 4.18 11.23 8.76 15.82a22.53 22.53 0 0 0 17.73 6.39c5-.47 10.63-2.49 14.67.52 4.25 3.16 3.83 9.94 7.51 13.75 5.26 5.44 14.71 1.6 21.75 4.38 5.43 2.15 8.44 7.79 11.75 12.6s8.49 9.57 14.21 8.4c.14-5.05.22-10.15-.85-15.08z" fill="#263238"/><path d="m290.88 122.42c-3.94-1.52-12-4.87-13.85-8.57-4-8-11.89-14-20.43-14.26a20.5 20.5 0 0 0 -19.8 14.52c-10.28-.83-20.87 4.74-26.66 14a30 30 0 0 0 -1.94 3.63 22.41 22.41 0 0 0 -3.14 18.61c1.07 3.78 3.1 8.06.92 11.33s-7.07 3-10.95 4a14.89 14.89 0 0 0 -10.8 15.74c.31 2.48 1.26 5 .53 7.4s-3.07 4.08-4.91 5.92a18.52 18.52 0 0 0 8.17 31c2.83.78 6 .93 8.32 2.69 2.7 2 3.65 5.55 5.43 8.41a16 16 0 0 0 16.77 6.93 14.56 14.56 0 0 0 3.62-1.44c1.7 2.84 4.56 4.92 9.74 5.38l4.77-67.71a5.57 5.57 0 0 0 3.81 3.57c10.63 3.41 14.18-18.79 12.3-25.06 4.23-3.14 8.5-6.32 11.89-10.49s7.08-16 6.92-21.48c3.89.57 21.03-3.46 19.29-4.12z" fill="#263238"/><path d="m239.17 185.76c.26-6.89-8-9.1-14.27-6.19-3.43 1.6-6.27 5.18-6.61 12.5-.92 19.51 18.86 16.4 18.92 15.85.04-.35 1.65-14.08 1.96-22.16z" fill="#ffbf9d"/><path d="m231.6 200.24c-.08-.06-.35.23-.94.46a3.43 3.43 0 0 1 -2.54-.06c-2-.86-3.61-4.21-3.54-7.73a11.14 11.14 0 0 1 1.18-4.83 3.93 3.93 0 0 1 2.68-2.49 1.73 1.73 0 0 1 2 1c.24.56.09.94.2 1s.43-.31.31-1.12a2.18 2.18 0 0 0 -.71-1.26 2.56 2.56 0 0 0 -1.86-.58c-1.51 0-2.92 1.35-3.69 2.85a11.45 11.45 0 0 0 -1.43 5.39c-.06 3.94 1.78 7.71 4.56 8.66a3.68 3.68 0 0 0 3.14-.37c.58-.45.71-.88.64-.92z" fill="#ff9a6c"/><path d="m264.58 114.81c.12.22-2 .38-4.17 2.9s-3.33 7.5-2.62 13.32l.07.5-.49.08a18.85 18.85 0 0 0 -13.5 9.93 14.51 14.51 0 0 0 -1.43 4.66 28.58 28.58 0 0 0 .16 5.19 39.21 39.21 0 0 1 .25 5.59 9.21 9.21 0 0 1 -2 5.61c-2.74 3.46-6.79 4.93-10.28 6.39s-6.92 2.87-9.55 5.12a24.41 24.41 0 0 0 -8.7 15.65 25.48 25.48 0 0 0 1.5 12.24c1.06 2.77 2 4.13 1.92 4.2s-.3-.3-.76-.94a20.83 20.83 0 0 1 -1.65-3.05 24.82 24.82 0 0 1 -2-12.56 25.11 25.11 0 0 1 8.86-16.52c2.74-2.4 6.3-4 9.85-5.39s7.32-2.93 9.71-6c2.41-2.76 1.79-6.7 1.53-10.24a29 29 0 0 1 -.12-5.44 15.78 15.78 0 0 1 1.59-5.09 19.79 19.79 0 0 1 14.49-10.37l-.43.58c-.62-6.1.76-11.27 3.2-13.84a8.21 8.21 0 0 1 3.26-2.21 4.65 4.65 0 0 1 1.31-.31z" fill="#455a64"/><path d="m223.7 206.88a13.94 13.94 0 0 1 5.84-3.15l-.42-.06a9.71 9.71 0 0 1 1.2-.1 5.53 5.53 0 0 1 4.27.92 10.29 10.29 0 0 1 5.17 5.36 12.17 12.17 0 0 1 -2.53 12.34c-2.59 2.84-6.76 4.49-10.41 3.26-3.34-1.13-5.61-4.46-6.28-7.93a11.53 11.53 0 0 1 3.16-10.64z" fill="#455a64"/><path d="m153.81 295.38s-84 81.54-83.27 107.87a6.42 6.42 0 0 1 -.26 1.29c-3.07 17.29 9.5 33.49 26.93 35.66l32.48 4.05 69.37-89.49-18.78-50z" fill="#e60053"/><path d="m124.78 335.53s13.55-22.93 29-40.15c14.65-16.29 34.16-20.94 38.48-21.14 16.07-.76 83.79 3.81 127.24 5.54 16.14.64 32.08 10 42.63 22.25 23.63 27.4 65 76.22 73.37 91.26 11.79 21.3 3.51 69.8-4.76 76.27s-262.1-4.56-262.1-4.56z" fill="#e11d48"/><path d="m410.24 393.3a1.7 1.7 0 0 1 -.53 0l-1.52-.05-1.09-.06c-.4 0-.83 0-1.3 0a30.58 30.58 0 0 0 -3.15.16l-1.83.19c-.64.07-1.29.22-2 .33a41 41 0 0 0 -4.27 1 44.68 44.68 0 0 0 -17.49 9.64 41.32 41.32 0 0 0 -3.11 3.09c-.46.51-.93 1-1.33 1.48l-1.13 1.45a31.2 31.2 0 0 0 -1.83 2.58c-.25.39-.51.74-.71 1.09s-.37.65-.54.95l-.76 1.31a2.39 2.39 0 0 1 -.3.44 1.74 1.74 0 0 1 .2-.5l.67-1.36.49-1c.2-.35.44-.72.68-1.12a28.37 28.37 0 0 1 1.77-2.65l1.12-1.49c.39-.51.86-1 1.32-1.52a43.76 43.76 0 0 1 3.11-3.17 43.84 43.84 0 0 1 17.69-9.75 42.11 42.11 0 0 1 4.34-.94c.69-.1 1.35-.24 2-.3l1.86-.15a25.13 25.13 0 0 1 3.18-.08h1.31l1.1.1 1.51.17a1.88 1.88 0 0 1 .54.16z" fill="#263238"/><path d="m185.92 389.85a3.66 3.66 0 0 1 -.2-.76l-.46-2.22c-.44-1.92-1.12-4.68-2.1-8.05a258.06 258.06 0 0 0 -9.37-25.82c-4.13-9.9-8.38-18.65-11.7-24.85-.81-1.56-1.58-2.95-2.27-4.17s-1.26-2.27-1.78-3.11l-1.14-2a4 4 0 0 1 -.36-.7 5.32 5.32 0 0 1 .46.64l1.23 1.9c.55.83 1.16 1.87 1.87 3.07s1.51 2.58 2.35 4.13a260.84 260.84 0 0 1 11.87 24.83 229 229 0 0 1 9.23 25.93c.93 3.39 1.56 6.18 1.93 8.12.14.92.26 1.67.36 2.24a4.14 4.14 0 0 1 .08.82z" fill="#263238"/><path d="m353.59 318.9a.8.8 0 0 1 0 .27v.83 3.1c0 2.7-.17 6.6-.37 11.42-.4 9.64-1.24 22.94-2.71 37.59s-3.32 27.85-4.85 37.38c-.76 4.76-1.42 8.6-1.92 11.25-.24 1.29-.44 2.31-.58 3.06-.06.32-.12.58-.16.79a.91.91 0 0 1 -.08.26 1.1 1.1 0 0 1 0-.27c0-.22.07-.48.11-.8.11-.75.27-1.78.47-3.07l1.74-11.29c1.42-9.53 3.2-22.73 4.68-37.37s2.37-27.92 2.88-37.55c.23-4.78.41-8.66.55-11.4.06-1.31.11-2.35.15-3.1 0-.33 0-.6.05-.81a1 1 0 0 1 .04-.29z" fill="#263238"/><path d="m306.82 271.72a6.59 6.59 0 0 0 -3.1-.88l-75.51-8.27c-2.58-.29-5.49-.47-7.46 1.22-2.5 2.15-2.11 6.12-1 9.22s2.81 6.25 2.2 9.49l81 5.08c-.5-2.93 1.82-5.46 3.54-7.88s2.75-6.27.33-7.98z" fill="#e60053"/><path d="m310.44 286a5.62 5.62 0 0 1 -.89.23l-2.58.57c-1.11.24-2.49.52-4.09.77s-3.43.61-5.46.84l-3.19.4c-1.11.14-2.27.21-3.46.32-2.4.25-5 .34-7.67.48a164 164 0 0 1 -17.6-.43 162.65 162.65 0 0 1 -17.43-2.49c-2.65-.58-5.17-1.09-7.49-1.73-1.16-.31-2.3-.58-3.37-.9l-3.07-.92c-2-.56-3.71-1.2-5.25-1.72s-2.85-1-3.91-1.45l-2.44-1a4.93 4.93 0 0 1 -.84-.38 5.92 5.92 0 0 1 .88.27l2.48.88c1.07.4 2.38.87 3.93 1.35s3.29 1.11 5.26 1.64l3.08.89c1.07.3 2.2.56 3.37.85 2.32.62 4.83 1.12 7.47 1.68a170.68 170.68 0 0 0 17.37 2.44 168.74 168.74 0 0 0 17.54.47c2.69-.12 5.26-.19 7.65-.42 1.19-.1 2.35-.17 3.46-.29l3.18-.36c2-.2 3.85-.52 5.46-.75s3-.47 4.1-.68l2.59-.46a5.15 5.15 0 0 1 .92-.1z" fill="#263238"/><path d="m125.81 366.07a40 40 0 0 0 -31.26 27.52c3.78-1.25 7.38-4.49 10.13-7.37 7.16-7.51 16-12.54 26.32-13.65 7.1-.76 13.9 1.11 20.54 3.72 3 1.18 6.37 1.84 9.05 3.66l3.56.81c-8.36-12.02-23.89-17.03-38.34-14.69z" opacity=".3"/><path d="m227.3 280.74c10.73 9.73 24.77 16.64 39.22 17.68s28.29-3.57 40.3-11.66c-29.34 4.56-56.04 2.99-79.52-6.02z" opacity=".3"/><path d="m411.59 384.94c-2.36-1.5-5.37-1.47-8.15-1.14-17.44 2.07-34.34 14-36.06 33.13 7.34-14.22 22.47-24.64 38.4-23.26 2.69.23 5.87.54 7.6-1.53s.62-5.69-1.79-7.2z" opacity=".3"/><path d="m77.22 476.5 143.09-.72s-.95 2.76 5 2.76l47.31-.33s3.49.33 3.56-2.43c0 0 110.92 1.86 138.32 2.63 2.06.06 5.68-1.19 4-3.79l-9.56-11.45-158.31-15.38-112.27 11.8-38.5-13.91h-1.28a3.27 3.27 0 0 0 -2.65 1.32l-19.77 27.5a1.26 1.26 0 0 0 1.06 2z" fill="#455a64"/><path d="m137.72 473.23 254.91 1.97-59.95-18.57-74.74 2.1-74.77-2.98z" opacity=".2"/><path d="m249.2 468.19 1.43-31.36s.28-17.25-20.5-23-46.68 1.56-70.87 2.87-23.91-.52-23.91-.52l-19.64 30.32 77.14 11.24s44.68 2.61 45.54 2.87 10.81 7.58 10.81 7.58z" fill="#fff"/><path d="m249 469.31 1.68-29.48s-.29-17.25 20.49-23 46.68 1.57 70.87 2.88c16.92.91 22.17.76 23.8.58a1.27 1.27 0 0 1 1.18.54l18.57 28.68-77.19 11.24s-44.68 2.61-45.54 2.87-13.86 5.69-13.86 5.69z" fill="#fff"/><path d="m82.13 474.21 33.58-27.71s69.57-11.76 93.19-7.58 37.1 12.28 40.3 29.54l-22.65 5.75a70.31 70.31 0 0 0 -30.17-7.58c-17.08-.26-59.77 7.58-59.77 7.58z" fill="#e0e0e0"/><path d="m273.24 474.21-23.91-6s1.71-27.41 40.55-32c0 0 11-3.56 50 3.75s43 7.06 43 7.06l32.45 28.76s-19.36 1.56-35.3-1.57-43.83-13.86-74-10.72-32.79 10.72-32.79 10.72z" fill="#e0e0e0"/><path d="m115.71 446.5 19.01-29.34-33.72 26.9-21.29 30.15h2.42z" fill="#e0e0e0"/><path d="m382.69 447-15.49-26s30.86 26.83 31.13 27.58 16.81 27.21 16.81 27.21z" fill="#e0e0e0"/><path d="m225.29 474.21h47.82l-23.91-6.02-1.25.27" fill="#263238"/><path d="m249.2 468.19c-.16 0 0-6.85.36-15.28s.78-15.27.94-15.26 0 6.85-.36 15.28-.78 15.27-.94 15.26z" fill="#263238"/><path d="m149.23 441.66a5.61 5.61 0 0 1 -.66.14l-1.9.33-7.06 1.1-23.86 3.55.14-.06-4.59 3.53-22.3 17.04-6.79 5.11-1.86 1.36a5.25 5.25 0 0 1 -.67.45 3.3 3.3 0 0 1 .6-.54l1.8-1.45 6.7-5.22 22.22-17.2 4.59-3.53h.06.07l23.89-3.36 7.08-.93 1.92-.23a2.61 2.61 0 0 1 .62-.09z" fill="#263238"/><path d="m246.06 451.74a1.3 1.3 0 0 1 -.21-.23l-.58-.7c-.51-.61-1.28-1.5-2.34-2.57a41.9 41.9 0 0 0 -10.3-7.47 59.15 59.15 0 0 0 -18-5.76 146.7 146.7 0 0 0 -23.18-1.53 266.33 266.33 0 0 0 -42.12 3.18c-5.34.84-9.65 1.67-12.61 2.26l-3.42.69-.89.17a1 1 0 0 1 -.31 0l.29-.1.88-.22c.78-.19 1.92-.47 3.4-.8 3-.66 7.25-1.55 12.6-2.44a254 254 0 0 1 42.19-3.36 144.2 144.2 0 0 1 23.26 1.59 58.47 58.47 0 0 1 18.07 5.92 40.35 40.35 0 0 1 10.27 7.68 31.47 31.47 0 0 1 2.27 2.65l.54.74a1 1 0 0 1 .19.3z" fill="#263238"/><path d="m246.06 447.91a2.25 2.25 0 0 1 -.2-.21l-.54-.64c-.22-.29-.52-.64-.89-1s-.77-.86-1.27-1.36a41 41 0 0 0 -9.41-7.11 56.15 56.15 0 0 0 -16.47-5.88 120.57 120.57 0 0 0 -21.43-2 266.53 266.53 0 0 0 -39.1 2.06c-5 .63-9 1.26-11.76 1.72l-3.19.54-.83.12h-.28s.09 0 .27-.08l.82-.19c.73-.15 1.79-.38 3.17-.64 2.76-.53 6.77-1.22 11.74-1.9a251.35 251.35 0 0 1 39.17-2.23 118.06 118.06 0 0 1 21.52 2 55.61 55.61 0 0 1 16.56 6.05 39.48 39.48 0 0 1 9.38 7.31c.49.51.9 1 1.24 1.4s.64.77.85 1.07.37.5.5.69.16.27.15.28z" fill="#263238"/><path d="m246.06 444.08s-.07-.06-.2-.21l-.53-.63c-.23-.29-.52-.63-.88-1s-.77-.86-1.26-1.35a41 41 0 0 0 -9.31-7.06 55.64 55.64 0 0 0 -16.3-5.89 117.92 117.92 0 0 0 -21.21-2 268.31 268.31 0 0 0 -38.75 1.94c-4.93.6-8.9 1.21-11.65 1.66l-3.16.52-.82.12a1.26 1.26 0 0 1 -.29 0l.28-.08.81-.18c.72-.14 1.77-.37 3.14-.62 2.74-.52 6.71-1.19 11.64-1.85a252.59 252.59 0 0 1 38.81-2.1 115.52 115.52 0 0 1 21.31 2.08 55 55 0 0 1 16.39 6.06 39.4 39.4 0 0 1 9.27 7.26c.48.51.89 1 1.23 1.39s.63.76.84 1.06l.49.68q.17.19.15.2z" fill="#263238"/><path d="m246.06 440.25s-.07-.06-.19-.2l-.52-.62c-.45-.56-1.15-1.36-2.08-2.34a48.51 48.51 0 0 0 -24.55-13.65c-6.27-1.4-13.37-1.46-20.78-1.37-14.85.09-28.29.73-38 1.75-4.84.49-8.74 1-11.43 1.41l-3.1.46-.81.11h-.28a.91.91 0 0 1 .27-.08l.8-.16c.7-.14 1.74-.35 3.08-.57 2.69-.47 6.59-1.05 11.43-1.6a370.65 370.65 0 0 1 38-1.91c7.42-.09 14.57 0 20.9 1.42a47 47 0 0 1 15.77 6.6 45.34 45.34 0 0 1 8.83 7.42 29.53 29.53 0 0 1 2 2.41l.47.67a1 1 0 0 1 .19.25z" fill="#263238"/><path d="m246.06 436.42s-.07-.06-.19-.2-.3-.37-.51-.62c-.45-.56-1.11-1.37-2-2.38a45.45 45.45 0 0 0 -8.49-7.57 36.41 36.41 0 0 0 -6.9-3.71 45.33 45.33 0 0 0 -8.67-2.44 101 101 0 0 0 -20.65-1.29c-14.74.44-28 1.86-37.66 2.61-4.82.39-8.72.67-11.42.82l-3.11.16h-.81a.77.77 0 0 1 -.28 0l.28-.05.8-.08 3.1-.26 11.4-1c9.63-.85 22.91-2.33 37.68-2.77a98.63 98.63 0 0 1 20.76 1.36 44.74 44.74 0 0 1 8.75 2.51 36.14 36.14 0 0 1 7 3.82 43.66 43.66 0 0 1 8.43 7.76c.88 1 1.51 1.87 1.93 2.45l.47.66a1.12 1.12 0 0 1 .09.22z" fill="#263238"/><path d="m253 450.69s.05-.1.17-.26l.55-.72a32.74 32.74 0 0 1 2.32-2.62 40.52 40.52 0 0 1 10.41-7.49 58.76 58.76 0 0 1 18.15-5.6 144.28 144.28 0 0 1 23.28-1.16 253.17 253.17 0 0 1 42.12 4.16c5.33 1 9.61 2 12.55 2.67 1.48.35 2.61.66 3.38.86l.88.24c.2.06.3.1.29.11l-.3-.05-.89-.18-3.41-.76c-2.95-.65-7.24-1.55-12.57-2.49a267.58 267.58 0 0 0 -42.05-4 148 148 0 0 0 -23.2 1.11 59 59 0 0 0 -18.07 5.49 41.46 41.46 0 0 0 -10.44 7.28c-1.08 1.05-1.87 1.93-2.39 2.53l-.59.69z" fill="#263238"/><path d="m253 446.86s.05-.09.16-.24l.51-.67c.22-.3.51-.65.87-1.06s.77-.88 1.26-1.38a39.49 39.49 0 0 1 9.51-7.14 55.8 55.8 0 0 1 16.69-5.74 120 120 0 0 1 21.58-1.63 252.64 252.64 0 0 1 39.12 3c5 .78 9 1.54 11.7 2.12 1.38.28 2.44.54 3.16.7l.82.2a1.1 1.1 0 0 1 .27.09 1 1 0 0 1 -.28 0l-.83-.15-3.18-.59c-2.76-.51-6.76-1.22-11.72-1.94a268.39 268.39 0 0 0 -39.06-2.77 120.65 120.65 0 0 0 -21.46 1.57 56 56 0 0 0 -16.57 5.58 40.64 40.64 0 0 0 -9.55 6.94c-.51.48-.94.93-1.3 1.33s-.67.73-.91 1l-.55.64c-.12.08-.19.15-.24.14z" fill="#263238"/><path d="m253.11 443a1.83 1.83 0 0 1 .16-.24l.5-.66c.22-.3.51-.65.86-1.05s.76-.87 1.25-1.37a39.57 39.57 0 0 1 9.41-7.09 54.94 54.94 0 0 1 16.49-5.76 115.71 115.71 0 0 1 21.35-1.68 251.51 251.51 0 0 1 38.76 2.85c4.92.76 8.88 1.5 11.6 2.06 1.37.28 2.42.53 3.14.68l.81.2.27.08h-.29l-.82-.14-3.15-.58c-2.73-.5-6.7-1.18-11.62-1.87a267.08 267.08 0 0 0 -38.7-2.65 118 118 0 0 0 -21.25 1.63 55.83 55.83 0 0 0 -16.4 5.6 40.81 40.81 0 0 0 -9.44 6.89c-.5.48-.92.93-1.28 1.32s-.67.73-.9 1l-.55.63c-.12.15-.19.15-.2.15z" fill="#263238"/><path d="m253.18 436.42a18.61 18.61 0 0 1 2.76-3.13 32.69 32.69 0 0 1 9.61-6.07 78.49 78.49 0 0 1 7.39-2.72 66.88 66.88 0 0 1 8.74-2.3c6.29-1.17 13.34-1.07 20.65-.85 14.67.47 27.85 2.28 37.38 3.4l11.29 1.36 3.07.37.8.11a.84.84 0 0 1 .27.05h-.28l-.8-.05-3.08-.26c-2.68-.24-6.54-.65-11.31-1.18-9.54-1-22.72-2.76-37.35-3.22-7.31-.23-14.31-.34-20.54.79a67.92 67.92 0 0 0 -8.69 2.24 75.93 75.93 0 0 0 -7.37 2.64 34 34 0 0 0 -9.62 5.85c-.51.44-.93.86-1.29 1.23s-.66.68-.89.95l-.53.6c-.13.13-.2.2-.21.19z" fill="#263238"/><path d="m301 446.4v18.6l6.16-5.58 6 5.29.35-18.13s-9.9-.52-12.51-.18z" fill="#e60053"/><path d="m370.75 457.21a1.55 1.55 0 0 1 -.32 0l-.91-.21-3.49-.84c-3-.73-7.43-1.73-12.9-2.8s-12-2.22-19.28-3.41l-11.42-1.95a89.73 89.73 0 0 0 -12.3-1.33 112.72 112.72 0 0 0 -12.38.18 66.39 66.39 0 0 0 -11.39 1.7 47.36 47.36 0 0 0 -17.44 8.45 57.52 57.52 0 0 0 -5.63 4.94c-1.58 1.55-2.87 3-3.91 4.11l-2.37 2.7-.62.7a1.3 1.3 0 0 1 -.23.23 1.66 1.66 0 0 1 .19-.26c.15-.2.33-.44.57-.74.51-.65 1.28-1.58 2.29-2.77s2.29-2.62 3.85-4.19a56 56 0 0 1 5.61-5 47.09 47.09 0 0 1 17.56-8.58 66.57 66.57 0 0 1 11.48-1.75 111.32 111.32 0 0 1 12.44-.19 87.67 87.67 0 0 1 12.38 1.35l11.4 1.91c7.28 1.22 13.82 2.39 19.28 3.53s9.86 2.19 12.88 3c1.51.39 2.67.72 3.46.94l.9.27a1.2 1.2 0 0 1 .3.01z" fill="#263238"/><path d="m241 469.94-.28-.28-.76-.83c-.34-.36-.73-.84-1.24-1.36l-1.72-1.76a55.64 55.64 0 0 0 -13.06-9.07 72.9 72.9 0 0 0 -22.54-6.85 112.67 112.67 0 0 0 -28.91.21c-10.22 1.27-19.84 3.3-28.59 5.11s-16.65 3.37-23.35 4.33a146.88 146.88 0 0 1 -15.96 1.56c-1.89.05-3.36.07-4.36 0h-1.13-.38.38 1.13c1 0 2.46-.07 4.35-.16a157.42 157.42 0 0 0 15.89-1.84c6.68-1 14.56-2.59 23.3-4.45s18.37-3.89 28.63-5.16a111.86 111.86 0 0 1 29-.16 72.13 72.13 0 0 1 22.65 7 54.1 54.1 0 0 1 13 9.27l1.75 1.81c.5.53.88 1 1.21 1.39l.72.88a1.62 1.62 0 0 1 .27.36z" fill="#263238"/><path d="m241 473.8a2 2 0 0 1 -.28-.27l-.76-.84c-.34-.36-.73-.83-1.24-1.35l-1.72-1.76a55.62 55.62 0 0 0 -13.06-9.08 72.64 72.64 0 0 0 -22.54-6.84 111.77 111.77 0 0 0 -28.91.21c-10.22 1.26-19.84 3.3-28.59 5.11s-16.65 3.37-23.35 4.33a149 149 0 0 1 -15.94 1.5c-1.89.05-3.36.07-4.36.05h-1.13a1.59 1.59 0 0 1 -.38 0h.38 1.13c1 0 2.46-.07 4.35-.15 3.77-.19 9.22-.67 15.89-1.68s14.56-2.6 23.3-4.45 18.37-3.89 28.63-5.16a111 111 0 0 1 29-.16 72.13 72.13 0 0 1 22.65 7 54.1 54.1 0 0 1 13 9.27l1.75 1.81c.5.53.88 1 1.21 1.4l.72.87a1.62 1.62 0 0 1 .25.19z" fill="#263238"/><path d="m229.73 470.52a2.86 2.86 0 0 1 -.61-.45c-.4-.29-.94-.79-1.7-1.34a48.07 48.07 0 0 0 -6.71-4.26 54.78 54.78 0 0 0 -10.93-4.33 71.54 71.54 0 0 0 -14.21-2.43 131.83 131.83 0 0 0 -26.19 1.3l-7.9 1.11-2.15.3a6.15 6.15 0 0 1 -.76.07 3.11 3.11 0 0 1 .74-.18l2.13-.41c1.86-.33 4.54-.79 7.88-1.29a123.92 123.92 0 0 1 26.29-1.47 69.43 69.43 0 0 1 14.31 2.49 54.06 54.06 0 0 1 11 4.48 43.28 43.28 0 0 1 6.64 4.45c.75.58 1.27 1.1 1.64 1.43a3.84 3.84 0 0 1 .53.53z" fill="#263238"/><path d="m187.37 392.67 38.85-8.4s14.57-2.94 17.39-1.38 19 14.53 20.43 15.74 16.96 19.79 16.96 19.79-.36 5.89-8.87 3.52c-4.39-1.21-23-17.49-23-17.49l-4.39-3.45s6.79 10.51 6.65 14-4.45 10.35-5.93 11.3-8.93-.36-8.93-.36-5.28 5.71-9.43 1.21c0 0-7.07 7.37-12.82 3.1l-3.07-6-2.94-2.28s-.46 4.16-3.36 4.62-34.81-6.42-34.81-6.42l11-30.07z" fill="#ffbf9d"/><path d="m228.68 403.3a3.85 3.85 0 0 1 .89.6c.55.43 1.33 1.07 2.25 1.91a42.17 42.17 0 0 1 6.39 7.31 12.41 12.41 0 0 1 1.27 2.52 5 5 0 0 1 .32 2.64 17.55 17.55 0 0 1 -1.17 4.24 13.49 13.49 0 0 1 -1.36 2.63c-.4.58-.72.82-.74.79s.22-.31.55-.91a17.39 17.39 0 0 0 1.17-2.65 19.33 19.33 0 0 0 1-4.16 5.26 5.26 0 0 0 0-1.19 5.85 5.85 0 0 0 -.33-1.2 12.34 12.34 0 0 0 -1.22-2.4 51.09 51.09 0 0 0 -6.19-7.33c-1.72-1.74-2.89-2.73-2.83-2.8z" fill="#ff9a6c"/><path d="m208.62 406.76a4.08 4.08 0 0 1 1.2-.39 10.1 10.1 0 0 1 3.44-.14 14.62 14.62 0 0 1 9.58 5.69 18.64 18.64 0 0 1 2.7 5.64 35.48 35.48 0 0 1 1.12 4.95c.23 1.43.35 2.59.41 3.39a5 5 0 0 1 0 1.25c-.09 0-.29-1.76-.83-4.57a45 45 0 0 0 -1.23-4.86 19.12 19.12 0 0 0 -2.66-5.46 14.86 14.86 0 0 0 -4.53-4 14 14 0 0 0 -4.65-1.67 15.1 15.1 0 0 0 -4.55.17z" fill="#ff9a6c"/><path d="m231.63 391.89s.23-.11.67-.21a3 3 0 0 1 .83-.06 4.35 4.35 0 0 1 1.08.12 12.93 12.93 0 0 1 5.48 3 27 27 0 0 1 4.25 4.54 8.07 8.07 0 0 1 1.34 2.2 18.32 18.32 0 0 1 -1.66-1.95 35.94 35.94 0 0 0 -4.3-4.35 14.45 14.45 0 0 0 -5.2-3 11.35 11.35 0 0 0 -2.49-.29z" fill="#ff9a6c"/><path d="m180.54 386-19.43-7.58-35.81 1.84-17.85 24.07-7.16 34.67s65.58-14.4 67.66-14.59 5.42-3.57 5.42-3.57l7 1.47 9-30z" fill="#e60053"/><path d="m192.27 390.65a1 1 0 0 1 -.27-.08l-.75-.27-2.89-1.08-10.58-4.08-15.65-6.14-9.24-3.64a75.32 75.32 0 0 0 -10-3.44 30.22 30.22 0 0 0 -10.48-.81 36.82 36.82 0 0 0 -9.54 2.32 57 57 0 0 0 -14.41 8.4c-3.78 2.92-6.63 5.54-8.63 7.32l-2.3 2.05-.6.53-.22.16s0-.08.18-.21l.56-.56 2.2-2.12c1.95-1.83 4.77-4.49 8.53-7.47a56.33 56.33 0 0 1 14.47-8.53 37.51 37.51 0 0 1 9.68-2.38 30.59 30.59 0 0 1 10.67.81 75.86 75.86 0 0 1 10.1 3.48l9.23 3.67 15.61 6.24 10.5 4.25 2.85 1.18.73.32a.82.82 0 0 1 .25.08z" fill="#263238"/><path d="m351.91 443.38c-.78-1.31-1.09-3.18.8-5.41l5.24-2.34s1.23-3.23 2.56-4.45 3.35-2.79 3.35-2.79 2.89-4 5.68-5.68 9.58-3.45 11.92-5.46 9.69-8.47 14.82-6 8.8 11.07 12.81 12.89 5.46 7.84 7 10.29 3.23 4.23 3.45 6.13 4.57 5.68 5.35 10.8.33 6.91-2 8.8-6.9 5.69-11.47 6.35c-2.57.38-6.08.61-8.66.75a5.17 5.17 0 0 1 -4.95-3l-.32-.67s-11.7 5.9-17.27 5.12-3.34-5.57-3.34-5.57-5.68 5.46-9.25 4.46-5.46-.89-5.79-4 2.33-6.7 2.33-6.7-5.34.12-5.78-3.44a14.9 14.9 0 0 1 1.44-7.35l-4.29-.49a4.83 4.83 0 0 1 -3.63-2.24z" fill="#ffbf9d"/><path d="m381.84 419.49a5.59 5.59 0 0 1 -.53 1.27 10.18 10.18 0 0 1 -.76 1.42 19.72 19.72 0 0 1 -1.16 1.8 36.76 36.76 0 0 1 -3.57 4.25c-1.46 1.5-3.13 3.07-4.91 4.69s-3.44 3.18-4.88 4.66a37.85 37.85 0 0 0 -3.54 4.2c-1.82 2.55-2.53 4.38-2.65 4.33a6.89 6.89 0 0 1 .49-1.29 10.11 10.11 0 0 1 .72-1.44 15.44 15.44 0 0 1 1.11-1.83 34.51 34.51 0 0 1 3.48-4.33c1.45-1.52 3.11-3.1 4.89-4.72s3.45-3.17 4.91-4.63a40.71 40.71 0 0 0 3.62-4.13c1.94-2.5 2.67-4.3 2.78-4.25z" fill="#ff9a6c"/><path d="m396.35 424.33s0 .16-.14.45-.28.72-.52 1.26a39.79 39.79 0 0 1 -2.3 4.43 42.63 42.63 0 0 1 -4.33 6 43.34 43.34 0 0 1 -6.66 6.17c-2.56 1.95-5.11 3.64-7.39 5.22s-4.29 3.05-5.91 4.38a46.51 46.51 0 0 0 -3.65 3.35 11.59 11.59 0 0 1 -1.27 1.31 11.26 11.26 0 0 1 1.11-1.46 35.75 35.75 0 0 1 3.55-3.51c1.59-1.38 3.6-2.9 5.87-4.5s4.8-3.31 7.34-5.25a45.46 45.46 0 0 0 6.61-6.05 46 46 0 0 0 4.39-5.88c1.12-1.76 1.91-3.27 2.44-4.31a14.63 14.63 0 0 1 .86-1.61z" fill="#ff9a6c"/><path d="m398.15 425.72c.1.12-.74 1-1.89 2s-2.17 1.74-2.27 1.62.74-1 1.89-2.05 2.12-1.69 2.27-1.57z" fill="#ff9a6c"/><path d="m405.08 439.16a7 7 0 0 1 -.45 1.42 18.7 18.7 0 0 1 -1.91 3.58 33.28 33.28 0 0 1 -9.8 9c-4.4 2.83-8.51 5.13-11.38 7-1.45.91-2.6 1.66-3.39 2.19a7.21 7.21 0 0 1 -1.26.79 6.85 6.85 0 0 1 1.13-1c.75-.59 1.88-1.4 3.3-2.35 2.83-1.92 6.91-4.29 11.28-7.1a35.34 35.34 0 0 0 9.79-8.8 34.87 34.87 0 0 0 2.69-4.73z" fill="#ff9a6c"/><path d="m416.46 446.39a3.18 3.18 0 0 1 -.44.93 27.17 27.17 0 0 1 -1.48 2.38 42 42 0 0 1 -10 10.23 32.8 32.8 0 0 1 -3.54 2.2 15.43 15.43 0 0 1 -1.43.7c-.43.2-.8.36-1.11.47a3.85 3.85 0 0 1 -1 .3c0-.1 1.32-.64 3.34-1.83a38.55 38.55 0 0 0 3.42-2.27 49.27 49.27 0 0 0 3.85-3.23 52.37 52.37 0 0 0 6.1-6.81c1.44-1.88 2.21-3.12 2.29-3.07z" fill="#ff9a6c"/><path d="m362.54 433.79a32.94 32.94 0 0 1 -4.85 2.25 38.7 38.7 0 0 1 -5 1.93c-.09-.17 2-1.32 4.76-2.46s5.03-1.89 5.09-1.72z" fill="#ff9a6c"/></svg>