<svg id="Layer_1" data-name="Layer 1" xmlns="http://www.w3.org/2000/svg" viewBox="0 0 512 512">
  <g>
    <g>
      <rect x="277.07" y="185.41" width="141.88" height="104.67" transform="translate(-27.18 45.74) rotate(-7.24)" style="fill: #fff"/>
      <path d="M425,280.72s-.1-.65-.27-1.9-.41-3.11-.72-5.51c-.63-4.84-1.55-11.92-2.72-21-2.33-18.08-5.66-44-9.7-75.42l.25.19L271.09,195h0l.24-.31c4.73,37.28,9.2,72.61,13.16,103.83l-.28-.21,101.56-12.78,28.89-3.6,7.67-.94,2-.24.68-.07-.65.1-1.95.26-7.61,1L386,285.8l-101.7,13-.25,0,0-.25c-4-31.23-8.47-66.55-13.21-103.83l0-.28.28,0h0l140.74-17.83.23,0,0,.23c4,31.49,7.21,57.47,9.48,75.6,1.12,9,2,16.1,2.6,20.92q.43,3.6.67,5.48C424.92,280.09,425,280.72,425,280.72Z" style="fill: #e0e0e0"/>
    </g>
    <rect x="279.11" y="183.84" width="9" height="22.32" style="fill: #e0e0e0"/>
    <rect x="412.38" y="264.38" width="9" height="22.32" transform="translate(350.35 -219.73) rotate(48.89)" style="fill: #e0e0e0"/>
    <g>
      <path d="M312.78,224.33s.15.12.42.39a9.33,9.33,0,0,1,1,1.3,11.66,11.66,0,0,1,1.94,5.76,10.55,10.55,0,0,1-.55,4.21,10.28,10.28,0,0,1-2.68,4.08,10.57,10.57,0,0,1-4.73,2.59,8.91,8.91,0,0,1-5.76-.47,9.25,9.25,0,0,1-5.72-9,9.56,9.56,0,0,1,4.85-7.43,10.54,10.54,0,0,1,5.94-1.25,10,10,0,0,1,1.64.28,2.41,2.41,0,0,1,.55.19c0,.06-.78-.19-2.2-.25a10.67,10.67,0,0,0-5.74,1.37,9.2,9.2,0,0,0-4.53,7.13,8.77,8.77,0,0,0,5.43,8.43,8.38,8.38,0,0,0,5.41.45,10.11,10.11,0,0,0,4.51-2.44,10,10,0,0,0,3.19-7.89,12.05,12.05,0,0,0-1.73-5.67C313.31,224.93,312.73,224.36,312.78,224.33Z" style="fill: #e0e0e0"/>
      <path d="M304.73,223a73.57,73.57,0,0,1-8.2,3.73,73.49,73.49,0,0,1-8.42,3.22,73.57,73.57,0,0,1,8.2-3.73A73.49,73.49,0,0,1,304.73,223Z" style="fill: #e0e0e0"/>
      <path d="M303.21,224.63a14.1,14.1,0,0,1-2.31,1.62c-1.47.94-3.51,2.21-5.78,3.57s-4.34,2.58-5.86,3.43a14.36,14.36,0,0,1-2.51,1.29,13.68,13.68,0,0,1,2.3-1.62c1.47-.94,3.51-2.21,5.78-3.58s4.35-2.58,5.87-3.43A14.18,14.18,0,0,1,303.21,224.63Z" style="fill: #e0e0e0"/>
      <path d="M304.48,230.59a8.29,8.29,0,0,1,.17-3.06,8.66,8.66,0,0,1,.73-3,17.21,17.21,0,0,1-.9,6Z" style="fill: #e0e0e0"/>
      <path d="M306.87,230.28a6.56,6.56,0,0,1-.08-2.65,6.19,6.19,0,0,1,.47-2.6,6.48,6.48,0,0,1,.08,2.64A6.66,6.66,0,0,1,306.87,230.28Z" style="fill: #e0e0e0"/>
      <path d="M308.88,229.93a13.36,13.36,0,0,1,.08-5.44,7,7,0,0,1,.24,2.73A6.67,6.67,0,0,1,308.88,229.93Z" style="fill: #e0e0e0"/>
      <path d="M311.76,230.16a13.25,13.25,0,0,1-.71-5.34,6.91,6.91,0,0,1,.63,2.63A6.76,6.76,0,0,1,311.76,230.16Z" style="fill: #e0e0e0"/>
      <path d="M324.08,239.1a16.75,16.75,0,0,1-1.59-2.22c-.94-1.38-2.28-3.27-3.87-5.26s-3.15-3.71-4.3-4.93a16.62,16.62,0,0,1-1.81-2,11.1,11.1,0,0,1,2.09,1.75,48.83,48.83,0,0,1,4.45,4.86,50.34,50.34,0,0,1,3.78,5.4A11.39,11.39,0,0,1,324.08,239.1Z" style="fill: #e0e0e0"/>
      <path d="M328.44,235.32a73,73,0,0,1-7.37-5.08,73.77,73.77,0,0,1-7-5.52,71.84,71.84,0,0,1,7.37,5.07A71,71,0,0,1,328.44,235.32Z" style="fill: #e0e0e0"/>
      <path d="M310.16,235.76s0,.63-.66,1.37a4,4,0,0,1-6.46-.57c-.48-.84-.46-1.46-.4-1.46s.21.54.73,1.24a3.84,3.84,0,0,0,5.85.52C309.85,236.26,310.07,235.73,310.16,235.76Z" style="fill: #e0e0e0"/>
      <path d="M302.49,231.61c.05.15-.08.33-.2.53s-.23.39-.38.41-.32-.33-.09-.7S302.45,231.46,302.49,231.61Z" style="fill: #e0e0e0"/>
      <path d="M309.24,231.61c.16,0,.26.27.24.59s-.17.57-.32.55-.26-.27-.24-.59S309.09,231.59,309.24,231.61Z" style="fill: #e0e0e0"/>
      <path d="M308.9,241.76s.1.13.25.39.39.71.65,1.18l2.33,4.47,7.93,15.54.17.34-.38,0L309.18,265l-7,.82-1.69.19a5.33,5.33,0,0,1-1.74,0,1.74,1.74,0,0,1-.85-.44,1.42,1.42,0,0,1-.41-.87,4.4,4.4,0,0,1,.28-1.67c1.21-4,2.3-7.61,3.22-10.66s1.67-5.42,2.22-7.18l.63-1.94a4.11,4.11,0,0,1,.25-.67,3,3,0,0,1-.15.7c-.13.51-.31,1.16-.53,2-.5,1.77-1.19,4.23-2,7.23s-1.94,6.69-3.11,10.7a3.86,3.86,0,0,0-.25,1.45,1,1,0,0,0,.85.86,4.92,4.92,0,0,0,1.57,0l1.69-.2,7-.82,10.68-1.24-.2.38L311.83,248l-2.19-4.54-.57-1.22A3,3,0,0,1,308.9,241.76Z" style="fill: #e0e0e0"/>
      <path d="M305.63,275.54a45.06,45.06,0,0,1,.4-10,46.79,46.79,0,0,1-.4,10Z" style="fill: #e0e0e0"/>
      <path d="M317.27,274.44a4.16,4.16,0,0,0-1.72-.35,4,4,0,0,1-2-.41,1.65,1.65,0,0,1-.77-1.1,5.86,5.86,0,0,1,0-1.32,36.13,36.13,0,0,1,.63-6.2,35.7,35.7,0,0,1-.07,6.23,5.8,5.8,0,0,0,0,1.18,1.15,1.15,0,0,0,.5.78,4.23,4.23,0,0,0,1.79.45,3.26,3.26,0,0,1,1.33.37C317.2,274.25,317.3,274.41,317.27,274.44Z" style="fill: #e0e0e0"/>
      <path d="M321.64,249.59a44,44,0,0,1-6.25-3.06,43.2,43.2,0,0,1-6-3.54,43.21,43.21,0,0,1,6.26,3.06A43.43,43.43,0,0,1,321.64,249.59Z" style="fill: #e0e0e0"/>
      <path d="M303.56,242.63a51.48,51.48,0,0,1-5,5.76,51.7,51.7,0,0,1-5.39,5.39,105.11,105.11,0,0,1,10.37-11.15Z" style="fill: #e0e0e0"/>
      <path d="M337.58,238a2,2,0,0,1,.55.08,6.8,6.8,0,0,1,1.51.51,9.12,9.12,0,0,1,4.2,4,8.31,8.31,0,0,1,1,3.95,9,9,0,0,1-1.25,4.5,8.83,8.83,0,0,1-3.74,3.56,9.19,9.19,0,0,1-10.4-1.87,9.2,9.2,0,0,1-1.87-9.29,8.26,8.26,0,0,1,2.29-3.36,9.08,9.08,0,0,1,5.33-2.29,7.6,7.6,0,0,1,1.59,0,2.91,2.91,0,0,1,.55.12c0,.07-.77-.1-2.12.05a9.08,9.08,0,0,0-5.08,2.37,7.87,7.87,0,0,0-2.13,3.22,8.66,8.66,0,0,0-.33,4.41,8.34,8.34,0,0,0,15.47,2.78,8.55,8.55,0,0,0,1.23-4.24,7.89,7.89,0,0,0-.87-3.77,9.14,9.14,0,0,0-3.94-4A18.67,18.67,0,0,0,337.58,238Z" style="fill: #e0e0e0"/>
      <path d="M332.43,245.86c-.12.09-.45-.15-.53-.6s.17-.8.31-.74.18.33.24.64S332.55,245.76,332.43,245.86Z" style="fill: #e0e0e0"/>
      <path d="M338.56,245.49c-.09.12-.56-.14-.68-.74s.2-1,.33-.94.12.43.21.83S338.66,245.37,338.56,245.49Z" style="fill: #e0e0e0"/>
      <path d="M340.63,246.46c.06,0-.09.57-.64,1.3a5.87,5.87,0,0,1-2.86,2,6,6,0,0,1-3.5.06c-.87-.27-1.32-.62-1.28-.68a9.12,9.12,0,0,1,1.37.29,6.71,6.71,0,0,0,3.24-.19,6.59,6.59,0,0,0,2.73-1.76C340.28,246.89,340.55,246.42,340.63,246.46Z" style="fill: #e0e0e0"/>
      <path d="M332,253.71a13.65,13.65,0,0,1-4.75-.43,14.12,14.12,0,0,1-4.52-1.51,36.48,36.48,0,0,1,4.64,1A39.87,39.87,0,0,1,332,253.71Z" style="fill: #e0e0e0"/>
      <path d="M331.57,234.1a5.52,5.52,0,0,1,.51,2.7,5.62,5.62,0,0,1-.31,2.74,8.93,8.93,0,0,1-.25-2.72A8.8,8.8,0,0,1,331.57,234.1Z" style="fill: #e0e0e0"/>
      <path d="M334.12,234.6a5.63,5.63,0,0,1,.35,2.47,5.92,5.92,0,0,1-.21,2.48,5.63,5.63,0,0,1-.35-2.47A5.73,5.73,0,0,1,334.12,234.6Z" style="fill: #e0e0e0"/>
      <path d="M338.72,232.3a16.93,16.93,0,0,1-.89,2.9,17,17,0,0,1-.89,2.91,5.93,5.93,0,0,1,.36-3.07A5.81,5.81,0,0,1,338.72,232.3Z" style="fill: #e0e0e0"/>
      <path d="M343.44,251.82a3.73,3.73,0,0,1,.39,1c.21.63.51,1.55.86,2.69s.76,2.55,1.21,4a3.23,3.23,0,0,1,.2,1.3,1.11,1.11,0,0,1-.38.71,1.47,1.47,0,0,1-.71.3c-.91.11-1.76.14-2.68.21l-5.13.32-1.15.06a2,2,0,0,1-.63,0,.73.73,0,0,1-.51-.54,3.92,3.92,0,0,1,0-1.08l.06-.94c.09-1.19.16-2.15.22-2.82a4,4,0,0,1,.16-1,3.57,3.57,0,0,1,.06,1c0,.67,0,1.64,0,2.83,0,.3,0,.62,0,.94a4.11,4.11,0,0,0,0,.94c.06.23.25.23.67.2l1.15-.09,5.12-.37c.9-.06,1.83-.1,2.63-.18.38-.06.61-.24.65-.56a2.7,2.7,0,0,0-.17-1.08c-.4-1.49-.77-2.85-1.09-4s-.54-2.09-.69-2.74A3.74,3.74,0,0,1,343.44,251.82Z" style="fill: #e0e0e0"/>
      <path d="M340.08,265.05a8.73,8.73,0,0,1,0,2.47v.22h-.24c-.88,0-1.95-.1-3.09-.19l-1-.08-.28,0,0-.27a21.32,21.32,0,0,1,.58-4.55,20.85,20.85,0,0,1,0,4.59l-.25-.3,1,.07c1.15.09,2.21.19,3.09.29l-.25.21A9.12,9.12,0,0,1,340.08,265.05Z" style="fill: #e0e0e0"/>
      <path d="M344.29,261.41a6.69,6.69,0,0,1,.63,1.79l.54,2a3.7,3.7,0,0,1,.17,1.29,1.7,1.7,0,0,1-.81,1.26,3.73,3.73,0,0,1-2.62.28l-.17,0,0-.17c-.27-1-.48-1.94-.62-2.6l.17.12a3.89,3.89,0,0,1-1.3-.12,3.62,3.62,0,0,1,1.29-.21h.12l0,.13c.22.64.49,1.53.79,2.56l-.21-.19a3.41,3.41,0,0,0,2.25-.24,1.2,1.2,0,0,0,.57-.85,3.62,3.62,0,0,0-.13-1.11q-.22-1-.42-2A6.09,6.09,0,0,1,344.29,261.41Z" style="fill: #e0e0e0"/>
      <path d="M334.41,272.74c0-.05.27-.25.86-.32a3,3,0,0,1,2.24.74l-.44.17c0-.5.07-1,.11-1.52a19.64,19.64,0,0,1,.65-4.62,19.81,19.81,0,0,1-.1,4.66c-.05.52-.09,1-.14,1.52l0,.55-.39-.38a2.91,2.91,0,0,0-1.87-.79C334.75,272.72,334.44,272.81,334.41,272.74Z" style="fill: #e0e0e0"/>
      <path d="M348.64,272.17a13.15,13.15,0,0,1-3.42.78l-.25,0-.05-.26c-.06-.29-.12-.57-.19-.87a17.32,17.32,0,0,1-.59-4.35,17.63,17.63,0,0,1,1.14,4.24c.06.3.11.59.17.87l-.31-.21A12.77,12.77,0,0,1,348.64,272.17Z" style="fill: #e0e0e0"/>
      <path d="M352.94,246.77a32.91,32.91,0,0,1-5.05,3.18,31.74,31.74,0,0,1-5.31,2.69,32.76,32.76,0,0,1,5-3.18A32.11,32.11,0,0,1,352.94,246.77Z" style="fill: #e0e0e0"/>
      <path d="M360.63,210.86a2.55,2.55,0,0,1,.65-.14,11.56,11.56,0,0,1,8.47,2.4,12,12,0,0,1,4.55,9.19,8.55,8.55,0,0,1-.53,3,6.2,6.2,0,0,1-1.9,2.62,11.75,11.75,0,0,1-2.9,1.61c-1,.41-2.08.81-3.18,1.13a11,11,0,0,1-6.65.17,8.24,8.24,0,0,1-4.56-4.18,9.7,9.7,0,0,1-.94-5.54,12.9,12.9,0,0,1,1.48-4.66,10.65,10.65,0,0,1,4.88-5,4.51,4.51,0,0,1,1.88-.37,2.24,2.24,0,0,1,.67.08,5.85,5.85,0,0,0-2.47.49,10.65,10.65,0,0,0-4.61,5,12.86,12.86,0,0,0-1.38,4.53,9.37,9.37,0,0,0,1,5.25,7.75,7.75,0,0,0,4.28,3.9,10.38,10.38,0,0,0,6.32-.19,32,32,0,0,0,3.12-1.1,11.56,11.56,0,0,0,2.77-1.52,6.54,6.54,0,0,0,2.26-5.24,11.67,11.67,0,0,0-4.28-8.88,11.85,11.85,0,0,0-6.33-2.55A19.11,19.11,0,0,0,360.63,210.86Z" style="fill: #e0e0e0"/>
      <path d="M359.91,219.82c-.14,0-.13-.48,0-1s.41-.85.56-.8.13.48,0,1S360.06,219.87,359.91,219.82Z" style="fill: #e0e0e0"/>
      <path d="M366.31,218.51c-.13.07-.42-.22-.65-.65s-.29-.84-.15-.91.43.22.65.65S366.45,218.44,366.31,218.51Z" style="fill: #e0e0e0"/>
      <path d="M369.67,219.76a3.13,3.13,0,0,1-.7,1.69,6.62,6.62,0,0,1-8,2.47,3.28,3.28,0,0,1-1.53-1c0-.08.62.31,1.66.62a6.86,6.86,0,0,0,7.52-2.33C369.33,220.38,369.59,219.73,369.67,219.76Z" style="fill: #e0e0e0"/>
      <path d="M359.42,216.23c-.14.05-.53-.66-.63-1.63s.13-1.75.27-1.73.18.77.28,1.67S359.57,216.18,359.42,216.23Z" style="fill: #e0e0e0"/>
      <path d="M362,215.67c-.13.07-.68-.7-1-1.81s-.23-2.05-.08-2.06.33.87.62,1.91S362.16,215.6,362,215.67Z" style="fill: #e0e0e0"/>
      <path d="M365.08,215.44c-.06.13-1-.25-1.75-1.22s-.88-2-.74-2,.51.79,1.18,1.65S365.16,215.3,365.08,215.44Z" style="fill: #e0e0e0"/>
      <path d="M345,232.35a1.69,1.69,0,0,1,.65-1.09,6.42,6.42,0,0,1,1.22-.85,6,6,0,0,0,1.5-1.11,1.52,1.52,0,0,0,.31-1.89c-.39-.65-1.29-1-1.89-1.91a2,2,0,0,1-.23-1.61,3,3,0,0,1,.88-1.39,7,7,0,0,1,3-1.35,4.35,4.35,0,0,0,2.52-1.54,1.77,1.77,0,0,0,.31-1.25,8.66,8.66,0,0,0-.42-1.35,3.62,3.62,0,0,1,.3-2.8,5,5,0,0,1,1.64-1.79,9.12,9.12,0,0,1,3.21-1.24,5.33,5.33,0,0,1,1.24-.18,5.64,5.64,0,0,1-1.19.39,10.43,10.43,0,0,0-3,1.35,4.8,4.8,0,0,0-1.45,1.68,3.13,3.13,0,0,0-.22,2.43,8.91,8.91,0,0,1,.46,1.43,2.3,2.3,0,0,1-.39,1.64,4.83,4.83,0,0,1-2.81,1.76,6.78,6.78,0,0,0-2.79,1.22,1.86,1.86,0,0,0-.58,2.33c.44.72,1.34,1.13,1.84,1.94a1.69,1.69,0,0,1,.21,1.34,2.34,2.34,0,0,1-.62,1.05,5.58,5.58,0,0,1-1.64,1.12,6.82,6.82,0,0,0-1.23.75A3.63,3.63,0,0,0,345,232.35Z" style="fill: #e0e0e0"/>
      <path d="M375.17,221a4.26,4.26,0,0,1,.6-.84,6,6,0,0,0,1.25-2.39,2.91,2.91,0,0,0-.21-1.75,1.85,1.85,0,0,0-1.53-1.1,18.4,18.4,0,0,0-2.4.08,2.71,2.71,0,0,1-1.39-.29,2,2,0,0,1-.94-1.18,16.11,16.11,0,0,1-.16-2.67,1.91,1.91,0,0,0-1.18-1.69,3.92,3.92,0,0,0-2-.26c-.68.07-1.32.16-1.89.27a5,5,0,0,0-2.46,1.05c-.48.43-.58.81-.64.78s0-.1.06-.27a2.31,2.31,0,0,1,.42-.66,4.83,4.83,0,0,1,2.53-1.29,18.72,18.72,0,0,1,1.93-.34,4.38,4.38,0,0,1,2.31.25,2.52,2.52,0,0,1,1,.8,2.6,2.6,0,0,1,.47,1.3,19,19,0,0,0,.15,2.57,1.64,1.64,0,0,0,1.79,1.09,17.17,17.17,0,0,1,2.49,0,2.32,2.32,0,0,1,1.87,1.42,3.25,3.25,0,0,1,.17,2,5.59,5.59,0,0,1-1.46,2.45A3.5,3.5,0,0,1,375.17,221Z" style="fill: #e0e0e0"/>
      <path d="M380.27,206.13a2.6,2.6,0,0,1,.53-.32,15.35,15.35,0,0,1,8.15-1.76,10.24,10.24,0,0,1,4.39,1.38,9.66,9.66,0,0,1,3.58,3.89,9.9,9.9,0,0,1,1,5.74A9.4,9.4,0,0,1,395,220.6a9.82,9.82,0,0,1-5.64,2.7,9.51,9.51,0,0,1-5.71-1.23,10.14,10.14,0,0,1-3.75-3.72,9.07,9.07,0,0,1-1.15-4.46,9.82,9.82,0,0,1,2.19-6.18,6.53,6.53,0,0,1,1.8-1.62,20.09,20.09,0,0,0-1.63,1.75,10,10,0,0,0-2,6,8.82,8.82,0,0,0,1.16,4.23,9.69,9.69,0,0,0,3.6,3.5,9,9,0,0,0,5.39,1.13,9.32,9.32,0,0,0,5.33-2.55,8.92,8.92,0,0,0,2.73-5.21,9.33,9.33,0,0,0-.93-5.44,9.24,9.24,0,0,0-3.35-3.73,10.1,10.1,0,0,0-4.19-1.38,15.2,15.2,0,0,0-6.41.83C381.05,205.77,380.29,206.18,380.27,206.13Z" style="fill: #e0e0e0"/>
      <path d="M383.57,214.39c-.15,0-.29-.14-.31-.36s.08-.39.24-.41.29.15.31.36S383.73,214.37,383.57,214.39Z" style="fill: #e0e0e0"/>
      <path d="M390.3,212c-.14.05-.34-.15-.45-.45s-.06-.58.08-.63.35.15.45.45S390.45,212,390.3,212Z" style="fill: #e0e0e0"/>
      <path d="M392.83,212.49a3,3,0,0,1-.6,1.44,7.52,7.52,0,0,1-2.82,2.51,7.4,7.4,0,0,1-3.69.84,3,3,0,0,1-1.52-.34,8.93,8.93,0,0,1,1.52-.05,8.61,8.61,0,0,0,6.19-3.19C392.48,213,392.74,212.45,392.83,212.49Z" style="fill: #e0e0e0"/>
      <path d="M377.77,205.89c.1-.11.94.43,1.87,1.22s1.62,1.53,1.52,1.65-.94-.43-1.87-1.22S377.67,206,377.77,205.89Z" style="fill: #e0e0e0"/>
      <path d="M379.73,204.93c.1-.12.83.34,1.62,1s1.35,1.32,1.25,1.44-.82-.34-1.61-1S379.63,205.05,379.73,204.93Z" style="fill: #e0e0e0"/>
      <path d="M382.78,203c.13-.07.69.79,1.23,1.92s.87,2.09.73,2.16-.69-.79-1.23-1.92S382.64,203.05,382.78,203Z" style="fill: #e0e0e0"/>
      <path d="M371,227.73a2,2,0,0,1,.24.44c.16.34.36.76.6,1.29.54,1.19,1.27,2.83,2.18,4.86l7.38,16.87.13.31-.34.06-10.4,1.72-11.72,1.91-.36.06.06-.36c1.19-6.95,2.22-12.93,3-17.24.37-2.07.67-3.74.89-5l.27-1.32a1.45,1.45,0,0,1,.12-.45,2.27,2.27,0,0,1,0,.46c0,.36-.1.79-.17,1.33-.19,1.23-.44,2.9-.75,5-.69,4.31-1.65,10.3-2.76,17.27l-.3-.31,11.71-1.94L381.1,251l-.21.37-7.18-16.94c-.86-2.06-1.54-3.72-2-4.93-.21-.54-.39-1-.53-1.33A2.41,2.41,0,0,1,371,227.73Z" style="fill: #e0e0e0"/>
      <path d="M368.09,266.76a27,27,0,0,1-.47-6.22,26.49,26.49,0,0,1,.43-6.22,49.67,49.67,0,0,1,.12,6.22A50.1,50.1,0,0,1,368.09,266.76Z" style="fill: #e0e0e0"/>
      <path d="M376.15,266.27a42.57,42.57,0,0,1-1-6.67,39.93,39.93,0,0,1-.48-6.74,41.22,41.22,0,0,1,1,6.68A39.88,39.88,0,0,1,376.15,266.27Z" style="fill: #e0e0e0"/>
      <path d="M362.25,232a49.89,49.89,0,0,1-7.57,12.22c-.13-.1,1.68-2.76,3.76-6.13S362.1,231.9,362.25,232Z" style="fill: #e0e0e0"/>
      <path d="M382.92,238.72a52.3,52.3,0,0,1-6-4.8,52.86,52.86,0,0,1-5.69-5.22,106.45,106.45,0,0,1,11.73,10Z" style="fill: #e0e0e0"/>
      <path d="M381.09,237.75a8.09,8.09,0,0,1,.36-2.26,41.13,41.13,0,0,1,1.61-5.26,42.62,42.62,0,0,1,2.27-5,7.94,7.94,0,0,1,1.22-1.92c.15.08-1.47,3.14-3,7.14S381.25,237.79,381.09,237.75Z" style="fill: #e0e0e0"/>
      <path d="M401.8,239.4a5.22,5.22,0,0,1-1.13.45c-.74.26-1.83.6-3.18.94s-3,.71-4.83,1l-1.4.21a6.9,6.9,0,0,1-1.54.11,1.82,1.82,0,0,1-.84-.3,1.56,1.56,0,0,1-.55-.73,6.44,6.44,0,0,1-.29-1.62c-.46-4.24-.85-8.08-1.1-10.87l-.27-3.3a4.87,4.87,0,0,1,0-1.21,5,5,0,0,1,.24,1.19c.12.89.27,2,.44,3.28.35,2.77.8,6.61,1.26,10.85a6.81,6.81,0,0,0,.25,1.47,1,1,0,0,0,.94.69,5.7,5.7,0,0,0,1.41-.09l1.4-.18c1.82-.27,3.45-.58,4.81-.88s2.45-.58,3.21-.76A5.36,5.36,0,0,1,401.8,239.4Z" style="fill: #e0e0e0"/>
      <path d="M400.51,238.19a14.07,14.07,0,0,1-1-2.64c-.53-1.66-1.23-4-2-6.5-.36-1.26-.7-2.47-1-3.59a25.66,25.66,0,0,1-.73-3,4.28,4.28,0,0,1,.12-2.1c.17-.47.37-.68.4-.66a4.77,4.77,0,0,0-.14,2.7c.4,1.64,1.19,3.94,1.89,6.49s1.37,4.86,1.8,6.54A13,13,0,0,1,400.51,238.19Z" style="fill: #e0e0e0"/>
      <path d="M404,227.62a17.26,17.26,0,0,1-4.23-3.18,16.73,16.73,0,0,1-3.48-4,49.75,49.75,0,0,1,3.86,3.57A45.7,45.7,0,0,1,404,227.62Z" style="fill: #e0e0e0"/>
      <path d="M391.52,264.24a20.48,20.48,0,0,1-.26-3.29c-.1-2.21-.22-4.93-.35-7.94s-.26-5.75-.36-7.95a22.86,22.86,0,0,1,0-3.3,17.52,17.52,0,0,1,.43,3.28c.19,2,.39,4.83.53,7.94s.19,5.92.18,8A19.07,19.07,0,0,1,391.52,264.24Z" style="fill: #e0e0e0"/>
      <path d="M392.25,263.37c.09.12-.44.6-1.26.82s-1.52.06-1.51-.09.63-.25,1.37-.45S392.17,263.24,392.25,263.37Z" style="fill: #e0e0e0"/>
      <path d="M403.75,263.7a4.06,4.06,0,0,1-1.2.18l-3.29.26h-.2l0-.21c-.15-2.43-.38-5.7-.73-9.29-.36-3.8-.79-7.23-1.12-9.71-.14-1.14-.27-2.12-.38-2.94a4.08,4.08,0,0,1-.07-1.09A4,4,0,0,1,397,242c.15.69.34,1.69.55,2.92.43,2.47.92,5.9,1.29,9.72.35,3.6.52,6.89.58,9.32l-.21-.19c1.39-.05,2.51-.07,3.29-.08A5.36,5.36,0,0,1,403.75,263.7Z" style="fill: #e0e0e0"/>
    </g>
  </g>
  <g>
    <g>
      <rect x="401.73" y="314.22" width="100.51" height="71.22" transform="translate(72.13 776.89) rotate(-86.09)" style="fill: #fff"/>
      <path d="M484.08,402.39s0-.17,0-.49,0-.8.08-1.41c.08-1.26.19-3.1.34-5.49.32-4.79.77-11.78,1.35-20.61,1.17-17.66,2.84-42.7,4.81-72.29l.24.27-71.05-4.83h0l.29-.26c-2.59,37.57-5,72.32-6.91,100.27l-.21-.24L464.68,401,479,402l3.76.28,1.31.11-1.26-.06-3.73-.23-14.28-.92L413,397.76h-.22v-.23c1.9-28,4.26-62.7,6.81-100.28l0-.28.27,0h0l71,4.89h.26l0,.26c-2.08,29.64-3.84,54.73-5.08,72.43-.63,8.8-1.13,15.77-1.47,20.55-.18,2.36-.31,4.18-.41,5.43,0,.6-.08,1.06-.1,1.38S484.08,402.39,484.08,402.39Z" style="fill: #e0e0e0"/>
    </g>
    <rect x="426.39" y="287.08" width="7.03" height="17.45" transform="translate(671.56 758.31) rotate(-152.12)" style="fill: #e0e0e0"/>
    <rect x="480.74" y="390.26" width="7.03" height="17.45" transform="translate(725.72 978.11) rotate(-152.12)" style="fill: #e0e0e0"/>
    <path d="M434,354.35a103.77,103.77,0,0,1,.46-10.72,99.94,99.94,0,0,1,1-10.68,103.85,103.85,0,0,1-.46,10.72A100.31,100.31,0,0,1,434,354.35Z" style="fill: #e0e0e0"/>
    <path d="M450.35,325.55c.07.14-4.8,2.95-10.87,6.27s-11.07,5.93-11.14,5.79,4.79-2.94,10.87-6.27S450.27,325.42,450.35,325.55Z" style="fill: #e0e0e0"/>
    <path d="M471.87,336.6c-.07.14-5-2.07-11-4.93s-10.82-5.3-10.76-5.44,5,2.07,11,4.93S471.93,336.46,471.87,336.6Z" style="fill: #e0e0e0"/>
    <path d="M466.08,355.14a13.4,13.4,0,0,1-.1-2.78c0-1.72.12-4.09.35-6.71s.52-5,.79-6.66a12.54,12.54,0,0,1,.57-2.73,14.63,14.63,0,0,1-.18,2.78c-.18,1.9-.39,4.16-.63,6.66s-.36,4.77-.51,6.67A14.8,14.8,0,0,1,466.08,355.14Z" style="fill: #e0e0e0"/>
    <path d="M474.65,355.73c0,.15-10.59-.45-23.63-1.34s-23.61-1.74-23.6-1.89,10.59.45,23.63,1.34S474.66,355.58,474.65,355.73Z" style="fill: #e0e0e0"/>
    <path d="M443.94,393.78a1.92,1.92,0,0,1,.53-.19l1.52-.44a24,24,0,0,0,5.37-2.16,11,11,0,0,0,3-2.52,8.74,8.74,0,0,0,1.93-4,6.15,6.15,0,0,0-1-4.68,13.41,13.41,0,0,0-4-3.53,48.78,48.78,0,0,1-4.58-3.08,13.22,13.22,0,0,1-2.5-18,10,10,0,0,1,1-1.23,2.3,2.3,0,0,1,.41-.38s-.51.58-1.25,1.73a13.8,13.8,0,0,0-2,5.36,13.12,13.12,0,0,0,4.7,12.06,49.05,49.05,0,0,0,4.54,3,14,14,0,0,1,4.17,3.69,6.68,6.68,0,0,1,1.07,5.08,9.19,9.19,0,0,1-2.09,4.22,11.31,11.31,0,0,1-3.18,2.56,21.94,21.94,0,0,1-5.51,2c-.68.16-1.2.27-1.56.34A2.85,2.85,0,0,1,443.94,393.78Z" style="fill: #e0e0e0"/>
    <path d="M467.1,395.94s.44-.56,1.18-1.61a18.65,18.65,0,0,0,2.43-4.8,12.22,12.22,0,0,0,.15-7.79c-.94-2.86-3.43-5.25-6.3-7.19s-5.86-3.59-8.09-5.75a13.72,13.72,0,0,1-2.68-3.47,9.2,9.2,0,0,1-1-3.69,7.38,7.38,0,0,1,1.58-5.2,4.12,4.12,0,0,1,1.61-1.2,9.22,9.22,0,0,0-1.44,1.34,7.26,7.26,0,0,0-1.35,5,8.64,8.64,0,0,0,1,3.51,13.53,13.53,0,0,0,2.62,3.31c2.19,2.08,5.14,3.67,8.06,5.66s5.5,4.46,6.47,7.48a12.47,12.47,0,0,1-.26,8.08,17.43,17.43,0,0,1-2.64,4.81,13,13,0,0,1-1,1.13C467.25,395.83,467.12,396,467.1,395.94Z" style="fill: #e0e0e0"/>
    <path d="M477.33,345a22.09,22.09,0,0,1-.06,5,23.13,23.13,0,0,1-.62,5,23.57,23.57,0,0,1,.06-5A23.13,23.13,0,0,1,477.33,345Z" style="fill: #e0e0e0"/>
    <path d="M464.87,329.25s.07-.1.24-.25a2.22,2.22,0,0,1,.93-.38,2.85,2.85,0,0,1,1.6.19,2.51,2.51,0,0,1,1.47,1.6l-.32,0a4.85,4.85,0,0,1,2-2.35,5.36,5.36,0,0,1,3.56-.84c2.73.27,5.11,3.6,4,6.79l-.44-.3a2.59,2.59,0,0,1,1.82-.62,3.61,3.61,0,0,1,1.84.62,3.82,3.82,0,0,1,1.36,1.54,4.63,4.63,0,0,1,.38,2,8.1,8.1,0,0,1-1,3.56,6.43,6.43,0,0,1-2.19,2.69,2.41,2.41,0,0,1-3.1-.4l.4-.17a3.31,3.31,0,0,1-2.09,3.43,2.93,2.93,0,0,1-3-.64,3.1,3.1,0,0,1-1-1.73,1.72,1.72,0,0,1,0-.53c0-.12,0-.17,0-.17s0,.24.13.67a3.07,3.07,0,0,0,1,1.57,2.64,2.64,0,0,0,2.72.49,2.92,2.92,0,0,0,1.79-3l-.13-.86.53.69a2,2,0,0,0,2.49.24,6,6,0,0,0,2-2.5,7.67,7.67,0,0,0,.94-3.33,4.07,4.07,0,0,0-.34-1.72,3.31,3.31,0,0,0-2.72-1.84,2.07,2.07,0,0,0-1.43.48l-.79.69.35-1a4.73,4.73,0,0,0-.51-4,4.32,4.32,0,0,0-3.06-2.1,4.9,4.9,0,0,0-3.28.71,4.58,4.58,0,0,0-1.86,2.13l-.2.47-.13-.49a2.24,2.24,0,0,0-1.25-1.45,2.82,2.82,0,0,0-1.47-.25A3,3,0,0,0,464.87,329.25Z" style="fill: #e0e0e0"/>
    <path d="M456.85,322.14a9.55,9.55,0,0,1,.06,3.21,9.26,9.26,0,0,1-.5,3.18,9.62,9.62,0,0,1-.06-3.22A9.45,9.45,0,0,1,456.85,322.14Z" style="fill: #e0e0e0"/>
    <path d="M461.28,322.72c0,.15-.83.22-1.83.15s-1.8-.25-1.79-.4.83-.22,1.83-.15S461.29,322.56,461.28,322.72Z" style="fill: #e0e0e0"/>
    <path d="M460.93,331.9a18.77,18.77,0,0,1,0-4.6,19.84,19.84,0,0,1,.59-4.56,18.77,18.77,0,0,1,0,4.6A19.84,19.84,0,0,1,460.93,331.9Z" style="fill: #e0e0e0"/>
    <path d="M459.47,321.91a1.47,1.47,0,0,1,.24-.39,2.71,2.71,0,0,1,1.05-.8,4.53,4.53,0,0,1,2.1-.36,8,8,0,0,1,2.73.74,21.59,21.59,0,0,0,3.17,1.25,7.5,7.5,0,0,0,3.84-.09,7.6,7.6,0,0,0,3.64-2.29,4,4,0,0,0,1-2,1.53,1.53,0,0,0-.93-1.72l-.79-.22.77-.29a5.78,5.78,0,0,0,3.1-2.83,4.91,4.91,0,0,0,.09-4.36,4.78,4.78,0,0,0-5.25-2.77,4.58,4.58,0,0,0-3.53,4.25v.79l-.47-.63a2.25,2.25,0,0,0-2.25-.73,3,3,0,0,0-2,1.3,6.06,6.06,0,0,0-.56,4.4l.05.29-.28-.06a6,6,0,0,0-3.78.48,6.75,6.75,0,0,0-2.32,1.8,7.68,7.68,0,0,0-1.21,2.22,2.4,2.4,0,0,1,.14-.66,6,6,0,0,1,.9-1.7,6.83,6.83,0,0,1,2.35-1.94,6.29,6.29,0,0,1,4-.59l-.24.23a6.47,6.47,0,0,1,.56-4.72,3.5,3.5,0,0,1,2.27-1.53,2.75,2.75,0,0,1,2.75.9l-.46.16a5.1,5.1,0,0,1,3.91-4.79,4.74,4.74,0,0,1,3.43.48,5.83,5.83,0,0,1,2.45,2.58,5.45,5.45,0,0,1-.1,4.84,6.23,6.23,0,0,1-3.41,3.09l0-.5a2.05,2.05,0,0,1,1.31,2.31,4.67,4.67,0,0,1-1.18,2.23,8,8,0,0,1-3.9,2.4,7.88,7.88,0,0,1-4.06,0,21.15,21.15,0,0,1-3.2-1.33,8,8,0,0,0-2.62-.79,4.61,4.61,0,0,0-2,.26A3.55,3.55,0,0,0,459.47,321.91Z" style="fill: #e0e0e0"/>
    <path d="M445.89,351.81a22.16,22.16,0,0,1,.47-6.95,10.66,10.66,0,0,1,0,3.5A11.32,11.32,0,0,1,445.89,351.81Z" style="fill: #e0e0e0"/>
    <path d="M455,344.9a17.36,17.36,0,0,1-4.32,0,17.1,17.1,0,0,1-4.29-.57,16.89,16.89,0,0,1,4.33,0A16.44,16.44,0,0,1,455,344.9Z" style="fill: #e0e0e0"/>
    <path d="M454.15,353.49a17.92,17.92,0,0,1,0-4.46,17.58,17.58,0,0,1,.59-4.43,18.24,18.24,0,0,1,0,4.46A18.45,18.45,0,0,1,454.15,353.49Z" style="fill: #e0e0e0"/>
    <path d="M460.15,336.16s.2,0,.48.21a2.28,2.28,0,0,1,.76,1.24,2.5,2.5,0,0,1-.45,2.12,2.47,2.47,0,0,1-4.23-1.46,2.49,2.49,0,0,1,1-1.95,2.24,2.24,0,0,1,1.36-.5c.34,0,.52.1.51.13a2.87,2.87,0,0,0-1.61.67,2.18,2.18,0,0,0-.71,1.63,2,2,0,0,0,3.33,1.15,2.16,2.16,0,0,0,.45-1.72A2.87,2.87,0,0,0,460.15,336.16Z" style="fill: #e0e0e0"/>
    <path d="M440.2,336.3a2.41,2.41,0,0,0-.25,1.34,1.65,1.65,0,0,0,.73,1.15,1.42,1.42,0,0,0,1.55-.18,1.4,1.4,0,0,0,.57-1.45,1.66,1.66,0,0,0-.92-1,2.5,2.5,0,0,0-1.36-.11s.08-.15.34-.26a1.8,1.8,0,0,1,1.16,0,2,2,0,0,1,1.27,1.23,2,2,0,0,1-2.88,2.2,2,2,0,0,1-.85-1.53,1.72,1.72,0,0,1,.3-1.13C440,336.34,440.18,336.28,440.2,336.3Z" style="fill: #e0e0e0"/>
    <path d="M436.38,311.05s.09,0,.28-.05a3,3,0,0,1,.83.07,4.69,4.69,0,0,1,2.61,1.58,4.94,4.94,0,0,1,1,1.9,4.21,4.21,0,0,1-.1,2.5,5,5,0,0,1-4.44,3.17,4.05,4.05,0,0,1-2.79-1,4.89,4.89,0,0,1-1.49-2.31,4.67,4.67,0,0,1-.08-2.48,4,4,0,0,1,1.09-1.88,4.43,4.43,0,0,1,2.78-1.27,2.16,2.16,0,0,1,1.11.12c0,.05-.4,0-1.09.09a4.56,4.56,0,0,0-2.52,1.34,3.87,3.87,0,0,0-.8,3.93,3.94,3.94,0,0,0,3.77,2.9,4.52,4.52,0,0,0,4-2.79,4.08,4.08,0,0,0-.74-4,4.75,4.75,0,0,0-2.36-1.62C436.78,311.08,436.37,311.1,436.38,311.05Z" style="fill: #e0e0e0"/>
    <path d="M435.59,325.71c-.15,0-.27-.88-.26-1.95s.14-2,.29-2,.27.88.27,2S435.75,325.71,435.59,325.71Z" style="fill: #e0e0e0"/>
    <path d="M431.09,319.26c.09.12-.42.68-1.16,1.24s-1.4.93-1.49.81.42-.68,1.15-1.25S431,319.14,431.09,319.26Z" style="fill: #e0e0e0"/>
    <path d="M430.58,314.48c.06.13-.77.61-1.92.69s-2.05-.26-2-.4.91-.07,2-.16S430.52,314.33,430.58,314.48Z" style="fill: #e0e0e0"/>
    <path d="M433.35,310.75c0,.14-1.11-.14-2-1.14s-1-2.09-.88-2.11.51.87,1.29,1.74S433.41,310.6,433.35,310.75Z" style="fill: #e0e0e0"/>
    <path d="M437,305.71c.15,0,.27.87.27,2s-.13,2-.28,2-.28-.88-.28-2S436.84,305.71,437,305.71Z" style="fill: #e0e0e0"/>
    <path d="M443.66,310.91c.1.11-.35.67-1,1.24s-1.27.94-1.37.83.35-.68,1-1.25S443.56,310.79,443.66,310.91Z" style="fill: #e0e0e0"/>
    <path d="M447.53,315.66a5,5,0,0,1-2.23.41,4.84,4.84,0,0,1-2.26-.15,9.16,9.16,0,0,1,4.49-.26Z" style="fill: #e0e0e0"/>
    <path d="M443.48,321.78c-.11.11-.72-.27-1.37-.85s-1.1-1.15-1-1.27.71.27,1.37.85S443.58,321.66,443.48,321.78Z" style="fill: #e0e0e0"/>
  </g>
  <g>
    <rect x="66.1" y="63.37" width="180.97" height="325.09" style="fill: #ebebeb"/>
    <rect x="73.33" y="72.79" width="164.64" height="305.98" style="fill: #fafafa"/>
    <polygon points="254.72 391.39 247.06 388.46 247.06 57.85 254.72 57.85 254.72 391.39" style="fill: #e0e0e0"/>
    <path d="M113.69,270.44l42.76-39.74c5.42-5,12.5-10.46,19.47-8,3.35,1.19,5.87,4.05,9.16,5.42,6.56,2.74,14.06-1.21,19.11-6.22s9-11.28,15.14-14.91S235,203.84,238,210.28v43.25l-62.14,26.61Z" style="fill: #f5f5f5"/>
    <path d="M73.33,245.58c15.76-6.42,31.48-1,42.76,11.77,2.37,2.69,4.53,5.78,7.79,7.26,4.42,2,9.52.51,14.34,0A36.06,36.06,0,0,1,172.14,281l-52.61,25.87-46.2-.33Z" style="fill: #e0e0e0"/>
    <path d="M238,245.79c-10.38-5-19.51,1.06-29.09,7.47s-18.47,14.64-29.7,17.23c-7.5,1.72-15.54.76-22.8,3.35-14.78,5.26-23.32,24-39,24.92-8.51.49-16.14-4.67-23.73-8.53s-13.57-7.54-20.34-2.37v90.91H238Z" style="fill: #ebebeb"/>
    <rect x="73.33" y="160.81" width="168.21" height="3.26" style="fill: #e0e0e0"/>
    <rect x="73.33" y="233.68" width="168.21" height="3.26" style="fill: #e0e0e0"/>
    <rect x="73.33" y="306.55" width="168.21" height="3.26" style="fill: #e0e0e0"/>
    <rect x="43.15" y="270.79" width="225.01" height="8.32" transform="translate(-119.3 430.6) rotate(-90)" style="fill: #e0e0e0"/>
    <rect x="105.03" y="72.79" width="3.77" height="89.65" style="fill: #e0e0e0"/>
    <rect x="137.53" y="72.79" width="3.77" height="89.65" style="fill: #e0e0e0"/>
    <rect x="170.03" y="72.79" width="3.77" height="89.65" style="fill: #e0e0e0"/>
    <rect x="202.54" y="72.79" width="3.77" height="89.65" style="fill: #e0e0e0"/>
    <rect x="58.45" y="57.85" width="7.65" height="332.62" style="fill: #e0e0e0"/>
    <rect x="58.45" y="54.5" width="196.27" height="8.87" style="fill: #e0e0e0"/>
    <rect x="53.01" y="392.48" width="206.89" height="8.26" style="fill: #e0e0e0"/>
    <polygon points="247.06 388.46 259.9 392.48 53.02 392.48 66.1 388.46 247.06 388.46" style="fill: #ebebeb"/>
  </g>
  <path d="M513.34,451.56c0,.15-114.62.28-256,.28s-256-.13-256-.28,114.6-.28,256-.28S513.34,451.41,513.34,451.56Z" style="fill: #263238"/>
  <g>
    <g>
      <path d="M359.11,403.7s-8.68.47-12,1.79-19.41,9-19.41,9-21.75,9.28-26.1,11.73c-5.56,3.13-17.89,6.63-15.58,25.95h21.6l9-13.66,10.35.54,20.21,12.58,81.48-.05h58.57s2.45-19.91-7.65-28.37-49.63-17.5-49.63-17.5-13.87-3-17.28-2.95h0Z" style="fill: #e11d48"/>
      <g style="opacity: 0.30000000000000004">
        <path d="M344.13,431.78A12.87,12.87,0,0,1,358,438.44c1,2.11,1.58,4.63,3.4,6.13s4.13,1.53,6.35,1.58l17.91.42a8.56,8.56,0,0,0,4.47-.7c2.2-1.24,2.82-4,3.85-6.34a17.2,17.2,0,0,1,9.75-8.74,25.58,25.58,0,0,1,13.25-1c2.9.49,6.2,1.28,8.56-.49,1.54-1.15,2.22-3.09,3.23-4.72s2.88-3.14,4.7-2.53c2.46.82,2.94,4.81,5.51,5.16,1.13.15,2.2-.52,3.31-.77s9.92-2.35,9.82-1.21c0,0-7.72,4.19-8.16,4.58-8.71,7.66-17.5,14.82-26.21,22.48l-82.84-.94Z"/>
      </g>
      <path d="M432.74,415.32c0,.05-.25-.1-.67-.08a2.07,2.07,0,0,0-1.48.92,23.31,23.31,0,0,0-2.66,5.66c-1.54,4.7-1.08,8.8-1.27,8.79a8.61,8.61,0,0,1-.27-2.64,21.5,21.5,0,0,1,1-6.32,19.29,19.29,0,0,1,2.89-5.73,2.15,2.15,0,0,1,1.78-.89C432.57,415.07,432.76,415.31,432.74,415.32Z" style="fill: #263238"/>
      <path d="M343.87,436.51a5.28,5.28,0,0,1-.42-1.08,20,20,0,0,1-.6-3.1,59.35,59.35,0,0,1-.16-10.39c.25-4.05.67-7.7,1-10.33.18-1.31.35-2.37.48-3.11a4.84,4.84,0,0,1,.26-1.12,4.57,4.57,0,0,1,0,1.15c-.09.86-.19,1.9-.31,3.13-.27,2.63-.63,6.28-.87,10.31a74.9,74.9,0,0,0,0,10.31C343.44,434.92,344,436.48,343.87,436.51Z" style="fill: #263238"/>
      <path d="M315.76,436.51c-.15.11-1.8-3.18-5.44-5.59s-7.28-2.76-7.23-2.94a6.49,6.49,0,0,1,2.34.22,15.57,15.57,0,0,1,5.2,2.26,15.4,15.4,0,0,1,4,4A6.44,6.44,0,0,1,315.76,436.51Z" style="fill: #263238"/>
      <path d="M469.69,421.55c0,.1-1.62.14-4.21.39a42.22,42.22,0,0,0-9.91,2.18,59,59,0,0,0-9.16,4.41,41.11,41.11,0,0,1-3.7,2.08,4.84,4.84,0,0,1,.9-.71c.6-.42,1.49-1,2.59-1.71a49.32,49.32,0,0,1,9.18-4.59,37.23,37.23,0,0,1,10.06-2.05c1.32-.07,2.38-.1,3.11-.08A4.67,4.67,0,0,1,469.69,421.55Z" style="fill: #263238"/>
      <path d="M449.46,421.3a21.21,21.21,0,0,1-2.08.79,16.22,16.22,0,0,0-7.89,6.82,19.86,19.86,0,0,1-1.09,1.95,6,6,0,0,1,.74-2.14,14.19,14.19,0,0,1,3.36-4.29,13.92,13.92,0,0,1,4.74-2.7A5.93,5.93,0,0,1,449.46,421.3Z" style="fill: #263238"/>
      <path d="M311.88,432.69c0,.09-1.47.46-3.78,1.31A21.63,21.63,0,0,0,300,439a12.45,12.45,0,0,0-3.48,8.57,12.69,12.69,0,0,0,.83,3.85,3.18,3.18,0,0,1-.54-.94,8.1,8.1,0,0,1-.68-2.89,12.31,12.31,0,0,1,3.47-9,20.35,20.35,0,0,1,8.36-4.94c1.19-.38,2.16-.63,2.84-.78A3.84,3.84,0,0,1,311.88,432.69Z" style="fill: #263238"/>
      <path d="M450.35,451.56a26,26,0,0,0,1-3.27,21.15,21.15,0,0,0,.07-8.2,13.81,13.81,0,0,0-1.5-4.23,9.84,9.84,0,0,0-2.42-2.74c-1.67-1.29-2.86-1.9-2.81-2a3,3,0,0,1,.87.36,15.7,15.7,0,0,1,2.18,1.32,9.54,9.54,0,0,1,2.62,2.78A13.25,13.25,0,0,1,452,440a19.45,19.45,0,0,1-.23,8.4,12,12,0,0,1-.9,2.4C450.58,451.31,450.38,451.58,450.35,451.56Z" style="fill: #263238"/>
    </g>
    <g>
      <g>
        <g>
          <path d="M372.15,415.61v-.3C360,413.74,354.41,402,353.61,388c-.43-7.46-.76-8-.24-24.15a126.91,126.91,0,0,1,4.08-28.14s9.85-12.32,28.46-10.95,28.21,26.31,28.21,26.31S414,389,412.9,396.68s-.93,10.41-.93,10.41l-.43,9.37a19.71,19.71,0,0,1-19.68,18.8h0A19.7,19.7,0,0,1,372.15,415.61Z" style="fill: #ffbf9d"/>
          <g>
            <path d="M413.2,374.91c.32-.14,13.05-4,12.73,9.06s-13.32,10-13.33,9.63S413.2,374.91,413.2,374.91Z" style="fill: #ffbf9d"/>
            <path d="M416.69,388.77c.06,0,.23.16.61.35a2.25,2.25,0,0,0,1.69.07c1.39-.47,2.6-2.62,2.72-5a7.49,7.49,0,0,0-.56-3.26,2.61,2.61,0,0,0-1.66-1.78,1.15,1.15,0,0,0-1.35.59c-.19.36-.11.62-.18.64s-.27-.22-.15-.76a1.43,1.43,0,0,1,.53-.8,1.67,1.67,0,0,1,1.26-.3,3.19,3.19,0,0,1,2.32,2.07,7.74,7.74,0,0,1,.7,3.65c-.15,2.62-1.55,5-3.45,5.54a2.42,2.42,0,0,1-2.06-.39C416.71,389.08,416.65,388.79,416.69,388.77Z" style="fill: #ff9a6c"/>
          </g>
          <g>
            <path d="M360.76,371.52c.36.37,2.49-1.24,5.54-1.25s5.3,1.49,5.63,1.12c.16-.17-.21-.84-1.19-1.54a7.76,7.76,0,0,0-4.5-1.35,7.56,7.56,0,0,0-4.41,1.46C360.9,370.69,360.59,371.36,360.76,371.52Z" style="fill: #263238"/>
            <path d="M390.66,371c.35.37,2.49-1.24,5.54-1.25s5.3,1.49,5.62,1.11c.16-.16-.19-.83-1.18-1.53a7.76,7.76,0,0,0-4.5-1.35,7.39,7.39,0,0,0-4.41,1.46C390.8,370.16,390.49,370.84,390.66,371Z" style="fill: #263238"/>
            <path d="M393.81,361.25c.17.65,2,.72,4,1.37s3.6,1.56,4.1,1.12c.23-.22.1-.81-.48-1.51a6.54,6.54,0,0,0-6.4-2C394.19,360.53,393.75,360.94,393.81,361.25Z" style="fill: #263238"/>
            <path d="M362.67,360.05c.53.59,2.49.68,4.38.21s3-1.34,2.48-1.92-2.5-.68-4.39-.21S362.14,359.46,362.67,360.05Z" style="fill: #263238"/>
          </g>
          <path d="M383.39,394.3c-.05.18.36.5,1.17.61a4.28,4.28,0,0,0,4.65-3.53c.12-.81-.09-1.29-.27-1.29-.39,0-.7,1.72-2.21,2.84S383.47,393.92,383.39,394.3Z" style="fill: #263238"/>
          <path d="M372.15,415.31s15.6.25,19.29-2.44c0,0-2.36,7.49-18.88,6.69Z" style="fill: #ff9a6c"/>
          <path d="M345.7,348.62c-.2-3.06-1.13-6.05-1.14-9.11a16.53,16.53,0,0,1,5.56-12.08,19.56,19.56,0,0,1,12.52-4.8c3.43-.09,6.88.64,10.27.14,2.88-.43,5.55-1.71,8.38-2.42a21.37,21.37,0,0,1,17.2,3.21s6,3.46,13.32,12c0,0,13.33.39,12.73,19.09s-1.91,21-1.91,21l-4.4-1.34c.38,2.13.74,4.37-.42,6.34a3.42,3.42,0,0,1-3,1.76c-2.57-.13-3.42-3.1-3.72-5.5q-1.15-9.53-1.43-19.13c0-1.79-.44-4-2.18-4.47-1-.24-2,.32-3,.58a5.66,5.66,0,0,1-5.67-1.81c-.21,2.45-3.52,3.54-5.75,2.51s-3.53-3.32-4.7-5.47a9.79,9.79,0,0,1-.32,4,3.34,3.34,0,0,1-3,2.33c-1.58-.08-2.66-1.59-3.39-3a37.13,37.13,0,0,1-3.7-10.78,22.59,22.59,0,0,1-9.42,14.34q-.82-2.44-1.66-4.9a9.32,9.32,0,0,1-2.27,2.64,3.28,3.28,0,0,1-3.3.44,2.18,2.18,0,0,1-1.13-2.05,3.78,3.78,0,0,1-4.94,1.23,3.93,3.93,0,0,1-1.45-1.55c.63,9.52,1.24,19.84-.52,28.92l-4.38-9.88a38.43,38.43,0,0,1-3.17-18.69A25.46,25.46,0,0,0,345.7,348.62Z" style="fill: #263238"/>
          <path d="M410.89,338.11c.08,0,.24-.85.94-2.06a8.07,8.07,0,0,1,9.22-3.86c1.35.35,2.09.85,2.13.78s-.15-.17-.49-.39a6.55,6.55,0,0,0-1.55-.71,8,8,0,0,0-9.61,4,6.93,6.93,0,0,0-.58,1.6C410.87,337.89,410.86,338.11,410.89,338.11Z" style="fill: #263238"/>
          <path d="M409.24,337.72s.22-.11.56-.39a9.19,9.19,0,0,0,1.29-1.39,10.55,10.55,0,0,0,.64-11.81,9.13,9.13,0,0,0-1.13-1.51c-.31-.32-.5-.48-.52-.46s.62.76,1.36,2.14a10.94,10.94,0,0,1-.62,11.45C409.94,337,409.18,337.66,409.24,337.72Z" style="fill: #263238"/>
          <path d="M377.48,378.26c-.18-.05-.55.63-1,1.75-.21.57-.45,1.24-.68,2-.12.39-.24.78-.36,1.19a5.86,5.86,0,0,0-.32,1.47,2.31,2.31,0,0,0,.61,1.73,2.61,2.61,0,0,0,1.48.74,3,3,0,0,0,1.39-.12,3.77,3.77,0,0,0,1-.54c1-.83,1.36-1.52,1.25-1.65s-.79.32-1.77.8a2.41,2.41,0,0,1-1.63.23,1.42,1.42,0,0,1-.7-.4,1,1,0,0,1-.22-.73,5.77,5.77,0,0,1,.24-1.15c.1-.42.19-.82.28-1.22.17-.78.3-1.49.4-2.08C377.65,379.08,377.67,378.31,377.48,378.26Z" style="fill: #263238"/>
        </g>
        <path d="M417.86,357.83a3.92,3.92,0,0,0,.17-.92c.07-.59.17-1.45.25-2.52a28.38,28.38,0,0,0-.44-8.37,14.15,14.15,0,0,0-4.09-7.28,9.49,9.49,0,0,0-2.1-1.45,2.77,2.77,0,0,0-.88-.33,17.12,17.12,0,0,1,2.76,2,14.69,14.69,0,0,1,3.85,7.15,32,32,0,0,1,.57,8.24A30.06,30.06,0,0,0,417.86,357.83Z" style="fill: #455a64"/>
        <path d="M406.59,353a7.68,7.68,0,0,0,1.53-1.88,17.76,17.76,0,0,0,2.3-5.37,17.48,17.48,0,0,0,.4-5.82,7.68,7.68,0,0,0-.5-2.37c-.08,0,.09.92.17,2.39a19.88,19.88,0,0,1-2.66,11C407.1,352.21,406.53,352.94,406.59,353Z" style="fill: #455a64"/>
        <path d="M378.48,341.47a1.89,1.89,0,0,0,0-.44c0-.35,0-.77,0-1.28a37.39,37.39,0,0,1,.37-4.68,13.69,13.69,0,0,1,2.51-6.33,8.85,8.85,0,0,1,3.08-2.54,11.68,11.68,0,0,1,4.16-1.15,16.38,16.38,0,0,1,8.21,1.48,19.79,19.79,0,0,1,3.17,1.88,18.93,18.93,0,0,1,2.4,2.14,17.33,17.33,0,0,1,2.73,3.77c.53,1,.75,1.55.8,1.53a2.87,2.87,0,0,0-.14-.43,10.55,10.55,0,0,0-.49-1.18,16.28,16.28,0,0,0-2.65-3.92,18.07,18.07,0,0,0-5.64-4.18,16.5,16.5,0,0,0-8.44-1.56,11.83,11.83,0,0,0-4.32,1.21,9.12,9.12,0,0,0-3.21,2.69,13.79,13.79,0,0,0-2.5,6.54,29.45,29.45,0,0,0-.22,4.73c0,.55,0,1,.05,1.28A1.18,1.18,0,0,0,378.48,341.47Z" style="fill: #455a64"/>
        <path d="M363.54,344.34a1.6,1.6,0,0,0,.13-.45l.3-1.3c.26-1.12.61-2.76,1.18-4.74a28.19,28.19,0,0,1,2.75-6.64,14.88,14.88,0,0,1,6.31-5.9,19.39,19.39,0,0,1,8.53-1.76,35,35,0,0,1,7.15.9c2,.45,3.63.9,4.74,1.19l1.29.34a1.47,1.47,0,0,0,.46.08,2,2,0,0,0-.43-.17l-1.26-.42c-1.11-.35-2.71-.85-4.72-1.34a33.47,33.47,0,0,0-7.22-1,19.6,19.6,0,0,0-8.75,1.77,15,15,0,0,0-6.47,6.1,27.44,27.44,0,0,0-2.7,6.77c-.54,2-.84,3.66-1,4.8-.1.57-.17,1-.21,1.31A1.67,1.67,0,0,0,363.54,344.34Z" style="fill: #455a64"/>
        <path d="M356.21,346.79c.08,0-.1-1.44-.29-3.75a20,20,0,0,1,1-8.85,10.34,10.34,0,0,1,2.75-4,8.33,8.33,0,0,1,3.52-1.78,8.14,8.14,0,0,1,3.67.07s-.07-.06-.23-.12a3.72,3.72,0,0,0-.72-.24,6.64,6.64,0,0,0-2.79,0,8.37,8.37,0,0,0-3.73,1.78,10.4,10.4,0,0,0-2.91,4.15,19.1,19.1,0,0,0-.86,9.05c.13,1.16.28,2.09.4,2.73A4.39,4.39,0,0,0,356.21,346.79Z" style="fill: #455a64"/>
      </g>
      <path d="M398.08,385.72c.12,0,.17-.33.1-.68s-.23-.62-.36-.59-.17.33-.1.68S398,385.74,398.08,385.72Z" style="fill: #ff9a6c"/>
      <path d="M392.64,384.58c.12,0,.28-.1.35-.31s0-.41-.1-.45-.28.09-.35.3S392.51,384.54,392.64,384.58Z" style="fill: #ff9a6c"/>
      <path d="M395.39,387.87c.13,0,.27-.26.3-.61s0-.65-.17-.66-.26.26-.3.61S395.26,387.86,395.39,387.87Z" style="fill: #ff9a6c"/>
      <path d="M402.26,387.24c.12,0,.14-.36,0-.71s-.29-.6-.41-.56-.14.35,0,.7S402.13,387.27,402.26,387.24Z" style="fill: #ff9a6c"/>
      <path d="M366,384.45c.13,0,.27-.23.3-.54s0-.59-.17-.6-.26.23-.3.54S365.9,384.44,366,384.45Z" style="fill: #ff9a6c"/>
      <path d="M360.94,384.32c.13,0,.24-.28.24-.63s-.11-.64-.24-.64-.23.29-.23.64S360.81,384.32,360.94,384.32Z" style="fill: #ff9a6c"/>
      <path d="M356.73,384.06c.13,0,.29-.24.36-.59s0-.65-.11-.68-.28.24-.35.59S356.6,384,356.73,384.06Z" style="fill: #ff9a6c"/>
      <path d="M363.35,388.63c.13,0,.14-.35,0-.7s-.29-.6-.42-.57-.14.35,0,.7S363.23,388.67,363.35,388.63Z" style="fill: #ff9a6c"/>
      <path d="M358.56,388c.13,0,.26-.2.3-.48s-.05-.52-.17-.53-.27.19-.3.47S358.43,388,358.56,388Z" style="fill: #ff9a6c"/>
      <path d="M392.1,375.46a2.8,2.8,0,0,0,2.47,3,2.68,2.68,0,0,0,3.09-2.29,2.81,2.81,0,0,0-2.47-3A2.69,2.69,0,0,0,392.1,375.46Z" style="fill: #263238"/>
      <path d="M364.08,376.05a2.82,2.82,0,0,0,2.47,3,2.68,2.68,0,0,0,3.09-2.29,2.81,2.81,0,0,0-2.47-3.05A2.69,2.69,0,0,0,364.08,376.05Z" style="fill: #263238"/>
    </g>
    <g>
      <g>
        <g>
          <path d="M339.8,455.4,304.52,490H386s4.25-6.9,12.17-6.32,43.35,10.4,54,8.65L442.88,454s-28.22-8.19-44.28-5.09a23.15,23.15,0,0,0-11.7,6.19h0Z" style="fill: #fafafa"/>
          <path d="M339.8,455.4l.5,0,1.47,0,5.74-.08,21.68-.22,15.36-.14,2.11,0h.24c-.26.1-.06,0-.11,0l.19-.18.4-.37c.27-.24.54-.49.82-.71a23.09,23.09,0,0,1,12.55-5.29,55.92,55.92,0,0,1,9.9-.3c3.4.15,6.87.52,10.4,1a180.36,180.36,0,0,1,21.9,4.63l.14,0,0,.15c2.91,11.91,6.07,24.85,9.37,38.33l.07.31-.3,0a25.44,25.44,0,0,1-3.38.19l-1.7,0-1.7-.13c-1.14-.07-2.27-.2-3.41-.35s-2.28-.28-3.42-.46c-4.57-.69-9.18-1.57-13.82-2.52-7.05-1.43-13.95-3-20.75-4.39-3.39-.6-6.83-1.51-10.07-.54a14.46,14.46,0,0,0-7.76,5.77l-.09.13H386l-81.5-.07H304l.34-.34,25.93-25.27c3.05-3,5.41-5.26,7-6.82l1.83-1.76c.42-.4.63-.58.63-.58s-.2.22-.6.63l-1.81,1.81-7,6.9-25.75,25.37-.14-.33,81.5-.08-.23.13a15,15,0,0,1,8.08-6,12.75,12.75,0,0,1,5.18-.33c1.73.19,3.42.53,5.13.86,6.82,1.35,13.72,3,20.76,4.38,4.63,1,9.24,1.83,13.79,2.52,1.14.18,2.27.34,3.41.46s2.26.28,3.38.35l1.69.13,1.67,0a25.77,25.77,0,0,0,3.3-.18l-.23.34c-3.28-13.49-6.42-26.43-9.32-38.34l.17.18A180.46,180.46,0,0,0,421,449.56c-3.52-.51-7-.89-10.35-1a55,55,0,0,0-9.82.26,22.46,22.46,0,0,0-8.75,2.7,22.94,22.94,0,0,0-3.61,2.46c-.28.23-.54.47-.81.7l-.39.37-.2.18c-.06,0,.12,0-.15.07h-2.34l-15.33.07-21.67.07H339.8Z" style="fill: #263238"/>
        </g>
        <path d="M386,490c-.16,0,0-7.86.25-17.54s.65-17.53.8-17.52,0,7.86-.25,17.54S386.17,490,386,490Z" style="fill: #263238"/>
      </g>
      <path d="M374.79,483.36a5.94,5.94,0,0,0-2-2.4,7.8,7.8,0,0,0-3.43-1.37,15.34,15.34,0,0,0-5,.22A105.38,105.38,0,0,1,334.06,482l-.63-.05.48-.42a51.44,51.44,0,0,1,26.57-11.8c1-.12,1.94-.23,2.9-.28a5.45,5.45,0,0,1,2.92.27,1.61,1.61,0,0,1,.95,1.28,1.83,1.83,0,0,1-.58,1.44,7.31,7.31,0,0,1-2.43,1.4,22,22,0,0,1-10.07,1.5,21.2,21.2,0,0,1-4.55-.88,15.89,15.89,0,0,1-2.06-.78,6.74,6.74,0,0,1-1.75-1.21,3.51,3.51,0,0,1-1.05-1.77,2.48,2.48,0,0,1,.45-1.92,7.56,7.56,0,0,1,2.88-2,43.87,43.87,0,0,1,5.12-2.08c1.44-.47,2.58-.77,3.36-.95l.88-.19a1.06,1.06,0,0,1,.31,0l-.29.1-.87.24c-.77.22-1.9.54-3.32,1a45.72,45.72,0,0,0-5,2.15,7.47,7.47,0,0,0-2.74,1.88,2.15,2.15,0,0,0-.36,1.64,3.09,3.09,0,0,0,.95,1.57,7,7,0,0,0,1.66,1.13,16.85,16.85,0,0,0,2,.73,21.19,21.19,0,0,0,4.47.83,21.42,21.42,0,0,0,9.83-1.52,6.81,6.81,0,0,0,2.25-1.28,1.28,1.28,0,0,0,.43-1,1.06,1.06,0,0,0-.65-.85,5.2,5.2,0,0,0-2.66-.22c-.94.06-1.9.17-2.86.29a51,51,0,0,0-26.29,11.67l-.16-.47a108.15,108.15,0,0,0,30.26-1.94,15.47,15.47,0,0,1,5.08-.15,8,8,0,0,1,3.49,1.48,5.58,5.58,0,0,1,1.56,1.79A3,3,0,0,1,374.79,483.36Z" style="fill: #263238"/>
      <path d="M448.86,492.08a1.28,1.28,0,0,1,.17.28l.43.82c.39.8.93,1.87,1.61,3.24l.07.14-.16.05a44.08,44.08,0,0,1-13.05,1.85,45.38,45.38,0,0,1-18.45-4c-4.68-2.09-8.94-4.46-13.08-6A25.79,25.79,0,0,0,395,486.65a16.26,16.26,0,0,0-7.36,2.51,21,21,0,0,0-2.25,1.8,8.72,8.72,0,0,1,2.13-2,15.84,15.84,0,0,1,7.44-2.72A25.76,25.76,0,0,1,406.57,488c4.21,1.49,8.49,3.86,13.13,5.93A45.82,45.82,0,0,0,437.93,498a46.5,46.5,0,0,0,13-1.63l-.09.19c-.63-1.39-1.12-2.49-1.49-3.29l-.37-.86A1,1,0,0,1,448.86,492.08Z" style="fill: #263238"/>
      <path d="M402.62,472.14a59.53,59.53,0,0,1-.43-11.43,59.53,59.53,0,0,1,.43,11.43Z" style="fill: #263238"/>
      <path d="M413.68,479a17.48,17.48,0,0,1-2.37-1.5c-1.45-1-3.48-2.21-5.81-3.43a67.33,67.33,0,0,0-6.14-2.81,18.6,18.6,0,0,1-2.59-1.09,12.22,12.22,0,0,1,2.73.72,44.82,44.82,0,0,1,6.26,2.68,43.31,43.31,0,0,1,5.77,3.61A11.94,11.94,0,0,1,413.68,479Z" style="fill: #263238"/>
      <path d="M431.29,470.82a86.93,86.93,0,0,1-8.81,4.29,87.13,87.13,0,0,1-9,3.79,173.07,173.07,0,0,1,17.84-8.08Z" style="fill: #263238"/>
      <path d="M424.37,473a105.88,105.88,0,0,1,.2-15.39,51.36,51.36,0,0,1,.18,7.7A54.77,54.77,0,0,1,424.37,473Z" style="fill: #263238"/>
      <path d="M420.07,478.29c-.15,0-.32-.41-.38-1s0-1,.16-1,.33.41.39.95S420.22,478.28,420.07,478.29Z" style="fill: #263238"/>
      <path d="M421.78,478.08c-.15,0-.32-.62-.38-1.41s0-1.44.18-1.45.32.62.37,1.41S421.93,478.07,421.78,478.08Z" style="fill: #263238"/>
      <path d="M421.2,480.94c.07,0,.21.56.72,1.39a1.89,1.89,0,0,0,1.35.9.92.92,0,0,0,.84-.33.77.77,0,0,0,.13-.89l.4-.24a3.9,3.9,0,0,0,2.63,1.74,3.53,3.53,0,0,0,3.32-1.14,3.66,3.66,0,0,0,.49-4.42,2.74,2.74,0,0,0-1.64-1.18,4,4,0,0,0-1.83,0,8,8,0,0,0-2.5,1.18,5,5,0,0,1-.88.54s.23-.29.76-.72a7.43,7.43,0,0,1,2.52-1.38,4.21,4.21,0,0,1,2-.06,3.14,3.14,0,0,1,1.95,1.34,3.84,3.84,0,0,1,.64,2.53,4.48,4.48,0,0,1-1.13,2.55,4,4,0,0,1-3.83,1.28,4.3,4.3,0,0,1-2.94-2l.39-.24a1.19,1.19,0,0,1-.21,1.42,1.34,1.34,0,0,1-1.19.42,2.15,2.15,0,0,1-1.54-1.13,4,4,0,0,1-.42-1.11C421.2,481.09,421.18,481,421.2,480.94Z" style="fill: #263238"/>
      <path d="M440.61,476.65s.17-.15.55-.15a1.86,1.86,0,0,1,1.37.76,2.11,2.11,0,0,1,.26,2.31,2.84,2.84,0,0,1-2.48,1.38,3,3,0,0,1-2.53-1.29,2.18,2.18,0,0,1-.18-2.32,1.9,1.9,0,0,1,1.24-.95c.37-.07.57,0,.57.05s-.21,0-.51.16a1.8,1.8,0,0,0-.95.92,1.78,1.78,0,0,0,.24,1.84,2.62,2.62,0,0,0,2.11,1,2.44,2.44,0,0,0,2-1.08,1.71,1.71,0,0,0-.13-1.83,1.82,1.82,0,0,0-1.07-.78C440.82,476.65,440.62,476.69,440.61,476.65Z" style="fill: #263238"/>
      <path d="M439.83,474.56c-.16,0-.33-.72-.39-1.63s0-1.66.16-1.67.33.72.39,1.63S440,474.55,439.83,474.56Z" style="fill: #263238"/>
      <path d="M440.52,484.23c-.15,0-.28-.54-.28-1.21s.13-1.21.28-1.21.28.54.28,1.21S440.67,484.23,440.52,484.23Z" style="fill: #263238"/>
      <path d="M437,480.27c.11.11-.38.83-1.11,1.62s-1.41,1.35-1.53,1.24.39-.83,1.12-1.62S436.89,480.17,437,480.27Z" style="fill: #263238"/>
      <path d="M446.21,482.51c-.08.12-.68-.13-1.34-.58s-1.12-.9-1-1,.69.13,1.34.57S446.3,482.38,446.21,482.51Z" style="fill: #263238"/>
      <path d="M446.24,477c0,.14-.42.41-1,.59s-1.14.21-1.18.07.41-.42,1-.6S446.19,476.83,446.24,477Z" style="fill: #263238"/>
      <path d="M444.53,473.28c.12.09-.14.61-.57,1.15s-.88.9-1,.81.14-.61.57-1.16S444.4,473.18,444.53,473.28Z" style="fill: #263238"/>
      <path d="M437,475.4c-.08.14-.63-.06-1.24-.42s-1-.77-.95-.91.63.06,1.24.43S437.1,475.27,437,475.4Z" style="fill: #263238"/>
      <path d="M435,477.2c0,.15-.49.27-1.1.27s-1.1-.12-1.1-.27.5-.28,1.1-.28S435,477,435,477.2Z" style="fill: #263238"/>
      <path d="M415.46,458.51a10.22,10.22,0,0,1,0,2.34c-.06,1.45-.18,3.47-.35,5.76l0,.27-.26,0-1.32-.05-3.53-.18h-.25v-.25c0-1.72,0-3.2.08-4.24a6.17,6.17,0,0,1,.15-1.64,6.38,6.38,0,0,1,.16,1.64c.05,1,.1,2.51.13,4.24l-.25-.26,3.54.14,1.31.06-.29.26c.19-2.29.38-4.31.54-5.75A10.52,10.52,0,0,1,415.46,458.51Z" style="fill: #263238"/>
      <path d="M437.89,461.29A52.3,52.3,0,0,1,427.12,460a52.3,52.3,0,0,1,10.77,1.32Z" style="fill: #263238"/>
      <path d="M400.72,462a19.7,19.7,0,0,1-4.62.24,18.78,18.78,0,0,1-4.61-.32,19.7,19.7,0,0,1,4.62-.24A18.78,18.78,0,0,1,400.72,462Z" style="fill: #263238"/>
    </g>
    <g>
      <path d="M442.71,430.61l-18.38,4s-5.43-4.21-7.78-4.33-10.87,0-10.87,0-8.53,6.55-8.53,8.15a9.91,9.91,0,0,0,1.12,3.71s-1.27.9-.51,4.21,1.37,3.57,1.37,3.57-1.6,3.09.37,4.32a24.43,24.43,0,0,0,6.05,2.1l6.21-1c-2.32.39,15.95-.6,16.84-3.79h21.75C452.32,442.08,452.37,433.23,442.71,430.61Z" style="fill: #ffbf9d"/>
      <path d="M410.08,437.12a36.15,36.15,0,0,0-6.19,1.84,59.6,59.6,0,0,0-5.62,3.21c0-.05.46-.59,1.4-1.33a18.69,18.69,0,0,1,4-2.39A13,13,0,0,1,410.08,437.12Z" style="fill: #ff9a6c"/>
      <path d="M411.78,442.78c0,.16-3.17.79-7,1.77-1.94.49-3.67,1-4.91,1.41a13.83,13.83,0,0,1-2,.69,5.79,5.79,0,0,1,1.87-1A33.48,33.48,0,0,1,404.6,444,32.1,32.1,0,0,1,411.78,442.78Z" style="fill: #ff9a6c"/>
      <path d="M410.25,450c0,.17-2.51,0-5.57-.1s-5.52.21-5.55.07,2.45-.73,5.56-.63A20,20,0,0,1,410.25,450Z" style="fill: #ff9a6c"/>
      <path d="M430.4,443.69a4.25,4.25,0,0,1,.34,1.71,10.19,10.19,0,0,1-.53,4.18,7.32,7.32,0,0,1-1.16,2.06,5.8,5.8,0,0,1-1.46,1.25,3.24,3.24,0,0,1-1.65.6c0-.09.59-.32,1.43-.92a6.78,6.78,0,0,0,1.28-1.25,7.68,7.68,0,0,0,1-1.93,12.55,12.55,0,0,0,.66-4A7.93,7.93,0,0,1,430.4,443.69Z" style="fill: #ff9a6c"/>
    </g>
    <g>
      <path d="M350.45,451.85s-1.19,4.77,5.51,4.47l.75-13s-.3-4.77-7.15-4l-1.34,5.51A6.76,6.76,0,0,1,350,447.8C350.3,449.32,350.45,451.85,350.45,451.85Z" style="fill: #ffbf9d"/>
      <g>
        <path d="M326.51,424.84l26.62,32.7,7.64,2.58L359,451.77l-26-32.5a4.29,4.29,0,0,0-3.83-1.63h-.1A4.38,4.38,0,0,0,326.51,424.84Z" style="fill: #455a64"/>
        <path d="M326.61,425c-.06,0,.06-.55.48-1.29a8.13,8.13,0,0,1,2.24-2.45,8.31,8.31,0,0,1,3-1.35,2.71,2.71,0,0,1,1.38-.05,16.53,16.53,0,0,0-4.08,1.85A16.05,16.05,0,0,0,326.61,425Z" style="fill: #263238"/>
        <path d="M353.13,457.54s-.53-.35-.62-1.37a1.22,1.22,0,0,1,.07-.41l.14-.36a5.82,5.82,0,0,1,.35-.79,5.16,5.16,0,0,1,1.38-1.46,16.34,16.34,0,0,1,1.63-1.08,4.24,4.24,0,0,1,1.56-.51c.95-.11,1.5.2,1.47.26s-.57-.07-1.4.13a4.4,4.4,0,0,0-1.37.57c-.48.31-1,.66-1.55,1.07a5.71,5.71,0,0,0-1.28,1.27c-.14.24-.26.49-.37.72l-.16.35a.79.79,0,0,0-.08.26A7.35,7.35,0,0,0,353.13,457.54Z" style="fill: #263238"/>
        <path d="M354.23,454c-.12.09-5.91-6.93-12.93-15.7s-12.62-15.94-12.5-16,5.91,6.93,12.93,15.7S354.35,453.87,354.23,454Z" style="fill: #263238"/>
        <path d="M357,451.27c-.12.1-5.82-6.74-12.73-15.28s-12.42-15.53-12.3-15.63,5.82,6.75,12.73,15.28S357.13,451.18,357,451.27Z" style="fill: #263238"/>
        <path d="M360,456.4a2.41,2.41,0,0,0-2.1.53,2.31,2.31,0,0,0-.68,2l3.55,1.17Z" style="fill: #263238"/>
      </g>
      <g>
        <path d="M313.22,433,327,437.44s6-5.07,8.38-5.2l7.95-.4s9.82,6.55,9.82,8.15A10,10,0,0,1,352,443.7s2.7,1,2.14,3.34a4.09,4.09,0,0,1-3.06,3.06s1.66,4.47-.31,5.7a24.46,24.46,0,0,1-6.06,2.1s-3.58,2.84-5.93,2.6-14.08-1-15.44-3.21l-14.26-3.47-10.78-2.66s-4.16-5.41,2.24-11.94A20.45,20.45,0,0,1,313.22,433Z" style="fill: #ffbf9d"/>
        <path d="M352.65,439.22a45,45,0,0,0-6-1.38,45.68,45.68,0,0,0-6.22,0,15.83,15.83,0,0,1,12.27,1.37Z" style="fill: #ff9a6c"/>
        <path d="M352,443.7c0,.13-2.22-.32-4.94-.7a25.37,25.37,0,0,0-3.5-.29c-.9,0-1.4.2-1.44.13s.47-.42,1.41-.52a14.74,14.74,0,0,1,3.61.13C349.89,442.83,352.12,443.53,352,443.7Z" style="fill: #ff9a6c"/>
        <path d="M351.07,450.1c0,.11-1.84-.28-4.12-.47s-4.12-.19-4.15-.3,1.88-.51,4.2-.26S351.15,449.92,351.07,450.1Z" style="fill: #ff9a6c"/>
        <path d="M298.29,451.16a1.62,1.62,0,0,1,.47.07l1.35.29,5.09,1.18,18.19,4.35.08,0,.07.09a4.2,4.2,0,0,0,2,1.14,22.64,22.64,0,0,0,2.52.63c1.74.35,3.56.59,5.44.8s3.85.4,5.75.5a7.4,7.4,0,0,0,2.73-.91,19.43,19.43,0,0,0,2.53-1.63l.05,0,.07,0a30.56,30.56,0,0,0,3.68-1,13,13,0,0,0,2-.85,1.88,1.88,0,0,0,1.07-1.5,9,9,0,0,0-.56-4l-.1-.3.31-.07a3.84,3.84,0,0,0,2.83-2.83,2.18,2.18,0,0,0-.37-1.87,4.07,4.07,0,0,0-1.59-1.19l-.27-.11.13-.25a13.06,13.06,0,0,0,.84-2.11,6,6,0,0,0,.22-1.07,1.57,1.57,0,0,0,0-.48,1.29,1.29,0,0,0-.21-.4,19.07,19.07,0,0,0-3.13-2.9c-2.19-1.74-4.34-3.25-6.33-4.61l.13,0-7.45.33a5.69,5.69,0,0,0-2.81.89c-.82.45-1.54.92-2.18,1.35-1.28.87-2.24,1.59-2.89,2.08l-.75.56c-.16.13-.25.19-.26.18s.07-.09.23-.23l.7-.6c.63-.53,1.57-1.28,2.83-2.18a26,26,0,0,1,2.18-1.41,6,6,0,0,1,2.94-1l7.43-.42h.07l.06,0c2,1.34,4.17,2.84,6.4,4.57a20,20,0,0,1,3.24,3,2.11,2.11,0,0,1,.3.58,1.11,1.11,0,0,1,0,.35c0,.1,0,.2,0,.3a6.44,6.44,0,0,1-.23,1.16,12.26,12.26,0,0,1-.88,2.21l-.14-.37a4.48,4.48,0,0,1,1.84,1.37,2.7,2.7,0,0,1,.46,2.31,4.36,4.36,0,0,1-3.26,3.24l.21-.36a9.38,9.38,0,0,1,.6,4.33,2.92,2.92,0,0,1-.43,1.11,2.45,2.45,0,0,1-.93.78,14.27,14.27,0,0,1-2.05.89,33.82,33.82,0,0,1-3.76,1.05l.12-.05a19.26,19.26,0,0,1-2.63,1.69,7.88,7.88,0,0,1-2.95,1c-2.06-.1-3.94-.32-5.84-.52s-3.72-.46-5.48-.82a23.58,23.58,0,0,1-2.57-.66,4.47,4.47,0,0,1-2.28-1.36l.15.11L305.14,453l-5.07-1.3-1.33-.37A2.54,2.54,0,0,1,298.29,451.16Z" style="fill: #ff9a6c"/>
      </g>
    </g>
  </g>
  <g>
    <g>
      <g>
        <path d="M216.6,409.63c-4-3.34-7-6-10.52-9.32a30.09,30.09,0,0,0-19.15-8.15l-60.3-3H115.84c-6.11,0-39.11,23.6-43.62,28.51L102.33,445l3.79-2-.43,9.27L193.5,452l.79-12.93,16.31,10.5,21.34-25.34S223.26,415.23,216.6,409.63Z" style="fill: #e11d48"/>
        <path d="M194.88,397.12a39.94,39.94,0,0,0-3,2.76,19.79,19.79,0,0,0-4.4,8.53,25.72,25.72,0,0,0-.31,9.66c.37,2.47.83,4,.74,4a3.62,3.62,0,0,1-.41-1,24.5,24.5,0,0,1-.72-2.91,24,24,0,0,1,.16-9.85,18.88,18.88,0,0,1,4.65-8.67,15.3,15.3,0,0,1,2.29-1.95A4,4,0,0,1,194.88,397.12Z" style="fill: #263238"/>
        <path d="M153.8,442.08a4.69,4.69,0,0,1-1.15-.41c-.73-.29-1.76-.78-3-1.43a48.66,48.66,0,0,1-9-6.19,49.18,49.18,0,0,1-7.44-8.05c-.82-1.13-1.45-2.08-1.85-2.76a5.12,5.12,0,0,1-.57-1.07c.08-.06,1,1.4,2.74,3.59a56.7,56.7,0,0,0,7.48,7.87,58,58,0,0,0,8.87,6.27C152.26,441.28,153.84,442,153.8,442.08Z" style="fill: #263238"/>
        <path d="M112.37,414.34a1.57,1.57,0,0,1-.7.27,4.69,4.69,0,0,1-2.07,0,5.29,5.29,0,0,1-2.67-1.56,5.57,5.57,0,0,1-1.39-3.51,6,6,0,0,1,1-3.64,6.51,6.51,0,0,1,2.32-2,6.16,6.16,0,0,1,2-.64,1.64,1.64,0,0,1,.76,0,12.8,12.8,0,0,0-2.53,1,6.4,6.4,0,0,0-2.08,2,5.62,5.62,0,0,0-.91,3.32,5,5,0,0,0,3.6,4.72A6.85,6.85,0,0,0,112.37,414.34Z" style="fill: #fafafa"/>
        <path d="M129.77,395.59s-.09.28-.41.7a6.21,6.21,0,0,1-1.65,1.47,7.41,7.41,0,0,1-3.11,1.08,7.05,7.05,0,0,1-4-.66,7.17,7.17,0,0,1-2.89-2.83,7.38,7.38,0,0,1-1-3.15A6,6,0,0,1,117,390a1.83,1.83,0,0,1,.32-.74,11.59,11.59,0,0,0-.14,2.9,7.38,7.38,0,0,0,1,2.93,6.41,6.41,0,0,0,6.37,3.24,7.43,7.43,0,0,0,3-.91A11.69,11.69,0,0,0,129.77,395.59Z" style="fill: #fafafa"/>
        <path d="M127,411.25s.12,0,.34,0a4.05,4.05,0,0,1,.92.32,5.73,5.73,0,0,1,2.51,2.54,5.39,5.39,0,0,1,.57,2.44,5.76,5.76,0,0,1-.78,2.78,6.2,6.2,0,0,1-2.27,2.25,5.79,5.79,0,0,1-3.37.66,6.33,6.33,0,0,1-3.18-1.26,5.81,5.81,0,0,1-1.9-2.56,6.42,6.42,0,0,1,.29-5.26,4.3,4.3,0,0,1,2.78-2.21,2.67,2.67,0,0,1,1,0c.22.06.33.11.32.12a4.69,4.69,0,0,0-1.25.1,4.2,4.2,0,0,0-2.48,2.18,6.11,6.11,0,0,0-.17,4.89,5.36,5.36,0,0,0,1.76,2.32,5.87,5.87,0,0,0,2.91,1.13,5.15,5.15,0,0,0,3-.58,5.59,5.59,0,0,0,2.09-2,5.08,5.08,0,0,0,.3-4.8,5.82,5.82,0,0,0-2.25-2.51C127.48,411.4,127,411.3,127,411.25Z" style="fill: #fafafa"/>
        <path d="M126.91,447.42c0-.05.4.11,1.13.18a5.3,5.3,0,0,0,3-.64,5.08,5.08,0,0,0,2.58-3.48,6.23,6.23,0,0,0-1.41-5.12,7,7,0,0,0-4.85-2.3,7.84,7.84,0,0,0-4.38,1,6.11,6.11,0,0,0-2.2,2.1c-.37.63-.47,1-.51,1a2.43,2.43,0,0,1,.32-1.13,5.89,5.89,0,0,1,2.19-2.33,7.94,7.94,0,0,1,4.61-1.13,7.45,7.45,0,0,1,5.25,2.45,6.64,6.64,0,0,1,1.48,5.58,5.35,5.35,0,0,1-2.9,3.72,5.14,5.14,0,0,1-3.16.52,3.42,3.42,0,0,1-.84-.25C127,447.49,126.9,447.44,126.91,447.42Z" style="fill: #fafafa"/>
        <path d="M148.84,436.19c0-.05.26-.2.69-.6a4.9,4.9,0,0,0,1-5.49,5.91,5.91,0,0,0-3.1-2.91,6.61,6.61,0,0,0-4.27-.3,7.86,7.86,0,0,0-3.15,1.68,10.18,10.18,0,0,0-2,2.66,2.06,2.06,0,0,1,.27-.89,6.54,6.54,0,0,1,1.48-2.06,7.69,7.69,0,0,1,3.29-1.88,6.94,6.94,0,0,1,4.62.28,6.31,6.31,0,0,1,3.35,3.21,5.07,5.07,0,0,1,.11,3.78,4.52,4.52,0,0,1-1.47,2.09A2,2,0,0,1,148.84,436.19Z" style="fill: #fafafa"/>
        <path d="M172.43,431.34a1.85,1.85,0,0,1,.5.14,7.25,7.25,0,0,1,1.34.66,9,9,0,0,1,3.47,4.22,8.39,8.39,0,0,1,.58,3.79,8.84,8.84,0,0,1-1.5,4.13,9,9,0,0,1-3.7,3.15,8.41,8.41,0,0,1-5.19.55c-3.55-.71-6.45-3.58-6.81-6.79a6.44,6.44,0,0,1,1.24-4.22,33.44,33.44,0,0,1,2.3-3,8.77,8.77,0,0,1,4.51-3.06,4.92,4.92,0,0,1,1.49-.15,1.62,1.62,0,0,1,.52.08,9.12,9.12,0,0,0-2,.27A9,9,0,0,0,165,434.2a37.14,37.14,0,0,0-2.2,3,5.93,5.93,0,0,0-1.12,3.91c.35,2.93,3.07,5.64,6.41,6.3a7.83,7.83,0,0,0,4.85-.5,8.43,8.43,0,0,0,3.5-2.94,8.3,8.3,0,0,0,1.47-3.89,8.11,8.11,0,0,0-.49-3.6,9.1,9.1,0,0,0-3.22-4.18C173.1,431.6,172.4,431.39,172.43,431.34Z" style="fill: #fafafa"/>
        <path d="M177.52,411.24s.13,0,.39,0a4,4,0,0,1,1.08.24,5.53,5.53,0,0,1,3,2.67,6.07,6.07,0,0,1-.35,5.93,7.12,7.12,0,0,1-6.48,3.22,6.61,6.61,0,0,1-3.68-1.27,4.67,4.67,0,0,1-1.77-3.17,9.32,9.32,0,0,1,.24-3.25,7.76,7.76,0,0,1,1.13-2.61,4.76,4.76,0,0,1,3.45-2.08,3.13,3.13,0,0,1,1.11.09c.25.07.37.13.36.15a6.06,6.06,0,0,0-1.44,0,4.68,4.68,0,0,0-3.15,2.09,8.71,8.71,0,0,0-1.19,5.57,4.13,4.13,0,0,0,1.6,2.81,6.17,6.17,0,0,0,3.37,1.15,6.69,6.69,0,0,0,6-2.94,5.73,5.73,0,0,0,.43-5.48,5.56,5.56,0,0,0-2.77-2.65A14,14,0,0,0,177.52,411.24Z" style="fill: #fafafa"/>
        <path d="M189.73,402.89a7.59,7.59,0,0,1-2.59.38,10.35,10.35,0,0,1-6.13-1.63,6.85,6.85,0,0,1-2.36-2.66,6,6,0,0,1-.61-2.84,4.78,4.78,0,0,1,.46-1.9c.21-.41.38-.6.41-.58a8.07,8.07,0,0,0-.48,2.49,5.89,5.89,0,0,0,.68,2.6,6.71,6.71,0,0,0,2.22,2.43,10.8,10.8,0,0,0,5.81,1.69C188.73,402.92,189.72,402.8,189.73,402.89Z" style="fill: #fafafa"/>
        <path d="M199.35,407a4.12,4.12,0,0,1,1.32,0,7.23,7.23,0,0,1,3.47,1.09,4.47,4.47,0,0,1,1.63,2A5.05,5.05,0,0,1,206,413a6.28,6.28,0,0,1-4.58,4.61,6.42,6.42,0,0,1-3.48-.05,5.72,5.72,0,0,1-2.71-1.8,5.36,5.36,0,0,1-1.08-5.21,5.12,5.12,0,0,1,2.31-2.79,3.85,3.85,0,0,1,.91-.38c.23-.05.34-.07.35-.05s-.46.15-1.15.61a5.1,5.1,0,0,0-2.05,2.74,5,5,0,0,0,1.1,4.74,5.25,5.25,0,0,0,2.47,1.62,6,6,0,0,0,3.19,0,5.78,5.78,0,0,0,4.21-4.17,4.58,4.58,0,0,0-.19-2.66,4,4,0,0,0-1.43-1.83,7.41,7.41,0,0,0-3.26-1.2C199.82,407.09,199.34,407.07,199.35,407Z" style="fill: #fafafa"/>
        <path d="M200.37,441a4.42,4.42,0,0,1,1.08-.22,15.56,15.56,0,0,0,2.87-.67,5.6,5.6,0,0,0,3.2-2.61,5.16,5.16,0,0,0-.52-4.9,6.06,6.06,0,0,0-4.21-2.75,5.28,5.28,0,0,0-4,1.15,5.44,5.44,0,0,0-1.73,2.28c-.25.64-.29,1-.34,1a2.44,2.44,0,0,1,.14-1.1,5.3,5.3,0,0,1,1.68-2.52,5.6,5.6,0,0,1,4.27-1.34,6.45,6.45,0,0,1,4.61,2.95,5.57,5.57,0,0,1,.52,5.42,5.92,5.92,0,0,1-3.54,2.77,13.18,13.18,0,0,1-3,.51A4.51,4.51,0,0,1,200.37,441Z" style="fill: #fafafa"/>
        <path d="M224.36,429.94a3.09,3.09,0,0,1-1,.09,9.39,9.39,0,0,1-2.75-.44,10.17,10.17,0,0,1-3.62-2,10.42,10.42,0,0,1-2.92-4.15,9.53,9.53,0,0,1-.56-5.05,6.55,6.55,0,0,1,1.89-3.7,5.42,5.42,0,0,1,2.45-1.35,2.16,2.16,0,0,1,1-.05s-.36.07-1,.26a5.55,5.55,0,0,0-2.23,1.42,6.33,6.33,0,0,0-1.67,3.5,9.29,9.29,0,0,0,.58,4.76,10.3,10.3,0,0,0,2.73,4,10.51,10.51,0,0,0,3.42,2A17.53,17.53,0,0,0,224.36,429.94Z" style="fill: #fafafa"/>
        <path d="M92.64,406.42a3.37,3.37,0,0,1,.52,1,14.6,14.6,0,0,1,.9,2.83,14.92,14.92,0,0,1,.3,4.42,13,13,0,0,1-1.54,5.21,11.22,11.22,0,0,1-3.74,4,10.6,10.6,0,0,1-4.14,1.6,8.43,8.43,0,0,1-3-.05,3.15,3.15,0,0,1-1-.33,12.84,12.84,0,0,0,4,0,11.22,11.22,0,0,0,7.47-5.43,14.31,14.31,0,0,0,1.34-9.28C93.24,407.85,92.54,406.46,92.64,406.42Z" style="fill: #fafafa"/>
        <path d="M103.07,429.7a2.83,2.83,0,0,1,.8-.27,7.92,7.92,0,0,0,2.07-.85A2.8,2.8,0,0,0,107.4,426a3.36,3.36,0,0,0-2.47-2.66,5.91,5.91,0,0,0-3.87.53,7.52,7.52,0,0,0-2.68,1.87,2.94,2.94,0,0,0-.67,2c0,.52.2.79.16.81s-.26-.22-.37-.78a3,3,0,0,1,.57-2.28,7.28,7.28,0,0,1,2.77-2.1,6.3,6.3,0,0,1,4.23-.61,3.84,3.84,0,0,1,2.84,3.15,2.82,2.82,0,0,1-.52,1.88,3.88,3.88,0,0,1-1.25,1.1,6.85,6.85,0,0,1-2.23.72A2.24,2.24,0,0,1,103.07,429.7Z" style="fill: #fafafa"/>
      </g>
      <g style="opacity: 0.30000000000000004">
        <path d="M191,448.78a5.83,5.83,0,0,0-3.44-1c-9.75-.58-19.5.76-29.26,1s-19.9-.79-28.39-5.62c-2.66-1.52-5.24-3.18-8-4.55-4.8-2.41-11.58-1.36-15.57,1.69l-.67,12c27.19.2,56.48-.13,83.68.08a3.08,3.08,0,0,0,1.85-.39C192.21,451.23,191.94,449.57,191,448.78Z"/>
      </g>
      <path d="M113.11,421.79c-.09,0,.21-1.39.5-3.63a47.78,47.78,0,0,0,.31-8.76,47.11,47.11,0,0,0-1.37-8.67c-.57-2.18-1-3.5-1-3.53a3.29,3.29,0,0,1,.44.89,25.85,25.85,0,0,1,.88,2.54A38.86,38.86,0,0,1,114,418.22a26.27,26.27,0,0,1-.58,2.63A4.13,4.13,0,0,1,113.11,421.79Z" style="fill: #263238"/>
    </g>
    <g>
      <g>
        <g>
          <path d="M109.63,462.57,74.35,497.15h81.5s4.25-6.9,12.17-6.32,43.35,10.4,54,8.65l-9.35-38.34s-28.21-8.19-44.27-5.08a23.07,23.07,0,0,0-11.7,6.19h0Z" style="fill: #fafafa"/>
          <path d="M109.63,462.57l.5,0,1.47,0,5.74-.08,21.67-.22,15.37-.14,2.11,0h.23c-.25.1-.05,0-.1,0l.19-.18.4-.37c.27-.24.53-.49.82-.72a23.28,23.28,0,0,1,3.67-2.51,22.66,22.66,0,0,1,8.88-2.78,55.94,55.94,0,0,1,9.9-.29,102.5,102.5,0,0,1,10.4,1,180.36,180.36,0,0,1,21.9,4.63l.14,0,0,.14c2.91,11.92,6.07,24.85,9.37,38.33l.07.32-.3,0a25.43,25.43,0,0,1-3.38.18l-1.7,0-1.7-.13c-1.14-.08-2.27-.2-3.41-.35s-2.28-.28-3.42-.47c-4.57-.69-9.19-1.56-13.82-2.52-7-1.43-13.95-3-20.76-4.38-3.38-.6-6.82-1.52-10.06-.54a14.41,14.41,0,0,0-7.76,5.77l-.09.13h-.14l-81.5-.08h-.48l.34-.33,25.93-25.28,7-6.82,1.83-1.76.63-.58s-.2.23-.61.64l-1.8,1.8-7,6.91L74.48,497.29l-.13-.34,81.5-.07-.23.13a15,15,0,0,1,8.08-6,12.93,12.93,0,0,1,5.18-.34c1.73.2,3.42.54,5.13.86,6.82,1.36,13.72,3,20.76,4.39,4.63,1,9.24,1.83,13.79,2.51,1.14.19,2.27.34,3.41.47s2.26.27,3.38.35l1.69.13,1.67,0a25.62,25.62,0,0,0,3.29-.17l-.22.33c-3.28-13.48-6.43-26.42-9.32-38.34l.17.19a180.46,180.46,0,0,0-21.82-4.65c-3.52-.51-7-.9-10.35-1.05a55,55,0,0,0-9.82.27,22.41,22.41,0,0,0-8.75,2.7,22.94,22.94,0,0,0-3.61,2.46c-.28.22-.55.47-.82.7l-.38.36-.2.18c-.06,0,.12,0-.15.08h-2.34l-15.33.07-21.67.08h-7.25Z" style="fill: #263238"/>
        </g>
        <path d="M155.85,497.15c-.16,0,0-7.86.24-17.54s.65-17.53.81-17.52,0,7.85-.25,17.54S156,497.15,155.85,497.15Z" style="fill: #263238"/>
      </g>
      <path d="M147.24,489.74a2.44,2.44,0,0,1-.56.05l-1.59,0-5.88.08-19.37.05-19.38-.09-5.87-.06-1.6,0a3.75,3.75,0,0,1-.55,0,10.12,10.12,0,0,1,2.15-.15c1.38,0,3.39-.08,5.87-.11,5-.06,11.81-.09,19.38-.08s14.41,0,19.37.11l5.88.1,1.59.06A2.05,2.05,0,0,1,147.24,489.74Z" style="fill: #263238"/>
      <path d="M148.2,484.89a1.69,1.69,0,0,1-.53.05l-1.51,0h-5.55l-18.33-.2L104,484.44l-5.55-.15-1.51-.05a3.47,3.47,0,0,1-.51,0,8.75,8.75,0,0,1,2-.12c1.32,0,3.21,0,5.56,0,4.69,0,11.17.07,18.33.18s13.63.23,18.32.36l5.55.17,1.51.08A1.84,1.84,0,0,1,148.2,484.89Z" style="fill: #263238"/>
      <path d="M214.93,490.32a1.88,1.88,0,0,1-.56.05h-1.62c-1.41,0-3.45-.08-6-.29a101.07,101.07,0,0,1-19.34-3.53c-3.71-1-7.14-2.34-10.31-3.28a31.82,31.82,0,0,0-8.61-1.51,18.71,18.71,0,0,0-5.83.76c-1.33.42-2,.79-2,.74a2.16,2.16,0,0,1,.49-.29,11.2,11.2,0,0,1,1.49-.65,17.39,17.39,0,0,1,5.9-.95,30.73,30.73,0,0,1,8.75,1.41c3.22.92,6.64,2.2,10.32,3.23a111.57,111.57,0,0,0,19.23,3.68c2.49.25,4.52.38,5.92.47l1.62.09A2.26,2.26,0,0,1,214.93,490.32Z" style="fill: #263238"/>
      <path d="M215,483.65a1.88,1.88,0,0,1-.56.05c-.38,0-.92,0-1.63,0-1.4,0-3.44-.09-6-.3a101.07,101.07,0,0,1-19.34-3.53c-3.71-1-7.14-2.34-10.31-3.28a32.28,32.28,0,0,0-8.61-1.51,18.67,18.67,0,0,0-5.83.77c-1.33.42-2,.78-2,.73a3,3,0,0,1,.49-.29,11.2,11.2,0,0,1,1.49-.65,17.39,17.39,0,0,1,5.9-.95,31.08,31.08,0,0,1,8.75,1.41c3.21.92,6.64,2.21,10.32,3.24A111.33,111.33,0,0,0,206.85,483c2.5.26,4.53.38,5.93.47l1.62.1A2.73,2.73,0,0,1,215,483.65Z" style="fill: #263238"/>
      <path d="M215,477a2.34,2.34,0,0,1-.57,0c-.37,0-.91,0-1.62,0-1.41,0-3.44-.09-6-.29a102,102,0,0,1-19.34-3.54c-3.71-1-7.14-2.34-10.31-3.28a32.28,32.28,0,0,0-8.61-1.51,18.67,18.67,0,0,0-5.83.77c-1.33.42-2,.78-2,.74a2.05,2.05,0,0,1,.49-.3,12.88,12.88,0,0,1,1.49-.65,17.65,17.65,0,0,1,5.9-1,31.08,31.08,0,0,1,8.75,1.41c3.21.92,6.63,2.21,10.32,3.24a111.33,111.33,0,0,0,19.22,3.67c2.5.26,4.53.39,5.93.47l1.62.1A1.78,1.78,0,0,1,215,477Z" style="fill: #263238"/>
      <path d="M202,465.85a1.26,1.26,0,0,1-.4.12c-.27,0-.67.14-1.19.2a25.86,25.86,0,0,1-4.4.19c-3.74-.07-8.81-1.12-14.31-2.37a72.66,72.66,0,0,0-7.83-1.34,33.93,33.93,0,0,0-6.46-.12,32.88,32.88,0,0,0-5.84,1.15s.12-.08.37-.19a10.91,10.91,0,0,1,1.12-.43,20.59,20.59,0,0,1,4.32-.92,31.62,31.62,0,0,1,6.54,0,65.92,65.92,0,0,1,7.9,1.31c5.52,1.25,10.51,2.35,14.21,2.52a33.86,33.86,0,0,0,4.36,0A11.87,11.87,0,0,1,202,465.85Z" style="fill: #263238"/>
    </g>
    <g>
      <path d="M256.22,447.52c-3-3.15-25.52-21.78-25.52-21.78l-17.28,20.52L224,452c-.85.26-15.83,6.73-20.31,8.7-2.44-1.74-7.72-5.38-9.68-5.61-2.58-.31-9.88,0-9.88,0s-3.5,4.1-2.74,4.56c0,0-4.56,3.34-3.95,5.47l.61,2.13a1.88,1.88,0,0,0-2.28,2.07c0,2.49-.3,3.56,1.06,4.32a5.19,5.19,0,0,0,1.68,4.4,32.93,32.93,0,0,0,4.1,3.5,2.22,2.22,0,0,0,.91,3.5,22.55,22.55,0,0,0,8.21,2.13c1.24,0,11.43-3.42,15.19-4.7,0,0,47.77-13.27,50.85-18C260.46,460.29,260.46,452,256.22,447.52Z" style="fill: #ffbf9d"/>
      <path d="M247.71,446a23.23,23.23,0,0,0-6.89-.41,28.47,28.47,0,0,0-7.24,1.87,81,81,0,0,0-8.34,3.94,156.91,156.91,0,0,1-15.2,7.28c-2,.79-3.67,1.34-4.83,1.68-.57.18-1,.29-1.34.36a1.43,1.43,0,0,1-.48.09,12.91,12.91,0,0,1,1.76-.65c1.13-.4,2.76-1,4.74-1.85,4-1.63,9.27-4.33,15.09-7.4A74.31,74.31,0,0,1,233.4,447a27.63,27.63,0,0,1,7.39-1.78,17.51,17.51,0,0,1,5.12.28,9.83,9.83,0,0,1,1.34.35C247.56,445.93,247.72,446,247.71,446Z" style="fill: #ff9a6c"/>
      <path d="M192.5,459.19c0,.08-.61-.26-1.6-.54a10.59,10.59,0,0,0-4-.28,26,26,0,0,0-4,.83,5.54,5.54,0,0,1-1.67.35,5,5,0,0,1,1.55-.73,17.4,17.4,0,0,1,4-1,9.11,9.11,0,0,1,4.17.47C192,458.68,192.54,459.14,192.5,459.19Z" style="fill: #ff9a6c"/>
      <path d="M186.51,467.37a12.56,12.56,0,0,1-8.18-.25c0-.16,1.84.2,4.09.26S186.48,467.21,186.51,467.37Z" style="fill: #ff9a6c"/>
      <path d="M187.56,474.31a11.92,11.92,0,0,1-10.94-1,31.13,31.13,0,0,0,5.4,1.27A30.42,30.42,0,0,0,187.56,474.31Z" style="fill: #ff9a6c"/>
      <path d="M191.5,480.25a10.42,10.42,0,0,1-8.77,1.05c0-.17,2,.2,4.43-.1S191.43,480.1,191.5,480.25Z" style="fill: #ff9a6c"/>
    </g>
    <g>
      <g>
        <path d="M107.3,441l27.4,37.93,8.3,3.34-1.38-9.36-26.7-37.66a4.78,4.78,0,0,0-4.15-2.06h-.11A4.86,4.86,0,0,0,107.3,441Z" style="fill: #455a64"/>
        <path d="M107.39,441.17c-.06,0,.12-.59.64-1.38a9,9,0,0,1,6.07-3.86,2.86,2.86,0,0,1,1.52,0A16.6,16.6,0,0,0,111,437.7,16.53,16.53,0,0,0,107.39,441.17Z" style="fill: #263238"/>
        <path d="M134.7,478.91s-.15-.1-.28-.35a2.37,2.37,0,0,1-.3-1.21,1.34,1.34,0,0,1,.11-.45l.17-.38a6.93,6.93,0,0,1,.44-.85,5.79,5.79,0,0,1,1.62-1.53,16.79,16.79,0,0,1,1.87-1.08,4.73,4.73,0,0,1,1.75-.47c1.06-.07,1.64.3,1.61.36a10.51,10.51,0,0,0-1.56,0,4.89,4.89,0,0,0-1.57.54c-.55.31-1.18.67-1.79,1.08a6.23,6.23,0,0,0-1.5,1.35c-.17.25-.32.52-.46.77l-.2.38a1,1,0,0,0-.1.29A7.31,7.31,0,0,0,134.7,478.91Z" style="fill: #263238"/>
        <path d="M136.14,475c-.12.08-6.08-8.08-13.3-18.23s-13-18.47-12.84-18.56,6.08,8.08,13.3,18.23S136.27,474.93,136.14,475Z" style="fill: #263238"/>
        <path d="M139.4,472.21c-.13.09-6-7.86-13.11-17.76s-12.77-18-12.65-18.08,6,7.86,13.11,17.76S139.52,472.12,139.4,472.21Z" style="fill: #263238"/>
        <path d="M142.39,478.08a2.7,2.7,0,0,0-2.37.45,2.58,2.58,0,0,0-.87,2.2l3.85,1.52Z" style="fill: #263238"/>
      </g>
      <path d="M134.74,464.77c2.52-1.52,0-7,0-7s-12.22-7.18-14-7.56c-1-.21-7.78.48-13.56,1.13l-19.73-8.25,7.52-4.8-21.54-20s-19.26,14.09-25,19.84C44.09,442.49,44.87,451,44.87,451c2.93,7.7,48,18.13,51.3,18.88l16.73,9.88L123,481.09c3,.37,3.41-3.8,3.41-3.8,5.36.37,5.2-4.75,5.2-4.75a3.66,3.66,0,0,0,5.2-1.71C138.61,467.22,134.74,464.77,134.74,464.77Z" style="fill: #ffbf9d"/>
      <path d="M87.32,443.33c-.07.08-1.18-1.05-3.26-2.49a27.69,27.69,0,0,0-3.83-2.2,30.88,30.88,0,0,0-5.09-1.82,30,30,0,0,0-5.35-.8,26.86,26.86,0,0,0-4.42.13c-2.51.28-4,.75-4.05.65a3.85,3.85,0,0,1,1-.39,9.38,9.38,0,0,1,1.26-.33,15.26,15.26,0,0,1,1.7-.32,23.72,23.72,0,0,1,4.49-.25,27.57,27.57,0,0,1,5.46.77,28.05,28.05,0,0,1,5.18,1.9,24.25,24.25,0,0,1,3.84,2.34,15.5,15.5,0,0,1,1.35,1.09,10.87,10.87,0,0,1,1,.88C87.09,443,87.35,443.3,87.32,443.33Z" style="fill: #ff9a6c"/>
      <path d="M132.08,472.58a32.59,32.59,0,0,0-3.46-2.42,33.17,33.17,0,0,0-4-1.45,8.51,8.51,0,0,1,7.43,3.87Z" style="fill: #ff9a6c"/>
      <path d="M136.16,466.16a46.91,46.91,0,0,0-5.16-2.73,46,46,0,0,0-5.63-1.55,14.68,14.68,0,0,1,10.79,4.28Z" style="fill: #ff9a6c"/>
      <path d="M126.53,476.82c-.11.12-1.41-1-3.25-1.92s-3.46-1.42-3.42-1.58a9.9,9.9,0,0,1,6.67,3.5Z" style="fill: #ff9a6c"/>
    </g>
    <g>
      <g>
        <path d="M216.12,360.52c.22-4.12,3.78-7.71,3.26-11.8s-4.75-6.51-7-10c-2.77-4.16-2.51-9.54-3.34-14.47a31.23,31.23,0,0,0-8.14-16.09,23.78,23.78,0,0,1,2.12-1.78c2.22-1.66,4.67-3.35,5.67-5.94a8.14,8.14,0,0,0-1.17-7.45,9.79,9.79,0,0,0-17.64,7.33,30.77,30.77,0,0,0-6.36-2,33.26,33.26,0,0,0-5.22-3.72,14.13,14.13,0,0,0-16.69,2.77c-1.15,4.77-2.4,9.52-3.58,14.29l-41.58,27.12c-4.12-1.54-8.83.82-11.6,4.24s-4.11,7.73-5.83,11.78S94.92,363,91,365c-2.15,1.12-5,1.92-5.56,4.28a4.23,4.23,0,0,0,1.92,4.18,12.32,12.32,0,0,0,4.56,1.66l16.39,3.61a23,23,0,0,1,7.42-4.61c-1.21,1.71-.39,4.23,1.2,5.58s3.73,1.83,5.78,2.27l36,7.65c7.29,1.55,15.3,3,21.9-.46,2.83-1.49,5.18-3.8,8.09-5.11,3.57-1.62,7.64-1.59,11.55-1.44s7.94.39,11.66-.84,7.11-4.34,7.38-8.25C219.64,369,215.88,365,216.12,360.52Z" style="fill: #263238"/>
        <path d="M200,308.37a34.54,34.54,0,0,0-4.57-4.63,34.25,34.25,0,0,0-5.65-3.23A15.15,15.15,0,0,1,200,308.37Z" style="fill: #e8505b"/>
        <path d="M201.36,289.65s.25,0,.6.31a3.41,3.41,0,0,1,1.07,1.51,5.61,5.61,0,0,1,.23,2.73,16.42,16.42,0,0,1-.86,3.2,18.19,18.19,0,0,1-3,5.18,7.07,7.07,0,0,1-1.77,1.72,28.28,28.28,0,0,0,4.22-7.09c.79-2.13,1.26-4.22.78-5.61A4.59,4.59,0,0,0,201.36,289.65Z" style="fill: #455a64"/>
      </g>
      <g>
        <g>
          <g>
            <g>
              <path d="M193.11,331.26c0-.17,0-.34,0-.51-.62-17.53-15.26-31.57-32.8-31-.85,0-1.72.07-2.6.14a37.3,37.3,0,0,0-4.1.52c-15.17,2.77-25.86,16.49-25.68,31.9.15,12.55.49,29.26,1.19,34.21,1.18,8.24,1,11.19,1,11.19l.46,19.23a21.17,21.17,0,0,0,20.66,20.66h0A21.16,21.16,0,0,0,172.9,396.5l0-9.91C186,384.9,192,372.3,192.86,357.23,193.32,349.2,193.67,348.58,193.11,331.26Z" style="fill: #ffbf9d"/>
              <g>
                <path d="M128.78,343.16c-.34-.16-14-4.27-13.69,9.73s14.33,10.76,14.34,10.36S128.78,343.16,128.78,343.16Z" style="fill: #ffbf9d"/>
                <path d="M125,358.05c-.07,0-.24.18-.65.38a2.48,2.48,0,0,1-1.82.08c-1.49-.51-2.8-2.82-2.93-5.34a8.09,8.09,0,0,1,.6-3.51,2.81,2.81,0,0,1,1.79-1.92,1.24,1.24,0,0,1,1.45.63c.2.39.12.67.19.69s.3-.24.17-.81a1.53,1.53,0,0,0-.57-.87,1.86,1.86,0,0,0-1.36-.32,3.44,3.44,0,0,0-2.49,2.23,8.21,8.21,0,0,0-.75,3.92c.16,2.82,1.67,5.43,3.7,6a2.62,2.62,0,0,0,2.22-.42C125,358.39,125.08,358.08,125,358.05Z" style="fill: #ff9a6c"/>
              </g>
              <g>
                <path d="M186.22,339.15c-.38.39-2.68-1.34-6-1.35s-5.69,1.6-6,1.2c-.18-.18.21-.89,1.27-1.65a8.3,8.3,0,0,1,4.84-1.45,8,8,0,0,1,4.74,1.57C186.07,338.25,186.41,339,186.22,339.15Z" style="fill: #263238"/>
                <path d="M156.48,340.18c-.38.4-2.68-1.33-6-1.34s-5.69,1.6-6.05,1.2c-.17-.18.22-.89,1.27-1.65a8.36,8.36,0,0,1,4.85-1.45,8.07,8.07,0,0,1,4.74,1.56C156.33,339.29,156.66,340,156.48,340.18Z" style="fill: #263238"/>
                <path d="M154.23,331.25c-.27.84-3,.86-6,1.63s-5.42,1.89-6.15,1.29c-.33-.3-.11-1.07.78-1.95a9.48,9.48,0,0,1,4.42-2.31,10.6,10.6,0,0,1,5.16,0C153.69,330.29,154.34,330.85,154.23,331.25Z" style="fill: #263238"/>
                <path d="M185.42,329.35c-.73,1-3.88,1.59-7,1.39s-5.14-1.14-4.42-2.11,3.88-1.59,7-1.39S186.14,328.38,185.42,329.35Z" style="fill: #263238"/>
              </g>
              <path d="M162.86,365.05c.06.19-.39.54-1.26.65a4.59,4.59,0,0,1-5-3.79c-.12-.87.09-1.39.29-1.39.41,0,.76,1.85,2.38,3.06S162.77,364.64,162.86,365.05Z" style="fill: #263238"/>
              <path d="M172.92,386.59s-16.78.27-20.74-2.63c0,0,3,8.12,20.74,7.26Z" style="fill: #ff9a6c"/>
              <path d="M167.18,346.76c.21-.06.6.67,1.06,1.88.23.6.48,1.33.74,2.14.12.42.25.85.38,1.29a6.13,6.13,0,0,1,.34,1.57,2.48,2.48,0,0,1-.66,1.87,2.83,2.83,0,0,1-1.58.79,3.23,3.23,0,0,1-1.5-.13,4,4,0,0,1-1.07-.57c-1.12-.9-1.46-1.65-1.34-1.78s.84.34,1.89.86a2.6,2.6,0,0,0,1.76.24,1.46,1.46,0,0,0,.75-.43,1,1,0,0,0,.23-.79,5.47,5.47,0,0,0-.25-1.23c-.1-.45-.2-.88-.3-1.31-.18-.84-.33-1.6-.43-2.24C167,347.63,167,346.81,167.18,346.76Z" style="fill: #263238"/>
            </g>
            <path d="M145,354.77c-.13,0-.18-.36-.11-.73s.25-.66.39-.63.18.35.11.73S145.18,354.8,145,354.77Z" style="fill: #ff9a6c"/>
            <path d="M150.89,353.55c-.13,0-.3-.11-.37-.33s0-.45.1-.49.3.1.38.33S151,353.5,150.89,353.55Z" style="fill: #ff9a6c"/>
            <path d="M147.93,357.08c-.14,0-.28-.28-.32-.65s0-.7.18-.71.29.28.32.66S148.07,357.07,147.93,357.08Z" style="fill: #ff9a6c"/>
            <path d="M140.55,356.4c-.14,0-.15-.37,0-.75s.31-.65.45-.61.15.38,0,.75S140.68,356.44,140.55,356.4Z" style="fill: #ff9a6c"/>
            <path d="M179.5,353.41c-.14,0-.29-.25-.32-.59s0-.62.18-.64.28.25.32.59S179.63,353.39,179.5,353.41Z" style="fill: #ff9a6c"/>
            <path d="M185,353.27c-.14,0-.25-.31-.25-.68s.11-.68.25-.68.25.3.25.68S185.11,353.27,185,353.27Z" style="fill: #ff9a6c"/>
            <path d="M189.5,353c-.14,0-.31-.25-.39-.63s0-.7.11-.73.31.25.39.63S189.64,353,189.5,353Z" style="fill: #ff9a6c"/>
            <path d="M182.38,357.9c-.13,0-.15-.38,0-.75s.31-.65.45-.61.15.38,0,.75S182.51,357.94,182.38,357.9Z" style="fill: #ff9a6c"/>
            <path d="M187.53,357.22c-.14,0-.28-.21-.32-.51s0-.56.19-.58.28.22.31.52S187.67,357.21,187.53,357.22Z" style="fill: #ff9a6c"/>
          </g>
          <path d="M204.6,377a9.55,9.55,0,0,0,3.34-2.17,10.88,10.88,0,0,0,2.46-3.95,13.59,13.59,0,0,0,.78-6.1,23.52,23.52,0,0,0-2.07-7.22c-1.09-2.5-2.55-5-4-7.77a32.39,32.39,0,0,1-3.4-9.08,16.87,16.87,0,0,1-.14-5.17c.21-1.74.59-3.47,1-5.2a27.94,27.94,0,0,0,.7-5.15,11.13,11.13,0,0,0-.92-4.87,17,17,0,0,0-6.34-6.91c-2.55-1.7-5.18-3-7.54-4.4s-4.54-2.72-6.49-4c-3.91-2.55-7-4.79-9-6.39-1-.79-1.82-1.43-2.35-1.86l-.6-.51a1.83,1.83,0,0,1-.19-.18s.08,0,.23.14l.63.46,2.41,1.78c2.1,1.54,5.17,3.72,9.09,6.23,2,1.25,4.14,2.57,6.51,3.92s5,2.66,7.59,4.37a17.42,17.42,0,0,1,6.56,7.12,11.78,11.78,0,0,1,1,5.1,28.46,28.46,0,0,1-.72,5.25c-.36,1.75-.75,3.45-1,5.15a16.78,16.78,0,0,0,.12,5,32.25,32.25,0,0,0,3.33,9c1.4,2.72,2.86,5.28,3.95,7.81a23.86,23.86,0,0,1,2,7.38,13.81,13.81,0,0,1-.88,6.24,11.12,11.12,0,0,1-2.59,4,8.56,8.56,0,0,1-2.5,1.68,5.21,5.21,0,0,1-.74.26A.72.72,0,0,1,204.6,377Z" style="fill: #455a64"/>
          <path d="M194.38,323.18a40.24,40.24,0,0,0-16.85-21.79l-9.86-6.55a22.1,22.1,0,0,0-38.22,3.33c-.75,1.62-1.33,3.37-2.08,5a14.44,14.44,0,0,0-2.07-10.29c-2.59-3.83-7.66-6-12.1-4.71a10.73,10.73,0,0,0-7.29,10.34,12.43,12.43,0,0,0,7.26,10.66,13.53,13.53,0,0,0,2.77.88,20.87,20.87,0,0,0-6.5,1.77,10.75,10.75,0,0,0-5.54,10.66c.31,2.31,1.36,4.75.34,6.84-.79,1.61-2.56,2.43-4,3.48a12.57,12.57,0,0,0-4.88,12.07,37.46,37.46,0,0,0-5.6,10c-3.43,9,3.33,9.4,5.43,11.36l12.37-12.82a15.75,15.75,0,0,1,5.12-1.09,66.93,66.93,0,0,1,7.72.23,25.44,25.44,0,0,0,8.94-.74,11.79,11.79,0,0,0,4.33-2.36,13,13,0,0,0,3.08-4.12c1.54-3.15,2.16-6.71,2.81-10.25s1.57-7,3.5-9.71a10.75,10.75,0,0,1,3.6-3.19,15.6,15.6,0,0,1,4.45-1.46c3.05-.56,6.06-.69,8.81-1.41a11.61,11.61,0,0,0,6.6-4.15,15.3,15.3,0,0,0,2.61-5.91,30.79,30.79,0,0,0,.66-4.81c0-.57.06-1.07.08-1.52a65.79,65.79,0,0,0,22.48,21.37c.68.39,1.76.66,2.1,0A1.47,1.47,0,0,0,194.38,323.18Zm-24.9-18.78a31.25,31.25,0,0,1-.79,4.74,14.92,14.92,0,0,1-2.61,5.67,11.09,11.09,0,0,1-6.33,3.86c-2.66.68-5.65.78-8.78,1.33a16.44,16.44,0,0,0-4.67,1.51,11.36,11.36,0,0,0-3.87,3.41c-2.05,2.89-3,6.45-3.65,10S137.52,342,136.05,345a12.48,12.48,0,0,1-2.88,3.89,11,11,0,0,1-4,2.23,25.13,25.13,0,0,1-8.7.79,64.56,64.56,0,0,0-7.79-.14,17.23,17.23,0,0,0-4.25.83l.8-.64a24.09,24.09,0,0,1,16-4.9,6.3,6.3,0,0,0,3.67-1.05h0c4.28-1.16,7.31-6.71,9-11.15,1.46-3.81,1.2-8.35,3.65-11.58,1.78-2.35,4.67-3.52,7.51-4.15s5.78-.83,8.55-1.74a18.15,18.15,0,0,0,11.72-13,7.32,7.32,0,0,0,.21-2.09c.07.1.14.19.2.29C169.6,303.11,169.55,303.71,169.48,304.4Z" style="fill: #263238"/>
          <path d="M95.15,366s-.08-.07-.2-.23a6.87,6.87,0,0,1-.51-.73,15,15,0,0,1-1.55-3,17,17,0,0,1-1.08-5.32,16.21,16.21,0,0,1,1.32-7,17.14,17.14,0,0,1,5.4-6.82c2.52-2,5.84-3,9.25-3.71s7.12-1.41,10.22-3.57a12.14,12.14,0,0,0,3.69-4.27,29.25,29.25,0,0,0,2.17-5.51c1.18-3.83,2-7.82,4.26-11.05a12,12,0,0,1,4.26-3.77,16.45,16.45,0,0,1,5.23-1.52c3.51-.48,6.86-.36,9.92-.78a23.85,23.85,0,0,0,8.14-2.64,25.56,25.56,0,0,0,9.13-8.33,26.86,26.86,0,0,0,1.67-3l.37-.8a1.41,1.41,0,0,1,.15-.27,18.65,18.65,0,0,1-2,4.15,25.32,25.32,0,0,1-9.13,8.56,24.09,24.09,0,0,1-8.25,2.74c-3.12.45-6.48.35-9.92.84a15.9,15.9,0,0,0-5.06,1.49,11.33,11.33,0,0,0-4.05,3.6c-2.17,3.1-3,7-4.18,10.91a29,29,0,0,1-2.22,5.61,12.59,12.59,0,0,1-3.86,4.45c-3.25,2.25-7,2.84-10.41,3.62s-6.64,1.69-9.1,3.58a16.91,16.91,0,0,0-5.31,6.6,15.85,15.85,0,0,0-1.36,6.89,17,17,0,0,0,1,5.25A20.82,20.82,0,0,0,95.15,366Z" style="fill: #455a64"/>
          <path d="M176.39,344.8a2.8,2.8,0,0,0,2.47,3,2.7,2.7,0,0,0,3.09-2.29,2.82,2.82,0,0,0-2.47-3.05A2.69,2.69,0,0,0,176.39,344.8Z" style="fill: #263238"/>
          <path d="M147.7,344.8a2.82,2.82,0,0,0,2.47,3,2.69,2.69,0,0,0,3.09-2.29,2.82,2.82,0,0,0-2.47-3.05A2.69,2.69,0,0,0,147.7,344.8Z" style="fill: #263238"/>
        </g>
        <path d="M127.87,300.92a5.68,5.68,0,0,1-.68,2.35,11.93,11.93,0,0,1-3.74,4.6,11.75,11.75,0,0,1-5.5,2.2,5.65,5.65,0,0,1-2.45-.05c0-.09.94-.06,2.39-.34a12.79,12.79,0,0,0,5.23-2.26,13.1,13.1,0,0,0,3.72-4.32C127.53,301.79,127.78,300.89,127.87,300.92Z" style="fill: #e8505b"/>
        <path d="M124.64,306.5a3.35,3.35,0,0,1-1,0,12.94,12.94,0,0,1-2.59-.63,14.38,14.38,0,0,1-9.64-13.58,12.8,12.8,0,0,1,.27-2.66,3.08,3.08,0,0,1,.28-.94c.11,0-.25,1.38-.15,3.59a14.77,14.77,0,0,0,9.37,13.22C123.26,306.28,124.65,306.39,124.64,306.5Z" style="fill: #455a64"/>
        <path d="M166.2,294.15s-.42-.51-1.32-1.25a9.58,9.58,0,0,0-4.46-1.94,12.48,12.48,0,0,0-7.11.92,29,29,0,0,0-7.47,4.93c-2.43,2.1-4.67,4.22-7,5.84a19.12,19.12,0,0,1-6.72,3.22,11.89,11.89,0,0,1-5,.22,7.4,7.4,0,0,1-1.33-.35c-.29-.11-.44-.17-.43-.19s.63.17,1.79.33a12.83,12.83,0,0,0,4.89-.39,19.5,19.5,0,0,0,6.51-3.25c2.25-1.62,4.47-3.74,6.91-5.85a28.43,28.43,0,0,1,7.63-5,12.82,12.82,0,0,1,7.39-.83,9.33,9.33,0,0,1,4.52,2.16,5.73,5.73,0,0,1,.92,1A1.71,1.71,0,0,1,166.2,294.15Z" style="fill: #455a64"/>
        <path d="M169.14,295.08s.15.35.43,1a17.9,17.9,0,0,0,1.48,2.74,29.5,29.5,0,0,0,8.19,7.87c2,1.38,4.26,2.77,6.64,4.35a38.78,38.78,0,0,1,7.09,5.77,18.09,18.09,0,0,1,4.78,8.88c.67,3.54-.19,7.24-1.32,10.74-.56,1.78-1.22,3.49-1.62,5.22a10.26,10.26,0,0,0-.08,5.13,13.91,13.91,0,0,0,2.36,4.43c1,1.35,2,2.63,2.9,4a14.25,14.25,0,0,1,2.17,8.84,19.93,19.93,0,0,1-2.16,7.67,36.27,36.27,0,0,1-7,9.1c-1,.95-1.74,1.66-2.28,2.14l-.61.54c-.14.11-.21.17-.22.16l.18-.21.58-.57,2.2-2.22a37.28,37.28,0,0,0,6.84-9.11,19.78,19.78,0,0,0,2-7.53,13.77,13.77,0,0,0-2.14-8.53c-.86-1.33-1.9-2.6-2.9-4a14.36,14.36,0,0,1-2.45-4.59,10.78,10.78,0,0,1,.06-5.41c.42-1.78,1.07-3.5,1.63-5.26,1.12-3.48,1.95-7.08,1.32-10.48a17.75,17.75,0,0,0-4.62-8.62,38.65,38.65,0,0,0-7-5.74c-2.36-1.59-4.62-3-6.6-4.41a28.64,28.64,0,0,1-8.15-8.08,15.2,15.2,0,0,1-1.4-2.8,6.31,6.31,0,0,1-.26-.78A.75.75,0,0,1,169.14,295.08Z" style="fill: #455a64"/>
      </g>
    </g>
  </g>
  <g>
    <path d="M61.47,200.31a3.83,3.83,0,0,1,.08-.49l.3-1.43c.28-1.27.69-3.12,1.22-5.48,1.08-4.79,2.64-11.67,4.56-20.17,3.92-17.06,9.32-40.61,15.31-66.69l.27-1.18.27,1.18c.1.47.22,1,.33,1.48,6,26.45,11.35,50.4,15.25,67.75,1.93,8.66,3.48,15.67,4.57,20.55l1.21,5.59c.13.62.23,1.11.3,1.46s.08.5.08.5,0-.16-.13-.49-.21-.83-.36-1.44c-.31-1.3-.75-3.17-1.31-5.57-1.13-4.87-2.74-11.87-4.74-20.51-3.94-17.35-9.39-41.28-15.41-67.72-.11-.51-.23-1-.33-1.48h.53C77.42,132.24,72,155.78,68,172.82c-2,8.49-3.61,15.36-4.74,20.14-.56,2.35-1,4.19-1.31,5.46l-.36,1.42C61.52,200.15,61.47,200.31,61.47,200.31Z" style="fill: #263238"/>
    <path d="M61.45,220.12V203.38h44.67v16.74a19.49,19.49,0,0,1-19.49,19.49H80.94A19.49,19.49,0,0,1,61.45,220.12Z" style="fill: #455a64"/>
    <path d="M61.45,203.38a4.75,4.75,0,0,1,.51.7l1.36,2.08,4.93,7.68,16.06,25.44.11.18H84c6.07-10,11.57-19,15.58-25.59l4.77-7.71c.55-.87,1-1.57,1.32-2.08a4.74,4.74,0,0,1,.49-.71,4.45,4.45,0,0,1-.4.76c-.3.53-.71,1.25-1.23,2.14l-4.62,7.8L84.43,239.75l-.23.39-.24-.38-.12-.18L67.92,214c-2-3.24-3.62-5.89-4.78-7.77-.53-.89-1-1.6-1.27-2.13A6.31,6.31,0,0,1,61.45,203.38Z" style="fill: #263238"/>
    <circle cx="83.34" cy="105.9" r="4.88" style="fill: #263238"/>
    <path d="M83.34,22.88c.16,0,.28,18.79.28,42s-.12,42-.28,42-.27-18.78-.27-42S83.19,22.88,83.34,22.88Z" style="fill: #263238"/>
    <path d="M85.88,241.43a2.09,2.09,0,1,1-2.09-2.09A2.1,2.1,0,0,1,85.88,241.43Z" style="fill: #263238"/>
    <path d="M82.86,242.21l.34-.17a4.63,4.63,0,0,0-2.11,3.46,12,12,0,0,0,.36,4.16c.09.43.32,1,.76,1s.59-.5.66-.9a8.73,8.73,0,0,0,.06-2.5,4.39,4.39,0,0,0,1,2.95c.13.16.32.33.52.27s.27-.26.32-.45a9.8,9.8,0,0,0,.32-2.15,3.31,3.31,0,0,0,.66,1.74,1.15,1.15,0,0,0,1.67.11,1.6,1.6,0,0,0,.17-1.22,14.26,14.26,0,0,0-2.92-6.86" style="fill: #263238"/>
    <g>
      <path d="M64.27,203.38s-20.07-23.13-17.84-24,20.06,12,20.06,12S51.17,157.11,54.23,154.6,73.46,185,73.46,185s-2.51-47.93,0-48.49,11.71,47.94,11.71,47.94,13.66-44.32,17.56-44.32-4.18,42.64-4.18,42.64,16.16-27.31,18.67-23.69-11.43,33.17-11.43,33.17,20.35-17,21.19-14.77-22,25.92-22,25.92Z" style="fill: #e8505b"/>
      <path d="M61.47,168.54c.13-.06,3.69,7.57,7.94,17s7.59,17.21,7.45,17.27-3.69-7.57-8-17S61.33,168.6,61.47,168.54Z" style="fill: #263238"/>
      <path d="M77.68,172.8c.15,0,.74,6.72,1.32,15s.92,15.05.77,15.07-.74-6.72-1.32-15S77.52,172.81,77.68,172.8Z" style="fill: #263238"/>
      <path d="M100,151.33a2.35,2.35,0,0,1-.12.55l-.44,1.52L97.8,159c-1.41,4.71-3.32,11.24-5.25,18.5S89,191.36,87.88,196.15c-.54,2.34-1,4.26-1.32,5.68-.15.62-.28,1.12-.38,1.54a2,2,0,0,1-.17.53,1.88,1.88,0,0,1,.06-.55c.08-.42.17-.94.28-1.57.25-1.35.64-3.31,1.15-5.72,1-4.82,2.58-11.45,4.51-18.72s3.91-13.78,5.42-18.47c.75-2.34,1.39-4.23,1.85-5.53l.53-1.5A2.05,2.05,0,0,1,100,151.33Z" style="fill: #263238"/>
      <path d="M109.71,176c.12.09-3.79,5.93-8.75,13.05s-9.08,12.81-9.2,12.73,3.79-5.93,8.75-13S109.58,176,109.71,176Z" style="fill: #263238"/>
      <path d="M71,202.89a7.7,7.7,0,0,1-1.76-1.26,48.34,48.34,0,0,1-3.82-3.52A51.59,51.59,0,0,1,62,194.2a7.75,7.75,0,0,1-1.2-1.78c.12-.1,2.21,2.42,5,5.3S71.14,202.76,71,202.89Z" style="fill: #263238"/>
      <path d="M83.23,193.7a21.23,21.23,0,0,1,.71,4.77,21.37,21.37,0,0,1,.16,4.82,21.23,21.23,0,0,1-.71-4.77A20.69,20.69,0,0,1,83.23,193.7Z" style="fill: #263238"/>
    </g>
    <path d="M106.12,213.81a10.86,10.86,0,0,1-1.73.36c-1.11.2-2.73.45-4.74.73a156.17,156.17,0,0,1-15.79,1.4A100,100,0,0,1,68,215.64c-2-.26-3.64-.53-4.75-.76a10.37,10.37,0,0,1-1.71-.41,9.75,9.75,0,0,1,1.75.2c1.11.17,2.74.37,4.75.58a116.33,116.33,0,0,0,15.78.5c6.16-.21,11.73-.78,15.75-1.24l4.76-.55A10.87,10.87,0,0,1,106.12,213.81Z" style="fill: #fff"/>
    <path d="M106.12,218.8a11.84,11.84,0,0,1-1.73.35c-1.11.2-2.73.45-4.74.73a153.3,153.3,0,0,1-15.79,1.4A100,100,0,0,1,68,220.62c-2-.26-3.64-.52-4.75-.76a10.37,10.37,0,0,1-1.71-.41,11.1,11.1,0,0,1,1.75.2c1.11.17,2.74.38,4.75.59a118.21,118.21,0,0,0,15.78.49c6.16-.21,11.73-.78,15.75-1.24l4.76-.55A10,10,0,0,1,106.12,218.8Z" style="fill: #fff"/>
  </g>
  <g>
    <path d="M247.94,497.63l41.88,4.88L297.1,499,290,494.25l-41.28-5.19a4.33,4.33,0,0,0-3.89,1.5l-.06.08A4.38,4.38,0,0,0,247.94,497.63Z" style="fill: #e8505b"/>
    <path d="M248.13,497.68c-.07,0-.34-.43-.55-1.26a8.07,8.07,0,0,1-.11-3.32,8,8,0,0,1,1.24-3.08c.49-.7.9-1,.95-1A16,16,0,0,0,248,493.2,15.76,15.76,0,0,0,248.13,497.68Z" style="fill: #263238"/>
    <path d="M289.82,502.51s-.63.11-1.4-.55a1.25,1.25,0,0,1-.23-.35l-.16-.35a8.22,8.22,0,0,1-.3-.81,5.22,5.22,0,0,1,0-2,13.5,13.5,0,0,1,.43-1.91,4.27,4.27,0,0,1,.76-1.46c.6-.74,1.21-.89,1.23-.83s-.45.35-.92,1.06a4.71,4.71,0,0,0-.58,1.37c-.13.55-.27,1.19-.37,1.84a5.81,5.81,0,0,0,0,1.81,7.76,7.76,0,0,0,.23.77l.13.37a.71.71,0,0,0,.13.24C289.25,502.29,289.87,502.42,289.82,502.51Z" style="fill: #263238"/>
    <path d="M288.12,499.18c0,.15-9.07-.85-20.22-2.23s-20.16-2.64-20.14-2.79,9.07.85,20.21,2.24S288.14,499,288.12,499.18Z" style="fill: #263238"/>
    <path d="M288.23,495.31c0,.15-8.87-.78-19.78-2.08s-19.73-2.47-19.71-2.63,8.87.78,19.78,2.08S288.25,495.16,288.23,495.31Z" style="fill: #263238"/>
    <path d="M294,496.9a2.42,2.42,0,0,0-1.14,1.85,2.34,2.34,0,0,0,.93,1.91L297.1,499Z" style="fill: #263238"/>
  </g>
</svg>
