<svg viewBox="0 0 512 324.18" xmlns="http://www.w3.org/2000/svg"><path d="m404.42 227.61a17.75 17.75 0 0 1 11-1.34 9.15 9.15 0 0 1 5.43 2.43c1.36 1.5 1.62 4.14.06 5.43a5.27 5.27 0 0 1 -3.43.87c-2.91 0-6.14-.55-8.46 1.2-1.33 1-2.21 2.66-3.8 3.15a3.76 3.76 0 0 1 -4.13-1.83 6.39 6.39 0 0 1 -.46-4.73 7.2 7.2 0 0 1 3.79-5.18z" fill="#ebebeb"/><path d="m396.74 212.8c2.05 2.92 6 1.95 7.88.17s2.62-4.37 3.33-6.84c1.62-5.64 3.26-11.55 2.05-17.29a9.54 9.54 0 0 0 -2.21-4.7 5 5 0 0 0 -4.75-1.59c-2 .53-3.26 2.5-4.16 4.37a41.19 41.19 0 0 0 -4.07 17.69c0 2.85.33 5.83 1.93 8.19" fill="#ebebeb"/><path d="m391.12 217a10.64 10.64 0 0 0 1.66-9.79 18.86 18.86 0 0 0 -5.8-8.41 31 31 0 0 0 -10.39-6.13 11.07 11.07 0 0 0 -4.67-.8 4.93 4.93 0 0 0 -3.92 2.38c-1.1 2.08-.05 4.61 1.09 6.67a78.45 78.45 0 0 0 6.82 10.39c2 2.64 4.39 5.24 7.5 6.43s6.35 1.05 8-1.11" fill="#ebebeb"/><path d="m396.6 256.91a6.25 6.25 0 0 0 .19-1.32c.09-1 .21-2.19.35-3.63a51.06 51.06 0 0 1 .82-5.32 40.86 40.86 0 0 1 1.93-6.28 22.93 22.93 0 0 1 3.21-5.68 12 12 0 0 1 4-3.37 11.28 11.28 0 0 1 3.42-1.06 6.08 6.08 0 0 0 1.32-.2 7.43 7.43 0 0 0 -1.35 0 10.44 10.44 0 0 0 -3.49.95 11.93 11.93 0 0 0 -4.27 3.4 22.69 22.69 0 0 0 -3.33 5.79 39.46 39.46 0 0 0 -1.92 6.39 45 45 0 0 0 -.7 5.38c-.12 1.54-.16 2.79-.18 3.65a7.34 7.34 0 0 0 0 1.3z" fill="#e0e0e0"/><path d="m396.85 254.12a2.07 2.07 0 0 0 0-.61v-1.77c0-1.53 0-3.74.07-6.48.14-5.47.61-11.35 1.52-19.65.86-7.8 2-16.89 3.24-22.79.26-1.34.52-2.55.77-3.61s.44-2 .63-2.71l.42-1.72a2.66 2.66 0 0 0 .1-.61 3.77 3.77 0 0 0 -.21.58c-.13.45-.3 1-.51 1.69s-.46 1.64-.73 2.7-.57 2.26-.85 3.6a199.63 199.63 0 0 0 -3.41 21.15c-.91 8.31-1.32 15.88-1.35 21.37 0 2.74 0 5 .09 6.49.05.71.08 1.3.11 1.76a3.73 3.73 0 0 0 .11.61z" fill="#e0e0e0"/><path d="m396.89 239.52a11.81 11.81 0 0 0 0-1.84 49.68 49.68 0 0 0 -.57-5 63.7 63.7 0 0 0 -1.62-7.27 60.48 60.48 0 0 0 -3-8.61 45.82 45.82 0 0 0 -8.93-13.9 21.21 21.21 0 0 0 -2.1-1.95c-.32-.28-.61-.55-.9-.76l-.81-.57a11.83 11.83 0 0 0 -1.55-1 57 57 0 0 1 5.08 4.54 48.31 48.31 0 0 1 8.66 13.84 69.11 69.11 0 0 1 3.05 8.52 73.86 73.86 0 0 1 1.73 7.2c.38 2.08.6 3.77.74 4.94a10.75 10.75 0 0 0 .22 1.86z" fill="#e0e0e0"/><path d="m382.77 265.28 1.47 20.05h25.75l1.47-20.05z" fill="#e0e0e0"/><path d="m380.29 257.38h34.24v7.9h-34.24z" fill="#e0e0e0"/><path d="m380.29 284.56v2.19h1.61 32.06v-2.19z" fill="#ebebeb"/><path d="m383.47 290.61-1.57-3.86h30.84l-1.84 3.86z" fill="#e0e0e0"/><path d="m411 271.83s0 .07-.12.19l-.39.51-1.5 1.92-.06.08-.07-.09-3.68-5.09h.21l-3.63 5.13-.11.17-.13-.16-4.31-5.12h.25l-.23.3-3.85 4.82-.13.16-.12-.16-3.63-5.14h.21l-4.47 5.09-.08.09-.06-.1-1.4-2.35c-.15-.26-.27-.46-.36-.63a.85.85 0 0 1 -.11-.22.81.81 0 0 1 .15.2c.1.16.24.36.4.6l1.47 2.31h-.14l4.4-5.16.11-.13.1.14 3.66 5.12h-.24c1.21-1.53 2.5-3.16 3.84-4.83l.23-.3.12-.15.13.15 4.29 5.13h-.24l3.67-5.11.1-.15.11.15 3.61 5.15h-.13l1.56-1.87.41-.48z" fill="#f5f5f5"/><path d="m411.82 265.15c0 .09-6.46.16-14.42.16s-14.41-.07-14.41-.16 6.45-.16 14.41-.16 14.42.07 14.42.16z" fill="#f5f5f5"/><path d="m413.12 287c0 .09-7 .16-15.67.16s-15.66-.07-15.66-.16 7-.16 15.66-.16 15.67.04 15.67.16z" fill="#f5f5f5"/><path d="m425.53 48.64h41.13v42.88h-41.13z" fill="#e0e0e0"/><path d="m422.74 48.64h41.13v42.88h-41.13z" fill="#fafafa"/><path d="m463.89 91.53h-41.16v-42.9h41.16zm-41.14 0h41.11v-42.88h-41.11z" fill="#e0e0e0"/><path d="m428.27 54.4h30.08v31.35h-30.08z" fill="#fafafa"/><path d="m428.27 86a5 5 0 0 1 -.74.87c-.48.5-1.16 1.19-1.91 1.93s-1.46 1.41-2 1.89a4.27 4.27 0 0 1 -.87.72 5.17 5.17 0 0 1 .74-.86c.48-.51 1.16-1.19 1.92-1.94s1.45-1.42 2-1.89a5.7 5.7 0 0 1 .86-.72z" fill="#e0e0e0"/><path d="m458.35 85.89a5 5 0 0 1 .86.74c.51.48 1.19 1.15 1.94 1.91s1.41 1.45 1.88 2a4.79 4.79 0 0 1 .72.86 4.29 4.29 0 0 1 -.86-.73c-.51-.48-1.19-1.16-1.94-1.92s-1.41-1.46-1.88-2a4.29 4.29 0 0 1 -.72-.86z" fill="#e0e0e0"/><path d="m458.26 54.49a4.81 4.81 0 0 1 .75-.87c.48-.5 1.15-1.19 1.91-1.93s1.45-1.41 2-1.88a4.6 4.6 0 0 1 .87-.73 4.62 4.62 0 0 1 -.74.86c-.48.51-1.15 1.2-1.91 1.94s-1.46 1.42-2 1.89a4.27 4.27 0 0 1 -.88.72z" fill="#e0e0e0"/><path d="m428.19 54.56a4.46 4.46 0 0 1 -.87-.74c-.5-.48-1.19-1.15-1.93-1.91s-1.41-1.45-1.88-2a5.48 5.48 0 0 1 -.73-.87 4.29 4.29 0 0 1 .86.73c.51.48 1.2 1.16 1.94 1.92s1.42 1.46 1.89 2a4.79 4.79 0 0 1 .72.87z" fill="#e0e0e0"/><path d="m458.26 85.75v-.15c0-.1 0-.25 0-.44 0-.39 0-1 0-1.69 0-1.48 0-3.64 0-6.39 0-5.49 0-13.31-.06-22.68l.11.12h-30l.13-.14v31.35l-.11-.11 21.67.08h6.1 2.17s0 0-.13 0h-2-6.07l-21.79.06h-.11v-.12c0-9.07 0-19.84 0-31.35v-.13h.13 30 .12v.11c0 9.4-.05 17.25-.06 22.76v6.36 1.67.43s-.09.27-.1.26z" fill="#e0e0e0"/><path d="m438.29 65.06h10.04v10.04h-10.04z" fill="#ebebeb"/><path d="m425.53 101.69h41.13v42.88h-41.13z" fill="#e0e0e0"/><path d="m422.74 101.69h41.13v42.88h-41.13z" fill="#fafafa"/><path d="m463.89 144.58h-41.16v-42.91h41.16zm-41.14 0h41.11v-42.88h-41.11z" fill="#e0e0e0"/><path d="m428.27 107.45h30.08v31.35h-30.08z" fill="#fafafa"/><path d="m428.27 139a4.74 4.74 0 0 1 -.74.86c-.48.51-1.16 1.2-1.91 1.94s-1.46 1.41-2 1.88a5.14 5.14 0 0 1 -.87.73 4.74 4.74 0 0 1 .74-.86c.48-.51 1.16-1.2 1.92-1.94s1.45-1.42 2-1.89a5 5 0 0 1 .86-.72z" fill="#e0e0e0"/><path d="m458.35 138.93a6.27 6.27 0 0 1 .86.75c.51.48 1.19 1.15 1.94 1.91s1.41 1.45 1.88 2a5 5 0 0 1 .72.87 4.62 4.62 0 0 1 -.86-.74c-.51-.48-1.19-1.15-1.94-1.91s-1.41-1.46-1.88-2a3.88 3.88 0 0 1 -.72-.88z" fill="#e0e0e0"/><path d="m458.26 107.54a4.81 4.81 0 0 1 .75-.87c.48-.5 1.15-1.19 1.91-1.94s1.45-1.41 2-1.88a4.27 4.27 0 0 1 .87-.72 4.62 4.62 0 0 1 -.74.86c-.48.51-1.15 1.19-1.91 1.94s-1.46 1.41-2 1.88a4.6 4.6 0 0 1 -.88.73z" fill="#e0e0e0"/><path d="m428.19 107.61a4.46 4.46 0 0 1 -.87-.74c-.5-.48-1.19-1.16-1.93-1.91s-1.41-1.45-1.88-2a4.6 4.6 0 0 1 -.73-.87 5.17 5.17 0 0 1 .86.74c.51.48 1.2 1.16 1.94 1.92s1.42 1.45 1.89 2a4.79 4.79 0 0 1 .72.86z" fill="#e0e0e0"/><path d="m458.26 138.8v-.15c0-.11 0-.25 0-.44 0-.39 0-1 0-1.69 0-1.48 0-3.65 0-6.39 0-5.49 0-13.31-.06-22.68l.11.12h-30l.13-.13v31.35l-.11-.11 21.72.06h6.1-6.07l-21.79.06h-.11v-.12c0-9.08 0-19.84 0-31.35v-.13h.13 30 .12v.11c0 9.4-.05 17.25-.06 22.75v6.37 1.67.42s-.1.28-.11.28z" fill="#e0e0e0"/><path d="m438.29 118.11h10.04v10.04h-10.04z" fill="#ebebeb"/><path d="m256.16 89.44.35.59a4.05 4.05 0 0 0 1.68 1.55l.62.3-.59.36a4.05 4.05 0 0 0 -1.55 1.68l-.3.62-.36-.6a4 4 0 0 0 -1.68-1.54l-.62-.31.6-.35a4.09 4.09 0 0 0 1.54-1.68z" fill="#e0e0e0"/><path d="m319.75 72.82.36.59a4.05 4.05 0 0 0 1.68 1.59l.62.3-.6.36a4 4 0 0 0 -1.54 1.68l-.31.62-.35-.6a4.09 4.09 0 0 0 -1.68-1.54l-.62-.31.59-.35a4.11 4.11 0 0 0 1.55-1.68z" fill="#e0e0e0"/><path d="m287.36 52.65.18.3a2 2 0 0 0 .84.77l.31.16-.3.17a2.08 2.08 0 0 0 -.77.84l-.15.31-.18-.29a2.11 2.11 0 0 0 -.84-.78l-.31-.15.29-.18a2 2 0 0 0 .78-.84z" fill="#e0e0e0"/><path d="m312 73 .18.3a2 2 0 0 0 .84.77l.31.16-.3.17a2.08 2.08 0 0 0 -.77.84l-.15.32-.18-.3a2.17 2.17 0 0 0 -.84-.78l-.31-.15.29-.18a2 2 0 0 0 .78-.84z" fill="#e0e0e0"/><path d="m288.64 94.79.18.3a2 2 0 0 0 .84.77l.34.14-.3.17a2.08 2.08 0 0 0 -.77.84l-.16.32-.17-.3a2.13 2.13 0 0 0 -.85-.78l-.31-.15.3-.18a2.11 2.11 0 0 0 .78-.84z" fill="#e0e0e0"/><path d="m317.07 112.86c.22-1.59-2-2.9-3.72-3a9.58 9.58 0 0 1 -2.4-.21c-1.65-.58-2.31-2.71-3.92-3.39a4.59 4.59 0 0 0 -3.76.53 9.71 9.71 0 0 1 -3.63 1.41c-1.13.08-2.37-.34-3.36.21-.74.41-1.13 1.27-1.81 1.77a4.31 4.31 0 0 1 -2.37.64 6.63 6.63 0 0 0 -2.43.4 1.93 1.93 0 0 0 -1.23 2z" fill="#ebebeb"/><path d="m265.65 55.36c.3-2.19-2.78-4-5.1-4.17a13.43 13.43 0 0 1 -3.3-.28c-2.26-.79-3.17-3.72-5.38-4.65-1.65-.7-3.56-.08-5.16.73s-3.19 1.82-5 1.93c-1.55.1-3.24-.48-4.61.28-1 .57-1.54 1.74-2.48 2.43a5.88 5.88 0 0 1 -3.25.88 9.15 9.15 0 0 0 -3.34.55 2.64 2.64 0 0 0 -1.68 2.68z" fill="#f5f5f5"/><path d="m56.33 47.15h69.81v115.55h-69.81z" fill="#e0e0e0"/><path d="m54.01 47.15h69.81v115.55h-69.81z" fill="#ebebeb"/><path d="m56.99 49.49h63.86v110.87h-63.86z" fill="#fafafa"/><path d="m69.14 63.9h39.27v82.05h-39.27z" fill="#ebebeb"/><path d="m69.14 116.92c-.09-7.67 6.8-15.15 14.4-16.22 3.61-.51 7.46.21 10.84-1.18 6-2.47 8-10.49 14-12.87l.27 59.31h-39.51z" fill="#e0e0e0"/><path d="m79.93 84.85.07.15.14.48a6.52 6.52 0 0 0 .24.78 10.26 10.26 0 0 0 .4 1l.27.61.34.65a6.13 6.13 0 0 0 .4.69 7.47 7.47 0 0 0 .47.73 15.44 15.44 0 0 0 2.68 3 15.71 15.71 0 0 0 4.15 2.57 15.17 15.17 0 0 0 2.6.82 28.37 28.37 0 0 0 2.87.39 21.84 21.84 0 0 1 6.14 1.12 15.06 15.06 0 0 1 5.36 4 19.47 19.47 0 0 1 3.69 5.61 10.14 10.14 0 0 1 .74 3.12 11.92 11.92 0 0 1 -.19 3.06 36.79 36.79 0 0 1 -1.63 5.42 26.11 26.11 0 0 0 -1.29 4.73 9.79 9.79 0 0 0 .15 4 7.47 7.47 0 0 0 1.31 2.73 5.64 5.64 0 0 0 1.41 1.3c.37.24.59.33.58.34a3.86 3.86 0 0 1 -.6-.31 5 5 0 0 1 -1.45-1.28 7.52 7.52 0 0 1 -1.36-2.75 9.83 9.83 0 0 1 -.18-4.06 25 25 0 0 1 1.27-4.76 35.27 35.27 0 0 0 1.6-5.4 11.64 11.64 0 0 0 .19-3 10.42 10.42 0 0 0 -.73-3.06 19.32 19.32 0 0 0 -3.66-5.54 14.7 14.7 0 0 0 -5.28-4 21.6 21.6 0 0 0 -6.11-.99 29.13 29.13 0 0 1 -2.89-.41 15.52 15.52 0 0 1 -2.63-.85 15.87 15.87 0 0 1 -4.17-2.62 15.69 15.69 0 0 1 -2.69-3.06c-.18-.24-.31-.5-.46-.73a7.28 7.28 0 0 1 -.4-.7l-.28-.63-.26-.62a9.87 9.87 0 0 1 -.38-1 6.36 6.36 0 0 1 -.23-.79l-.13-.59z" fill="#455a64"/><path d="m92.19 78.46.14.12.37.36c.16.16.35.38.57.63s.46.56.7.92a13.21 13.21 0 0 1 1.49 2.79 13.39 13.39 0 0 1 .91 4.1 13.62 13.62 0 0 1 -.09 2.45 18.25 18.25 0 0 1 -.56 2.59c-.51 1.76-1.24 3.58-1.72 5.58a13.63 13.63 0 0 0 -.44 3.09 13.77 13.77 0 0 0 .33 3.24 15.16 15.16 0 0 0 3 6.13 17 17 0 0 0 5.29 4.32 21 21 0 0 0 6 2.1c2 .37 4 .47 5.78.74a14.73 14.73 0 0 1 4.86 1.47 11.09 11.09 0 0 1 4.85 5.4 10.64 10.64 0 0 1 .59 1.92l.09.51v.18a1.37 1.37 0 0 1 0-.17l-.11-.51a10.9 10.9 0 0 0 -.62-1.9 11.28 11.28 0 0 0 -1.65-2.67 11.08 11.08 0 0 0 -3.19-2.63 14.79 14.79 0 0 0 -4.82-1.43c-1.81-.27-3.76-.36-5.79-.73a20.83 20.83 0 0 1 -6.09-2.11 17.18 17.18 0 0 1 -5.36-4.37 15.36 15.36 0 0 1 -3-6.21 13.53 13.53 0 0 1 .13-6.42c.51-2 1.25-3.81 1.76-5.56a19.2 19.2 0 0 0 .57-2.57 14.14 14.14 0 0 0 .1-2.41 13.59 13.59 0 0 0 -.87-4.07 14.32 14.32 0 0 0 -1.45-2.79c-.24-.36-.49-.66-.68-.92s-.4-.47-.56-.64l-.36-.37z" fill="#455a64"/><path d="m122.17 121.68a4 4 0 0 1 -.48.43c-.31.27-.77.64-1.35 1.09a56 56 0 0 1 -4.74 3.27 53.49 53.49 0 0 1 -5 2.76c-.67.32-1.21.56-1.59.72a3.4 3.4 0 0 1 -.59.23 3.46 3.46 0 0 1 .56-.3l1.55-.78c1.31-.66 3.1-1.63 5-2.8s3.57-2.34 4.75-3.21l1.4-1a3.29 3.29 0 0 1 .49-.41z" fill="#455a64"/><path d="m118.93 119.15a2.21 2.21 0 0 1 -.48.29l-1.31.71c-1.11.6-2.63 1.46-4.28 2.47s-3.09 2-4.13 2.7l-1.23.85a3.07 3.07 0 0 1 -.47.3 2.68 2.68 0 0 1 .42-.36c.28-.22.68-.53 1.19-.91 1-.75 2.47-1.74 4.12-2.75s3.18-1.86 4.31-2.43l1.35-.66a3.84 3.84 0 0 1 .51-.21z" fill="#455a64"/><path d="m114.28 118.18a6.51 6.51 0 0 1 -.93.68c-.59.39-1.42.92-2.35 1.48s-1.78 1-2.41 1.38a7.12 7.12 0 0 1 -1 .5 6.21 6.21 0 0 1 1-.63l2.38-1.43 2.37-1.42a5.92 5.92 0 0 1 .94-.56z" fill="#455a64"/><path d="m110 113.05a4.91 4.91 0 0 1 -.71.51l-1.75 1.17-1.73 1.19a3.44 3.44 0 0 1 -.74.46 4.7 4.7 0 0 1 .66-.58c.42-.33 1-.77 1.7-1.24s1.32-.85 1.78-1.12a3 3 0 0 1 .79-.39z" fill="#455a64"/><path d="m109.61 108.48s-.51.3-1.34.78-2 1.17-3.14 2-2.23 1.66-3 2.28a14.57 14.57 0 0 1 -1.19 1 1.62 1.62 0 0 1 .28-.31c.18-.19.46-.46.82-.78a30.49 30.49 0 0 1 6.12-4.3c.42-.23.77-.4 1-.51s.44-.18.45-.16z" fill="#455a64"/><path d="m107.34 104.93s-2.08 1.58-4.72 3.42-4.81 3.29-4.84 3.25 2.08-1.58 4.72-3.42 4.81-3.3 4.84-3.25z" fill="#455a64"/><path d="m105.54 100.93a2.36 2.36 0 0 1 -.41.3l-1.13.77c-1 .65-2.29 1.55-3.73 2.57s-2.72 2-3.65 2.69l-1.09.83a2.19 2.19 0 0 1 -.42.29 2.52 2.52 0 0 1 .37-.35l1-.88c.91-.73 2.18-1.71 3.62-2.74s2.79-1.91 3.78-2.53c.49-.31.89-.55 1.17-.71a2.12 2.12 0 0 1 .49-.24z" fill="#455a64"/><path d="m101.82 98.71c0 .05-1.76 1.35-4 2.91s-4.09 2.79-4.12 2.74 1.76-1.35 4-2.91 4.09-2.78 4.12-2.74z" fill="#455a64"/><path d="m97.92 96.49a19.37 19.37 0 0 1 -2.07 1.78 19.13 19.13 0 0 1 -2.19 1.62 18.12 18.12 0 0 1 2.07-1.78 16.6 16.6 0 0 1 2.19-1.62z" fill="#455a64"/><path d="m95.29 90.88a6.91 6.91 0 0 1 -.88.81c-.56.48-1.36 1.13-2.26 1.8s-1.75 1.26-2.37 1.66a6.8 6.8 0 0 1 -1 .61 7.14 7.14 0 0 1 1-.73l2.22-1.7 2.29-1.75a7.08 7.08 0 0 1 1-.7z" fill="#455a64"/><path d="m96.42 87.07a2.22 2.22 0 0 1 -.4.31c-.26.19-.65.46-1.14.78-1 .65-2.33 1.51-3.87 2.4s-3 1.64-4 2.16c-.52.26-1 .47-1.24.6l-.47.19a3 3 0 0 1 .43-.26l1.21-.66c1-.55 2.44-1.32 4-2.21s2.88-1.72 3.86-2.38l1.2-.68a2.39 2.39 0 0 1 .42-.25z" fill="#455a64"/><path d="m94.61 83a2.77 2.77 0 0 1 -.44.33c-.29.21-.71.49-1.24.85-1.05.7-2.53 1.65-4.17 2.67s-3.16 1.91-4.26 2.54c-.55.32-1 .57-1.31.73a4 4 0 0 1 -.49.25 1.76 1.76 0 0 1 .45-.31l1.28-.79 4.22-2.59 4.2-2.62 1.28-.8a2 2 0 0 1 .48-.26z" fill="#455a64"/><path d="m66.48 133.77 1.61 28.23 47.26-2.69zm7.9 11 20.32 10.79-19.64 1.12z" fill="#f43f5e"/><g fill="#263238"><path d="m71.17 136.22a5.64 5.64 0 0 1 -.75 1.78 5.49 5.49 0 0 1 -1 1.61 5.94 5.94 0 0 1 .75-1.78 5.73 5.73 0 0 1 1-1.61z"/><path d="m78.42 140a5.26 5.26 0 0 1 -.75 1.73 5.55 5.55 0 0 1 -1 1.57 11 11 0 0 1 1.78-3.3z"/><path d="m85.67 143.71a5.66 5.66 0 0 1 -.92 1.64c-.58.85-1.11 1.5-1.19 1.44a5.66 5.66 0 0 1 .92-1.64c.58-.85 1.11-1.5 1.19-1.44z"/><path d="m92.8 147.62a5.53 5.53 0 0 1 -.92 1.64 5.67 5.67 0 0 1 -1.18 1.45 5.11 5.11 0 0 1 .91-1.64 5.17 5.17 0 0 1 1.19-1.45z"/><path d="m100.24 151.45a6 6 0 0 1 -.83 1.74 5.88 5.88 0 0 1 -1.11 1.56 5.73 5.73 0 0 1 .83-1.74 5.41 5.41 0 0 1 1.11-1.56z"/><path d="m108 155.48a5 5 0 0 1 -.74 1.65 4.82 4.82 0 0 1 -1 1.49 5 5 0 0 1 .74-1.62 4.85 4.85 0 0 1 1-1.52z"/><path d="m73.43 137.4c.08 0-.05.46-.3.93s-.51.8-.59.76.06-.46.3-.93.51-.8.59-.76z"/><path d="m75.81 138.59c.08 0-.06.46-.3.92s-.52.81-.6.77.06-.46.31-.93.51-.81.59-.76z"/><path d="m81.1 141.38c.08.05-.06.46-.31.93s-.51.81-.59.76.06-.46.3-.92.5-.81.6-.77z"/><path d="m83.47 142.57c.08 0-.06.46-.3.93s-.51.8-.59.76 0-.46.3-.93.51-.8.59-.76z"/><path d="m88.26 145.25c.08 0-.06.46-.3.92s-.52.81-.6.77.06-.46.31-.93.51-.81.59-.76z"/><path d="m90.52 146.44c.08.05 0 .46-.3.93s-.51.8-.59.76.06-.46.3-.93.51-.8.59-.76z"/><path d="m95.42 149c.08 0-.06.46-.31.92s-.51.81-.59.77.06-.46.31-.93.51-.83.59-.76z"/><path d="m98.05 150.37c.08 0-.06.46-.31.93s-.51.8-.59.76.06-.46.3-.93.55-.8.6-.76z"/><path d="m102.77 152.86c.08 0 0 .46-.3.93s-.51.8-.59.76.06-.46.3-.93.51-.8.59-.76z"/><path d="m105.5 154.26c.08.05 0 .46-.3.93s-.51.81-.59.76 0-.46.3-.92.51-.81.59-.77z"/><path d="m285.83 109.85.45.1c.3.08.75.17 1.31.34a30.32 30.32 0 0 1 4.75 1.78 25 25 0 0 1 6.22 4.13 15.23 15.23 0 0 1 4.66 7.31 12.24 12.24 0 0 1 -1.73 9.64 16.24 16.24 0 0 1 -4.34 4.49 19.37 19.37 0 0 1 -3.1 1.8c-.59.24-1.16.51-1.78.73s-1.22.44-1.88.6c-5.19 1.49-11.16 1.55-17.09 1.14-3-.21-6-.52-9.05-.86a72.19 72.19 0 0 1 -9.17-1.53 27 27 0 0 1 -8.2-3.32 15.44 15.44 0 0 1 -3-2.56 12.53 12.53 0 0 1 -1.91-3 11.49 11.49 0 0 1 -.87-6.33 13.63 13.63 0 0 1 2.41-5.85c2.61-3.54 6.74-6.14 11-7.83a47.36 47.36 0 0 1 12.93-3 69.11 69.11 0 0 1 11.22-.05c3.29.24 6.09.63 8.36 1s4 .7 5.19.93l1.33.28.45.11-.46-.07-1.35-.25c-1.18-.22-2.93-.54-5.2-.88s-5.07-.71-8.35-.93a68.6 68.6 0 0 0 -11.15.09 47.4 47.4 0 0 0 -12.79 3c-4.24 1.68-8.3 4.25-10.85 7.74a13.34 13.34 0 0 0 -2.35 5.74 11.28 11.28 0 0 0 .86 6.2 12.6 12.6 0 0 0 1.87 2.91 14.92 14.92 0 0 0 2.93 2.49 26.2 26.2 0 0 0 8 3.26 73.67 73.67 0 0 0 9.09 1.52c3 .34 6.05.65 9 .86 5.9.41 11.8.35 16.9-1.1a18.43 18.43 0 0 0 11.02-7.48 12.07 12.07 0 0 0 1.75-9.48 15 15 0 0 0 -4.54-7.24 24.74 24.74 0 0 0 -6.13-4.13 30.87 30.87 0 0 0 -4.68-1.83c-.56-.18-1-.28-1.29-.37z"/></g><path d="m217.38 154.14 16.3-3.14 31.27 7.17 15.85 3.3.22 21.66-35.35 6.51-23.86-7.07-9.02-13.27z" fill="#ffbf9d"/><path d="m205.79 156.3 15.39-3.63s10.87 33.63 37.72 32.18c21.87-1.18 21.9-23.38 21.9-23.38l16 2.83s6.71 40.61-.64 69.09c-6.16 23.71-11.56 56.22-11.56 56.22h-106.26z" fill="#f43f5e"/><path d="m361.67 260.35s-43.83-76.77-51.67-86.63c-8.63-10.79-15.53-9.54-15.53-9.54l-4.64 51.73 37.26 52.86 8.88 3.21z" fill="#f43f5e"/><path d="m207.63 155.87s-24.9 2-33.84 42.8c-4 18.46-9.15 40.09-10.62 54.63-1.07 10.54 5.44 21.51 16 22.86l13.21 2.45a13.87 13.87 0 0 0 16-10.38l4.46-18.46-11.86-4 2.74-55z" fill="#f43f5e"/><path d="m298.84 192.84a4.11 4.11 0 0 1 .11.57c.07.42.15 1 .25 1.65.06.36.11.76.18 1.19s.09.91.14 1.42c.1 1 .23 2.19.28 3.48a83.92 83.92 0 0 1 .06 9.07 108.19 108.19 0 0 1 -1.1 11.06c-.57 3.91-1.29 7.6-2 10.93s-1.45 6.33-2.07 8.83-1.16 4.53-1.54 5.92l-.45 1.6a3.58 3.58 0 0 1 -.18.55 3.43 3.43 0 0 1 .1-.57c.1-.41.22-.94.37-1.62.35-1.44.83-3.46 1.42-5.94s1.29-5.51 2-8.84 1.42-7 2-10.91 1-7.62 1.13-11 .17-6.48 0-9.05c0-1.29-.14-2.45-.22-3.47 0-.51-.08-1-.11-1.42s-.1-.83-.14-1.19q-.1-1-.18-1.65a4.28 4.28 0 0 1 -.05-.61z" fill="#263238"/><path d="m214 251.78a3.09 3.09 0 0 1 -.12-.34c-.08-.25-.19-.57-.32-1s-.3-1-.49-1.59a4.82 4.82 0 0 0 -.88-2 6.42 6.42 0 0 0 -2.31-1.41 19 19 0 0 0 -3.1-.87 45.61 45.61 0 0 0 -7.68-.79h-.2v-.2c.67-4.38 1.44-9.38 2.25-14.66 1.45-9.24 2.76-17.6 3.72-23.69.49-3 .89-5.44 1.17-7.17.14-.82.26-1.47.34-2 0-.2.07-.37.1-.51a1.37 1.37 0 0 1 0-.17.45.45 0 0 1 0 .18q0 .21-.06.51c-.07.48-.15 1.14-.27 2-.25 1.73-.61 4.18-1 7.19-.93 6.1-2.2 14.46-3.61 23.71-.83 5.28-1.6 10.27-2.29 14.66l-.17-.21a44.83 44.83 0 0 1 7.73.86 18.73 18.73 0 0 1 3.14.93 6.38 6.38 0 0 1 2.36 1.5 2.79 2.79 0 0 1 .61 1.06l.28 1c.17.62.32 1.15.44 1.6s.2.74.26 1a1.23 1.23 0 0 1 .1.41z" fill="#263238"/><path d="m179.65 258a4.16 4.16 0 0 1 .19-1 16.92 16.92 0 0 1 1-2.68 18.29 18.29 0 0 1 14.62-10.64 16.31 16.31 0 0 1 2.85-.09 3.66 3.66 0 0 1 1 .13 34.7 34.7 0 0 0 -3.85.24 18.82 18.82 0 0 0 -14.4 10.48 37.69 37.69 0 0 0 -1.41 3.56z" fill="#263238"/><path d="m185.41 237.69a1.79 1.79 0 0 1 .6-.05 11.44 11.44 0 0 1 1.64.07 19.2 19.2 0 0 1 5.25 1.29 18.83 18.83 0 0 1 4.67 2.76 14.24 14.24 0 0 1 1.22 1.1c.27.28.41.45.39.47s-.68-.54-1.78-1.35a21.93 21.93 0 0 0 -9.79-4c-1.35-.19-2.21-.22-2.2-.29z" fill="#263238"/><path d="m211.19 184.85a5.25 5.25 0 0 1 -.06-1.09c0-.7 0-1.71-.13-3a47.58 47.58 0 0 0 -5.25-18.69c-.57-1.11-1.07-2-1.43-2.59a5 5 0 0 1 -.51-1 6.85 6.85 0 0 1 .65.88c.4.58.93 1.45 1.54 2.55a42.81 42.81 0 0 1 3.72 9.1 43.31 43.31 0 0 1 1.56 9.7 29 29 0 0 1 0 3 5.36 5.36 0 0 1 -.09 1.14z" fill="#263238"/><path d="m297.69 227.11c6.36-10.76 6.49-24.75.95-36a100.5 100.5 0 0 1 -1.14 35.9" opacity=".3"/><path d="m241.17 239.28c-4.82 1.42-11.5 1.76-16.2 0 3.68 5.22 10.77 7.11 16.92 5.41s11.83-7.85 12.3-14.22a26.32 26.32 0 0 1 -13.02 8.81z" opacity=".3"/><path d="m258.9 221.9a2.38 2.38 0 0 1 -.12.43c-.09.27-.2.69-.41 1.2a25.06 25.06 0 0 1 -2.07 4.2 26.95 26.95 0 0 1 -26.44 12.7 25.19 25.19 0 0 1 -4.58-1c-.53-.15-.92-.33-1.2-.43a1.48 1.48 0 0 1 -.4-.18s.59.17 1.65.46a27.27 27.27 0 0 0 4.56.88 27.13 27.13 0 0 0 26.17-12.57 28.88 28.88 0 0 0 2.17-4.1c.43-1.03.63-1.6.67-1.59z" fill="#263238"/><path d="m205.17 275.46s-.06.08-.19.21a6.08 6.08 0 0 1 -.62.52 9.88 9.88 0 0 1 -2.63 1.39 14.88 14.88 0 0 1 -4.35.79 40.11 40.11 0 0 1 -5.39-.19c-3.81-.33-7.23-.89-9.68-1.33-1.23-.22-2.23-.41-2.91-.55a5.34 5.34 0 0 1 -1.06-.26 5 5 0 0 1 1.08.11l2.93.43c2.47.36 5.88.87 9.67 1.2a43.44 43.44 0 0 0 5.34.22 15.19 15.19 0 0 0 4.27-.69 13.36 13.36 0 0 0 3.54-1.85z" fill="#263238"/><path d="m291.56 74.18 3.14-3.06c4.19 1.82 6.13 6.68 6.83 11.19s.61 9.26 2.53 13.41c1.47 3.18 4.14 6.14 3.82 9.64-.3 3.33-3.31 6-3.33 9.36s2.68 5.69 4.24 8.51c3.16 5.7 5.21 29 3.55 35.32-13.89-1.2-38.51-2.68-52.42-5.88 3.68-23.95 19.08-57.76 31.64-78.49z" fill="#263238"/><path d="m297.78 95.55c1-16.29-10.86-31.19-27.35-33.16-17.49-2.08-33 10.45-34.42 27.49l-4.1 68.8a6 6 0 0 0 1.05 3.75c4 5.9 11.36 10.52 17.89 11.43a29.44 29.44 0 0 0 18.15-3.76 5.85 5.85 0 0 0 3-5l.28-15.41a.1.1 0 0 1 .11-.1 20.68 20.68 0 0 0 4.31-.12c4.08-1 14.46-5 17.94-20.22 1.12-5.08 2.29-19.43 3.14-33.7z" fill="#ffbf9d"/><path d="m275.16 118c0-.15 1.7-.32 4.46-.47.69 0 1.36-.12 1.51-.57a3.48 3.48 0 0 0 -.34-2.06q-.81-2.53-1.71-5.33c-2.37-7.59-4-13.8-3.73-13.89s2.48 6 4.85 13.57l1.63 5.36a3.91 3.91 0 0 1 .19 2.7 1.72 1.72 0 0 1 -1.21.92 5 5 0 0 1 -1.18.08c-2.77-.01-4.47-.12-4.47-.31z" fill="#263238"/><path d="m293.28 101.31c-.3.33-2.1-1.19-4.69-1.27s-4.51 1.28-4.79.93c-.13-.16.18-.77 1-1.4a6.18 6.18 0 0 1 3.84-1.15 6 6 0 0 1 3.73 1.43c.8.68 1.06 1.31.91 1.46z" fill="#263238"/><path d="m267 102c-.35.33-2.23-1.38-5.06-1.62s-5 1-5.29.66c-.14-.17.24-.78 1.2-1.39a7 7 0 0 1 4.27-1 6.86 6.86 0 0 1 4 1.74c.82.76 1.06 1.43.88 1.61z" fill="#263238"/><path d="m272.24 149.56s-10.53.11-23.15-8.55c0 0 3.26 13.91 23.07 13.47z" fill="#ff9a6c"/><path d="m273.59 124.39a5 5 0 0 0 -4.27-2.09 4.49 4.49 0 0 0 -3.19 1.41 2.77 2.77 0 0 0 -.42 3.17 3.36 3.36 0 0 0 3.51 1.13 10.31 10.31 0 0 0 3.6-1.79 2.91 2.91 0 0 0 .82-.74.86.86 0 0 0 .06-1" fill="#ff9a6c"/><path d="m267.05 119.33c.44 0 .26 2.9 2.65 5.14s5.55 2.13 5.54 2.53c0 .19-.73.52-2.06.46a7.52 7.52 0 0 1 -4.64-1.95 6.28 6.28 0 0 1 -2-4.3c-.07-1.21.31-1.91.51-1.88z" fill="#263238"/><path d="m267.44 91.3c-.32.7-3 .16-6.22.29s-5.85.8-6.22.11c-.17-.32.33-1 1.41-1.59a10.3 10.3 0 0 1 4.7-1.23 10.59 10.59 0 0 1 4.78.92c1.11.55 1.68 1.2 1.55 1.5z" fill="#263238"/><path d="m293.84 91.87c-.55.61-2.73 0-5.34 0s-4.83.43-5.35-.2c-.22-.31.12-.92 1.08-1.5a8.45 8.45 0 0 1 4.34-1 8.27 8.27 0 0 1 4.27 1.2c.93.63 1.24 1.2 1 1.5z" fill="#263238"/><path d="m272.85 59c-1.42-2.42-4.07-3.52-7-4-12-1.82-25.5 5.43-32.25 15.58s-7.12 25.28-2.17 36.42l7.51-4.7c15.1-6.22 25.75-20.76 35.46-35.79 1.3-2.06-.32-5.46-1.55-7.51z" fill="#263238"/><path d="m291.39 65.58c-5-5.73-8.7-11.45-19.17-7.47-1.54 2.93 1.57 6.74 4.16 9 3.8 3.25 7.11 5.45 9.6 7.78 5 4.71 10.76 20.53 11.26 29.17 0 .54 1-7.41 1.5-7.5.71-.1 3.55-3.57 3.16-8.32-1.33-16.24-5.47-16.93-10.51-22.66z" fill="#263238"/><path d="m265.83 55a4.49 4.49 0 0 1 2.35.21 10.07 10.07 0 0 1 4.76 3.12 8.76 8.76 0 0 1 .95 1.36 6.74 6.74 0 0 1 .55 1.45 16 16 0 0 1 .62 2.48 3.52 3.52 0 0 1 -.22 2.35c-.12 0 0-.91-.29-2.26a22.59 22.59 0 0 0 -.74-2.36 6.93 6.93 0 0 0 -.54-1.31 9.74 9.74 0 0 0 -.88-1.24 11.3 11.3 0 0 0 -4.39-3.13c-1.29-.49-2.18-.57-2.17-.67z" fill="#455a64"/><path d="m290.9 106.28a2.3 2.3 0 0 1 -2.17 2.35 2.19 2.19 0 0 1 -2.4-2 2.3 2.3 0 0 1 2.17-2.35 2.19 2.19 0 0 1 2.4 2z" fill="#263238"/><path d="m265.7 106.44a2.29 2.29 0 0 1 -2.16 2.35 2.19 2.19 0 0 1 -2.4-2 2.29 2.29 0 0 1 2.16-2.36 2.19 2.19 0 0 1 2.4 2.01z" fill="#263238"/><path d="m196.36 125.59c1.42-2.34 3-4.55 5.66-5.52s5.55-1.55 7.6-3.43c3.2-2.94 3.09-7.84 2.77-12.11s-.37-9.19 2.91-12c2.73-2.39 7.09-2.61 9.46-5.34 1.58-1.83 1.89-4.36 2.45-6.69 1.5-6.25 4.95-17.16 23.37-23.44l-16.3 61.91c1.21.34 4.12 3.11 4.28 5s-.6 3.52-.62 5.28c0 2.15 2.34 3.44 3.82 5a9.67 9.67 0 0 1 2.17 7.66 52.73 52.73 0 0 1 -2.93 10.76c-15.12-1.53-37.17-2-48.7-11.66-2.11-1.76.89-10.2 4.06-15.42z" fill="#263238"/><path d="m238.92 102.28c-.28-.15-11.41-4.56-12.12 7.15s11.2 10 11.24 9.67.88-16.82.88-16.82z" fill="#ffbf9d"/><path d="m234.73 114.45s-.21.13-.57.27a2.07 2.07 0 0 1 -1.52-.06c-1.21-.53-2.14-2.56-2.07-4.67a6.82 6.82 0 0 1 .75-2.89 2.36 2.36 0 0 1 1.63-1.47 1 1 0 0 1 1.17.63c.14.34 0 .57.11.59s.26-.18.2-.67a1.33 1.33 0 0 0 -.42-.76 1.53 1.53 0 0 0 -1.11-.37 2.87 2.87 0 0 0 -2.24 1.69 6.84 6.84 0 0 0 -.9 3.22c-.07 2.36 1 4.65 2.67 5.24a2.21 2.21 0 0 0 1.88-.2c.38-.27.46-.53.42-.55z" fill="#ff9a6c"/><path d="m280.58 105.35a19.25 19.25 0 0 1 .37-2.62 10.77 10.77 0 0 1 3.85-5.92 10.52 10.52 0 0 1 4.45-2 10.67 10.67 0 0 1 5.59.39 9.84 9.84 0 0 1 2.71 1.4 10 10 0 0 1 2.28 2.22 10.59 10.59 0 0 1 .2 12.55 10.2 10.2 0 0 1 -2.2 2.29 9.93 9.93 0 0 1 -2.67 1.49 10.69 10.69 0 0 1 -5.57.56 10.51 10.51 0 0 1 -4.52-1.9 10.86 10.86 0 0 1 -4-5.79 19.14 19.14 0 0 1 -.45-2.62s0 .06 0 .18 0 .31 0 .51a4.57 4.57 0 0 0 .07.84 8.55 8.55 0 0 0 .22 1.13 10.88 10.88 0 0 0 8.65 8 11 11 0 0 0 5.76-.55 10.19 10.19 0 0 0 2.77-1.53 10.53 10.53 0 0 0 2.29-2.37 10.92 10.92 0 0 0 -.21-13 10.92 10.92 0 0 0 -5.17-3.81 10.9 10.9 0 0 0 -10.34 1.79 10.75 10.75 0 0 0 -3.82 6.1 6.71 6.71 0 0 0 -.18 1.13 5.57 5.57 0 0 0 -.06.84v.52s-.03.17-.02.17z" fill="#455a64"/><path d="m251 105.83a17.25 17.25 0 0 1 .37-2.63 10.68 10.68 0 0 1 13.89-7.58 9.61 9.61 0 0 1 2.74 1.38 9.78 9.78 0 0 1 2.28 2.22 10.57 10.57 0 0 1 .2 12.54 10 10 0 0 1 -2.21 2.29 9.73 9.73 0 0 1 -2.66 1.49 10.61 10.61 0 0 1 -10.1-1.34 10.71 10.71 0 0 1 -4-5.79 17.58 17.58 0 0 1 -.45-2.61s0 .06 0 .17v.52a5.6 5.6 0 0 0 .08.83 8.55 8.55 0 0 0 .22 1.13 10.88 10.88 0 0 0 8.65 8 11 11 0 0 0 5.76-.54 10.45 10.45 0 0 0 2.76-1.54 10.17 10.17 0 0 0 2.3-2.37 10.92 10.92 0 0 0 -.21-13 10.08 10.08 0 0 0 -2.37-2.29 10.43 10.43 0 0 0 -2.81-1.45 11 11 0 0 0 -5.77-.36 10.87 10.87 0 0 0 -8.39 8.26 7.83 7.83 0 0 0 -.19 1.13 5.33 5.33 0 0 0 -.05.84v.51c-.04.13-.04.19-.04.19z" fill="#455a64"/><path d="m272.13 105c.06 0 .37-.46 1.08-1a5.42 5.42 0 0 1 3.24-1.2 5.5 5.5 0 0 1 3.28 1.08c.73.55 1 1 1.11 1a2.8 2.8 0 0 0 -.94-1.21 5.13 5.13 0 0 0 -6.88.13 2.78 2.78 0 0 0 -.89 1.2z" fill="#455a64"/><path d="m236.23 101.53a10 10 0 0 0 2.17.45c1.35.21 3.22.41 5.29.59l5.3.48a14.89 14.89 0 0 0 2.2.17 10 10 0 0 0 -2.17-.45c-1.35-.21-3.22-.41-5.29-.59l-5.3-.48a14.89 14.89 0 0 0 -2.2-.17z" fill="#455a64"/><path d="m297.65 112a14 14 0 0 0 2.3-3.7 14.1 14.1 0 0 0 .66-4.3 3.19 3.19 0 0 1 .23 1.3 8.57 8.57 0 0 1 -.52 3.14 8.25 8.25 0 0 1 -1.65 2.72 3.12 3.12 0 0 1 -1.02.84z" fill="#fff"/><path d="m299.5 99.88c.06-.09.5.13.75.65s.15 1 .05 1-.2-.4-.41-.82-.46-.71-.39-.83z" fill="#fff"/><path d="m270.65 109.65c-.06 0 .15-.61.32-1.6a11 11 0 0 0 0-3.88 11.28 11.28 0 0 0 -1.37-3.62c-.52-.86-.93-1.34-.88-1.38a4.2 4.2 0 0 1 1.11 1.22 9.57 9.57 0 0 1 1.53 3.71 9.71 9.71 0 0 1 -.09 4 4.13 4.13 0 0 1 -.62 1.55z" fill="#fff"/><path d="m230 118.94s-.16.23-.4.66a4.16 4.16 0 0 0 -.5 1.94 3.65 3.65 0 0 0 1.08 2.67 3.71 3.71 0 0 0 6-1.09 3.67 3.67 0 0 0 .09-2.88 4.26 4.26 0 0 0 -1.15-1.65 7.5 7.5 0 0 1 -.6-.47 1.63 1.63 0 0 1 .69.35 4 4 0 0 1 1.32 1.67 3.85 3.85 0 0 1 0 3.14 4 4 0 0 1 -6.63 1.19 3.85 3.85 0 0 1 -1.11-2.94 4 4 0 0 1 .65-2 1.78 1.78 0 0 1 .56-.59z" fill="#e0e0e0"/><path d="m294.6 128a3.23 3.23 0 0 0 2 .13 4.06 4.06 0 0 0 1.87-1.16 4.81 4.81 0 0 0 1.22-2.41 4.46 4.46 0 0 0 -.32-2.66 5.09 5.09 0 0 0 -1.37-1.75 8.32 8.32 0 0 0 -1.84-1 1.29 1.29 0 0 1 .58.08 4.49 4.49 0 0 1 1.43.7 5 5 0 0 1 1.53 1.82 4.64 4.64 0 0 1 .38 2.89 5.11 5.11 0 0 1 -1.34 2.59 4.17 4.17 0 0 1 -2.07 1.17 2.74 2.74 0 0 1 -1.61-.09c-.32-.17-.48-.31-.46-.31z" fill="#e0e0e0"/><path d="m252.13 279.86 11.34 3.36a81.13 81.13 0 0 0 9.3 3.38c3.78.87 6.36-.31 6.5-2.4s-2.8-2.38-2.8-2.38a58.09 58.09 0 0 1 -7.27-3.36 12.74 12.74 0 0 1 -4.05-4.61l4.05.56s8.53 6.15 11.74 8 3.92-1.4 4.2-2.38-9.51-10.9-9.51-10.9 9.37 6 11.05 7.51 4.19 2 4.75 1 2.1-1 0-5.12-18.87-15.29-18.87-15.29l4.61-1 5 2.24a12.45 12.45 0 0 0 2.1 4.79c1.82 2.7 5 0 5 0l-1.89-10.26-9.93-6.22s-10.35 1.26-11.88 2-3.22 3.63-3.22 3.63l-2.8 1.13c-4.33 1.26-4.19 5.59-5.59 5.73s-42.2-7.82-42.2-7.82l-3.69-1c-6.1 4.64-8.56 12.31-9.64 19.11 0 0-1.13 3.33 0 5.17z" fill="#ffbf9d"/><path d="m244.68 272.6a2 2 0 0 1 0-.66 3.79 3.79 0 0 1 .06-.78 6.73 6.73 0 0 1 .21-1 14.46 14.46 0 0 1 2.85-5.25 30.43 30.43 0 0 1 4.22-4.23 12 12 0 0 1 2-1.48 18.51 18.51 0 0 1 -1.8 1.69 40.24 40.24 0 0 0 -4.09 4.27 15.73 15.73 0 0 0 -2.89 5.08 24.06 24.06 0 0 0 -.56 2.36z" fill="#ff9a6c"/><path d="m262.35 252.31s-.34.17-.86.6a9.3 9.3 0 0 0 -1.86 2.13 7.18 7.18 0 0 0 -1.38 3.91 5.6 5.6 0 0 1 -.9 2.42 9.33 9.33 0 0 0 -1.35 2.27 6.23 6.23 0 0 0 0 4.32v.15l-.13.08a8.52 8.52 0 0 0 -3.6 4.95 13.36 13.36 0 0 0 -.34 2.44 2.2 2.2 0 0 1 -.08-.66 7.42 7.42 0 0 1 .2-1.84 8.51 8.51 0 0 1 3.62-5.21l-.07.23a6.55 6.55 0 0 1 0-4.6 9.71 9.71 0 0 1 1.41-2.35 5.28 5.28 0 0 0 .86-2.26 9.78 9.78 0 0 1 .5-2.26 11 11 0 0 1 1-1.75 8.31 8.31 0 0 1 2-2.1 3.48 3.48 0 0 1 .69-.39.61.61 0 0 1 .29-.08z" fill="#ff9a6c"/><path d="m272.17 256.88a4.87 4.87 0 0 1 -2.89-.31 4.93 4.93 0 0 1 -2.44-1.58c.07-.1 1.1.69 2.57 1.21s2.76.56 2.76.68z" fill="#ff9a6c"/><path d="m274.79 268.18a26.16 26.16 0 0 1 -4.3-1.64 26.74 26.74 0 0 1 -4.13-2 26.26 26.26 0 0 1 4.29 1.64 26.59 26.59 0 0 1 4.14 2z" fill="#ff9a6c"/><path d="m265.58 273.77a11 11 0 0 1 -2.2-.83 10.08 10.08 0 0 1 -2.14-1 8.57 8.57 0 0 1 4.34 1.79z" fill="#ff9a6c"/><path d="m273.38 268.91a5.49 5.49 0 0 0 -2.71 3.42c-.05 0-.09-.27 0-.7a3.73 3.73 0 0 1 .71-1.54 3.62 3.62 0 0 1 1.33-1c.38-.21.65-.23.67-.18z" fill="#ff9a6c"/><path d="m277.48 262.7c0 .11-.7.5-1.21 1.35a11.63 11.63 0 0 0 -.64 1.69 2 2 0 0 1 .3-1.9c.59-.97 1.53-1.24 1.55-1.14z" fill="#ff9a6c"/><path d="m276.33 251.46c-.05 0-.2-.17-.31-.54a2.91 2.91 0 0 1 .73-2.8c.28-.27.5-.36.53-.32a8.4 8.4 0 0 0 -.88 1.73 6.9 6.9 0 0 0 -.07 1.93z" fill="#ff9a6c"/><path d="m359 255s-.52-10-10.92-12.12-28.6 6.76-28.6 6.76l-51.06 35.58 1.53 4.4 51.8-7.22 4.75 1.82 36.4-23.92 34.34-24.83-3.79-3s-9.62 6.63-16 9.49-15.56 7.85-18.45 13.04z" fill="#f5f5f5"/><path d="m267.64 291.06 43.21-26.84 45.67-7.34a6.3 6.3 0 0 0 6.17 2.51l37.57-26 .74 1.61-72.83 51.15a6.26 6.26 0 0 1 -6.35-1.23z" fill="#455a64"/><path d="m356.52 256.88s-.11.12-.35.29l-1.05.77c-.92.65-2.25 1.61-3.86 2.82-3.24 2.41-7.64 5.85-12.41 9.74s-9 7.51-12.09 10.15l-3.62 3.12-1 .85a2 2 0 0 1 -.36.27 1.75 1.75 0 0 1 .31-.33l.94-.9c.83-.78 2-1.88 3.54-3.23 3-2.69 7.25-6.33 12-10.24s9.2-7.3 12.49-9.66c1.64-1.18 3-2.1 3.94-2.72l1.09-.7a2.38 2.38 0 0 1 .43-.23z" fill="#263238"/><path d="m356.06 251.3c-4.14-4.45-10.66-6-16.72-5.56s-11.81 2.74-17.45 5l-52.89 36.15.47 1.36 53.14-36s11.87-3.85 17.13-4.49c8.83-1.03 16.32 3.54 16.32 3.54z" fill="#e0e0e0"/><path d="m364.35 256.06 25.41-17.14s-20.82 10.82-25.41 17.14z" fill="#e0e0e0"/><path d="m269 286.89.22-.17.65-.47 2.54-1.78 9.39-6.47 31-21.27 9-6.16a63.51 63.51 0 0 1 16.08-4.83 24 24 0 0 1 13.17 1.85 16.44 16.44 0 0 1 4.22 2.84 12.34 12.34 0 0 1 2.35 3 10.25 10.25 0 0 1 .92 2.21c.06.25.1.45.14.6s0 .2 0 .21a11.91 11.91 0 0 0 -1.21-3 12.35 12.35 0 0 0 -2.37-2.92 16.45 16.45 0 0 0 -4.19-2.75 24 24 0 0 0 -13-1.75 64.5 64.5 0 0 0 -16 4.85l-8.91 6.12-31 21.21-9.44 6.38-2.56 1.72-.68.44c-.2.1-.32.15-.32.14z" fill="#263238"/><path d="m315.3 259.54a2.27 2.27 0 0 1 .4-.24c.26-.15.66-.37 1.18-.63 1-.54 2.53-1.29 4.43-2.14a58.19 58.19 0 0 1 15.51-4.75 33.7 33.7 0 0 1 16.08 1.47 24.46 24.46 0 0 1 4.44 2.13c.51.29.86.58 1.12.74a2.1 2.1 0 0 1 .37.29s-.56-.32-1.56-.89a26.86 26.86 0 0 0 -4.47-2 34.43 34.43 0 0 0 -15.93-1.34 60.6 60.6 0 0 0 -15.45 4.61c-1.9.82-3.42 1.53-4.47 2l-1.22.56a1.45 1.45 0 0 1 -.43.19z" fill="#263238"/><path d="m395.9 234.39a1.67 1.67 0 0 1 -.33.25l-1 .65-3.67 2.36c-3.1 2-7.38 4.74-12.07 7.82s-8.91 5.94-12 8l-3.62 2.43-1 .65c-.23.14-.36.22-.37.2l.32-.27.95-.71c.83-.61 2-1.47 3.55-2.53 3-2.13 7.2-5 11.9-8.1s9-5.8 12.14-7.73c1.57-1 2.85-1.73 3.73-2.25l1-.59c.34-.13.47-.2.47-.18z" fill="#263238"/><path d="m372.79 261.9a17.93 17.93 0 0 1 -2 3.53c-1 1.16-4.18 2.78-4.43 5s.27 7.4-3.19 11.34a19.36 19.36 0 0 1 -8.19 5.33l-13.64-1.33-21.79-8.57a1.92 1.92 0 0 1 -1.39-2.29 2.78 2.78 0 0 1 2.27-2.06l.52-.08s-1.25-1 .54-2.82c1.55-1.55 4.8-.67 6.48-.11s11.55 4.69 13.33 5.32c1.56.56 2.77 1.05 2.77 1.05s-12.63-8.52-12.81-9.63a2.43 2.43 0 0 1 1.23-2.89c1.51-1.1 4 .08 6.47 1.1 1.81.76 13.37 6.47 13.37 6.47s.52-.5 0-1.53-4.36-6-5-6.87-.76-1.44-.17-2.21c.85-1.1 3.08-1.62 5.1.25 1.3 1.2 5.9 4.28 5.9 4.28l21.22-15.48s2.64-.06 1.72 3.61-8.31 8.59-8.31 8.59z" fill="#ffbf9d"/><path d="m357 274.8a5.49 5.49 0 0 1 -3.82-3.21c.1-.06.72.88 1.78 1.76s2.04 1.33 2.04 1.45z" fill="#ff9a6c"/><path d="m358.71 265.56s.28-.12.74-.07a3.33 3.33 0 0 1 1.64.73 3.39 3.39 0 0 1 1 1.47c.14.44.11.73.07.74a6.2 6.2 0 0 0 -1.35-1.9 6.35 6.35 0 0 0 -2.1-.97z" fill="#ff9a6c"/><path d="m359.71 269.83c-.11 0-.17-1.14-.62-2.45s-1.09-2.25-1-2.32a4.38 4.38 0 0 1 1.37 2.19 4.24 4.24 0 0 1 .25 2.58z" fill="#ff9a6c"/><path d="m372.28 260.8s-.27-.12-.55-.49a3.5 3.5 0 0 1 -.63-1.65 3.62 3.62 0 0 1 .25-1.75c.19-.42.39-.62.43-.59a7.61 7.61 0 0 0 -.28 2.3 7.74 7.74 0 0 0 .78 2.18z" fill="#ff9a6c"/><path d="m353.09 280.14a3.53 3.53 0 0 1 -1.49 0 10 10 0 0 1 -3.37-1.26 19.11 19.11 0 0 1 -2.9-2.1 4.89 4.89 0 0 1 -1.05-1.05 6.18 6.18 0 0 1 1.23.83 33.86 33.86 0 0 0 2.91 2 12.48 12.48 0 0 0 3.23 1.32 14.27 14.27 0 0 1 1.44.26z" fill="#ff9a6c"/><path d="m356.63 278c.11 0 .12.77-.52 1.4s-1.42.6-1.41.49.6-.25 1.13-.78.69-1.18.8-1.11z" fill="#ff9a6c"/><path d="m361.85 274.13s0 .2-.1.48a1.91 1.91 0 0 1 -.86.79 2 2 0 0 1 -1.17.17c-.3-.06-.45-.18-.43-.23s.71.06 1.42-.3 1.03-.96 1.14-.91z" fill="#ff9a6c"/><path d="m343.47 282.81c0 .1-5.11-2-11.32-4.73s-11.21-5-11.17-5.09 5.12 2 11.33 4.73 11.21 4.99 11.16 5.09z" fill="#ff9a6c"/><path d="m432.82 289.63c0 .11-77.12.2-172.23.2s-172.25-.09-172.25-.2 77.11-.2 172.25-.2 172.23.09 172.23.2z" fill="#263238"/><path d="m98.19 208.14 16.6 81.49h144.08a2.88 2.88 0 0 0 2.88-2.88 2.88 2.88 0 0 0 -2.88-2.88h-29l-15.39-75.78a3.14 3.14 0 0 0 -3-2.52l-110.12-1.21a3.15 3.15 0 0 0 -3.17 3.78z" fill="#e0e0e0"/><path d="m98.19 208.14s0-.08 0-.25a2.76 2.76 0 0 1 0-.74 3.16 3.16 0 0 1 1.53-2.38 3.5 3.5 0 0 1 1-.38 5.24 5.24 0 0 1 1.13-.07h2.6l6.48.06 41.64.39 29 .29 16.26.17 8.53.09h4.36 1.12a3.31 3.31 0 0 1 2.69 2 5.09 5.09 0 0 1 .3 1.11l.22 1.1.45 2.2c.3 1.47.6 2.95.91 4.45q.92 4.47 1.84 9.06 1.88 9.18 3.82 18.77c2.6 12.77 5.3 26.06 8.08 39.75l-.19-.15h28.52a6.18 6.18 0 0 1 1.12.07 3.07 3.07 0 0 1 -.53 6.08h-76.63-67.65-.12v-.12c-5.07-25.05-9.2-45.42-12.06-59.54-1.41-7.06-2.52-12.55-3.27-16.28l-.84-4.25c-.19-1-.28-1.45-.28-1.45s.12.49.32 1.44l.89 4.24c.77 3.73 1.9 9.21 3.35 16.26l12.19 59.52-.15-.12h67.65 76.53a2.69 2.69 0 0 0 1.18-.31 2.72 2.72 0 0 0 1.37-1.95 2.7 2.7 0 0 0 -2.09-3 5.77 5.77 0 0 0 -1-.06h-28.75v-.16c-2.78-13.69-5.48-27-8.07-39.76q-2-9.59-3.8-18.77c-.62-3-1.24-6.08-1.84-9.06-.3-1.49-.6-3-.9-4.45l-.45-2.2-.22-1.1a5.46 5.46 0 0 0 -.28-1 3 3 0 0 0 -1.41-1.49 3 3 0 0 0 -1-.28c-.34 0-.72 0-1.08 0h-4.36l-8.53-.1-16.26-.19-29-.34-41.63-.51-6.48-.09h-2.6a5.68 5.68 0 0 0 -1.11.06 3.34 3.34 0 0 0 -.93.36 3.14 3.14 0 0 0 -1.53 2.33 5.59 5.59 0 0 0 -.04.75z" fill="#263238"/><circle cx="159.83" cy="245.43" fill="#fff" r="4.76"/><path d="m98.33 208.8h.5 7l20.6.1 68 .48 9.83.08h2.42a6.48 6.48 0 0 1 1.23.07 3.62 3.62 0 0 1 1.17.48 3.43 3.43 0 0 1 1.46 2c.18.8.31 1.55.47 2.32 1.22 6.14 2.4 12.06 3.51 17.7l5.93 30 4 20.22c.46 2.37.81 4.22 1.06 5.5.11.62.2 1.09.26 1.43s.08.49.08.49-.05-.16-.12-.48l-.3-1.43-1.13-5.48c-1-4.78-2.36-11.68-4.09-20.19s-3.74-18.69-6-30c-1.12-5.64-2.3-11.56-3.53-17.7-.16-.76-.3-1.55-.47-2.3a3 3 0 0 0 -2.33-2.17 6.18 6.18 0 0 0 -1.16-.07h-2.41l-9.83-.07-68-.6-20.6-.23-5.6-.08h-1.46z" fill="#263238"/></svg>