<svg viewBox="0 0 512 512" xmlns="http://www.w3.org/2000/svg"><path d="m231.83 405.6c-1.83 2.34-156.83 9.3-164.27 7.18a5 5 0 0 1 -1-.44c-9.15-4.27-51.41-43.08-54.56-46.34-7.83-8 24.56-64.5 34.87-73.84 6.86-6.21 19.58-8.64 19.58-8.64s35.91-103.61 58.05-125.31c5.55-5.44 101.69-7.57 118.87.27 7.35 3.35 25.25 21.63 25.74 24.9.42 4.82-35.43 219.85-37.28 222.22z" fill="#37474f"/><path d="m231.83 405.6c-1.83 2.34-156.83 9.3-164.27 7.18a5 5 0 0 1 -1-.44c14.85-40.16 84.69-228.63 86.67-229.85s93.86-.66 115.86.93c.44 4.78-35.41 219.81-37.26 222.18z" fill="#263238"/><path d="m174.89 165.85c-1.55-1.45-2.58-22.52.27-26.71 3.2-4.71 40.06-2.38 42.24 1.63s3.21 25 2.1 25.81-7.26 1.49-8.08.14-.78-18.72-1.42-19.67-26.46-2.6-27.35-1.28 1.27 18.94.24 19.7-6.49 1.8-8 .38z" fill="#37474f"/><path d="m327.23 511.57h-157.08c-9.57-36.5-18.35-68.76-24-89.12-3.52-12.81-5.77-20.93-6.21-22.45l-.07-.27h163.39s1.86 8.54 5 22.9c2 9.25 4.49 20.95 7.37 34.32.24 1.16.51 2.35.75 3.57 3.27 15.31 6.98 32.66 10.85 51.05z" fill="#455a64"/><path d="m194 511.57h-3q-12-44.42-23.53-89l-.64-2.5a.56.56 0 0 1 1.08-.32c.28.94.56 1.88.82 2.82 8.68 29.58 17.01 59.27 25.27 89z" fill="#263238"/><path d="m290.51 400c-.64 5.07-2.63 13.29-5.59 22.9-1.82 5.94-4 12.37-6.52 19-.53 1.5-1.13 3-1.71 4.47-7.92 20.18-18.33 40.73-29 50.49a27.87 27.87 0 0 1 -4.1 3.21l-9.1 5.62a.29.29 0 0 1 0 .13c-.09.55-.41 2.52-.94 5.72h-153.25c-3.91-35.5 4.25-68.72 11.37-89.54a185.16 185.16 0 0 1 8.9-22z" fill="#455a64"/><path d="m272.31 488.2c-9.57 5.49-19.63 9.85-29.73 14.21-2.71 1.17-5.41 2.31-8.16 3.42a5.49 5.49 0 0 1 -.51.21c-2.36 1-4.73 1.92-7.12 2.84s-4.63 1.82-7 2.69h-5.19c3.58-1.81 7.32-3.33 11-4.95q7.57-3.37 15.19-6.71 3.47-1.5 6.92-3h.07c7.92-3.52 15.82-7 24-10 .72-.37 1.22.86.53 1.29z" fill="#263238"/><path d="m234.46 506c0 1.2-.1 3.17-.32 5.62h-1.71c.52-2.3 1-4.18 1.46-5.53a.47.47 0 0 1 .06-.15.24.24 0 0 1 .45-.06.11.11 0 0 1 .06.12z" fill="#263238"/><path d="m115.4 409.55c-2.07 4.13-4 8.35-5.7 12.65a170.36 170.36 0 0 0 -11.56 82.13c.28 2.43.62 4.83 1 7.24h-2.71a168.75 168.75 0 0 1 -1.82-21.17 161.55 161.55 0 0 1 13.39-68.24q2.94-6.71 6.51-13.12c.31-.58 1.19-.04.89.51z" fill="#263238"/><path d="m230.61 463.2c.15-5.9.57-11.8.86-17.69.69-13.92 1.23-27.91 2.52-41.79a.44.44 0 0 1 .87 0c.17 10.77-.24 21.57-.46 32.33-.11 5.39-.27 10.78-.42 16.16a152.94 152.94 0 0 0 -.1 15.44c.29 3.88 1.14 11.42 6.21 11.89 4.76.44 8.55-4.71 9.74-8.49 3-9.58 4.1-19.93 5.08-29.9.58-5.9 1.26-29.93.94-35.89 0-.39.57-.37.59 0 .33 6.08 1.17 12.12 1.37 18.23s.22 12.16-.17 18.22c-.38 5.81-.86 11.65-1.74 17.41-.79 5.18-1.66 10.56-3.74 15.4-1.76 4.08-4.78 7.83-9.36 8.73a9.89 9.89 0 0 1 -1.7.17c0 1.25-.22 2.51-.31 3.74-.14 1.95-.38 3.89-.64 5.83a43.49 43.49 0 0 1 -1.19 5.64 21 21 0 0 1 -2 5.39.3.3 0 0 1 -.55-.16 25.89 25.89 0 0 1 .46-5.56c.26-1.9.53-3.82.92-5.69s.72-3.69 1.1-5.53c.25-1.24.43-2.51.66-3.76a9.07 9.07 0 0 1 -6.76-5.32c-2.13-4.51-2.3-9.87-2.18-14.8z" fill="#263238"/><path d="m220.79 203.75c16.73 22.86 124.21 122.37 193.31 122.31 11.66 0 52.23 4.79 62.45-29.41 11.88-39.77 11-123.94-1.26-162.52-10.15-31.93-84.89 13.63-86.14 33.31-.94 14.89 1.93 62.47-1.1 62.34-19.76-.8-85.91-37.05-147.89-54.88-28.73-8.26-32.26 11.23-19.37 28.85z" fill="#d3766a"/><path d="m477 144.77c-6.38-31.93-23.58-65.61-33.57-74.66s-57.47-25.51-69-27-53 8.42-60.72 15.3c-6.19 5.51 3.34 19.85 26.75 19 21.89-.76 27.09-2 33.31-.72s24.23 17.31 22.13 26.46c-1.24 5.39-14.38 14.11-24.12 11.91s-15.2-12.06-27.09-18.34-29.63-1.53-29.67 3.53 6.35 6.11 18.92 20.7c8.09 9.38 13.35 27.46 30.49 42.94 8.57 7.77 28.72 20.11 28.72 20.11z" fill="#d3766a"/><path d="m440.71 71.18c-11.44-11.83-38.64-31.81-62.33-35.74-16-2.65-62 32.69-58.5 42.14s12.22 7.71 24.82 3.53c4.6-1.53 27.66-15.57 33-11.21 7.63 6.25 20.63 30.32 20.63 30.32z" fill="#d3766a"/><path d="m320.37 73.51c4.17-11.74 16.89-20.16 29.79-27.39.2-.11.39.19.19.3-3.28 1.85-23.65 16.8-29.8 27.23-.07.11-.23-.02-.18-.14z" fill="#263238"/><path d="m440.71 71.18c-11.44-11.83-38.64-31.81-62.33-35.74-16-2.65-49.9 37.46-46.4 46.92s16.18 7.66 29 0c4.15-2.47 17-16.12 22.31-11.77 7.64 6.26 26.32 21.85 26.32 21.85z" fill="#d3766a"/><path d="m350 87.39c5.34-1.59 10.63-6 14.75-9.68 3.6-3.17 7.31-7.11 12-8.54a10 10 0 0 1 6.37 0c2.14.79 3.86 2.44 5.57 3.89 2 1.68 3.87 3.48 5.73 5.3s2.5 2.48 4.33 4.34c.76.78.16 1.22-.7.39a70.42 70.42 0 0 0 -10.17-8c-1.77-1.23-3.72-2.81-5.81-3.46a8.64 8.64 0 0 0 -6.64.91c-4.25 2.3-7.6 6.07-11.63 8.72s-9 6-13.77 6.61c-.25-.05-.3-.42-.03-.48z" fill="#263238"/><path d="m332.16 71.83c2.13-5.44 6.25-10.28 10.19-14.52a116.34 116.34 0 0 1 13.57-12.31q3.7-2.91 7.56-5.62c2.46-1.72 4.92-3.81 7.85-4.56 8-2.08 17 2.62 20.44 3.91.21.08.13.43-.09.35-2.87-1-12.14-4.44-17.16-3.37-3.13.67-5.75 2.47-8.25 4.3-2.19 1.61-4.38 3.22-6.54 4.88-8.75 6.77-17.6 14.63-23.42 24.17-3.23 5.29-5 11.72-1.24 17.2.13.19-.14.38-.3.25-4.22-3.45-4.46-9.96-2.61-14.68z" fill="#263238"/><path d="m461.06 97.89c-9.37-19.65-26.83-47.56-33.65-54.68s-36.12-30.6-46.85-27.12c-13.48 4.36 6 26.28 15.31 35s11.67 26.4 11.67 26.4z" fill="#d3766a"/><path d="m382.32 36.21c3.23 2.72 6.25 5.84 9.19 8.87 2.79 2.86 5.9 5.63 8.24 8.88a36.62 36.62 0 0 1 5 10.81c.58 1.89 1 3.79 1.44 5.71.44 2.1.69 4.26 1.16 6.35.05.22-.28.32-.34.1a91.43 91.43 0 0 0 -3.84-11.13 49.5 49.5 0 0 0 -5.79-10.68c-4.7-6.57-10.74-12-15.5-18.56-.17-.27.21-.56.44-.35z" fill="#263238"/><path d="m386.32 185.88 114.92 26.12s-11.83 91.09-35.67 107.87-82.12 10.13-117.65-11.66-104.1-68-127.08-101.83 2.46-41 26.82-31 136 51.29 137.15 50.51 1.51-40.01 1.51-40.01z" fill="#e11d48"/><path d="m462.77 282.63a4.89 4.89 0 0 1 -2 1 4 4 0 0 1 -3.62-1.11 5 5 0 0 0 -5.65-1 5.31 5.31 0 0 0 -2.07 1.84c-.47.67-1 1.32-1.43 2.08a19.74 19.74 0 0 0 2.14-1.41 6.18 6.18 0 0 1 1.93-1 4 4 0 0 1 3.67 1 5.15 5.15 0 0 0 5.54 1.16 4.94 4.94 0 0 0 2.18-1.78 23.68 23.68 0 0 0 1.38-2.14 22.67 22.67 0 0 0 -2.07 1.36zm-91.24 15.43a4.14 4.14 0 0 1 -5.6-.1 5 5 0 0 0 -5.6-1 5.52 5.52 0 0 0 -2.09 1.84 22.63 22.63 0 0 0 -1.43 2.13 18.89 18.89 0 0 0 2.14-1.42 4.51 4.51 0 0 1 1.93-1 3.85 3.85 0 0 1 3.62 1 5.22 5.22 0 0 0 5.6 1.17 5.06 5.06 0 0 0 2.14-1.78c.45-.71 1-1.38 1.43-2.14-.77.33-1.43.83-2.14 1.3zm45.69-90a4.15 4.15 0 0 1 -1.92 1 3.82 3.82 0 0 1 -3.62-1.13 5.16 5.16 0 0 0 -5.65-1 4.93 4.93 0 0 0 -2.09 1.82c-.45.72-1 1.38-1.43 2.15.76-.47 1.43-1 2.14-1.43a4.12 4.12 0 0 1 2-1 3.77 3.77 0 0 1 3.65.91 5 5 0 0 0 7.74-.62c.46-.71 1-1.37 1.38-2.14-.82.44-1.48.95-2.2 1.38zm-82.13 53.29a21.5 21.5 0 0 0 -.51-2.49c-.2.81-.3 1.62-.52 2.49a5.3 5.3 0 0 1 -.59 2.09 3.83 3.83 0 0 1 -3.28 1.88 5.28 5.28 0 0 0 -4.78 3.15 4.94 4.94 0 0 0 -.25 2.81 20.12 20.12 0 0 0 .52 2.49 24.38 24.38 0 0 0 .5-2.49 4.37 4.37 0 0 1 .71-2.09 3.78 3.78 0 0 1 3.35-1.78 5 5 0 0 0 4.64-3.31 4.71 4.71 0 0 0 .21-2.79zm-10.46-52.38a20.11 20.11 0 0 0 -.5-2.5c-.2.81-.31 1.64-.51 2.5a4.76 4.76 0 0 1 -.62 2.03 3.74 3.74 0 0 1 -3.25 1.89 5 5 0 0 0 -5 5.9 23.24 23.24 0 0 0 .5 2.54 21.15 21.15 0 0 0 .51-2.54 4.51 4.51 0 0 1 .71-2 3.8 3.8 0 0 1 3.33-1.79 5.18 5.18 0 0 0 4.68-3.31 4.79 4.79 0 0 0 .15-2.76zm139.85 101.14a20 20 0 0 0 -.5-2.49c-.21.81-.31 1.63-.51 2.49a4.94 4.94 0 0 1 -.61 2.09 3.78 3.78 0 0 1 -3.26 1.88 5.24 5.24 0 0 0 -4.78 3.16 4.86 4.86 0 0 0 -.25 2.75 22.35 22.35 0 0 0 .5 2.54 20.39 20.39 0 0 0 .51-2.54 4.3 4.3 0 0 1 .72-2 3.78 3.78 0 0 1 3.35-1.78 4.94 4.94 0 0 0 4.83-6.06zm-48.58-54.05a20 20 0 0 0 -.5-2.49c-.2.81-.32 1.63-.52 2.49a4.9 4.9 0 0 1 -.61 2.09 3.72 3.72 0 0 1 -3.27 1.85 5 5 0 0 0 -5 5.91 22.79 22.79 0 0 0 .5 2.54 17.58 17.58 0 0 0 .51-2.54 4.53 4.53 0 0 1 .72-2 3.81 3.81 0 0 1 3.35-1.78 5.23 5.23 0 0 0 4.69-3.3 5.05 5.05 0 0 0 .13-2.77zm48.58-12.35a5.23 5.23 0 0 1 -2-.67 3.86 3.86 0 0 1 -1.78-3.35 5.15 5.15 0 0 0 -3.3-4.69 4.73 4.73 0 0 0 -2.76-.21c-.86.21-1.67.31-2.54.51.87.25 1.68.35 2.54.52a5.19 5.19 0 0 1 2.1.6 3.91 3.91 0 0 1 1.87 3.27 5.21 5.21 0 0 0 3.16 4.78 4.78 4.78 0 0 0 2.75.25 18.76 18.76 0 0 0 2.54-.52c-.9-.2-1.71-.29-2.58-.49zm-44.1 70a5.07 5.07 0 0 1 -2.08-.71 3.9 3.9 0 0 1 -1.79-3.36 5.08 5.08 0 0 0 -3.3-4.68 5.23 5.23 0 0 0 -2.74-.22c-.88.22-1.7.32-2.51.52a21.42 21.42 0 0 0 2.51.51 4.4 4.4 0 0 1 2.07.65 3.88 3.88 0 0 1 1.94 3.27 4.93 4.93 0 0 0 5.9 5 20.12 20.12 0 0 0 2.49-.52c-.87-.24-1.68-.34-2.49-.49zm-50-70a5.05 5.05 0 0 1 -2.09-.67 4.12 4.12 0 0 1 -1.78-3.35 5 5 0 0 0 -3.27-4.69 4.85 4.85 0 0 0 -2.79-.21 25 25 0 0 0 -2.49.51c.82.25 1.68.35 2.49.52a5.58 5.58 0 0 1 2.14.6 4 4 0 0 1 1.88 3.27 5.21 5.21 0 0 0 3.11 4.78 5 5 0 0 0 2.8.25 18.07 18.07 0 0 0 2.49-.52c-.87-.2-1.69-.29-2.51-.49zm-97.7-43.08c-.22-.86-.32-1.68-.52-2.54a25.37 25.37 0 0 0 -.51 2.54 5.14 5.14 0 0 1 -.6 2.09 3.91 3.91 0 0 1 -3.27 1.88 5.15 5.15 0 0 0 -4.79 3.15 4.83 4.83 0 0 0 -.24 2.74 15.5 15.5 0 0 0 .51 2.51c.2-.81.3-1.63.5-2.51a5.07 5.07 0 0 1 .66-2 3.81 3.81 0 0 1 3.36-1.78 5.15 5.15 0 0 0 4.68-3.32 4.78 4.78 0 0 0 .2-2.76zm-44.81-24.43a4.51 4.51 0 0 1 -2.09-.71 4 4 0 0 1 -1.78-3.35 3.55 3.55 0 0 0 -.05-.57c-.7.12-1.36.25-2 .42a.65.65 0 0 1 0 .2 5.23 5.23 0 0 0 3.1 4.78 5 5 0 0 0 2.81.25 18.38 18.38 0 0 0 2.49-.52 22 22 0 0 0 -2.48-.5zm56.43 85.8a4.23 4.23 0 0 1 -2.08-.72 4 4 0 0 1 -1.78-3.35 5.13 5.13 0 0 0 -3.32-4.69 5 5 0 0 0 -2.74-.15 22.4 22.4 0 0 0 -2.49.5c.82.22 1.68.32 2.49.52a4.85 4.85 0 0 1 2.08.61 3.93 3.93 0 0 1 1.94 3.28 5.1 5.1 0 0 0 3.11 4.78 5.42 5.42 0 0 0 2.79.25 22.11 22.11 0 0 0 2.5-.5 17.06 17.06 0 0 0 -2.5-.53z" fill="#fff"/><path d="m382.78 252c-.23-3-.3-5.94-.24-8.91a94.46 94.46 0 0 1 2.32-17.07c.05-.26.49-.2.46.06-.62 5.64-.66 11.38-.9 17q-.18 4.22-.22 8.43c0 2.87-.16 5.79 0 8.65 0 .17-.29.21-.31 0-.41-2.64-.89-5.34-1.11-8.16z" fill="#263238"/><path d="m492.41 238.18c-54.16-14.62-93.35-21.26-100.89-22.36a.16.16 0 0 0 -.09.3c37.66 11.13 97.23 22.45 100.89 22.71.39.03.44-.56.09-.65z" fill="#263238"/><path d="m463.86 321c-24.81 15.34-81.22 8.54-115.94-12.77-35.53-21.79-104.11-68-127.07-101.83-6.06-8.92-8.75-16-9-21.36z" opacity=".1"/><path d="m83.74 433c.16.22 226.78-10.37 228.25-11.77 2.74-2.6-32.29-179.43-69-241.35-6.87-11.59-37.85-28.7-60.34-6.75-67.85 66.21-101.78 255.87-98.91 259.87z" fill="#e11d48"/><path d="m180.74 253.1a4.68 4.68 0 0 1 -2-.71 3.82 3.82 0 0 1 -1.78-3.37 5.21 5.21 0 0 0 -3.3-4.68 5.27 5.27 0 0 0 -2.76-.15 23.3 23.3 0 0 0 -2.54.51c.87.2 1.68.3 2.54.47a5.35 5.35 0 0 1 2.1.64 3.94 3.94 0 0 1 1.87 3.28 5.15 5.15 0 0 0 3.16 4.73 4.81 4.81 0 0 0 2.75.3c.87-.2 1.68-.3 2.49-.52a19.59 19.59 0 0 0 -2.53-.5zm46.15 165a4.76 4.76 0 0 1 -2.08-.72 3.91 3.91 0 0 1 -1.81-3.38 5.08 5.08 0 0 0 -3.3-4.68 5.17 5.17 0 0 0 -2.74-.15c-.82.15-1.68.27-2.49.47a23.81 23.81 0 0 0 2.49.49 5.32 5.32 0 0 1 2.07.67 3.87 3.87 0 0 1 1.95 3.25 5 5 0 0 0 3.1 4.74 4.87 4.87 0 0 0 2.79.31c.81-.2 1.63-.31 2.51-.51-.86-.24-1.68-.34-2.49-.49zm46-164.73a7 7 0 0 0 -1 .23 11.4 11.4 0 0 0 1.16.25 2.06 2.06 0 0 0 -.15-.48zm-45-77.17a4.51 4.51 0 0 1 -2.09-.71 4 4 0 0 1 -1.78-3.35 5 5 0 0 0 -6.06-4.85 24.44 24.44 0 0 0 -2.49.51c.81.2 1.68.3 2.49.52a5 5 0 0 1 2.09.61 3.94 3.94 0 0 1 1.93 3.26 5.23 5.23 0 0 0 3.1 4.78 5 5 0 0 0 2.81.25 18.38 18.38 0 0 0 2.49-.52 22 22 0 0 0 -2.51-.5zm-112.56 145.9a5 5 0 0 1 -2.07-.65 4.13 4.13 0 0 1 -1.78-3.37 5 5 0 0 0 -1.28-3.3c-.28.89-.54 1.77-.83 2.67a2.65 2.65 0 0 1 .07.63 5.19 5.19 0 0 0 3.1 4.78 4.8 4.8 0 0 0 2.79.27 24.26 24.26 0 0 0 2.51-.51c-.84-.2-1.69-.3-2.51-.52zm50 70a5.21 5.21 0 0 1 -2.1-.7 3.92 3.92 0 0 1 -1.73-3.4 5.09 5.09 0 0 0 -3.31-4.68 5.24 5.24 0 0 0 -2.75-.2c-.87.2-1.68.3-2.49.51a19.59 19.59 0 0 0 2.49.5 4.57 4.57 0 0 1 2.09.66 3.89 3.89 0 0 1 1.94 3.26 5 5 0 0 0 3.11 4.73 4.75 4.75 0 0 0 2.79.27 25.19 25.19 0 0 0 2.49-.52c-.86-.19-1.68-.29-2.49-.45zm41.28-68a5 5 0 0 1 -2-.66 3.83 3.83 0 0 1 -1.78-3.35 5.17 5.17 0 0 0 -3.31-4.69 4.62 4.62 0 0 0 -2.75-.2c-.87.2-1.68.3-2.54.5a18.76 18.76 0 0 0 2.54.52 5 5 0 0 1 2.09.61 3.9 3.9 0 0 1 1.88 3.26 5.22 5.22 0 0 0 3.15 4.78 4.81 4.81 0 0 0 2.76.25 22.79 22.79 0 0 0 2.54-.5c-.86-.23-1.68-.33-2.54-.53zm69.21 43.36a4.21 4.21 0 0 1 -2-.71 3.81 3.81 0 0 1 -1.78-3.36 5.16 5.16 0 0 0 -3.3-4.68 5.44 5.44 0 0 0 -2.81-.15c-.81.15-1.63.25-2.49.45a22 22 0 0 0 2.49.51 4.87 4.87 0 0 1 2.14.67 3.82 3.82 0 0 1 1.88 3.25 5.13 5.13 0 0 0 3.1 4.73 4.73 4.73 0 0 0 2.81.3c.86-.2 1.68-.3 2.49-.49a16.91 16.91 0 0 0 -2.49-.53zm-10.24-52.46a6 6 0 0 1 -1.94 1.08 4 4 0 0 1 -3.67-1 5.16 5.16 0 0 0 -5.55-1.17 4.71 4.71 0 0 0 -2.17 1.78c-.47.72-1 1.38-1.43 2.14.76-.46 1.43-1 2.14-1.42a4.88 4.88 0 0 1 1.93-1 4.09 4.09 0 0 1 3.67 1.11 5.14 5.14 0 0 0 5.64 1 5.32 5.32 0 0 0 2.1-1.84c.44-.71 1-1.36 1.36-2.12-.72.44-1.36.97-2.08 1.44zm-84.84-127.14c-.16-.88-.26-1.69-.46-2.51a24.21 24.21 0 0 0 -.52 2.51 5.3 5.3 0 0 1 -.64 2.08 3.8 3.8 0 0 1 -3.28 1.89 5.17 5.17 0 0 0 -4.73 3.16 4.91 4.91 0 0 0 -.3 2.78c.2.82.3 1.63.52 2.5a24.56 24.56 0 0 0 .5-2.5 4.39 4.39 0 0 1 .71-2.07 3.89 3.89 0 0 1 3.37-1.79 5 5 0 0 0 4.83-6zm-19.86 146.61a21.93 21.93 0 0 0 -.49-2.49c-.2.81-.32 1.63-.52 2.49a4.94 4.94 0 0 1 -.61 2.09 3.78 3.78 0 0 1 -3.26 1.88 5 5 0 0 0 -5 5.91 22.35 22.35 0 0 0 .5 2.54 20.39 20.39 0 0 0 .51-2.54 4.3 4.3 0 0 1 .72-2 3.78 3.78 0 0 1 3.35-1.78 5.2 5.2 0 0 0 4.68-3.3 4.86 4.86 0 0 0 .12-2.8zm74.46-61.89c-.2-.81-.3-1.62-.51-2.49a24.94 24.94 0 0 0 -.5 2.49 5.29 5.29 0 0 1 -.66 2.15 3.84 3.84 0 0 1 -3.26 1.89 5 5 0 0 0 -4.73 3.15 4.11 4.11 0 0 0 -.25 2.74c.15.87.25 1.68.45 2.49a19.59 19.59 0 0 0 .51-2.49 5 5 0 0 1 .72-2 3.78 3.78 0 0 1 3.35-1.78 5.15 5.15 0 0 0 4.68-3.3 6.06 6.06 0 0 0 .2-2.85zm-106.92 148.51c-.2-.87-.3-1.68-.52-2.49a21.51 21.51 0 0 0 -.49 2.49 4.53 4.53 0 0 1 -.67 2.09 3.7 3.7 0 0 1 -3.25 1.88 5.17 5.17 0 0 0 -4.74 3.15 4.91 4.91 0 0 0 -.26 2.81c0 .13.05.28.08.41h.85c0-.13.07-.25.1-.38a4.42 4.42 0 0 1 .66-2.1 3.8 3.8 0 0 1 3.36-1.77 5.08 5.08 0 0 0 4.68-3.31 5.24 5.24 0 0 0 .2-2.78zm101.28-195.78a4.62 4.62 0 0 1 -1.95 1 3.74 3.74 0 0 1 -3.6-1.11 5.18 5.18 0 0 0 -5.65-1 5 5 0 0 0 -2.09 1.83c-.46.72-1 1.38-1.43 2.14.77-.46 1.43-1 2.15-1.42a4.15 4.15 0 0 1 1.92-1 3.8 3.8 0 0 1 3.67.92 5 5 0 0 0 7.74-.62c.47-.71 1-1.38 1.38-2.14-.76.43-1.43.95-2.14 1.4zm-67.49 61.12a4 4 0 0 1 -1.92 1 3.77 3.77 0 0 1 -3.62-1.12 5.18 5.18 0 0 0 -5.65-1 4.88 4.88 0 0 0 -2.09 1.83c-.45.71-1 1.37-1.43 2.14.76-.47 1.43-1 2.14-1.43a4.23 4.23 0 0 1 1.94-1 3.79 3.79 0 0 1 3.66.91 5 5 0 0 0 5.54 1.16 5.1 5.1 0 0 0 2.2-1.77c.46-.72 1-1.38 1.37-2.15-.76.47-1.42 1-2.14 1.43zm-45.7 90a3.93 3.93 0 0 1 -1.94 1 3.85 3.85 0 0 1 -3.65-1.08 5 5 0 0 0 -5.6-1 5.51 5.51 0 0 0 -2.09 1.83 19 19 0 0 0 -1.43 2.14 18.54 18.54 0 0 0 2.14-1.43 4.35 4.35 0 0 1 1.93-1 3.86 3.86 0 0 1 3.62 1 5.21 5.21 0 0 0 5.6 1.18 5.28 5.28 0 0 0 2.14-1.78c.45-.71 1-1.38 1.43-2.14a25.34 25.34 0 0 0 -2.15 1.32zm108.25-9.22a4.48 4.48 0 0 1 -2 1 3.91 3.91 0 0 1 -3.6-1.11 5 5 0 0 0 -5.66-1 5.22 5.22 0 0 0 -2.08 1.85c-.46.66-1 1.31-1.43 2.07a18.81 18.81 0 0 0 2.14-1.41 7 7 0 0 1 1.93-1 4 4 0 0 1 3.67 1 5 5 0 0 0 7.74-.61c.45-.72 1-1.38 1.36-2.15-.7.39-1.35.89-2.07 1.4zm60.86 37.25a4.88 4.88 0 0 1 -1.92 1 4 4 0 0 1 -3.67-1.11 5.08 5.08 0 0 0 -5.6-1 4.64 4.64 0 0 0 -2.09 1.82 24.9 24.9 0 0 0 -1.43 2.14c.77-.46 1.43-1 2.14-1.42a4.79 4.79 0 0 1 1.95-1.07 3.79 3.79 0 0 1 3.6 1 5.22 5.22 0 0 0 5.6 1.16 5 5 0 0 0 2.14-1.78c.46-.71 1-1.38 1.43-2.14-.77.47-1.43.99-2.15 1.44z" fill="#fff"/><path d="m157.31 305.21h186.26v35.67h-186.26z" fill="#37474f" transform="matrix(-.13502387 .99084235 -.99084235 -.13502387 604.35 118.51)"/><path d="m192.66 310.03h186.26v35.67h-186.26z" fill="#263238" transform="matrix(-.13502387 .99084235 -.99084235 -.13502387 649.23 88.95)"/><path d="m233.03 369.32h17.36v35.67h-17.36z" fill="#e11d48" transform="matrix(-.13502387 .99084235 -.99084235 -.13502387 657.96 199.93)"/><path d="m241.51 346.1h6.73v35.67h-6.73z" fill="#e11d48" transform="matrix(-.13502387 .99084235 -.99084235 -.13502387 638.54 170.44)"/><path d="m197.53 310.84h200.15v32.15h-200.15z" fill="#c7c7c7" transform="matrix(-.13502387 .99084235 -.99084235 -.13502387 661.71 76.18)"/><path d="m298.38 233.67h19.46v32.15h-19.46z" fill="#e11d48" transform="matrix(-.13502387 .99084235 -.99084235 -.13502387 597.17 -21.83)"/><path d="m301.22 254.48h8.12v32.15h-8.12z" fill="#e11d48" transform="matrix(-.13502387 .99084235 -.99084235 -.13502387 614.58 4.6)"/><path d="m278.96 376.24h19.46v32.15h-19.46z" fill="#e11d48" transform="matrix(-.13502387 .99084235 -.99084235 -.13502387 716.39 159.23)"/><path d="m313.24 233.12h60.76v200.33h-60.76z" fill="#ebebeb" transform="matrix(.99084235 .13502387 -.13502387 .99084235 48.14 -43.34)"/><path d="m242.06 323.39h184.78v26.71h-184.78z" fill="#455a64" transform="matrix(-.13502387 .99084235 -.99084235 -.13502387 713.27 50.83)"/><path d="m280.23 316.78h184.78v50.34h-184.78z" fill="#37474f" transform="matrix(-.13502387 .99084235 -.99084235 -.13502387 761.75 18.91)"/><path d="m242.06 326.17h184.78v21.17h-184.78z" fill="#fff" transform="matrix(-.13502387 .99084235 -.99084235 -.13502387 713.27 50.83)"/><path d="m351.48 257.9-2.72 21.43-2.84 21.42-5.7 42.82-5.97 42.79-2.99 21.4-3.12 21.37 2.72-21.43 2.84-21.41 5.7-42.83 5.97-42.79 2.99-21.39z" fill="#dbdbdb"/><path d="m347.36 257.34-2.71 21.43-2.85 21.41-5.69 42.83-5.97 42.79-2.99 21.4-3.12 21.37 2.72-21.43 2.84-21.41 5.7-42.83 5.97-42.79 2.99-21.39z" fill="#dbdbdb"/><path d="m343.25 256.78-2.72 21.43-2.84 21.41-5.7 42.83-5.97 42.79-2.99 21.39-3.11 21.38 2.71-21.43 2.85-21.41 5.69-42.83 5.97-42.79 2.99-21.4z" fill="#dbdbdb"/><path d="m339.13 256.22-2.71 21.43-2.85 21.41-5.69 42.83-5.97 42.79-2.99 21.39-3.12 21.38 2.71-21.43 2.85-21.41 5.7-42.83 5.97-42.79 2.99-21.4z" fill="#dbdbdb"/><path d="m184.15 173.48c-2.79-3.37 15.21-13.3 19.9-9.54s28.33 62.19 20.65 125.58-133.82 131.65-138.45 122.18c-2-4 .54-15.1 3.61-18.65 4.33-5 95.37-60 104.36-99.3 8-34.95-2.96-111.68-10.07-120.27z" fill="#455a64"/><path d="m152.69 218.37c-38.37 92.63-73.09 222.69-35.02 240.63 25.29 11.91 75.59-83.62 76.07-85.37 1.65-5.95 2.8-83.2 4.62-153.87 1.69-65.31-28.53-42.76-45.67-1.39z" fill="#e11d48"/><path d="m180.74 253.1a4.68 4.68 0 0 1 -2-.71 3.82 3.82 0 0 1 -1.78-3.37 5.21 5.21 0 0 0 -3.3-4.68 5.27 5.27 0 0 0 -2.76-.15 23.3 23.3 0 0 0 -2.54.51c.87.2 1.68.3 2.54.47a5.35 5.35 0 0 1 2.1.64 3.94 3.94 0 0 1 1.87 3.28 5.15 5.15 0 0 0 3.16 4.73 4.81 4.81 0 0 0 2.75.3c.87-.2 1.68-.3 2.49-.52a19.59 19.59 0 0 0 -2.53-.5zm-63.89 69.32c0 .15-.07.31-.12.46a10 10 0 0 0 1.11-.26 7.88 7.88 0 0 0 -.99-.2zm48.52 69.66a5.21 5.21 0 0 1 -2.1-.7 3.92 3.92 0 0 1 -1.77-3.38 5.09 5.09 0 0 0 -3.31-4.68 5.24 5.24 0 0 0 -2.75-.2c-.87.2-1.68.3-2.49.51a19.59 19.59 0 0 0 2.49.5 4.57 4.57 0 0 1 2.09.66 3.89 3.89 0 0 1 1.94 3.26 5 5 0 0 0 3.11 4.73 4.75 4.75 0 0 0 2.79.27 25.19 25.19 0 0 0 2.49-.52c-.86-.19-1.68-.29-2.49-.45zm28.86-76.39a17.14 17.14 0 0 0 1.87.42c0-.25 0-.52 0-.78-.61.11-1.23.21-1.87.36zm-13.49-127.83c-.16-.88-.26-1.69-.46-2.51a24.21 24.21 0 0 0 -.52 2.51 5.3 5.3 0 0 1 -.64 2.08 3.8 3.8 0 0 1 -3.28 1.89 5.17 5.17 0 0 0 -4.73 3.16 4.91 4.91 0 0 0 -.3 2.78c.2.82.3 1.63.52 2.5a24.56 24.56 0 0 0 .5-2.5 4.39 4.39 0 0 1 .71-2.07 3.89 3.89 0 0 1 3.37-1.79 5 5 0 0 0 4.83-6zm-19.86 146.61a21.93 21.93 0 0 0 -.49-2.49c-.2.81-.32 1.63-.52 2.49a4.94 4.94 0 0 1 -.61 2.09 3.78 3.78 0 0 1 -3.26 1.88 5 5 0 0 0 -5 5.91 22.35 22.35 0 0 0 .5 2.54 20.39 20.39 0 0 0 .51-2.54 4.3 4.3 0 0 1 .72-2 3.78 3.78 0 0 1 3.35-1.78 5.2 5.2 0 0 0 4.68-3.3 4.86 4.86 0 0 0 .12-2.8zm-32.46 86.62c-.2-.87-.3-1.68-.52-2.49a21.51 21.51 0 0 0 -.49 2.49 4.53 4.53 0 0 1 -.67 2.09 3.7 3.7 0 0 1 -3.25 1.88 5.17 5.17 0 0 0 -4.74 3.15 4.91 4.91 0 0 0 -.26 2.81c.17.81.26 1.62.51 2.49.2-.87.3-1.68.52-2.49a4.42 4.42 0 0 1 .66-2.1 3.8 3.8 0 0 1 3.36-1.77 5.08 5.08 0 0 0 4.68-3.31 5.24 5.24 0 0 0 .2-2.75zm33.79-134.66a4 4 0 0 1 -1.92 1 3.77 3.77 0 0 1 -3.62-1.12 5.18 5.18 0 0 0 -5.65-1 4.88 4.88 0 0 0 -2.09 1.83c-.45.71-1 1.37-1.43 2.14.76-.47 1.43-1 2.14-1.43a4.23 4.23 0 0 1 1.94-1 3.79 3.79 0 0 1 3.66.91 5 5 0 0 0 5.54 1.16 5.1 5.1 0 0 0 2.2-1.77c.46-.72 1-1.38 1.37-2.15-.76.47-1.42 1-2.14 1.43zm-45.7 90a3.93 3.93 0 0 1 -1.94 1 3.85 3.85 0 0 1 -3.65-1.08 5 5 0 0 0 -5.6-1 1.27 1.27 0 0 0 -.36.2c-.12.61-.22 1.23-.32 1.84a3.57 3.57 0 0 1 1.23-.51 3.86 3.86 0 0 1 3.62 1 5.21 5.21 0 0 0 5.6 1.18 5.28 5.28 0 0 0 2.14-1.78c.45-.71 1-1.38 1.43-2.14a25.34 25.34 0 0 0 -2.15 1.33z" fill="#fff"/><path d="m201.25 273.93c-.57 4.24-1.1 8.5-1.53 12.76 0-1.05-.05-2.1-.1-3.15-.37-8.55-.83-17.1-1.28-25.64 0-.18-.3-.15-.3 0-.15 15.15-.45 30.3-.66 45.45s-.38 30.25-1.38 45.36c-.53 8.57-1.07 17.22-2.26 25.76 0 .18.26.23.29 0 1.24-7.54 2.56-15 3.42-22.61s1.55-15.06 1.94-22.6q.88-17.08.55-34.1a195.34 195.34 0 0 0 1.82-21.16c.01-.32-.47-.34-.51-.07z" fill="#263238"/><path d="m143 242q-5 12.22-9.76 24.56c.67-3.79 1.47-7.55 2.27-11.31.06-.24-.33-.39-.42-.14a56.23 56.23 0 0 0 -3 14.44c-5.55 14.7-10.69 29.56-15.18 44.63-7.27 24.34-13 49.29-15.31 74.63a208.55 208.55 0 0 0 .07 42.32.18.18 0 0 0 .36 0 361.31 361.31 0 0 1 1.49-37.94 350.09 350.09 0 0 1 5.74-37.29c5.13-24.76 12.62-49 20.76-72.94 4.61-13.54 9.23-27.08 13.73-40.66.25-.5-.55-.76-.75-.3z" fill="#263238"/><path d="m111.46 452.75c26.66 27.67 136.92 17 207.6-1.69 13.45-3.55-25.69-123.6-39.55-118.19-79.09 30.85-197.25 89.57-168.05 119.88z" fill="#d3766a"/><path d="m416.42 332.11c-.58 13.31-8.69 11.48-8.69 11.48s7.6 5.2 9.35 13.87c2 9.92-12.69 17.42-12.69 17.42s6.6 6.85 7.53 16.19c1 9.7-12.78 19.37-12.78 19.37s2.64 9.76-2.35 18.41c-8.54 14.79-88 28.12-109.39 29.24l-20.08-119.44s72.3-38.34 91.9-36.46c16.5 1.59 58.07 9.57 57.2 29.92z" fill="#d3766a"/><path d="m407.47 343.2c-17.14-5.9-35.67-7.68-53.57-9.2a.31.31 0 0 0 0 .62c17.81 1.31 35.71 7.41 53.43 9.42a.44.44 0 0 0 .14-.84z" fill="#263238"/><path d="m404 373.51c-3.92-1.22-8.23-1.14-12.3-1.28-4.38-.16-8.76-.23-13.14-.24-8.77 0-17.54.16-26.3.6-.39 0-.45.62-.05.62 8.75 0 17.49.2 26.22.6q6.55.3 13.1.71c4.06.24 8.33.85 12.37.18a.62.62 0 0 0 .1-1.19z" fill="#263238"/><path d="m398.77 410.43c-3.37-1.19-7.61-.63-11.13-.56q-6 .11-12 .16c-8 .06-16 .12-24-.1-.39 0-.44.61 0 .62 8.12.26 16.23.63 24.35.82q6 .15 12 .22c3.39 0 7.62.48 10.85-.76a.22.22 0 0 0 -.07-.4z" fill="#263238"/><path d="m271.33 332.07 21.89 133.66s-173.1 22.76-186.37-19 164.48-114.66 164.48-114.66z" fill="#e11d48"/><path d="m226.89 418.1a4.76 4.76 0 0 1 -2.08-.72 3.91 3.91 0 0 1 -1.81-3.38 5.08 5.08 0 0 0 -3.3-4.68 5.17 5.17 0 0 0 -2.74-.15c-.82.15-1.68.27-2.49.47a23.81 23.81 0 0 0 2.49.49 5.32 5.32 0 0 1 2.07.67 3.87 3.87 0 0 1 1.95 3.25 5 5 0 0 0 3.1 4.74 4.87 4.87 0 0 0 2.79.31c.81-.2 1.63-.31 2.51-.51-.86-.24-1.68-.34-2.49-.49zm41.53 40.8a5 5 0 0 1 -2.07-.65 4 4 0 0 1 -1.8-3.37 5.1 5.1 0 0 0 -3.3-4.68 4.75 4.75 0 0 0 -2.74-.2c-.82.2-1.7.31-2.51.51a21.85 21.85 0 0 0 2.51.5 5.54 5.54 0 0 1 2.07.61 4 4 0 0 1 1.95 3.26 5 5 0 0 0 3.1 4.78 4.76 4.76 0 0 0 2.79.27 24.61 24.61 0 0 0 2.49-.52c-.86-.2-1.68-.3-2.49-.51zm-103-66.82a5.21 5.21 0 0 1 -2.1-.7 3.92 3.92 0 0 1 -1.82-3.38 4.32 4.32 0 0 0 -.14-1.08l-1.89 1.16a5 5 0 0 0 3.11 4.7 4.75 4.75 0 0 0 2.79.27 25.19 25.19 0 0 0 2.49-.52c-.86-.19-1.68-.29-2.49-.45zm111.79-24.41c-.42-.09-.85-.14-1.3-.22a4.21 4.21 0 0 1 -2-.71 3.81 3.81 0 0 1 -1.78-3.36 5.16 5.16 0 0 0 -3.3-4.68 5.44 5.44 0 0 0 -2.81-.15c-.81.15-1.63.25-2.49.45a22 22 0 0 0 2.49.51 4.87 4.87 0 0 1 2.14.67 3.82 3.82 0 0 1 1.88 3.25 5.13 5.13 0 0 0 3.1 4.73 4.73 4.73 0 0 0 2.81.3c.47-.11.93-.18 1.38-.26zm-58.51 89.82a18 18 0 0 0 -.51-2.49c-.2.81-.3 1.62-.5 2.49a5.31 5.31 0 0 1 -.61 2.07 3.79 3.79 0 0 1 -3.26 1.89 5.21 5.21 0 0 0 -4.78 3.16 4.6 4.6 0 0 0 -.27 2.74 22.89 22.89 0 0 0 .52 2.54 25.37 25.37 0 0 0 .51-2.54 4.23 4.23 0 0 1 .72-2 3.75 3.75 0 0 1 3.35-1.79 5.07 5.07 0 0 0 4.63-3.3 4.75 4.75 0 0 0 .15-2.77zm-90.23-36.4c-.2-.87-.3-1.68-.52-2.49a21.51 21.51 0 0 0 -.49 2.49 4.53 4.53 0 0 1 -.67 2.09 3.7 3.7 0 0 1 -3.25 1.88 5.17 5.17 0 0 0 -4.74 3.15 4.91 4.91 0 0 0 -.26 2.81c.17.81.26 1.62.51 2.49.2-.87.3-1.68.52-2.49a4.42 4.42 0 0 1 .66-2.1 3.8 3.8 0 0 1 3.36-1.77 5.08 5.08 0 0 0 4.68-3.31 5.24 5.24 0 0 0 .15-2.75zm96.34-53.84a4.48 4.48 0 0 1 -2 1 3.91 3.91 0 0 1 -3.6-1.11 5 5 0 0 0 -5.66-1 5.22 5.22 0 0 0 -2.08 1.85c-.46.66-1 1.31-1.43 2.07a18.81 18.81 0 0 0 2.14-1.41 7 7 0 0 1 1.93-1 4 4 0 0 1 3.67 1 5 5 0 0 0 7.74-.61c.45-.72 1-1.38 1.36-2.15-.75.35-1.4.85-2.12 1.36zm58.59 38.26a4 4 0 0 1 -3.32-1.16 5.08 5.08 0 0 0 -5.6-1 4.64 4.64 0 0 0 -2.09 1.82 24.9 24.9 0 0 0 -1.43 2.14c.77-.46 1.43-1 2.14-1.42a4.79 4.79 0 0 1 1.95-1.07 3.79 3.79 0 0 1 3.6 1 5.28 5.28 0 0 0 5 1.36zm-100.17 27.28a4.75 4.75 0 0 1 -2 1 3.94 3.94 0 0 1 -3.6-1.13 5.1 5.1 0 0 0 -5.65-1 5 5 0 0 0 -2.09 1.83c-.46.71-1 1.38-1.43 2.09.77-.42 1.43-.91 2.14-1.38a5.24 5.24 0 0 1 1.93-1.06 3.94 3.94 0 0 1 3.67 1 5.12 5.12 0 0 0 5.55 1.16 5.44 5.44 0 0 0 2.19-1.77c.45-.72 1-1.38 1.38-2.14-.71.39-1.32.96-2.09 1.4z" fill="#fff"/><path d="m248.68 351.35c4.2 58.17 11.1 98.88 12.6 106.65a.17.17 0 0 0 .33 0c-2-40.79-11.26-103.09-12.26-106.76-.1-.43-.7-.24-.67.11z" fill="#263238"/><path d="m273.33 335.61c-.49-1.55-1.31-5.92-2.05-5.63-2.61 1-5.28 1.8-7.88 2.82s-4.92 1.95-7.36 2.95c-5 2.06-10 4.23-15 6.44q-14.76 6.6-29.14 14t-28.3 15.62c-9.24 5.45-18.42 11.13-27.22 17.27l-1.66 1.16a62.5 62.5 0 0 0 -10.93 3.21c-4.12 1.67-8.08 3.63-12 5.67a.15.15 0 0 0 .13.27 87.34 87.34 0 0 1 12.3-4.76c2.51-.77 5-1.55 7.54-2.3-8.38 5.89-16.7 11.9-24.63 18.39-.15.12 0 .32.19.22 9-6.1 17.91-12.32 27.12-18.08s18.27-11.4 27.59-16.79c18.53-10.73 37.5-20.69 57-29.63q8.16-3.75 16.41-7.24c2.82-1.2 5.63-2.4 8.46-3.56 2.41-1 4.28-1.89 6.7-2.89.36 1.11.71 2.11 1.09 3.22.44 1.34 2.08 1.03 1.64-.36z" fill="#263238"/><path d="m284.44 95.48c-4.35 8.38-8.88 16.19-4 28.13 3.43 8.42 14.76 16.72 14.76 16.72l14.08-3.55s5.94-11.39 4.39-23c-1.65-12.32-14.26-21.4-14.26-21.4z" fill="#263238"/><path d="m295.36 138.42c-3.11 8.91-6.48 17.28 0 28.41 4.58 7.85 17 14.46 17 14.46l13.43-5.52s4.27-12.11 1.08-23.36c-3.38-11.95-17.15-19.16-17.15-19.16z" fill="#263238"/><path d="m311.82 180c.3 9.43.16 18.46 10.22 26.51 7.1 5.68 21 7.39 21 7.39l10.56-10s-.37-12.83-7.38-22.18c-7.46-9.94-22.9-11.72-22.9-11.72z" fill="#263238"/><path d="m343.08 213.89s-2 16.22 11.14 26.6 46.13 4 46.13 4-11.18-4-15.56-13.35-11-27.57-31.15-27.27z" fill="#263238"/><path d="m336.31 206.82h26.58v8.51h-26.58z" fill="#e11d48" transform="matrix(.71739715 -.69666443 .69666443 .71739715 -48.24 303.23)"/><path d="m199.09 162.17c-20.77 9.09-10.1 36.4.8 49.75 12.29 15 33 24.25 39.46 21.08s-.51-23-.51-23 13.09 14.65 17.73 13-.6-28.92-13.24-42.79c-13.76-15.09-32.22-23.3-44.24-18.04z" fill="#fff"/><path d="m198.5 174.07c2.13 3.79 19.39 32.78 38.72 32.94 6.3 0 8.06-34.32 8.06-34.32l.71-2.51 9.92-35.1-46.11-33s-14.92 65.54-11.3 71.99z" fill="#d3766a"/><path d="m206 119.88a125.68 125.68 0 0 0 3.25 12.77c8.79 28.44 25.17 36.89 36.32 39.21l.46-1.69 9.92-35.1-46.12-33s-1.75 7.58-3.83 17.81z" fill="#263238"/><path d="m191.92 105c-6.45 6.88-12.94 13.17-11.52 26 1 9 9.65 20.1 9.65 20.1l14.52.41s8.81-9.33 10.47-20.9c1.76-12.3-7.9-24.48-7.9-24.48z" fill="#263238"/><path d="m190.75 149.24c-5.41 7.73-10.94 14.87-7.71 27.35 2.27 8.8 12.41 18.53 12.41 18.53l14.43-1.65s7.39-10.5 7.39-22.18c0-12.43-11.29-23.11-11.29-23.11z" fill="#263238"/><path d="m195.28 193.73c-2.28 9.15-4.87 17.8 2.62 28.29 5.29 7.4 18.24 12.83 18.24 12.83l12.86-6.72s3.14-12.45-1.07-23.36c-4.46-11.59-18.84-17.51-18.84-17.51z" fill="#263238"/><path d="m216.14 234.85s-6.3 15.07 3.48 28.63 43.29 16.44 43.29 16.44-9.66-6.93-11.34-17.08-3.06-29.52-22.56-34.71z" fill="#263238"/><path d="m209.89 229.67h26.58v8.51h-26.58z" fill="#e11d48" transform="matrix(.87989749 -.47516356 .47516356 .87989749 -84.35 134.16)"/><path d="m313.05 77.85c9.68 65.25-28.3 78.41-42.38 80.48-12.77 1.89-56.51 6.67-72.88-57.23s10.91-89 39.9-94.88 65.68 6.38 75.36 71.63z" fill="#d3766a"/><g fill="#263238"><path d="m294.71 67.94a42.73 42.73 0 0 1 -4.67-.5c-1.79-.21-3.24-.19-4.67-1.42a2.42 2.42 0 0 1 -.3-2.94c1.32-1.87 3.58-2.16 5.75-2a8.8 8.8 0 0 1 5.82 2.54c1.65 1.59.19 4.38-1.93 4.32z"/><path d="m249.17 72.61a45.59 45.59 0 0 0 4.47-1.43c1.72-.57 3.14-.84 4.29-2.33a2.41 2.41 0 0 0 -.3-2.94c-1.67-1.57-3.94-1.4-6-.8a8.85 8.85 0 0 0 -5.19 3.66c-1.33 1.87.66 4.29 2.73 3.84z"/><path d="m255.58 81.75c-7.46.36-6.19 15.26.73 14.93s5.53-15.24-.73-14.93z"/><path d="m252.72 82.78c-1.23 1-2.37 2.56-3.93 2.85-1.8.33-3.3-1.11-4.62-2.51-.14-.15-.25 0-.24.19.2 2.86 1.55 5.7 4.65 5.86 2.82.15 4.61-2.55 5.08-5.48.09-.54-.44-1.29-.94-.91z"/><path d="m290.27 77.58c7.39-1.14 9.13 13.71 2.29 14.77s-8.48-13.81-2.29-14.77z"/><path d="m293.49 78.2c1.26.65 2.59 1.94 4 1.87 1.64-.09 2.65-1.83 3.51-3.5.09-.17.22-.06.25.14.41 2.83-.18 5.9-2.84 6.76-2.43.79-4.55-1.43-5.55-4.18-.19-.51.14-1.36.63-1.09z"/><path d="m266 121.71c1.15 1 2.32 2.49 4 2.56a12.24 12.24 0 0 0 4.93-1.36.16.16 0 0 1 .21.22 6.22 6.22 0 0 1 -5.77 2.75c-2.11-.28-3.22-2-3.81-3.94-.05-.27.3-.38.44-.23z"/><path d="m283.68 103.16s1.63 6.79 1.94 10c0 .31-.74.53-1.84.7 0 0-.08 0-.12 0a15.55 15.55 0 0 1 -15.57-4.31c-.25-.3.13-.67.44-.5 4.59 2.73 9.41 3.08 14.5 2.67.14-.92-3.17-11.67-2.66-11.63 2.2.15 6.1.74 7.55.95-1-4.44-4.29-16.9-6-25-.11-.51.66-.75.82-.29 4.4 11.93 6.5 18.22 8.79 27.73.16.81-6.53.11-7.85-.32z"/><path d="m283.28 111.43s-2.23 4.91-6.2 7.36a8.48 8.48 0 0 1 -5 1.4c-3.88-.17-4.7-3.52-4.64-6.55a20.57 20.57 0 0 1 .7-4.76 24.61 24.61 0 0 0 15.14 2.55z"/></g><path d="m277.08 118.79a8.48 8.48 0 0 1 -5 1.4c-3.88-.17-4.7-3.52-4.64-6.55 4.02-.44 8.49 1.36 9.64 5.15z" fill="#ff9bbc"/><path d="m202.1 98.34c12.28 1.4 15.08-26.71 15.08-26.71s52.12-9.49 56-52.06c0 0 9.28 27 36.78 38.93 0 0 2.49-51.92-39.46-55.2 0 0-52.26-14.6-77.6 22.1s.96 72 9.2 72.94z" fill="#263238"/><path d="m273.35 16.42a46.29 46.29 0 0 1 -2.09 19.44 48.25 48.25 0 0 1 -9.65 17.29 40.43 40.43 0 0 1 -3.48 3.57l-1.79 1.74c-.64.52-1.31 1-2 1.51-1.34 1-2.64 2-4 2.93s-2.88 1.63-4.33 2.4c-.73.39-1.44.81-2.18 1.16l-2.29.92-4.54 1.82c-3.15.91-6.33 1.67-9.49 2.37 3-1.35 6-2.37 9-3.72l4.29-2.16 2.15-1.07c.68-.4 1.34-.86 2-1.29 1.32-.88 2.65-1.75 4-2.58s2.48-2 3.72-3l1.84-1.48 1.67-1.68a38.87 38.87 0 0 0 3.25-3.42 55.35 55.35 0 0 0 9.76-16.12 58.33 58.33 0 0 0 2.75-9.05 55.38 55.38 0 0 0 1.41-9.58z" fill="#263238"/><g fill="#263238" opacity=".5"><circle cx="226.92" cy="105.3" r="1.02"/><path d="m245.13 102.49a1 1 0 1 1 -1-1 1 1 0 0 1 1 1z"/><path d="m256.9 102.15a1 1 0 0 1 -2 0 1 1 0 1 1 2 0z"/><path d="m261.89 110.41a1 1 0 1 1 -1-1 1 1 0 0 1 1 1z"/><path d="m236.79 112.54a1 1 0 1 1 -1-1 1 1 0 0 1 1 1z"/><path d="m250 113.56a1 1 0 1 1 -1-1 1 1 0 0 1 1 1z"/><path d="m235.77 97.38a1 1 0 1 1 -1-1 1 1 0 0 1 1 1z"/><path d="m294.54 101.07a1 1 0 0 1 -2 0 1 1 0 1 1 2 0z"/><path d="m309.19 96a1 1 0 1 1 -1-1 1 1 0 0 1 1 1z"/><path d="m313.07 90.65a1 1 0 0 1 -2 0 1 1 0 1 1 2 0z"/><path d="m305.23 104.24a1 1 0 0 1 -2 0 1 1 0 1 1 2 0z"/><path d="m312.43 102.15a1 1 0 1 1 -1-1 1 1 0 0 1 1 1z"/><path d="m299 94a1 1 0 1 1 -2 0 1 1 0 0 1 2 0z"/></g><path d="m251.9 113.58a23.73 23.73 0 1 1 23-29.63 23.76 23.76 0 0 1 -23 29.62zm-.07-44.3a20.56 20.56 0 1 0 19.95 15.46 20.68 20.68 0 0 0 -19.95-15.46z" fill="#dbdbdb"/><path d="m303.89 106.86c-9.08 0-17.33-9.27-18.8-21.57a28.38 28.38 0 0 1 3-17.07c2.78-5 6.94-8 11.72-8.58s9.55 1.42 13.42 5.59a28.41 28.41 0 0 1 6.93 15.89c1.54 13-5.07 24.5-14.74 25.65a13.56 13.56 0 0 1 -1.53.09zm-2.48-44.14a9.66 9.66 0 0 0 -1.2.07c-3.75.45-7.06 2.93-9.33 7a25.17 25.17 0 0 0 -2.64 15.15c1.34 11.25 8.86 19.65 16.82 18.7s13.31-10.87 12-22.13a25.14 25.14 0 0 0 -6.12-14.1c-2.84-3.07-6.18-4.7-9.53-4.69z" fill="#dbdbdb"/><path d="m274.62 86.74-1.95-1.83c2.71-2.89 9.28-7.12 14.74-2.5l-1.72 2c-4.89-4.1-10.82 2.07-11.07 2.33z" fill="#dbdbdb"/><path d="m179.34 103.29-2.5-.93c.44-1.17 4.45-11.46 10.26-13.13 5.44-1.55 41.44-2.44 43-2.48l.06 2.67c-10.32.25-38.09 1.17-42.29 2.38-3.87 1.1-7.46 8.67-8.53 11.49z" fill="#dbdbdb"/><path d="m210.91 100.18s-16.11-20.3-25.41-14.42 3.71 35.92 15.26 39.44 15-7.11 15-7.11z" fill="#d3766a"/><path d="m189.44 94.28c-.18 0-.2.25 0 .3 8.11 2.73 12.73 9.82 16.11 17.26-2.53-2.79-5.83-4.2-9.59-1.16-.2.16 0 .47.24.41 3.2-.89 5.58-.47 7.93 2a34.39 34.39 0 0 1 4.1 6.07c.42.68 1.67.22 1.35-.57l-.07-.18c-.46-10.12-9.16-23.77-20.07-24.13z" fill="#263238"/></svg>