<svg id="Layer_1" data-name="Layer 1" xmlns="http://www.w3.org/2000/svg" viewBox="0 0 512 324.18">
  <g>
    <g>
      <path d="M389.78,126.92h90.69L465.7,137.58v21a4.38,4.38,0,0,1-4.38,4.38H389.78a4.39,4.39,0,0,1-4.38-4.38V131.3A4.39,4.39,0,0,1,389.78,126.92Z" style="fill: #f5f5f5"/>
      <path d="M393.57,141.74c0,.09,13.67.16,30.54.16s30.55-.07,30.55-.16-13.67-.16-30.55-.16S393.57,141.65,393.57,141.74Z" style="fill: #e0e0e0"/>
      <path d="M393.57,149.79c0,.09,13.67.16,30.54.16s30.55-.07,30.55-.16-13.67-.16-30.55-.16S393.57,149.7,393.57,149.79Z" style="fill: #e0e0e0"/>
    </g>
    <g>
      <rect x="247.81" y="49.53" width="4.24" height="14.22" style="fill: #e0e0e0"/>
      <rect x="212.36" y="47.47" width="4.24" height="16.28" style="fill: #e0e0e0"/>
      <rect x="221.22" y="44.08" width="4.24" height="19.67" style="fill: #e0e0e0"/>
      <rect x="230.09" y="45.16" width="4.24" height="18.59" style="fill: #e0e0e0"/>
      <rect x="238.95" y="38.87" width="4.24" height="24.88" style="fill: #e0e0e0"/>
      <rect x="256.67" y="38.99" width="4.24" height="24.76" style="fill: #e0e0e0"/>
      <rect x="265.53" y="47.12" width="4.24" height="16.63" style="fill: #e0e0e0"/>
      <rect x="274.4" y="40.08" width="4.24" height="23.67" style="fill: #e0e0e0"/>
      <rect x="283.26" y="34.75" width="4.24" height="29" style="fill: #e0e0e0"/>
      <rect x="292.12" y="39.96" width="4.24" height="23.79" style="fill: #e0e0e0"/>
    </g>
    <g>
      <path d="M408.18,62.43l35.1-5.37a35.52,35.52,0,1,1-31.2-29.92Z" style="fill: #ebebeb"/>
      <path d="M419.57,27.25l-4.26,27.2,26.7-5S438.09,34.19,419.57,27.25Z" style="fill: #e0e0e0"/>
    </g>
    <g>
      <path d="M49.83,128.42a17.4,17.4,0,1,1,17.67,17.2A17.46,17.46,0,0,1,49.83,128.42ZM75.54,128a8.32,8.32,0,1,0-8.18,8.49A8.35,8.35,0,0,0,75.54,128Z" style="fill: #f5f5f5"/>
      <path d="M49.83,128.42A17.46,17.46,0,0,1,67,110.66l.14,9.12a8.36,8.36,0,0,0,.27,16.72l.14,9.12A17.45,17.45,0,0,1,49.83,128.42Z" style="fill: #e0e0e0"/>
      <path d="M65.38,109.26a19.88,19.88,0,0,1,20.36,19.8l-10.62.18c-.09-5.4-4.19-8.79-9.56-8.7Z" style="fill: #ebebeb"/>
    </g>
    <g>
      <g>
        <g>
          <g>
            <rect x="140.76" y="189.8" width="22.12" height="26.3" style="fill: #f5f5f5"/>
            <rect x="41.56" y="188.09" width="99.96" height="29.66" style="fill: #e0e0e0"/>
            <path d="M163.55,190.58H138.84v-2.49h24.71a1.24,1.24,0,0,1,1.25,1.24h0A1.25,1.25,0,0,1,163.55,190.58Z" style="fill: #e0e0e0"/>
            <path d="M163.55,217.75H138.84v-2.5h24.71a1.25,1.25,0,0,1,1.25,1.25h0A1.25,1.25,0,0,1,163.55,217.75Z" style="fill: #e0e0e0"/>
            <rect x="121.85" y="188.09" width="11.81" height="29.66" style="fill: #ebebeb"/>
            <rect x="51.07" y="188.41" width="11.81" height="29.66" style="fill: #ebebeb"/>
            <path d="M162.88,194.15c0,.07-4.79.13-10.69.13s-10.69-.06-10.69-.13,4.78-.13,10.69-.13S162.88,194.08,162.88,194.15Z" style="fill: #e0e0e0"/>
            <path d="M162.88,198.09c0,.07-4.79.13-10.69.13s-10.69-.06-10.69-.13,4.78-.13,10.69-.13S162.88,198,162.88,198.09Z" style="fill: #e0e0e0"/>
            <path d="M162.88,203c0,.07-4.79.13-10.69.13S141.5,203,141.5,203s4.78-.13,10.69-.13S162.88,202.87,162.88,203Z" style="fill: #e0e0e0"/>
            <path d="M162.88,207.8c0,.08-4.79.13-10.69.13s-10.69-.05-10.69-.13,4.78-.13,10.69-.13S162.88,207.73,162.88,207.8Z" style="fill: #e0e0e0"/>
            <path d="M162.88,212.66c0,.07-4.79.13-10.69.13s-10.69-.06-10.69-.13,4.78-.13,10.69-.13S162.88,212.59,162.88,212.66Z" style="fill: #e0e0e0"/>
          </g>
          <rect x="70.53" y="200.28" width="44.97" height="5.34" style="fill: #ebebeb"/>
        </g>
        <g>
          <rect x="140.2" y="218.33" width="22.46" height="16.02" style="fill: #fafafa"/>
          <rect x="44.87" y="217.75" width="95.58" height="17.19" style="fill: #f5f5f5"/>
          <path d="M139.75,218.91h24.14a.58.58,0,0,0,.58-.58h0a.58.58,0,0,0-.58-.58H139.75Z" style="fill: #f5f5f5"/>
          <path d="M139.75,233.77h24.3a.42.42,0,0,1,.42.42v.32a.42.42,0,0,1-.42.42h-24.3a0,0,0,0,1,0,0v-1.16A0,0,0,0,1,139.75,233.77Z" style="fill: #f5f5f5"/>
          <path d="M162.65,221.37c0,.08-5,.14-11.1.14s-11.1-.06-11.1-.14,5-.13,11.1-.13S162.65,221.3,162.65,221.37Z" style="fill: #e0e0e0"/>
          <path d="M162.65,224.41c0,.07-5,.13-11.1.13s-11.1-.06-11.1-.13,5-.14,11.1-.14S162.65,224.33,162.65,224.41Z" style="fill: #e0e0e0"/>
          <path d="M162.65,227.44c0,.07-5,.13-11.1.13s-11.1-.06-11.1-.13,5-.13,11.1-.13S162.65,227.36,162.65,227.44Z" style="fill: #e0e0e0"/>
          <path d="M162.65,230.47c0,.07-5,.13-11.1.13s-11.1-.06-11.1-.13,5-.13,11.1-.13S162.65,230.4,162.65,230.47Z" style="fill: #e0e0e0"/>
        </g>
        <g>
          <rect x="143.14" y="236.46" width="22.92" height="43.43" style="fill: #ebebeb"/>
          <rect x="35.54" y="234.93" width="107.6" height="47.09" style="fill: #e0e0e0"/>
          <path d="M167.86,282H140.2V279h27.66a1.53,1.53,0,0,1,1.52,1.53h0A1.53,1.53,0,0,1,167.86,282Z" style="fill: #e0e0e0"/>
          <path d="M140.2,234.93h28.08a1.1,1.1,0,0,1,1.1,1.1v.85a1.1,1.1,0,0,1-1.1,1.1H140.2a0,0,0,0,1,0,0v-3.05A0,0,0,0,1,140.2,234.93Z" style="fill: #e0e0e0"/>
          <path d="M166.06,242.28c0,.08-5.13.13-11.46.13s-11.46,0-11.46-.13,5.13-.13,11.46-.13S166.06,242.21,166.06,242.28Z" style="fill: #e0e0e0"/>
          <path d="M166.06,247.85c0,.08-5.13.14-11.46.14s-11.46-.06-11.46-.14,5.13-.13,11.46-.13S166.06,247.78,166.06,247.85Z" style="fill: #e0e0e0"/>
          <path d="M166.06,253.42c0,.08-5.13.14-11.46.14s-11.46-.06-11.46-.14,5.13-.13,11.46-.13S166.06,253.35,166.06,253.42Z" style="fill: #e0e0e0"/>
          <path d="M166.06,259c0,.07-5.13.13-11.46.13s-11.46-.06-11.46-.13,5.13-.14,11.46-.14S166.06,258.92,166.06,259Z" style="fill: #e0e0e0"/>
          <path d="M166.06,264.57c0,.07-5.13.13-11.46.13s-11.46-.06-11.46-.13,5.13-.14,11.46-.14S166.06,264.49,166.06,264.57Z" style="fill: #e0e0e0"/>
          <path d="M166.06,270.14c0,.07-5.13.13-11.46.13s-11.46-.06-11.46-.13,5.13-.13,11.46-.13S166.06,270.06,166.06,270.14Z" style="fill: #e0e0e0"/>
          <path d="M166.06,275.71c0,.07-5.13.13-11.46.13s-11.46-.06-11.46-.13,5.13-.13,11.46-.13S166.06,275.64,166.06,275.71Z" style="fill: #e0e0e0"/>
        </g>
      </g>
      <g>
        <path d="M72.36,261.06v2.62c0,3.15-1.58,5-4.62,5s-4.62-1.81-4.62-5V253.42c0-3.15,1.57-5,4.62-5s4.62,1.81,4.62,5v1.92H69.43v-2.11c0-1.41-.62-1.95-1.61-1.95s-1.6.54-1.6,1.95v10.65c0,1.4.61,1.91,1.6,1.91s1.61-.51,1.61-1.91v-2.82Z" style="fill: #ebebeb"/>
        <path d="M74,253.42c0-3.15,1.66-5,4.7-5s4.71,1.81,4.71,5v10.26c0,3.15-1.66,5-4.71,5s-4.7-1.81-4.7-5Zm3.1,10.46c0,1.4.62,1.94,1.6,1.94s1.61-.54,1.61-1.94V253.23c0-1.41-.62-1.95-1.61-1.95s-1.6.54-1.6,1.95Z" style="fill: #ebebeb"/>
        <path d="M85.4,248.69h3.1v16.9h5.1v2.82H85.4Z" style="fill: #ebebeb"/>
        <path d="M94.69,253.42c0-3.15,1.67-5,4.71-5s4.7,1.81,4.7,5v10.26c0,3.15-1.66,5-4.7,5s-4.71-1.81-4.71-5Zm3.1,10.46c0,1.4.62,1.94,1.61,1.94s1.61-.54,1.61-1.94V253.23c0-1.41-.62-1.95-1.61-1.95s-1.61.54-1.61,1.95Z" style="fill: #ebebeb"/>
        <path d="M109.06,248.69V263.9c0,1.41.62,1.92,1.61,1.92s1.6-.51,1.6-1.92V248.69h2.93v15c0,3.15-1.57,5-4.62,5s-4.62-1.81-4.62-5v-15Z" style="fill: #ebebeb"/>
        <path d="M123.8,268.41a6,6,0,0,1-.29-2.42v-3.1c0-1.83-.62-2.51-2-2.51h-1.08v8h-3.09V248.69H122c3.21,0,4.6,1.49,4.6,4.54v1.54c0,2-.65,3.36-2,4,1.55.64,2,2.14,2,4.19v3a5.77,5.77,0,0,0,.34,2.39Zm-3.39-16.9v6.05h1.22c1.15,0,1.86-.5,1.86-2.08v-1.94c0-1.41-.48-2-1.58-2Z" style="fill: #ebebeb"/>
      </g>
      <g>
        <path d="M71.69,224.52H69.43l.12-.59h5.18l-.12.59H72.36l-1.17,5.82h-.66Z" style="fill: #e0e0e0"/>
        <path d="M79.09,225.52,75.57,231c-.59.91-1,1.2-1.74,1.2a1.59,1.59,0,0,1-1.14-.43l.35-.48a1.11,1.11,0,0,0,.85.35c.41,0,.73-.19,1.11-.78l.34-.51-1.2-4.79h.66l1,4.1,2.63-4.1Z" style="fill: #e0e0e0"/>
        <path d="M84.44,227.52a2.72,2.72,0,0,1-2.73,2.86,1.79,1.79,0,0,1-1.83-1l-.55,2.78h-.65L80,225.52h.62l-.15.77a2.41,2.41,0,0,1,1.87-.8A2,2,0,0,1,84.44,227.52Zm-.66,0a1.42,1.42,0,0,0-1.59-1.51,2.11,2.11,0,0,0-2.07,2.26,1.4,1.4,0,0,0,1.58,1.5A2.1,2.1,0,0,0,83.78,227.56Z" style="fill: #e0e0e0"/>
        <path d="M85.19,228.34A2.72,2.72,0,0,1,88,225.49a2,2,0,0,1,2.19,2,2.73,2.73,0,0,1-2.78,2.86A2,2,0,0,1,85.19,228.34Zm4.32-.78a1.41,1.41,0,0,0-1.58-1.51,2.12,2.12,0,0,0-2.09,2.26,1.41,1.41,0,0,0,1.59,1.5A2.11,2.11,0,0,0,89.51,227.56Z" style="fill: #e0e0e0"/>
        <path d="M96.39,225.52l-.84,4.23a2.57,2.57,0,0,1-2.8,2.41,3,3,0,0,1-2.14-.73l.38-.49a2.55,2.55,0,0,0,1.8.64,1.89,1.89,0,0,0,2.09-1.72l.11-.53a2.51,2.51,0,0,1-1.92.82A1.91,1.91,0,0,1,91,228.21a2.65,2.65,0,0,1,2.74-2.72,1.84,1.84,0,0,1,1.88,1.1l.2-1.07Zm-1.1,1.93c0-.87-.59-1.4-1.59-1.4a2,2,0,0,0-2.1,2.13c0,.87.59,1.4,1.6,1.4A2,2,0,0,0,95.29,227.45Z" style="fill: #e0e0e0"/>
        <path d="M100.63,225.49l-.12.63h-.18a1.9,1.9,0,0,0-2,1.78l-.48,2.45h-.65l1-4.82h.62l-.16.88A2.17,2.17,0,0,1,100.63,225.49Z" style="fill: #e0e0e0"/>
        <path d="M106.15,225.52l-1,4.82h-.63l.16-.76a2.48,2.48,0,0,1-1.88.8,1.94,1.94,0,0,1-2.09-2,2.7,2.7,0,0,1,2.72-2.85,1.81,1.81,0,0,1,1.83,1l.2-1Zm-1.08,2a1.42,1.42,0,0,0-1.59-1.51,2.12,2.12,0,0,0-2.08,2.26,1.4,1.4,0,0,0,1.58,1.5A2.11,2.11,0,0,0,105.07,227.56Z" style="fill: #e0e0e0"/>
        <path d="M112.39,227.52a2.71,2.71,0,0,1-2.72,2.86,1.79,1.79,0,0,1-1.83-1l-.55,2.78h-.65l1.31-6.59h.62l-.16.77a2.45,2.45,0,0,1,1.88-.8A2,2,0,0,1,112.39,227.52Zm-.66,0a1.41,1.41,0,0,0-1.58-1.51,2.11,2.11,0,0,0-2.08,2.26,1.41,1.41,0,0,0,1.59,1.5A2.1,2.1,0,0,0,111.73,227.56Z" style="fill: #e0e0e0"/>
        <path d="M118.22,227.05a2.64,2.64,0,0,1-.06.55l-.55,2.74H117l.55-2.75a2.28,2.28,0,0,0,0-.44c0-.68-.41-1.08-1.24-1.08a1.88,1.88,0,0,0-2,1.69l-.51,2.58h-.65l1.35-6.79h.65l-.54,2.7a2.36,2.36,0,0,1,1.84-.76A1.5,1.5,0,0,1,118.22,227.05Z" style="fill: #e0e0e0"/>
        <path d="M124.3,225.52,120.79,231c-.6.91-1.05,1.2-1.74,1.2a1.59,1.59,0,0,1-1.15-.43l.35-.48a1.13,1.13,0,0,0,.85.35c.41,0,.73-.19,1.11-.78l.34-.51-1.2-4.79H120l1,4.1,2.62-4.1Z" style="fill: #e0e0e0"/>
      </g>
    </g>
    <g>
      <path d="M138.8,27.74H41.18l15.9,11.47V61.79a4.71,4.71,0,0,0,4.71,4.71h77a4.71,4.71,0,0,0,4.71-4.71V32.45A4.71,4.71,0,0,0,138.8,27.74Z" style="fill: #f5f5f5"/>
      <path d="M134.73,43.69c0,.09-14.73.17-32.89.17S69,43.78,69,43.69s14.72-.17,32.88-.17S134.73,43.6,134.73,43.69Z" style="fill: #e0e0e0"/>
      <path d="M134.73,52.36c0,.09-14.73.17-32.89.17S69,52.45,69,52.36s14.72-.17,32.88-.17S134.73,52.26,134.73,52.36Z" style="fill: #e0e0e0"/>
    </g>
    <path d="M477.37,282c0,.09-99.81.16-222.91.16S31.53,282.12,31.53,282s99.79-.17,222.93-.17S477.37,281.94,477.37,282Z" style="fill: #263238"/>
    <g>
      <g>
        <path d="M435.48,249.54s-16.87-19.41-23.24-38.83-3.34-17.19-3.34-17.19,8.59,18.87,15.12,28S442.16,244,442.16,244Z" style="fill: #455a64"/>
        <path d="M438.84,196.55a1,1,0,0,0-1.83.62c1,6.82,3.25,22.83,3.17,33.21-.12,13.48,0,18.7,0,18.7h7S446,221.2,444.37,212.7A58.39,58.39,0,0,0,438.84,196.55Z" style="fill: #455a64"/>
        <path d="M442.67,246.81a74.32,74.32,0,0,0,5.78-21c.58-5-.46-11.68-2-20.63a56.21,56.21,0,0,1-.89-9.92,1.68,1.68,0,0,1,3.15-.79,44.48,44.48,0,0,1,3.92,9.92c1.7,8.84,3.63,13.26,2.15,21.64s-6.91,21.31-6.91,21.31Z" style="fill: #455a64"/>
        <path d="M449,247.38s18.53-39.81,19.81-45.71,5.65-19.52,6.16-18.75,1.29,8-2,16.18-17.59,49.49-17.59,49.49H449" style="fill: #455a64"/>
        <path d="M440.64,245.6a4.39,4.39,0,0,1-.52-.36c-.33-.25-.83-.6-1.43-1.1a61.75,61.75,0,0,1-5-4.39,83.45,83.45,0,0,1-13.44-17.25,112.87,112.87,0,0,1-9.17-19.87c-.93-2.64-1.61-4.81-2.05-6.31-.23-.75-.39-1.34-.5-1.73a4.87,4.87,0,0,1-.14-.62,4.25,4.25,0,0,1,.22.59c.14.43.33,1,.56,1.72.49,1.48,1.21,3.63,2.17,6.26a120.94,120.94,0,0,0,9.25,19.76,87.62,87.62,0,0,0,13.29,17.25c2,2,3.68,3.47,4.88,4.48.59.51,1.08.88,1.39,1.15A3,3,0,0,1,440.64,245.6Z" style="fill: #263238"/>
        <path d="M442.67,226.5a6,6,0,0,1-.17-1.17c-.09-.82-.2-1.9-.34-3.19-.29-2.69-.75-6.41-1.41-10.48s-1.38-7.76-1.95-10.41c-.27-1.27-.5-2.32-.67-3.13a6.44,6.44,0,0,1-.21-1.16,7.75,7.75,0,0,1,.36,1.12c.2.73.48,1.79.79,3.11.64,2.64,1.42,6.31,2.08,10.4s1.07,7.82,1.29,10.52c.11,1.36.18,2.45.21,3.21A7.56,7.56,0,0,1,442.67,226.5Z" style="fill: #263238"/>
        <path d="M447,194.2a4.17,4.17,0,0,1,.21.51c.15.37.33.86.56,1.48s.53,1.43.79,2.37.64,2,.9,3.18l.46,1.87c.16.66.27,1.35.41,2,.3,1.42.49,3,.72,4.56a67.94,67.94,0,0,1-.76,21c-.34,1.59-.63,3.1-1,4.49-.19.7-.35,1.38-.55,2s-.4,1.24-.59,1.83c-.36,1.18-.79,2.2-1.13,3.11s-.67,1.69-1,2.31-.49,1.07-.66,1.44a2.62,2.62,0,0,1-.25.48,2.47,2.47,0,0,1,.18-.52l.59-1.46c.27-.63.58-1.4.89-2.32s.74-1.95,1.07-3.13l.57-1.83c.19-.64.34-1.32.53-2,.38-1.39.67-2.9,1-4.48a70.2,70.2,0,0,0,.75-20.93c-.21-1.6-.38-3.13-.67-4.54-.14-.7-.24-1.39-.38-2s-.3-1.27-.44-1.87c-.25-1.2-.58-2.25-.84-3.19s-.5-1.74-.73-2.38l-.48-1.51A1.87,1.87,0,0,1,447,194.2Z" style="fill: #263238"/>
        <path d="M474.75,183.72s0,.06,0,.18,0,.31-.08.52c-.08.45-.18,1.12-.36,2-.36,1.71-1,4.18-1.88,7.17s-2.19,6.49-3.69,10.34-3.23,8.06-4.88,12.53-2.95,8.81-4.16,12.77-2.34,7.5-3.43,10.43a66.61,66.61,0,0,1-2.93,6.81c-.38.79-.72,1.38-.94,1.78l-.26.45c-.06.11-.09.16-.1.15a1.37,1.37,0,0,1,.07-.16l.22-.48c.2-.41.52-1,.87-1.81.75-1.58,1.75-3.9,2.8-6.84s2.17-6.48,3.35-10.44,2.47-8.33,4.14-12.8,3.4-8.68,4.91-12.52,2.81-7.33,3.76-10.3,1.59-5.41,2-7.11c.2-.85.33-1.52.43-2,.05-.2.09-.37.13-.51S474.74,183.72,474.75,183.72Z" style="fill: #263238"/>
        <g>
          <path d="M417.63,174.93a1.59,1.59,0,0,0-2.62,1.63,45.35,45.35,0,0,0,2.33,6c2.54,5.41,10,24.83,13.52,35.49s8.44,30.56,8.44,30.56l7.48-1.21s-6.85-32.69-13.53-44.47C427.88,193.45,422.51,179.78,417.63,174.93Z" style="fill: #455a64"/>
          <path d="M432.91,224.7a4.49,4.49,0,0,1,.39.9c.22.58.52,1.44.86,2.51.69,2.13,1.53,5.11,2.38,8.42s1.55,6.32,2,8.51c.23,1,.41,1.9.56,2.59a5,5,0,0,1,.16,1,3.9,3.9,0,0,1-.31-.93l-.68-2.56c-.57-2.25-1.32-5.2-2.16-8.47s-1.64-6.29-2.26-8.44c-.3-1-.54-1.87-.74-2.54A4.2,4.2,0,0,1,432.91,224.7Z" style="fill: #263238"/>
          <path d="M443.05,248a1.29,1.29,0,0,1,0-.2c0-.15-.05-.35-.08-.58-.08-.52-.15-1.29-.31-2.27-.27-2-.76-4.79-1.57-8.25a115.74,115.74,0,0,0-3.5-11.94c-1.53-4.43-3.45-9.22-5.63-14.17-4.4-9.9-8.8-18.67-11.68-25.16-1.46-3.24-2.59-5.88-3.34-7.72-.38-.92-.65-1.64-.84-2.13-.08-.23-.15-.41-.21-.56s-.06-.19-.05-.19a.53.53,0,0,1,.09.18c.07.14.15.32.25.54l.9,2.1c.79,1.82,2,4.44,3.45,7.66,2.95,6.46,7.38,15.21,11.79,25.12,2.18,5,4.1,9.76,5.62,14.21a114.46,114.46,0,0,1,3.43,12,81.18,81.18,0,0,1,1.44,8.29c.14,1,.18,1.76.24,2.28,0,.24,0,.43,0,.59S443.06,248,443.05,248Z" style="fill: #263238"/>
          <path d="M446.78,247.38a7.65,7.65,0,0,1-.26-1.26c-.15-.88-.34-2-.58-3.44-.51-2.89-1.3-6.88-2.43-11.23s-2.38-8.21-3.35-11L439,217.18a7.71,7.71,0,0,1-.4-1.22,7.91,7.91,0,0,1,.54,1.16c.32.76.77,1.87,1.29,3.25a107.87,107.87,0,0,1,3.47,11,114,114,0,0,1,2.33,11.29c.21,1.46.37,2.64.46,3.46A9.13,9.13,0,0,1,446.78,247.38Z" style="fill: #263238"/>
        </g>
      </g>
      <g>
        <rect x="432.94" y="246.3" width="29.18" height="35.56" style="fill: #f43f5e"/>
        <g style="opacity: 0.30000000000000004">
          <rect x="432.94" y="246.3" width="29.18" height="35.56"/>
        </g>
        <rect x="426.92" y="246.3" width="25.89" height="35.56" style="fill: #f43f5e"/>
      </g>
    </g>
    <g>
      <g>
        <path d="M73.4,233.94a15.4,15.4,0,0,0-16.7.14c-4.59,3.21-6.92,9-6.72,14.65s2.92,12.45,8,15.39l14.9-.06a20,20,0,0,0,8.19-15A17.37,17.37,0,0,0,73.4,233.94Z" style="fill: #455a64"/>
        <path d="M66.07,264.66a6.3,6.3,0,0,1-.09-1.28c0-.92-.06-2.09-.1-3.49-.08-2.95-.2-7-.39-11.52s-.44-8.57-.63-11.51c-.08-1.4-.15-2.57-.2-3.49a5.46,5.46,0,0,1,0-1.28,6.79,6.79,0,0,1,.2,1.26c.1.82.22,2,.36,3.48.27,2.94.56,7,.76,11.52s.26,8.58.25,11.53c0,1.48,0,2.67,0,3.5A7.24,7.24,0,0,1,66.07,264.66Z" style="fill: #263238"/>
        <path d="M51.48,247.47c0,.13-.82.17-1.81.09s-1.78-.26-1.77-.39.82-.17,1.81-.09S51.49,247.33,51.48,247.47Z" style="fill: #263238"/>
        <path d="M51.76,242.44c-.06.12-.75-.07-1.56-.43s-1.42-.75-1.37-.87.75.08,1.56.43S51.81,242.32,51.76,242.44Z" style="fill: #263238"/>
        <path d="M54.34,238.71c-.06.11-.85-.26-1.66-.94s-1.33-1.37-1.24-1.46.75.44,1.54,1.1S54.42,238.6,54.34,238.71Z" style="fill: #263238"/>
        <path d="M56.94,235.19c-.12.05-.49-.53-.84-1.31s-.52-1.45-.4-1.51.5.54.84,1.32S57.06,235.14,56.94,235.19Z" style="fill: #263238"/>
        <path d="M61,232.69c-.11.06-.52-.57-.79-1.43s-.29-1.62-.16-1.64.36.66.62,1.49S61.15,232.64,61,232.69Z" style="fill: #263238"/>
        <path d="M67.83,229.88c.13,0,0,.58-.17,1.19s-.49,1.08-.61,1,0-.58.17-1.2S67.71,229.83,67.83,229.88Z" style="fill: #263238"/>
        <path d="M72.88,232.05c.09.09-.23.54-.72,1s-1,.74-1,.64.24-.54.73-1S72.79,232,72.88,232.05Z" style="fill: #263238"/>
        <path d="M77.33,234.92c.07.1-.32.5-.88.88s-1.08.6-1.15.49.32-.5.88-.88S77.25,234.81,77.33,234.92Z" style="fill: #263238"/>
        <path d="M80.48,239.2c.06.12-.57.5-1.39.85s-1.52.53-1.57.41.57-.5,1.39-.85S80.43,239.08,80.48,239.2Z" style="fill: #263238"/>
        <path d="M81.73,243.87c0,.13-.62.31-1.42.41s-1.45.07-1.47-.06.62-.31,1.41-.41S81.71,243.74,81.73,243.87Z" style="fill: #263238"/>
        <path d="M82.37,249.61c-.05.12-.72-.05-1.5-.39s-1.37-.72-1.32-.84.73.06,1.51.4S82.43,249.49,82.37,249.61Z" style="fill: #263238"/>
        <path d="M81.8,254.54c0,.12-.89-.08-1.78-.67s-1.42-1.28-1.33-1.36.74.42,1.59,1S81.85,254.42,81.8,254.54Z" style="fill: #263238"/>
        <path d="M79.24,259c-.08.1-.76-.29-1.41-1s-1-1.41-.9-1.48.62.49,1.25,1.16S79.32,258.93,79.24,259Z" style="fill: #263238"/>
        <path d="M54.86,259.56c.06.12-.66.61-1.6,1.1s-1.75.79-1.81.67.65-.6,1.6-1.09S54.8,259.44,54.86,259.56Z" style="fill: #263238"/>
        <path d="M52.63,255.5c0,.12-.52.5-1.28.84s-1.42.53-1.47.41.52-.5,1.28-.84S52.58,255.38,52.63,255.5Z" style="fill: #263238"/>
        <path d="M51,251.9c0,.13-.68.34-1.57.47s-1.62.12-1.64,0,.69-.34,1.57-.46S51,251.77,51,251.9Z" style="fill: #263238"/>
        <path d="M56.36,249.92c0,.12-.64.44-1.56.55s-1.66-.06-1.65-.19.73-.19,1.6-.29S56.32,249.79,56.36,249.92Z" style="fill: #263238"/>
        <path d="M60.82,245.48c0,.12-.5.4-1.24.47s-1.33-.09-1.31-.22.58-.18,1.26-.25S60.79,245.35,60.82,245.48Z" style="fill: #263238"/>
        <path d="M61.68,241.93c0,.12-.64,0-1.33-.21s-1.2-.53-1.16-.65.63,0,1.32.2S61.72,241.8,61.68,241.93Z" style="fill: #263238"/>
        <path d="M63.31,238.33c-.09.09-.5-.18-.79-.68s-.32-1-.19-1,.35.34.61.78S63.41,238.24,63.31,238.33Z" style="fill: #263238"/>
        <path d="M61.34,253.05c0,.13-.48.36-1.14.53a4.76,4.76,0,0,1-1,.14l-.09-.28c.17,0,.28,0,.31,0s-.05.13-.19.24l-.1-.28a5.59,5.59,0,0,1,.92-.32C60.75,253,61.31,252.92,61.34,253.05Z" style="fill: #263238"/>
        <path d="M62.26,259.36c.05.12-.61.49-1.46.82s-1.58.51-1.63.39.6-.49,1.46-.83S62.21,259.23,62.26,259.36Z" style="fill: #263238"/>
        <path d="M57.22,256.56c0,.12-.39.38-1,.58s-1.09.25-1.13.13.39-.39,1-.58S57.18,256.43,57.22,256.56Z" style="fill: #263238"/>
        <path d="M57.61,243.72c0,.13-.79.06-1.67-.26s-1.51-.73-1.46-.84.77.09,1.62.4S57.64,243.59,57.61,243.72Z" style="fill: #263238"/>
        <path d="M69.8,242.33c.07.11-.36.52-1,.91s-1.15.63-1.22.52.35-.52,1-.91S69.73,242.22,69.8,242.33Z" style="fill: #263238"/>
        <path d="M70.46,248.66c0,.13-.42.33-1,.45s-1.07.11-1.1,0,.42-.33,1-.46S70.44,248.53,70.46,248.66Z" style="fill: #263238"/>
        <path d="M71.23,255.78c0,.12-.7-.07-1.44-.41s-1.3-.72-1.24-.84.7.07,1.44.41S71.29,255.66,71.23,255.78Z" style="fill: #263238"/>
        <path d="M69.6,262.71c-.1.08-.52-.26-.94-.77s-.67-1-.57-1.07.53.26.94.77S69.7,262.62,69.6,262.71Z" style="fill: #263238"/>
        <path d="M69.27,237.67c.08.1-.2.45-.67.69s-.92.25-1,.12.31-.33.74-.55S69.19,237.56,69.27,237.67Z" style="fill: #263238"/>
        <path d="M75.24,244.05c.05.12-.51.43-1.26.53s-1.37,0-1.36-.16.59-.21,1.29-.31S75.2,243.93,75.24,244.05Z" style="fill: #263238"/>
        <path d="M74.05,238.32c.06.12-.49.51-1.27.76s-1.45.25-1.47.12.59-.34,1.33-.58S74,238.2,74.05,238.32Z" style="fill: #263238"/>
        <path d="M76.55,252.93a3.59,3.59,0,0,1-2.07,0c-1.14-.2-2-.61-1.94-.73a6.24,6.24,0,0,1,2,.27A6.66,6.66,0,0,1,76.55,252.93Z" style="fill: #263238"/>
        <path d="M74.33,261.26c-.08.1-.77-.31-1.46-1s-1.1-1.39-1-1.47.67.46,1.33,1.13S74.41,261.15,74.33,261.26Z" style="fill: #263238"/>
        <path d="M64.56,231.55a21.54,21.54,0,0,0-4.16,3.29,20.3,20.3,0,0,0-5.2,11.48,26.11,26.11,0,0,0,.32,7A54.4,54.4,0,0,0,56.83,259c.46,1.59.88,2.86,1.16,3.75a9.54,9.54,0,0,1,.4,1.38,7.67,7.67,0,0,1-.57-1.32c-.34-.87-.81-2.13-1.31-3.71a47.69,47.69,0,0,1-1.42-5.67,25.31,25.31,0,0,1-.36-7.16,20,20,0,0,1,5.42-11.65,14.63,14.63,0,0,1,3.11-2.43c.4-.25.74-.38,1-.5S64.56,231.53,64.56,231.55Z" style="fill: #263238"/>
        <path d="M71.05,264.43a54.7,54.7,0,0,0,2.13-5.11,28.67,28.67,0,0,0,1.28-13.13,24.79,24.79,0,0,0-2-7A16.63,16.63,0,0,0,69,234.38a12.57,12.57,0,0,0-3.39-2.14c-.88-.37-1.4-.45-1.4-.49s.14,0,.39,0a6.63,6.63,0,0,1,1.08.29,11.62,11.62,0,0,1,3.54,2.06A16.06,16.06,0,0,1,72.83,239a24.29,24.29,0,0,1,2.1,7.12,27.82,27.82,0,0,1-1.43,13.31c-.27.82-.61,1.52-.87,2.16s-.56,1.14-.79,1.57A9.37,9.37,0,0,1,71.05,264.43Z" style="fill: #263238"/>
      </g>
      <polygon points="52.63 263.3 78.84 263.3 79 268.55 52.63 268.55 52.63 263.3" style="fill: #f43f5e"/>
      <polygon points="54.86 265.92 56.36 281.94 75.52 281.94 77.06 266.1 54.86 265.92" style="fill: #f43f5e"/>
      <path d="M79,268.61c0,.13-5.9.24-13.18.24s-13.18-.11-13.18-.24,5.9-.24,13.18-.24S79,268.48,79,268.61Z" style="fill: #263238"/>
      <path d="M76.34,273.49a4.36,4.36,0,0,1-.56,1,15.34,15.34,0,0,1-2,2.4l-.12.11-.12-.12a37.87,37.87,0,0,0-5.13-4.5h.29l-2.28,2-2.69,2.34-.15.13-.15-.12L59,273l.26,0c-.91,1.1-1.66,2-2.27,2.76a7.33,7.33,0,0,1-.88,1,5.5,5.5,0,0,1,.73-1.1c.56-.76,1.28-1.72,2.14-2.86l.11-.15.14.12,4.44,3.6h-.3L66.07,274l2.28-2,.14-.12.15.11a33.11,33.11,0,0,1,5.11,4.64h-.24A27,27,0,0,0,76.34,273.49Z" style="fill: #263238"/>
    </g>
    <g>
      <g>
        <g>
          <g>
            <rect x="104.55" y="81.82" width="295.97" height="195.72" rx="14.57" style="fill: #455a64"/>
            <path d="M94.86,264.9H415.52a0,0,0,0,1,0,0v3.72A13.41,13.41,0,0,1,402.12,282H108.26a13.41,13.41,0,0,1-13.41-13.41V264.9a0,0,0,0,1,0,0Z" style="fill: #455a64"/>
            <polygon points="223.36 263.07 227.34 269.4 283.33 269.4 287.02 263.07 223.36 263.07" style="fill: #263238"/>
          </g>
          <path d="M398,263.07c0,.1-65.69.19-146.71.19s-146.72-.09-146.72-.19,65.68-.19,146.72-.19S398,263,398,263.07Z" style="fill: #263238"/>
        </g>
        <g>
          <rect x="113.02" y="93.07" width="277.86" height="164.82" rx="3.27" style="fill: #ebebeb"/>
          <polygon points="390.59 258.13 112.73 258.13 113.02 105.39 390.59 105.39 390.59 258.13" style="fill: #fff"/>
          <path d="M135.81,99.44a2.22,2.22,0,1,1-2.22-2.22A2.22,2.22,0,0,1,135.81,99.44Z" style="fill: #263238"/>
          <path d="M122.36,99.44a2.22,2.22,0,1,1-2.22-2.22A2.22,2.22,0,0,1,122.36,99.44Z" style="fill: #263238"/>
          <path d="M128.82,99.44a2.22,2.22,0,1,1-2.22-2.22A2.22,2.22,0,0,1,128.82,99.44Z" style="fill: #263238"/>
        </g>
        <rect x="112.73" y="243.38" width="278.16" height="14.75" style="fill: #263238"/>
        <g>
          <g>
            <path d="M123.24,252.47v.47H121v-.38l1.19-1.13c.3-.28.35-.45.35-.62s-.19-.44-.56-.44a.82.82,0,0,0-.7.32l-.4-.3a1.39,1.39,0,0,1,1.15-.5c.65,0,1.07.33,1.07.86a1.2,1.2,0,0,1-.5.95l-.8.77Z" style="fill: #fff"/>
            <path d="M123.54,251a.35.35,0,1,1,.7,0,.35.35,0,0,1-.7,0Zm0,1.63a.35.35,0,1,1,.7,0,.35.35,0,1,1-.7,0Z" style="fill: #fff"/>
            <path d="M125.64,249.93v3h-.56V250.4h-.63v-.47Z" style="fill: #fff"/>
            <path d="M128.91,252.26h-.53v.68h-.54v-.68h-1.65v-.39l1.48-1.94h.6l-1.4,1.85h1v-.6h.52v.6h.53Z" style="fill: #fff"/>
          </g>
          <rect x="133.82" y="251.05" width="227.99" height="1.04" style="fill: #fff"/>
          <rect x="133.65" y="249.93" width="71.25" height="2.77" style="fill: #f43f5e"/>
          <path d="M207.2,251.57a3.47,3.47,0,1,1-3.47-3.46A3.47,3.47,0,0,1,207.2,251.57Z" style="fill: #f43f5e"/>
          <g>
            <path d="M367.56,251.54a1,1,0,0,1-1.1,1c-.82,0-1.3-.53-1.3-1.5a1.42,1.42,0,0,1,1.47-1.6,1.49,1.49,0,0,1,.79.2l-.21.42a1,1,0,0,0-.57-.15c-.56,0-.92.35-.92,1h0a1,1,0,0,1,.8-.31A.94.94,0,0,1,367.56,251.54Zm-.54,0c0-.32-.24-.51-.61-.51a.54.54,0,0,0-.61.51c0,.28.23.51.63.51A.52.52,0,0,0,367,251.57Z" style="fill: #fff"/>
            <path d="M367.83,250.51a.35.35,0,1,1,.35.36A.35.35,0,0,1,367.83,250.51Zm0,1.64a.35.35,0,1,1,.7,0,.35.35,0,0,1-.7,0Z" style="fill: #fff"/>
            <path d="M368.89,251c0-1,.54-1.55,1.25-1.55s1.26.56,1.26,1.55-.54,1.55-1.26,1.55S368.89,252,368.89,251Zm1.95,0c0-.73-.28-1.06-.7-1.06s-.69.33-.69,1.06.29,1.06.69,1.06S370.84,251.7,370.84,251Z" style="fill: #fff"/>
            <path d="M371.78,251c0-1,.54-1.55,1.25-1.55s1.26.56,1.26,1.55-.54,1.55-1.26,1.55S371.78,252,371.78,251Zm2,0c0-.73-.29-1.06-.7-1.06s-.69.33-.69,1.06.28,1.06.69,1.06S373.73,251.7,373.73,251Z" style="fill: #fff"/>
          </g>
          <polygon points="379.14 250.78 378.1 250.78 378.1 247.79 381.09 247.79 381.09 248.83 379.14 248.83 379.14 250.78" style="fill: #fff"/>
          <polygon points="381.1 254.69 378.1 254.69 378.1 251.7 379.14 251.7 379.14 253.65 381.1 253.65 381.1 254.69" style="fill: #fff"/>
          <polygon points="385.87 254.69 382.88 254.69 382.88 253.65 384.83 253.65 384.83 251.7 385.87 251.7 385.87 254.69" style="fill: #fff"/>
          <polygon points="385.87 250.78 384.83 250.78 384.83 248.83 382.88 248.83 382.88 247.79 385.87 247.79 385.87 250.78" style="fill: #fff"/>
        </g>
      </g>
      <g>
        <g>
          <polygon points="150.83 114.47 134.45 114.47 126.26 128.66 134.45 142.84 150.83 142.84 159.02 128.66 150.83 114.47" style="fill: #ebebeb"/>
          <g>
            <g>
              <path d="M135.79,131.43a14.61,14.61,0,0,1-2-2.58,4.84,4.84,0,0,1-.68-3.14c.1-.63.37-1.23.41-1.87.06-.87-.31-1.79,0-2.61.48-1.29,2.21-1.48,3.26-2.37.81-.69,1.21-1.81,2.11-2.39a4,4,0,0,1,2.72-.37,10.43,10.43,0,0,0,2.78.24,19,19,0,0,0,1.93-.52,2.6,2.6,0,0,1,1.94.14,1.26,1.26,0,0,1,.52,1.7,2.11,2.11,0,0,1,2.73,1.48,3.22,3.22,0,0,1-1.2,3.14,7.12,7.12,0,0,1-3.25,1.32,13.56,13.56,0,0,1-9.68-1.51" style="fill: #263238"/>
              <g>
                <g>
                  <g>
                    <path d="M151,134.93c-.11-2-.67-6.19-1.23-10a7.86,7.86,0,0,0-8.29-6.68l-.4,0c-4.36.55-6.32,4.55-5.66,8.89l1.28,15.62H147.3s-.25-2.74-.26-2.77S151.2,139.14,151,134.93Z" style="fill: #ffbf9d"/>
                    <path d="M147.05,140a9.82,9.82,0,0,1-5.58-1.19s1.49,2.94,5.66,2.28Z" style="fill: #ff9a6c"/>
                  </g>
                  <g>
                    <g>
                      <g>
                        <path d="M148.38,128.58a.59.59,0,0,1-.53.65.58.58,0,0,1-.66-.5.61.61,0,0,1,.54-.65A.57.57,0,0,1,148.38,128.58Z" style="fill: #263238"/>
                        <path d="M149,127.09c-.07.09-.54-.22-1.19-.17s-1.1.4-1.17.32,0-.18.22-.34a1.66,1.66,0,0,1,.94-.36,1.59,1.59,0,0,1,.95.24C148.93,126.92,149,127.06,149,127.09Z" style="fill: #263238"/>
                      </g>
                      <g>
                        <path d="M142.29,129a.6.6,0,0,1-.54.64.58.58,0,0,1-.66-.5.6.6,0,0,1,.54-.64A.58.58,0,0,1,142.29,129Z" style="fill: #263238"/>
                        <path d="M142.63,127.64c-.07.08-.54-.22-1.19-.18s-1.1.4-1.17.33,0-.18.23-.35a1.63,1.63,0,0,1,.93-.35,1.52,1.52,0,0,1,.95.24C142.59,127.46,142.67,127.6,142.63,127.64Z" style="fill: #263238"/>
                      </g>
                      <path d="M145.3,132.27a4.15,4.15,0,0,1,1-.26c.17,0,.32-.07.34-.19a.87.87,0,0,0-.14-.48l-.57-1.22a21.62,21.62,0,0,1-1.32-3.21,21.29,21.29,0,0,1,1.57,3.1l.55,1.23a.91.91,0,0,1,.13.64.41.41,0,0,1-.25.26,1.18,1.18,0,0,1-.28.06A3.86,3.86,0,0,1,145.3,132.27Z" style="fill: #263238"/>
                    </g>
                    <path d="M142.63,125.1c0,.18-.7.14-1.45.28s-1.35.39-1.46.24,0-.25.28-.43a2.37,2.37,0,0,1,1.06-.46,2.54,2.54,0,0,1,1.16.06C142.5,124.88,142.65,125,142.63,125.1Z" style="fill: #263238"/>
                    <path d="M148.61,125.24c-.1.16-.56,0-1.09.06s-1,.17-1.1,0,0-.22.2-.38a1.47,1.47,0,0,1,.87-.29,1.43,1.43,0,0,1,.89.23C148.58,125,148.65,125.17,148.61,125.24Z" style="fill: #263238"/>
                  </g>
                </g>
                <g>
                  <path d="M136,130.3c-.08,0-2.95-.66-2.66,2.21s3.39,1.93,3.38,1.85S136,130.3,136,130.3Z" style="fill: #ffbf9d"/>
                  <path d="M135.4,133.42s0,0-.12.09a.56.56,0,0,1-.38,0,1.26,1.26,0,0,1-.68-1.05,1.74,1.74,0,0,1,.07-.73.58.58,0,0,1,.34-.42.26.26,0,0,1,.31.11c0,.07,0,.13.05.14a.19.19,0,0,0,0-.17.34.34,0,0,0-.13-.17.4.4,0,0,0-.29,0,.7.7,0,0,0-.47.5,1.56,1.56,0,0,0-.1.81,1.32,1.32,0,0,0,.85,1.17.57.57,0,0,0,.45-.12C135.4,133.49,135.41,133.42,135.4,133.42Z" style="fill: #ff9a6c"/>
                </g>
                <path d="M149.52,121.06c-.19,1.14-2.51,2.18-4.42,2.13s-2.65-.93-3.93-1.56c-.81-.39-.81-.39-1.92-.21-.89.14-1.35,1.2-1.85,2,.95,2.08.56,4.5.16,6.75a1.2,1.2,0,0,1-.29.69.92.92,0,0,1-1.16-.18,3.54,3.54,0,0,1-.91-1.82,11.82,11.82,0,0,1-.28-4.66,8.06,8.06,0,0,1,1.94-4.21,7.69,7.69,0,0,1,5.21-2.38,9.43,9.43,0,0,1,5.56,1.58,5.43,5.43,0,0,1,1.89,1.92" style="fill: #263238"/>
              </g>
            </g>
            <path d="M145.72,133.72l-1.46-.68A.54.54,0,0,0,144,133a.44.44,0,0,0-.25.18,1.35,1.35,0,0,0-.16,1.49,1.13,1.13,0,0,0,1.37.5,1.54,1.54,0,0,0,.81-1.37Z" style="fill: #ff9a6c"/>
            <path d="M145,135.25s-.3.23-.85.07a1.33,1.33,0,0,1-.76-.61,1.39,1.39,0,0,1,.26-1.73,1.64,1.64,0,0,1,.25-.19.4.4,0,0,1,.38,0c.34.19.56.34.78.49.43.28.69.48.66.52s-.31-.09-.77-.32l-.78-.41a.13.13,0,0,0-.12,0l-.18.14a1.51,1.51,0,0,0-.27.42,1.15,1.15,0,0,0,.06.93,1.18,1.18,0,0,0,.57.54C144.66,135.29,145,135.19,145,135.25Z" style="fill: #263238"/>
            <path d="M144.53,128.66s0-.27-.15-.72a3,3,0,0,0-1.1-1.57,2.85,2.85,0,1,0,0,4.57,3,3,0,0,0,1.1-1.57c.13-.45.12-.71.15-.71s0,.06,0,.19a2.58,2.58,0,0,1-.06.55,3,3,0,0,1-1.08,1.73,3.09,3.09,0,0,1-2.95.48,3.13,3.13,0,0,1,0-5.91,3.12,3.12,0,0,1,2.95.48,3,3,0,0,1,1.08,1.73,2.71,2.71,0,0,1,.06.55C144.55,128.59,144.55,128.66,144.53,128.66Z" style="fill: #263238"/>
            <path d="M151.68,128.38s0-.26-.15-.7a3,3,0,0,0-1.07-1.53,2.77,2.77,0,1,0,0,4.45,3,3,0,0,0,1.07-1.53c.12-.43.12-.7.15-.69s0,.06,0,.18a2.5,2.5,0,0,1-.06.54,2.91,2.91,0,0,1-1.05,1.69,3,3,0,0,1-2.88.47,3.06,3.06,0,0,1,0-5.77,3,3,0,0,1,2.88.47,2.94,2.94,0,0,1,1.05,1.69,2.5,2.5,0,0,1,.06.54A.52.52,0,0,1,151.68,128.38Z" style="fill: #263238"/>
            <path d="M145.85,127.72c-.07.06-.35-.13-.73-.11s-.66.19-.73.13.18-.46.72-.47S145.93,127.67,145.85,127.72Z" style="fill: #263238"/>
            <path d="M138.73,128.23c.05.07-.5.58-1.24,1.13a4.16,4.16,0,0,1-1.44.87c-.06-.07.5-.58,1.24-1.13A4.46,4.46,0,0,1,138.73,128.23Z" style="fill: #263238"/>
          </g>
        </g>
        <path d="M197.8,128.51c0,.09-7.36.17-16.44.17s-16.45-.08-16.45-.17,7.36-.16,16.45-.16S197.8,128.42,197.8,128.51Z" style="fill: #263238"/>
        <path d="M182.59,132c0,.1-3.91.17-8.73.17s-8.73-.07-8.73-.17,3.91-.16,8.73-.16S182.59,131.86,182.59,132Z" style="fill: #263238"/>
      </g>
    </g>
    <g>
      <path d="M296.32,153.94a25.08,25.08,0,0,1,11.81,15.26c3.07,11,12.47,39.63,12.47,39.63s5.37,6.32,5.95,11-.58,16-2.3,18.11a4.87,4.87,0,0,1-4.19,1.76l-22.61-2.14-8.91-59.62Z" style="fill: #f43f5e"/>
      <path d="M221.55,152.9s-16.17,5.07-20.2,9.48L214.59,224l-.21,19.43H291c0-1,.69-64.52.69-64.52l4.6-24.94-27.24-4.8-5.37-4.22-30.32,1.54-4.6,4.6Z" style="fill: #f43f5e"/>
      <g style="opacity: 0.30000000000000004">
        <path d="M227.69,206.33c-.24-.53-.57-1.09-1.13-1.21-.93-.19-1.54.91-1.86,1.79a80.65,80.65,0,0,1-10.07,19.66l-.19,9.46c4.46-3.76,8.87-7.79,11.72-12.89S230.1,211.65,227.69,206.33Z"/>
      </g>
      <path d="M201.35,162.38s-5.32,7.26-7.54,12-20.54,44.56-21.64,48.67-3.95,17.07,4.42,20.07h17.22l17.29-35,.89-40.57Z" style="fill: #f43f5e"/>
      <path d="M194.92,217.87s-.39-.34-1.18-.79a13.21,13.21,0,0,0-3.61-1.31,16.79,16.79,0,0,0-2.64-.37,10.45,10.45,0,0,0-3,.2,11.22,11.22,0,0,0-5.8,3.63,15.69,15.69,0,0,0-3.28,6.11,31.05,31.05,0,0,0-1,5.63c-.16,1.63-.22,3-.28,3.87,0,.43,0,.78-.06,1.06a1.61,1.61,0,0,1,0,.37,1.53,1.53,0,0,1,0-.37c0-.28,0-.63,0-1.06,0-.92,0-2.25.17-3.89a28.27,28.27,0,0,1,1-5.7,15.88,15.88,0,0,1,3.32-6.24,11.47,11.47,0,0,1,6-3.71,10.72,10.72,0,0,1,3.11-.18,18.23,18.23,0,0,1,2.67.42,12.43,12.43,0,0,1,3.63,1.43,6,6,0,0,1,.85.63C194.84,217.77,194.93,217.86,194.92,217.87Z" style="fill: #263238"/>
      <path d="M186.75,210.91a2,2,0,0,1,.58-.1,11.33,11.33,0,0,1,1.6,0,13.67,13.67,0,0,1,2.35.35,15.6,15.6,0,0,1,2.74,1,15.41,15.41,0,0,1,2.48,1.52,12.82,12.82,0,0,1,1.75,1.61,9.85,9.85,0,0,1,1,1.26,2.17,2.17,0,0,1,.29.5c-.05,0-.52-.65-1.45-1.6a14.2,14.2,0,0,0-1.76-1.52,15.76,15.76,0,0,0-2.44-1.47,16.5,16.5,0,0,0-2.68-1,14.5,14.5,0,0,0-2.29-.41C187.58,210.9,186.75,211,186.75,210.91Z" style="fill: #263238"/>
      <path d="M202.32,209a3.87,3.87,0,0,1-.79-.06c-.51-.06-1.25-.14-2.16-.21a36.81,36.81,0,0,0-14.09,1.69c-.87.28-1.57.53-2.05.71a3.83,3.83,0,0,1-.76.25,4.15,4.15,0,0,1,.71-.37c.47-.22,1.16-.5,2-.81a32.42,32.42,0,0,1,14.18-1.7c.91.1,1.65.21,2.15.31A3.62,3.62,0,0,1,202.32,209Z" style="fill: #263238"/>
      <path d="M251.38,175s-.07-.06-.18-.21-.27-.37-.47-.62c-.42-.59-1-1.4-1.73-2.4-1.48-2.1-3.56-5-6-8.47l.27,0c-.93,2.73-2,5.74-3,8.9l-.07.2-.17-.11-.36-.23a18.35,18.35,0,0,1-3.75-3.17,22.78,22.78,0,0,1-2.68-3.7,31,31,0,0,1-2.94-7.12,47.85,47.85,0,0,1-1.12-5.08l-.24-1.38c0-.16-.06-.28-.08-.36s-.05-.11,0-.12a5.76,5.76,0,0,1,.49,1.84c.25,1.2.59,2.94,1.21,5a32.06,32.06,0,0,0,3,7,22.15,22.15,0,0,0,2.65,3.64,18.33,18.33,0,0,0,3.69,3.1l.35.23-.24.08c1.08-3.16,2.12-6.16,3-8.88l.1-.29.17.25,5.9,8.53,1.66,2.45c.18.27.32.48.43.66A1.12,1.12,0,0,1,251.38,175Z" style="fill: #263238"/>
      <g style="opacity: 0.30000000000000004">
        <path d="M271.33,204.37A34.86,34.86,0,0,0,275.76,225c3.57,6.21,8.79,11.74,15.31,14.7.21-6.32-.1-13.76.11-20.08Z"/>
      </g>
      <g>
        <path d="M270.61,196.05s-2.78.77-.69,6.48,2.78,5.36,4.17,10.69,3,10.21,5.46,13.22S291,235.61,291,235.61l8.12-7.66s-1.34-5.7-1-9.58,1.14-13.39,1-15-1.86-5.57-1.86-5.57v-2.7l-4.17-12.84s-2.32-1.05-3.13,2.66l-1.4-3.94s-2.2-.35-2.78,4.18a45.53,45.53,0,0,0,.46,10.78l-1.16,7.89-1.74,5.34-1.5.23s-2.27-.62-3.52-4.89S273.74,195.12,270.61,196.05Z" style="fill: #ffbf9d"/>
        <path d="M296.43,216.23a1.36,1.36,0,0,1,0-.29l-.05-.85c0-.78-.1-1.86-.18-3.2-.12-2.77-.3-6.62-.5-11.12l0,.09a1.63,1.63,0,0,0-1.65-.43,2.39,2.39,0,0,0-1.5,1.11,10.72,10.72,0,0,0-1,4.06l-1.24,9.17c-.2,1.41-.4,2.75-.67,4a27.26,27.26,0,0,1-1,3.38,26.51,26.51,0,0,0-.87,2.76,8.62,8.62,0,0,0-.27,2.15,7.62,7.62,0,0,0,.32,1.82,3.94,3.94,0,0,1-.19-.45,5,5,0,0,1-.26-1.37,8.64,8.64,0,0,1,.21-2.19,27.86,27.86,0,0,1,.84-2.79,27.86,27.86,0,0,0,1-3.37c.26-1.23.45-2.56.63-4,.38-2.82.79-5.92,1.22-9.17.1-.73.18-1.45.31-2.16a5.7,5.7,0,0,1,.71-2,2.79,2.79,0,0,1,1.71-1.24,2,2,0,0,1,2,.54l0,0v.05c.16,4.51.29,8.36.38,11.13l.09,3.2c0,.35,0,.63,0,.85A1,1,0,0,1,296.43,216.23Z" style="fill: #ff9a6c"/>
        <path d="M292,201.61a3.17,3.17,0,0,1-.34-.73,18.86,18.86,0,0,1-.68-2.08,19.72,19.72,0,0,1-.58-3.19,8.9,8.9,0,0,1,0-1.94,4.15,4.15,0,0,1,.7-2,2.83,2.83,0,0,1,1.49-1.11l.12,0,.07.11c1.17,2.08,2.19,3.91,2.91,5.23l.83,1.55a2.64,2.64,0,0,1,.27.59,2.57,2.57,0,0,1-.37-.53l-.91-1.51c-.77-1.29-1.83-3.1-3-5.17l.19.08a2.58,2.58,0,0,0-1.31,1,4,4,0,0,0-.65,1.84,9.7,9.7,0,0,0,0,1.87,23.14,23.14,0,0,0,.51,3.17c.2.89.42,1.6.57,2.09A4,4,0,0,1,292,201.61Z" style="fill: #ff9a6c"/>
        <path d="M290.05,202.65a3.14,3.14,0,0,1-.07-.74c0-.54-.05-1.22-.09-2-.05-1.71-.1-4.07-.14-6.67a58.25,58.25,0,0,1,.1-6.68,9.94,9.94,0,0,1,.44-2,2.94,2.94,0,0,1,.29-.69,20.36,20.36,0,0,0-.5,2.7c-.16,1.68,0,4,0,6.65s.05,5,.05,6.66c0,.8,0,1.48,0,2A3.33,3.33,0,0,1,290.05,202.65Z" style="fill: #ff9a6c"/>
        <path d="M283.18,224.05s.47-.64,1.09-1.73a13.64,13.64,0,0,0,1-2,14.84,14.84,0,0,0,.72-2.58,15.06,15.06,0,0,0,.23-2.67,16.4,16.4,0,0,0-.19-2.19c-.21-1.23-.48-2-.42-2a1.85,1.85,0,0,1,.23.5,10.08,10.08,0,0,1,.42,1.45,12.32,12.32,0,0,1,.26,2.22,13.88,13.88,0,0,1-.2,2.74,14.64,14.64,0,0,1-.77,2.64,12.06,12.06,0,0,1-1,2,9.54,9.54,0,0,1-.89,1.22A2.06,2.06,0,0,1,283.18,224.05Z" style="fill: #ff9a6c"/>
        <path d="M297.44,220.05l7.05,2.45s6.73-3.48,11.37,0,8.67,12.65,7.39,16.36c0,0-3.2,4-5.64,4.54s-11.91-1.72-15.85-2.54S291,235.61,291,235.61Z" style="fill: #ffbf9d"/>
        <path d="M298.31,230.44a2.1,2.1,0,0,1-.08-.63c0-.47-.06-1-.1-1.7-.07-1.44-.17-3.43-.2-5.63s0-4.19.16-5.63c.06-.72.14-1.3.21-1.7a2.73,2.73,0,0,1,.15-.61c.05,0-.06.89-.12,2.33s-.1,3.42-.07,5.61.08,4.1.1,5.62c0,.72,0,1.31,0,1.71A2.5,2.5,0,0,1,298.31,230.44Z" style="fill: #ff9a6c"/>
      </g>
      <path d="M321.54,222.22a21.87,21.87,0,0,0-2.34-2.11,12.89,12.89,0,0,0-14.29-.79,22,22,0,0,0-2.56,1.85,3.29,3.29,0,0,1,.58-.63,11.52,11.52,0,0,1,1.86-1.42,12.68,12.68,0,0,1,14.55.8,11.74,11.74,0,0,1,1.69,1.61A3.34,3.34,0,0,1,321.54,222.22Z" style="fill: #263238"/>
      <path d="M320.64,216.35a14.41,14.41,0,0,0-2.93-1.62,13,13,0,0,0-7.94-.24,18.91,18.91,0,0,0-4.1,1.71,19.75,19.75,0,0,0-3,2.1c-.79.68-1.4,1.26-1.81,1.67a5.55,5.55,0,0,1-.67.63,5.23,5.23,0,0,1,.57-.71,23.15,23.15,0,0,1,1.75-1.77,17.95,17.95,0,0,1,7.14-4,12.76,12.76,0,0,1,8.11.34,9.21,9.21,0,0,1,2.17,1.23,4.78,4.78,0,0,1,.52.44A.79.79,0,0,1,320.64,216.35Z" style="fill: #263238"/>
      <path d="M320.7,211.26c0,.06-1.25-.32-3.3-.59a25.37,25.37,0,0,0-3.61-.23A26.44,26.44,0,0,0,305.1,212a26.2,26.2,0,0,0-3.32,1.45c-1.83,1-2.86,1.73-2.9,1.67a6.87,6.87,0,0,1,.71-.56,10.5,10.5,0,0,1,.87-.6c.35-.22.74-.48,1.21-.72a23.31,23.31,0,0,1,3.32-1.53,26.43,26.43,0,0,1,4.33-1.17,27.62,27.62,0,0,1,4.47-.38,23.34,23.34,0,0,1,3.64.31c.52.06,1,.18,1.38.26a8.81,8.81,0,0,1,1,.27A3.84,3.84,0,0,1,320.7,211.26Z" style="fill: #263238"/>
      <path d="M266.7,148.93a5.83,5.83,0,0,1,.49,1.88,18.19,18.19,0,0,1-.26,5.46,32.06,32.06,0,0,1-.92,3.81,28.17,28.17,0,0,1-1.85,4.24c-1.51,2.92-3.42,6.12-5.64,9.52l-.25.4v-.48c0-2.25,0-4.61,0-7.06l.25.12-5.94,4.8.05-.08A62.55,62.55,0,0,0,250,185.83a164.1,164.1,0,0,0,.25,21.87c.31,6.73.52,12.79.73,17.88s.38,9.21.54,12c.08,1.41.14,2.51.19,3.27l.06.85a2.06,2.06,0,0,1,0,.29,2.81,2.81,0,0,1,0-.28l-.09-.85c-.07-.75-.16-1.85-.25-3.27-.2-2.84-.42-7-.65-12s-.5-11.15-.8-17.87a162.93,162.93,0,0,1-.27-21.92,62.09,62.09,0,0,1,2.67-14.36v0l0,0,5.95-4.79.25-.2v.32c0,2.45,0,4.81,0,7.06l-.26-.08c4.37-6.78,7.93-12.67,8.47-17.44a18.92,18.92,0,0,0,.35-5.42,9.84,9.84,0,0,0-.26-1.41Z" style="fill: #263238"/>
      <path d="M255.29,231h-.23a1.82,1.82,0,1,0,.23,0Z" style="fill: #fff"/>
      <g>
        <path d="M255.29,206.5h-.23a1.82,1.82,0,1,0,.23,0Z" style="fill: #fff"/>
        <path d="M255.05,184.56a1.88,1.88,0,0,0,1.86-1.68,1.86,1.86,0,0,0-1.62-1.9h-.23a1.8,1.8,0,0,0,0,3.59Z" style="fill: #fff"/>
      </g>
      <g>
        <g>
          <path d="M227.57,120.19a44.11,44.11,0,0,1-6.1-7.87,14.94,14.94,0,0,1-2.06-9.58c.31-1.92,1.13-3.75,1.26-5.69.18-2.67-.95-5.47,0-8,1.48-3.92,6.75-4.52,10-7.23,2.49-2.1,3.7-5.52,6.44-7.29,2.39-1.55,5.46-1.52,8.28-1.12s5.66,1.11,8.48.73a55.44,55.44,0,0,0,5.88-1.57,8,8,0,0,1,5.93.4c1.75,1,2.74,3.51,1.59,5.19,3.27-1.51,7.42,1,8.32,4.53s-.9,7.26-3.67,9.56-6.36,3.37-9.9,4c-10,1.89-20.89.82-29.53-4.6" style="fill: #263238"/>
          <g>
            <g>
              <g>
                <path d="M262.81,153.89c-.49-3.8-.89-7-.92-7.35,0,0,12.68-2.85,12-15.67-.33-6.2-2.07-18.9-3.77-30.38a23.91,23.91,0,0,0-25.26-20.33l-1.23.08c-13.28,1.67-19.28,13.87-17.24,27.1l7.16,44.34s3.06,9.81,9.6,11.51L251.38,175l1.36-5.07,6.15-5.36a23.93,23.93,0,0,0,3-4.51A9.86,9.86,0,0,0,262.81,153.89Z" style="fill: #ffbf9d"/>
                <path d="M261.9,146.35a29.83,29.83,0,0,1-17-3.63s4.56,9,17.27,6.95Z" style="fill: #ff9a6c"/>
              </g>
              <g>
                <g>
                  <g>
                    <path d="M266,111.51a1.83,1.83,0,0,1-1.64,2,1.76,1.76,0,0,1-2-1.52,1.86,1.86,0,0,1,1.64-2A1.76,1.76,0,0,1,266,111.51Z" style="fill: #263238"/>
                    <path d="M267.77,107c-.21.26-1.67-.68-3.63-.54s-3.35,1.22-3.58,1,.09-.54.69-1a5,5,0,0,1,2.84-1.09A4.73,4.73,0,0,1,267,106C267.64,106.43,267.87,106.85,267.77,107Z" style="fill: #263238"/>
                  </g>
                  <g>
                    <path d="M247.38,112.84a1.83,1.83,0,0,1-1.64,2,1.75,1.75,0,0,1-2-1.52,1.84,1.84,0,0,1,1.64-2A1.75,1.75,0,0,1,247.38,112.84Z" style="fill: #263238"/>
                    <path d="M248.44,108.63c-.21.25-1.66-.68-3.63-.55s-3.34,1.22-3.57,1,.08-.54.68-1a5.06,5.06,0,0,1,2.85-1.09,4.83,4.83,0,0,1,2.91.73C248.31,108.09,248.55,108.51,248.44,108.63Z" style="fill: #263238"/>
                  </g>
                  <path d="M256.56,122.75a12.5,12.5,0,0,1,3.16-.79c.5-.09,1-.22,1-.57a2.54,2.54,0,0,0-.43-1.47c-.56-1.18-1.14-2.43-1.74-3.73-2.43-5.31-4.23-9.69-4-9.79s2.36,4.14,4.78,9.45L261,119.6a3,3,0,0,1,.39,2,1.27,1.27,0,0,1-.78.79,3.29,3.29,0,0,1-.84.17A12.77,12.77,0,0,1,256.56,122.75Z" style="fill: #263238"/>
                </g>
                <path d="M248.44,100.88c-.16.54-2.14.42-4.43.86s-4.12,1.18-4.46.72c-.15-.22.14-.74.86-1.31a7.81,7.81,0,0,1,6.77-1.21C248.05,100.22,248.5,100.62,248.44,100.88Z" style="fill: #263238"/>
                <path d="M266.66,101.31c-.31.48-1.7.1-3.33.19s-3,.5-3.34,0c-.16-.21,0-.68.61-1.14a4.85,4.85,0,0,1,5.38-.19C266.58,100.64,266.8,101.09,266.66,101.31Z" style="fill: #263238"/>
              </g>
            </g>
            <g>
              <path d="M228.05,116.75c-.22-.08-9-2-8.11,6.73s10.34,5.89,10.33,5.64S228.05,116.75,228.05,116.75Z" style="fill: #ffbf9d"/>
              <path d="M226.39,126.25s-.14.12-.38.26a1.57,1.57,0,0,1-1.14.14c-1-.25-1.88-1.64-2.08-3.21a5.05,5.05,0,0,1,.21-2.22,1.79,1.79,0,0,1,1-1.28.76.76,0,0,1,.94.33c.14.23.11.41.15.42s.18-.17.07-.52a.94.94,0,0,0-.4-.51,1.13,1.13,0,0,0-.86-.14,2.14,2.14,0,0,0-1.46,1.51,5.11,5.11,0,0,0-.28,2.49c.23,1.75,1.29,3.31,2.59,3.55a1.64,1.64,0,0,0,1.37-.37C226.4,126.46,226.43,126.26,226.39,126.25Z" style="fill: #ff9a6c"/>
            </g>
            <path d="M269.46,88.55c-.6,3.48-7.66,6.67-13.51,6.5-5.39-.16-8-2.83-12-4.74-2.48-1.2-2.48-1.2-5.85-.65-2.72.44-4.13,3.65-5.66,6,2.91,6.34,1.73,13.72.5,20.59a3.44,3.44,0,0,1-.88,2.09c-1,.86-2.58.34-3.54-.54a10.79,10.79,0,0,1-2.76-5.55A36.08,36.08,0,0,1,224.92,98a24.66,24.66,0,0,1,5.91-12.83,23.25,23.25,0,0,1,15.89-7.25,28.57,28.57,0,0,1,16.94,4.81,16.77,16.77,0,0,1,5.8,5.83" style="fill: #263238"/>
          </g>
        </g>
        <path d="M257.85,127.17l-4.45-2.07a1.49,1.49,0,0,0-.81-.21,1.28,1.28,0,0,0-.77.52,4.14,4.14,0,0,0-.5,4.56,3.48,3.48,0,0,0,4.18,1.53c1.58-.65,2.35-2.48,2.47-4.19Z" style="fill: #ff9a6c"/>
        <path d="M255.64,131.82s-.2.16-.65.26a3.92,3.92,0,0,1-1.92-.14,4,4,0,0,1-2.21-1.84,4.16,4.16,0,0,1,.77-5.07,3.52,3.52,0,0,1,.72-.55,1.14,1.14,0,0,1,.51-.16,1.21,1.21,0,0,1,.52.1,6.8,6.8,0,0,1,.69.39l.61.37,1.08.68a9.27,9.27,0,0,1,2.07,1.48,10,10,0,0,1-2.3-1.07l-1.13-.61-.62-.34a6.64,6.64,0,0,0-.63-.34.48.48,0,0,0-.49,0,4,4,0,0,0-.58.46,3.89,3.89,0,0,0-.87,1.33,3.6,3.6,0,0,0,.19,3,3.67,3.67,0,0,0,1.84,1.69,4.45,4.45,0,0,0,1.72.32C255.39,131.81,255.63,131.77,255.64,131.82Z" style="fill: #263238"/>
        <path d="M254.24,111.73a16.39,16.39,0,0,0-.35-2.21,9,9,0,0,0-11.84-6.22,8.7,8.7,0,0,0-2.26,1.22,8.61,8.61,0,0,0-1.9,1.91,8.94,8.94,0,0,0,0,10.6,8.56,8.56,0,0,0,1.9,1.9,8.45,8.45,0,0,0,2.26,1.23,9.06,9.06,0,0,0,11.84-6.22,16.92,16.92,0,0,0,.35-2.21.85.85,0,0,1,0,.15v.43a5,5,0,0,1-.05.71,6.77,6.77,0,0,1-.18,1,8.58,8.58,0,0,1-1,2.47,9.23,9.23,0,0,1-2.33,2.64,9.12,9.12,0,0,1-3.88,1.75,9.23,9.23,0,0,1-4.87-.39,8.74,8.74,0,0,1-2.35-1.25,9,9,0,0,1-2-2,9.23,9.23,0,0,1,0-11,8.77,8.77,0,0,1,2-2A9.06,9.06,0,0,1,242,103a9.32,9.32,0,0,1,4.87-.38,9.12,9.12,0,0,1,3.88,1.75A9,9,0,0,1,253,107a8.53,8.53,0,0,1,1,2.46,7.16,7.16,0,0,1,.18,1,4.86,4.86,0,0,1,.05.7v.44A.85.85,0,0,1,254.24,111.73Z" style="fill: #263238"/>
        <path d="M276,110.87a14.74,14.74,0,0,0-.34-2.15,8.83,8.83,0,0,0-3.24-4.82,8.65,8.65,0,0,0-3.69-1.63,8.93,8.93,0,0,0-4.6.39,8.85,8.85,0,0,0-4.05,3,8.68,8.68,0,0,0,0,10.32,8.33,8.33,0,0,0,1.84,1.86,8.47,8.47,0,0,0,2.21,1.19,8.77,8.77,0,0,0,8.29-1.23,8.86,8.86,0,0,0,3.24-4.82,14.74,14.74,0,0,0,.34-2.16,3.13,3.13,0,0,1,0,.57,3.71,3.71,0,0,1-.06.69,6.26,6.26,0,0,1-.16.93,9,9,0,0,1-7,6.68,9,9,0,0,1-4.75-.37,8.67,8.67,0,0,1-2.3-1.23,8.49,8.49,0,0,1-1.91-1.92,9,9,0,0,1,0-10.7,8.33,8.33,0,0,1,1.92-1.92,8.17,8.17,0,0,1,2.29-1.22,9.08,9.08,0,0,1,4.75-.38,8.94,8.94,0,0,1,3.78,1.71,8.83,8.83,0,0,1,3.23,5,6.49,6.49,0,0,1,.16.93,3.77,3.77,0,0,1,.06.69A3.06,3.06,0,0,1,276,110.87Z" style="fill: #263238"/>
        <path d="M258.25,108.86s-.25-.14-.64-.32a3.54,3.54,0,0,0-1.6-.36,3.63,3.63,0,0,0-1.59.41c-.38.2-.58.39-.62.35s.12-.28.5-.55a3.07,3.07,0,0,1,1.71-.54,3.19,3.19,0,0,1,1.72.48C258.12,108.59,258.28,108.83,258.25,108.86Z" style="fill: #263238"/>
        <path d="M236.54,110.43a42.29,42.29,0,0,1-4,3.19,37.79,37.79,0,0,1-4.19,2.91,41.64,41.64,0,0,1,4-3.18A40.62,40.62,0,0,1,236.54,110.43Z" style="fill: #263238"/>
      </g>
      <g style="opacity: 0.30000000000000004">
        <path d="M229,151.85c-.89,8.64,2.39,17.76,9.32,23a2.13,2.13,0,0,0,1.87.59,2,2,0,0,0,1-1,16.85,16.85,0,0,0,2.07-11.1c-1.1,2.89-2,5.73-3.15,8.75C234.05,168.41,230.29,160.62,229,151.85Z"/>
      </g>
      <path d="M252.46,171.49l5.08-1.85.84,8.59s5.49-10,7.76-14.56,1.1-12.61,1.1-12.61.81,7-4.68,16l-4.15,6.74V166.7Z" style="opacity: 0.30000000000000004"/>
      <g style="opacity: 0.30000000000000004">
        <path d="M193.32,215.19a13.57,13.57,0,0,0-7.36-.93,14.18,14.18,0,0,0-7.33,2.78,8.17,8.17,0,0,0-3.2,6.92l.25,0c1.77-4.8,5.3-8.29,9.85-8.71a14.92,14.92,0,0,1,12.11,4.93C197.34,217.72,195.59,216.26,193.32,215.19Z"/>
      </g>
      <g style="opacity: 0.30000000000000004">
        <path d="M321.87,220.1a11.65,11.65,0,0,0-6.56-3.39,14.76,14.76,0,0,0-12.25,3.55l1-.79a15.44,15.44,0,0,1,8.15-2.21,11.8,11.8,0,0,1,7.78,3.1,20.8,20.8,0,0,1,4.13,6.64A8.3,8.3,0,0,0,321.87,220.1Z"/>
      </g>
      <path d="M289.1,180.17a3,3,0,0,1,.23-.7l.72-1.85c.62-1.56,1.46-3.71,2.36-6.11s1.66-4.58,2.21-6.16l.66-1.88a3,3,0,0,1,.28-.67,2.77,2.77,0,0,1-.16.71c-.12.46-.31,1.11-.56,1.91-.5,1.6-1.23,3.8-2.12,6.21s-1.78,4.54-2.45,6.08c-.34.77-.62,1.39-.82,1.81A2.8,2.8,0,0,1,289.1,180.17Z" style="fill: #263238"/>
      <path d="M208.87,180.79c-.09,0-.78-3-1.55-6.76s-1.31-6.82-1.22-6.83.78,3,1.55,6.76S209,180.77,208.87,180.79Z" style="fill: #263238"/>
      <g>
        <g>
          <path d="M207.67,218.65c.2.1-2.33-19.83-2.33-19.83s1.59-15.13,2.49-15.83l0-5.34s2.47-1.5,3.13.92c0,0,2.2-1.9,2.58,2.63s.46,9.17.46,9.17l4.89,12.21.8.41s1.05-9.57,1.66-11,1-4.84,3.34-4.32,2.51,2.43,2.1,5.55-.94,6.34-.75,8.35,1.11,6.46.83,10a19.85,19.85,0,0,1-4.24,9.85c-2,2.61-5.89,8-8,9.64C213.93,231.64,207.67,218.65,207.67,218.65Z" style="fill: #ffbf9d"/>
          <path d="M210.13,202.43a5.11,5.11,0,0,1,0-.86l.15-2.31c.15-2,.38-4.65.65-7.63.15-1.48.28-2.9.4-4.2a6.81,6.81,0,0,0,0-1.8,2.5,2.5,0,0,0-.6-1.37,2.77,2.77,0,0,0-2-.88,6,6,0,0,0-.83.11s.06-.05.2-.1a2,2,0,0,1,.63-.13,2.7,2.7,0,0,1,2.88,2.33,7.78,7.78,0,0,1,0,1.87c-.12,1.3-.24,2.71-.38,4.2-.27,3-.53,5.67-.74,7.62l-.27,2.31A4.75,4.75,0,0,1,210.13,202.43Z" style="fill: #ff9a6c"/>
          <path d="M212.76,194.28a6.31,6.31,0,0,0-.87,1.57,27.44,27.44,0,0,0-.81,4.3c-.26,1.71-.52,3.25-.72,4.36a9.31,9.31,0,0,1-.4,1.79,11.65,11.65,0,0,1,.17-1.83c.14-1.12.36-2.66.62-4.37a21.39,21.39,0,0,1,.92-4.34,4,4,0,0,1,.71-1.16C212.59,194.36,212.75,194.26,212.76,194.28Z" style="fill: #ff9a6c"/>
          <path d="M211,178.31a2.81,2.81,0,0,1,.17.63c.09.41.2,1,.32,1.73.25,1.47.51,3.52.68,5.79s.21,4.33.18,5.82c0,.75,0,1.35-.06,1.77a2.13,2.13,0,0,1-.08.64,20.18,20.18,0,0,1-.09-2.41c0-1.48-.11-3.54-.28-5.8s-.4-4.3-.58-5.77A21.75,21.75,0,0,1,211,178.31Z" style="fill: #ff9a6c"/>
          <path d="M225.05,197a1.77,1.77,0,0,1-1.65.14c-.93-.28-1.37-1-1.28-1a10.1,10.1,0,0,0,1.38.71A8.81,8.81,0,0,0,225.05,197Z" style="fill: #ff9a6c"/>
          <path d="M207.94,216.17,195,221.59h-7.68s-7.61,2.37-8.77,9.5-1.34,10.79,2,11.67,12.78,1,17.46-.57S215,230.75,215,230.75l1.18-7.15Z" style="fill: #ffbf9d"/>
        </g>
        <path d="M211,224.05a2.08,2.08,0,0,1-.36-.34,7.84,7.84,0,0,1-.84-1.07,14.25,14.25,0,0,1-1.8-4.08,23.83,23.83,0,0,1-.8-4.38,8.15,8.15,0,0,1,0-1.84,11.9,11.9,0,0,1,.28,1.81,32.69,32.69,0,0,0,.89,4.32,16.57,16.57,0,0,0,1.68,4.05C210.54,223.48,211,224,211,224.05Z" style="fill: #ff9a6c"/>
      </g>
      <path d="M216.58,226.31a13.53,13.53,0,0,0,.73-2.77,9.11,9.11,0,0,0-.15-3.07,9.26,9.26,0,0,0-1.58-3.4c-.78-1.1-1.66-2.06-2.41-3a13.56,13.56,0,0,1-1.74-2.64,6.8,6.8,0,0,1-.65-2,2.34,2.34,0,0,1,0-.78,9,9,0,0,0,.88,2.71,14.62,14.62,0,0,0,1.77,2.55c.75.9,1.64,1.85,2.44,3a9.25,9.25,0,0,1,1.61,3.53,9,9,0,0,1,.09,3.16,7.85,7.85,0,0,1-.6,2.05,3.09,3.09,0,0,1-.26.52A.62.62,0,0,1,216.58,226.31Z" style="fill: #ff9a6c"/>
      <g>
        <path d="M196.69,195.25a64.41,64.41,0,0,1-3.14-5.72,63.58,63.58,0,0,1-2.85-5.87,61.07,61.07,0,0,1,3.14,5.72A62.18,62.18,0,0,1,196.69,195.25Z" style="fill: #fff"/>
        <path d="M217.55,172a41.34,41.34,0,0,1,1.95-4.76,39.88,39.88,0,0,1,2.24-4.64,37.91,37.91,0,0,1-1.94,4.77A38.26,38.26,0,0,1,217.55,172Z" style="fill: #fff"/>
        <path d="M238,187.1a29.92,29.92,0,0,1-2.92-3.28,28.11,28.11,0,0,1-2.67-3.48,29.2,29.2,0,0,1,2.92,3.27A28.61,28.61,0,0,1,238,187.1Z" style="fill: #fff"/>
        <path d="M233.28,207.83a23.55,23.55,0,0,1,2.21-3.32,24,24,0,0,1,2.47-3.13,25.41,25.41,0,0,1-2.21,3.32A24,24,0,0,1,233.28,207.83Z" style="fill: #fff"/>
        <path d="M227,237.11a6.74,6.74,0,0,1-.75-1.28c-.42-.82-1-2-1.51-3.24s-1-2.46-1.28-3.33a6.58,6.58,0,0,1-.4-1.42,7.18,7.18,0,0,1,.62,1.34l1.37,3.28c.52,1.22,1,2.31,1.41,3.27A7.23,7.23,0,0,1,227,237.11Z" style="fill: #fff"/>
        <path d="M244.93,224.66a23,23,0,0,1-3.86-.58,22.58,22.58,0,0,1-3.8-.91,23.28,23.28,0,0,1,3.86.58A22.58,22.58,0,0,1,244.93,224.66Z" style="fill: #fff"/>
        <path d="M258.87,197.3a47.36,47.36,0,0,1,3.68-4.22,49.7,49.7,0,0,1,3.93-4,47.36,47.36,0,0,1-3.68,4.22A49.7,49.7,0,0,1,258.87,197.3Z" style="fill: #fff"/>
        <path d="M272.89,233.79c-.07.06-2.13-2.33-4.59-5.32s-4.41-5.47-4.34-5.53,2.12,2.32,4.59,5.32S273,233.73,272.89,233.79Z" style="fill: #fff"/>
        <path d="M185.84,218.24c0,.09-1.83,1-3.88,2.61s-3.48,3.12-3.55,3.06a4.76,4.76,0,0,1,.86-1.09,20.48,20.48,0,0,1,2.49-2.23,21,21,0,0,1,2.81-1.81A4.74,4.74,0,0,1,185.84,218.24Z" style="fill: #fff"/>
        <path d="M191.08,204.17a13.07,13.07,0,0,1-1.49,2.55,13.26,13.26,0,0,1-1.77,2.36,12.85,12.85,0,0,1,1.49-2.54A13.59,13.59,0,0,1,191.08,204.17Z" style="fill: #fff"/>
        <path d="M202.9,218a6.15,6.15,0,0,1-1.08-2.61,6.39,6.39,0,0,1-.16-2.83c.1,0,.13,1.26.48,2.75S203,217.94,202.9,218Z" style="fill: #fff"/>
        <path d="M204.65,174.12a9.64,9.64,0,0,1-2.45.51,9.39,9.39,0,0,1-2.5.19,9.51,9.51,0,0,1,2.45-.51A9.39,9.39,0,0,1,204.65,174.12Z" style="fill: #fff"/>
        <path d="M213.52,158.38a9.52,9.52,0,0,1-2.14,1.38,10.11,10.11,0,0,1-2.31,1.09,10.05,10.05,0,0,1,2.15-1.38A10.16,10.16,0,0,1,213.52,158.38Z" style="fill: #fff"/>
        <path d="M238.48,165a21.26,21.26,0,0,1-2.46-2.95,22.93,22.93,0,0,1-2.19-3.15,46,46,0,0,1,4.65,6.1Z" style="fill: #fff"/>
        <path d="M270.15,180.85a11.3,11.3,0,0,1-2.29-2.86,11.44,11.44,0,0,1-1.56-3.32c.09,0,.78,1.44,1.84,3.14S270.23,180.79,270.15,180.85Z" style="fill: #fff"/>
        <path d="M282.24,184.84a18.07,18.07,0,0,1-1.31,3.29,19.83,19.83,0,0,1-1.61,3.16,18.3,18.3,0,0,1,1.31-3.3A19.43,19.43,0,0,1,282.24,184.84Z" style="fill: #fff"/>
        <path d="M283.93,168.34a35.12,35.12,0,0,1-3.21-3.61,36,36,0,0,1-3-3.81,34.31,34.31,0,0,1,3.21,3.6A34.36,34.36,0,0,1,283.93,168.34Z" style="fill: #fff"/>
        <path d="M265.47,154.93a14,14,0,0,1-.29-3.08,14.64,14.64,0,0,1,0-3.1,14.9,14.9,0,0,1,.29,3.09A14.57,14.57,0,0,1,265.47,154.93Z" style="fill: #fff"/>
        <path d="M280.52,154.1a47.85,47.85,0,0,1-7.9,1.05,47.85,47.85,0,0,1,7.9-1.05Z" style="fill: #fff"/>
        <path d="M304.24,171.52a36.84,36.84,0,0,1-2.37-4.51,41,41,0,0,1-2.07-4.65,37.13,37.13,0,0,1,2.37,4.5A40.63,40.63,0,0,1,304.24,171.52Z" style="fill: #fff"/>
        <path d="M300.24,186.57a20.33,20.33,0,0,1,.56-3.63,19.52,19.52,0,0,1,.88-3.55,20.29,20.29,0,0,1-.56,3.62A20.07,20.07,0,0,1,300.24,186.57Z" style="fill: #fff"/>
        <path d="M311.24,198.43a43.64,43.64,0,0,1-1.89-4.89,41.45,41.45,0,0,1-1.57-5,41.45,41.45,0,0,1,1.89,4.89A41.45,41.45,0,0,1,311.24,198.43Z" style="fill: #fff"/>
        <path d="M309.71,205.37a8.43,8.43,0,0,1-3.21-1.15,8.52,8.52,0,0,1-2.72-2.06c.06-.08,1.23.89,2.87,1.77S309.74,205.28,309.71,205.37Z" style="fill: #fff"/>
        <path d="M323.8,221.2a9.36,9.36,0,0,1-1.14-2.16,9.13,9.13,0,0,1-.84-2.29,9.36,9.36,0,0,1,1.14,2.16A9,9,0,0,1,323.8,221.2Z" style="fill: #fff"/>
        <path d="M240.58,243.27a12.52,12.52,0,0,1-.49-2.82,12.2,12.2,0,0,1-.17-2.86,12.84,12.84,0,0,1,.5,2.82A12.5,12.5,0,0,1,240.58,243.27Z" style="fill: #fff"/>
        <path d="M283.81,242.18a23.78,23.78,0,0,1,1.16-5.45,11.88,11.88,0,0,1-.42,2.76A12.15,12.15,0,0,1,283.81,242.18Z" style="fill: #fff"/>
      </g>
    </g>
    <g>
      <g>
        <path d="M292.1,116l5.59-9.85a26.4,26.4,0,1,1,6.32,7h0Z" style="fill: #fafafa"/>
        <path d="M292.1,116,304,113.25l.12,0-.07-.1h0l-.11.11a26.33,26.33,0,0,0,12.64,5.34,23.9,23.9,0,0,0,4.18.21c.72,0,1.45-.06,2.18-.12l2.23-.34a26.59,26.59,0,0,0,20.93-20.76,26.92,26.92,0,0,0-.31-11.73A26.12,26.12,0,0,0,340.17,75l-1.08-1.18a15,15,0,0,0-1.16-1.09c-.4-.35-.76-.74-1.19-1l-1.27-.94a11.44,11.44,0,0,0-1.31-.87L332.82,69l-1.4-.68a12.64,12.64,0,0,0-1.41-.63,26.79,26.79,0,0,0-11.82-1.81,26,26,0,0,0-10.84,3.2,26.72,26.72,0,0,0-12.51,15.4,28.5,28.5,0,0,0-1.15,8.57,26.22,26.22,0,0,0,1.29,7.4,26.55,26.55,0,0,0,2.65,5.68v-.08c-3.52,6.32-5.25,9.4-5.52,9.89l5.66-9.82,0,0,0,0a26.72,26.72,0,0,1-2.59-5.65,25.61,25.61,0,0,1-1.25-7.35,28.32,28.32,0,0,1,1.16-8.5,26.53,26.53,0,0,1,12.41-15.21,25.67,25.67,0,0,1,10.73-3.15A26.57,26.57,0,0,1,329.89,68a12.42,12.42,0,0,1,1.4.62l1.38.67,1.32.81a11,11,0,0,1,1.29.85l1.25.94a14.5,14.5,0,0,1,1.18,1c.38.36.8.68,1.15,1.08l1.06,1.17a25.65,25.65,0,0,1,5.59,10.7,26.59,26.59,0,0,1,.31,11.59,25.92,25.92,0,0,1-4.39,10.07,26.38,26.38,0,0,1-16.28,10.5l-2.2.34c-.73.06-1.46.08-2.17.12a23.52,23.52,0,0,1-4.14-.19,26.6,26.6,0,0,1-7.17-2,27.61,27.61,0,0,1-5.41-3.21l-.49-.38.38.49h0l.05-.13Z" style="fill: #263238"/>
      </g>
      <g>
        <path d="M327.26,91.23a2.58,2.58,0,1,0,2.57-2.58A2.57,2.57,0,0,0,327.26,91.23Z" style="fill: #263238"/>
        <path d="M317,91.23a2.58,2.58,0,1,0,2.58-2.58A2.57,2.57,0,0,0,317,91.23Z" style="fill: #263238"/>
        <path d="M306.67,89.94a2.57,2.57,0,1,0,3.52-.94A2.58,2.58,0,0,0,306.67,89.94Z" style="fill: #263238"/>
      </g>
    </g>
  </g>
</svg>
