<svg id="Layer_1" data-name="Layer 1" xmlns="http://www.w3.org/2000/svg" viewBox="0 0 512 512">
  <g>
    <g>
      <path d="M231.83,405.6C230,407.94,75,414.9,67.56,412.78a5,5,0,0,1-1-.44C57.41,408.07,15.15,369.26,12,366c-7.83-8,24.56-64.5,34.87-73.84,6.86-6.21,19.58-8.64,19.58-8.64s35.91-103.61,58.05-125.31c5.55-5.44,101.69-7.57,118.87.27,7.35,3.35,25.25,21.63,25.74,24.9v0C269.53,188.2,233.68,403.23,231.83,405.6Z" style="fill: #37474f"/>
      <path d="M231.83,405.6C230,407.94,75,414.9,67.56,412.78a5,5,0,0,1-1-.44c14.85-40.16,84.69-228.63,86.67-229.85s93.86-.66,115.86.93C269.53,188.2,233.68,403.23,231.83,405.6Z" style="fill: #263238"/>
      <path d="M174.89,165.85c-1.55-1.45-2.58-22.52.27-26.71,3.2-4.71,40.06-2.38,42.24,1.63s3.21,25,2.1,25.81-7.26,1.49-8.08.14S210.64,148,210,147.05s-26.46-2.6-27.35-1.28,1.27,18.94.24,19.7S176.4,167.27,174.89,165.85Z" style="fill: #37474f"/>
    </g>
    <g>
      <g>
        <path d="M327.23,511.57H170.15c-9.57-36.5-18.35-68.76-24-89.12-3.52-12.81-5.77-20.93-6.21-22.45l-.07-.27H303.26s1.86,8.54,5,22.9c2,9.25,4.49,20.95,7.37,34.32.24,1.16.51,2.35.75,3.57C319.65,475.83,323.36,493.18,327.23,511.57Z" style="fill: #455a64"/>
        <path d="M194,511.57h-3q-12-44.42-23.53-89l-.64-2.5a.56.56,0,0,1,1.08-.32c.28.94.56,1.88.82,2.82C177.41,452.15,185.74,481.84,194,511.57Z" style="fill: #263238"/>
      </g>
      <g>
        <path d="M290.51,400c-.64,5.07-2.63,13.29-5.59,22.9-1.82,5.94-4,12.37-6.52,19-.53,1.5-1.13,3-1.71,4.47-7.92,20.18-18.33,40.73-29,50.49,0,0,0,0,0,0h0a27.87,27.87,0,0,1-4.1,3.21l-9.1,5.62a.29.29,0,0,1,0,.13v0c-.09.55-.41,2.52-.94,5.72H80.3c-3.91-35.5,4.25-68.72,11.37-89.54a185.16,185.16,0,0,1,8.9-22Z" style="fill: #455a64"/>
        <g>
          <path d="M272.31,488.2c-9.57,5.49-19.63,9.85-29.73,14.21-2.71,1.17-5.41,2.31-8.16,3.42h0a5.49,5.49,0,0,1-.51.21c-2.36,1-4.73,1.92-7.12,2.84s-4.63,1.82-7,2.69H214.6c3.58-1.81,7.32-3.33,11-4.95q7.57-3.37,15.19-6.71,3.47-1.5,6.92-3l.07,0c7.92-3.52,15.82-7,24-10C272.5,486.54,273,487.77,272.31,488.2Z" style="fill: #263238"/>
          <path d="M234.46,506c0,1.2-.1,3.17-.32,5.62h-1.71c.52-2.3,1-4.18,1.46-5.53a.47.47,0,0,1,.06-.15.24.24,0,0,1,.45-.06h0v0A.11.11,0,0,1,234.46,506Z" style="fill: #263238"/>
          <path d="M115.4,409.55c-2.07,4.13-4,8.35-5.7,12.65a170.36,170.36,0,0,0-11.56,82.13c.28,2.43.62,4.83,1,7.24H96.43a168.75,168.75,0,0,1-1.82-21.17A161.55,161.55,0,0,1,108,422.16q2.94-6.71,6.51-13.12C114.82,408.46,115.7,409,115.4,409.55Z" style="fill: #263238"/>
          <path d="M230.61,463.2c.15-5.9.57-11.8.86-17.69.69-13.92,1.23-27.91,2.52-41.79a.44.44,0,0,1,.87,0c.17,10.77-.24,21.57-.46,32.33-.11,5.39-.27,10.78-.42,16.16a152.94,152.94,0,0,0-.1,15.44c.29,3.88,1.14,11.42,6.21,11.89,4.76.44,8.55-4.71,9.74-8.49,3-9.58,4.1-19.93,5.08-29.9.58-5.9,1.26-29.93.94-35.89,0-.39.57-.37.59,0,.33,6.08,1.17,12.12,1.37,18.23s.22,12.16-.17,18.22c-.38,5.81-.86,11.65-1.74,17.41-.79,5.18-1.66,10.56-3.74,15.4-1.76,4.08-4.78,7.83-9.36,8.73a9.89,9.89,0,0,1-1.7.17c0,1.25-.22,2.51-.31,3.74-.14,1.95-.38,3.89-.64,5.83a43.49,43.49,0,0,1-1.19,5.64,21,21,0,0,1-2,5.39.3.3,0,0,1-.55-.16,25.89,25.89,0,0,1,.46-5.56c.26-1.9.53-3.82.92-5.69s.72-3.69,1.1-5.53c.25-1.24.43-2.51.66-3.76a9.07,9.07,0,0,1-6.76-5.32C230.66,473.49,230.49,468.13,230.61,463.2Z" style="fill: #263238"/>
        </g>
      </g>
    </g>
    <g>
      <g>
        <g>
          <path d="M220.79,203.75C237.52,226.61,345,326.12,414.1,326.06c11.66,0,52.23,4.79,62.45-29.41,11.88-39.77,11-123.94-1.26-162.52-10.15-31.93-84.89,13.63-86.14,33.31-.94,14.89,1.93,62.47-1.1,62.34-19.76-.8-85.91-37.05-147.89-54.88C211.43,166.64,207.9,186.13,220.79,203.75Z" style="fill: #d3766a"/>
          <g>
            <path d="M477,144.77c-6.38-31.93-23.58-65.61-33.57-74.66s-57.47-25.51-69-27-53,8.42-60.72,15.3c-6.19,5.51,3.34,19.85,26.75,19,21.89-.76,27.09-2,33.31-.72S398,94,395.9,103.15c-1.24,5.39-14.38,14.11-24.12,11.91S356.58,103,344.69,96.72s-29.63-1.53-29.67,3.53,6.35,6.11,18.92,20.7c8.09,9.38,13.35,27.46,30.49,42.94C373,171.66,393.15,184,393.15,184Z" style="fill: #d3766a"/>
            <g>
              <path d="M440.71,71.18c-11.44-11.83-38.64-31.81-62.33-35.74-16-2.65-62,32.69-58.5,42.14s12.22,7.71,24.82,3.53c4.6-1.53,27.66-15.57,33-11.21,7.63,6.25,20.63,30.32,20.63,30.32Z" style="fill: #d3766a"/>
              <path d="M320.37,73.51c4.17-11.74,16.89-20.16,29.79-27.39.2-.11.39.19.19.3-3.28,1.85-23.65,16.8-29.8,27.23C320.48,73.76,320.32,73.63,320.37,73.51Z" style="fill: #263238"/>
            </g>
            <g>
              <path d="M440.71,71.18c-11.44-11.83-38.64-31.81-62.33-35.74-16-2.65-49.9,37.46-46.4,46.92s16.18,7.66,29,0c4.15-2.47,17-16.12,22.31-11.77,7.64,6.26,26.32,21.85,26.32,21.85Z" style="fill: #d3766a"/>
              <path d="M350,87.39c5.34-1.59,10.63-6,14.75-9.68,3.6-3.17,7.31-7.11,12-8.54a10,10,0,0,1,6.37,0c2.14.79,3.86,2.44,5.57,3.89,2,1.68,3.87,3.48,5.73,5.3s2.5,2.48,4.33,4.34c.76.78.16,1.22-.7.39a70.42,70.42,0,0,0-10.17-8c-1.77-1.23-3.72-2.81-5.81-3.46a8.64,8.64,0,0,0-6.64.91c-4.25,2.3-7.6,6.07-11.63,8.72s-9,6-13.77,6.61C349.78,87.82,349.73,87.45,350,87.39Z" style="fill: #263238"/>
              <path d="M332.16,71.83c2.13-5.44,6.25-10.28,10.19-14.52A116.34,116.34,0,0,1,355.92,45q3.7-2.91,7.56-5.62c2.46-1.72,4.92-3.81,7.85-4.56,8-2.08,17,2.62,20.44,3.91.21.08.13.43-.09.35-2.87-1-12.14-4.44-17.16-3.37-3.13.67-5.75,2.47-8.25,4.3-2.19,1.61-4.38,3.22-6.54,4.88-8.75,6.77-17.6,14.63-23.42,24.17-3.23,5.29-5,11.72-1.24,17.2.13.19-.14.38-.3.25C330.55,83.06,330.31,76.55,332.16,71.83Z" style="fill: #263238"/>
            </g>
            <g>
              <path d="M461.06,97.89c-9.37-19.65-26.83-47.56-33.65-54.68s-36.12-30.6-46.85-27.12c-13.48,4.36,6,26.28,15.31,35s11.67,26.4,11.67,26.4Z" style="fill: #d3766a"/>
              <path d="M382.32,36.21c3.23,2.72,6.25,5.84,9.19,8.87,2.79,2.86,5.9,5.63,8.24,8.88a36.62,36.62,0,0,1,5,10.81c.58,1.89,1,3.79,1.44,5.71.44,2.1.69,4.26,1.16,6.35.05.22-.28.32-.34.1a91.43,91.43,0,0,0-3.84-11.13,49.5,49.5,0,0,0-5.79-10.68c-4.7-6.57-10.74-12-15.5-18.56C381.71,36.29,382.09,36,382.32,36.21Z" style="fill: #263238"/>
            </g>
          </g>
        </g>
        <g>
          <path d="M386.32,185.88,501.24,212s-11.83,91.09-35.67,107.87S383.45,330,347.92,308.21s-104.1-68-127.08-101.83,2.46-41,26.82-31,136,51.29,137.15,50.51S386.32,185.88,386.32,185.88Z" style="fill: #e11d48"/>
          <path d="M462.77,282.63a4.89,4.89,0,0,1-2,1,4,4,0,0,1-3.62-1.11,5,5,0,0,0-5.65-1,5.31,5.31,0,0,0-2.07,1.84c-.47.67-1,1.32-1.43,2.08a19.74,19.74,0,0,0,2.14-1.41,6.18,6.18,0,0,1,1.93-1,4,4,0,0,1,3.67,1,5.15,5.15,0,0,0,5.54,1.16,4.94,4.94,0,0,0,2.18-1.78,23.68,23.68,0,0,0,1.38-2.14A22.67,22.67,0,0,0,462.77,282.63Zm-91.24,15.43a4.14,4.14,0,0,1-5.6-.1,5,5,0,0,0-5.6-1,5.52,5.52,0,0,0-2.09,1.84,22.63,22.63,0,0,0-1.43,2.13,18.89,18.89,0,0,0,2.14-1.42,4.51,4.51,0,0,1,1.93-1,3.85,3.85,0,0,1,3.62,1,5.22,5.22,0,0,0,5.6,1.17,5.06,5.06,0,0,0,2.14-1.78c.45-.71,1-1.38,1.43-2.14C372.9,297.09,372.24,297.59,371.53,298.06Zm45.69-90a4.15,4.15,0,0,1-1.92,1,3.82,3.82,0,0,1-3.62-1.13,5.16,5.16,0,0,0-5.65-1,4.93,4.93,0,0,0-2.09,1.82c-.45.72-1,1.38-1.43,2.15.76-.47,1.43-1,2.14-1.43a4.12,4.12,0,0,1,2-1,3.77,3.77,0,0,1,3.65.91,5,5,0,0,0,7.74-.62c.46-.71,1-1.37,1.38-2.14C418.6,207.06,417.94,207.57,417.22,208Zm-82.13,53.29a21.5,21.5,0,0,0-.51-2.49c-.2.81-.3,1.62-.52,2.49a5.3,5.3,0,0,1-.59,2.09,3.83,3.83,0,0,1-3.28,1.88,5.28,5.28,0,0,0-4.78,3.15,4.94,4.94,0,0,0-.25,2.81,20.12,20.12,0,0,0,.52,2.49,24.38,24.38,0,0,0,.5-2.49,4.37,4.37,0,0,1,.71-2.09,3.78,3.78,0,0,1,3.35-1.78,5,5,0,0,0,4.64-3.31A4.71,4.71,0,0,0,335.09,261.31Zm-10.46-52.38a20.11,20.11,0,0,0-.5-2.5c-.2.81-.31,1.64-.51,2.5A4.76,4.76,0,0,1,323,211a3.74,3.74,0,0,1-3.25,1.89,5,5,0,0,0-5,5.9,23.24,23.24,0,0,0,.5,2.54,21.15,21.15,0,0,0,.51-2.54,4.51,4.51,0,0,1,.71-2A3.8,3.8,0,0,1,319.8,215a5.18,5.18,0,0,0,4.68-3.31A4.79,4.79,0,0,0,324.63,208.93ZM464.48,310.11a20,20,0,0,0-.5-2.49c-.21.81-.31,1.63-.51,2.49a4.94,4.94,0,0,1-.61,2.09,3.78,3.78,0,0,1-3.26,1.88,5.24,5.24,0,0,0-4.78,3.16,4.86,4.86,0,0,0-.25,2.75,22.35,22.35,0,0,0,.5,2.54,20.39,20.39,0,0,0,.51-2.54,4.3,4.3,0,0,1,.72-2,3.78,3.78,0,0,1,3.35-1.78,4.94,4.94,0,0,0,4.83-6.06ZM415.9,256.06a20,20,0,0,0-.5-2.49c-.2.81-.32,1.63-.52,2.49a4.9,4.9,0,0,1-.61,2.09A3.72,3.72,0,0,1,411,260a5,5,0,0,0-5,5.91,22.79,22.79,0,0,0,.5,2.54,17.58,17.58,0,0,0,.51-2.54,4.53,4.53,0,0,1,.72-2,3.81,3.81,0,0,1,3.35-1.78,5.23,5.23,0,0,0,4.69-3.3A5.05,5.05,0,0,0,415.9,256.06Zm48.58-12.35a5.23,5.23,0,0,1-2-.67,3.86,3.86,0,0,1-1.78-3.35,5.15,5.15,0,0,0-3.3-4.69,4.73,4.73,0,0,0-2.76-.21c-.86.21-1.67.31-2.54.51.87.25,1.68.35,2.54.52a5.19,5.19,0,0,1,2.1.6,3.91,3.91,0,0,1,1.87,3.27,5.21,5.21,0,0,0,3.16,4.78,4.78,4.78,0,0,0,2.75.25,18.76,18.76,0,0,0,2.54-.52C466.16,244,465.35,243.91,464.48,243.71Zm-44.1,70a5.07,5.07,0,0,1-2.08-.71,3.9,3.9,0,0,1-1.79-3.36,5.08,5.08,0,0,0-3.3-4.68,5.23,5.23,0,0,0-2.74-.22c-.88.22-1.7.32-2.51.52a21.42,21.42,0,0,0,2.51.51,4.4,4.4,0,0,1,2.07.65,3.88,3.88,0,0,1,1.94,3.27,4.93,4.93,0,0,0,5.9,5,20.12,20.12,0,0,0,2.49-.52C422,313.93,421.19,313.83,420.38,313.68Zm-50-70a5.05,5.05,0,0,1-2.09-.67,4.12,4.12,0,0,1-1.78-3.35,5,5,0,0,0-3.27-4.69,4.85,4.85,0,0,0-2.79-.21,25,25,0,0,0-2.49.51c.82.25,1.68.35,2.49.52a5.58,5.58,0,0,1,2.14.6,4,4,0,0,1,1.88,3.27,5.21,5.21,0,0,0,3.11,4.78,5,5,0,0,0,2.8.25,18.07,18.07,0,0,0,2.49-.52C372,244,371.18,243.91,370.36,243.71Zm-97.7-43.08c-.22-.86-.32-1.68-.52-2.54a25.37,25.37,0,0,0-.51,2.54,5.14,5.14,0,0,1-.6,2.09,3.91,3.91,0,0,1-3.27,1.88,5.15,5.15,0,0,0-4.79,3.15,4.83,4.83,0,0,0-.24,2.74,15.5,15.5,0,0,0,.51,2.51c.2-.81.3-1.63.5-2.51a5.07,5.07,0,0,1,.66-2,3.81,3.81,0,0,1,3.36-1.78,5.15,5.15,0,0,0,4.68-3.32A4.78,4.78,0,0,0,272.66,200.63ZM227.87,176.2a4.51,4.51,0,0,1-2.09-.71,4,4,0,0,1-1.78-3.35,3.55,3.55,0,0,0-.05-.57c-.7.12-1.36.25-2,.42a.65.65,0,0,1,0,.2,5.23,5.23,0,0,0,3.1,4.78,5,5,0,0,0,2.81.25,18.38,18.38,0,0,0,2.49-.52A22,22,0,0,0,227.87,176.2ZM284.3,262a4.23,4.23,0,0,1-2.08-.72,4,4,0,0,1-1.78-3.35,5.13,5.13,0,0,0-3.32-4.69,5,5,0,0,0-2.74-.15,22.4,22.4,0,0,0-2.49.5c.82.22,1.68.32,2.49.52a4.85,4.85,0,0,1,2.08.61A3.93,3.93,0,0,1,278.4,258a5.1,5.1,0,0,0,3.11,4.78,5.42,5.42,0,0,0,2.79.25,22.11,22.11,0,0,0,2.5-.5A17.06,17.06,0,0,0,284.3,262Z" style="fill: #fff"/>
          <path d="M382.78,252c-.23-3-.3-5.94-.24-8.91a94.46,94.46,0,0,1,2.32-17.07c.05-.26.49-.2.46.06-.62,5.64-.66,11.38-.9,17q-.18,4.22-.22,8.43c0,2.87-.16,5.79,0,8.65,0,.17-.29.21-.31,0C383.48,257.52,383,254.82,382.78,252Z" style="fill: #263238"/>
          <path d="M492.41,238.18c-54.16-14.62-93.35-21.26-100.89-22.36a.16.16,0,0,0-.09.3c37.66,11.13,97.23,22.45,100.89,22.71C492.71,238.86,492.76,238.27,492.41,238.18Z" style="fill: #263238"/>
          <path d="M463.86,321c-24.81,15.34-81.22,8.54-115.94-12.77-35.53-21.79-104.11-68-127.07-101.83-6.06-8.92-8.75-16-9-21.36Z" style="opacity: 0.1"/>
        </g>
      </g>
      <g>
        <path d="M83.74,433c.16.22,226.78-10.37,228.25-11.77,2.74-2.6-32.29-179.43-69-241.35-6.87-11.59-37.85-28.7-60.34-6.75C114.8,239.34,80.87,429,83.74,433Z" style="fill: #e11d48"/>
        <path d="M180.74,253.1a4.68,4.68,0,0,1-2-.71,3.82,3.82,0,0,1-1.78-3.37,5.21,5.21,0,0,0-3.3-4.68,5.27,5.27,0,0,0-2.76-.15,23.3,23.3,0,0,0-2.54.51c.87.2,1.68.3,2.54.47a5.35,5.35,0,0,1,2.1.64,3.94,3.94,0,0,1,1.87,3.28,5.15,5.15,0,0,0,3.16,4.73,4.81,4.81,0,0,0,2.75.3c.87-.2,1.68-.3,2.49-.52A19.59,19.59,0,0,0,180.74,253.1Zm46.15,165a4.76,4.76,0,0,1-2.08-.72A3.91,3.91,0,0,1,223,414a5.08,5.08,0,0,0-3.3-4.68,5.17,5.17,0,0,0-2.74-.15c-.82.15-1.68.27-2.49.47a23.81,23.81,0,0,0,2.49.49,5.32,5.32,0,0,1,2.07.67,3.87,3.87,0,0,1,1.95,3.25,5,5,0,0,0,3.1,4.74,4.87,4.87,0,0,0,2.79.31c.81-.2,1.63-.31,2.51-.51C228.52,418.35,227.7,418.25,226.89,418.1Zm46-164.73a7,7,0,0,0-1,.23,11.4,11.4,0,0,0,1.16.25A2.06,2.06,0,0,0,272.9,253.37Zm-45-77.17a4.51,4.51,0,0,1-2.09-.71,4,4,0,0,1-1.78-3.35,5,5,0,0,0-6.06-4.85,24.44,24.44,0,0,0-2.49.51c.81.2,1.68.3,2.49.52a5,5,0,0,1,2.09.61,3.94,3.94,0,0,1,1.93,3.26,5.23,5.23,0,0,0,3.1,4.78,5,5,0,0,0,2.81.25,18.38,18.38,0,0,0,2.49-.52A22,22,0,0,0,227.87,176.2ZM115.33,322.1a5,5,0,0,1-2.07-.65,4.13,4.13,0,0,1-1.78-3.37,5,5,0,0,0-1.28-3.3c-.28.89-.54,1.77-.83,2.67a2.65,2.65,0,0,1,.07.63,5.19,5.19,0,0,0,3.1,4.78,4.8,4.8,0,0,0,2.79.27,24.26,24.26,0,0,0,2.51-.51C117,322.42,116.15,322.32,115.33,322.1Zm50,70a5.21,5.21,0,0,1-2.1-.7A3.92,3.92,0,0,1,161.5,388a5.09,5.09,0,0,0-3.31-4.68,5.24,5.24,0,0,0-2.75-.2c-.87.2-1.68.3-2.49.51a19.59,19.59,0,0,0,2.49.5,4.57,4.57,0,0,1,2.09.66,3.89,3.89,0,0,1,1.94,3.26,5,5,0,0,0,3.11,4.73,4.75,4.75,0,0,0,2.79.27,25.19,25.19,0,0,0,2.49-.52C167,392.34,166.18,392.24,165.37,392.08Zm41.28-68a5,5,0,0,1-2-.66,3.83,3.83,0,0,1-1.78-3.35,5.17,5.17,0,0,0-3.31-4.69,4.62,4.62,0,0,0-2.75-.2c-.87.2-1.68.3-2.54.5a18.76,18.76,0,0,0,2.54.52,5,5,0,0,1,2.09.61,3.9,3.9,0,0,1,1.88,3.26,5.22,5.22,0,0,0,3.15,4.78,4.81,4.81,0,0,0,2.76.25,22.79,22.79,0,0,0,2.54-.5C208.33,324.39,207.51,324.29,206.65,324.09Zm69.21,43.36a4.21,4.21,0,0,1-2-.71,3.81,3.81,0,0,1-1.78-3.36,5.16,5.16,0,0,0-3.3-4.68,5.44,5.44,0,0,0-2.81-.15c-.81.15-1.63.25-2.49.45a22,22,0,0,0,2.49.51,4.87,4.87,0,0,1,2.14.67,3.82,3.82,0,0,1,1.88,3.25,5.13,5.13,0,0,0,3.1,4.73,4.73,4.73,0,0,0,2.81.3c.86-.2,1.68-.3,2.49-.49A16.91,16.91,0,0,0,275.86,367.45ZM265.58,315a6,6,0,0,1-1.94,1.08,4,4,0,0,1-3.67-1,5.16,5.16,0,0,0-5.55-1.17,4.71,4.71,0,0,0-2.17,1.78c-.47.72-1,1.38-1.43,2.14.76-.46,1.43-1,2.14-1.42a4.88,4.88,0,0,1,1.93-1,4.09,4.09,0,0,1,3.67,1.11,5.14,5.14,0,0,0,5.64,1,5.32,5.32,0,0,0,2.1-1.84c.44-.71,1-1.36,1.36-2.12C266.94,314,266.3,314.53,265.58,315ZM180.74,187.86c-.16-.88-.26-1.69-.46-2.51a24.21,24.21,0,0,0-.52,2.51,5.3,5.3,0,0,1-.64,2.08,3.8,3.8,0,0,1-3.28,1.89,5.17,5.17,0,0,0-4.73,3.16,4.91,4.91,0,0,0-.3,2.78c.2.82.3,1.63.52,2.5a24.56,24.56,0,0,0,.5-2.5,4.39,4.39,0,0,1,.71-2.07,3.89,3.89,0,0,1,3.37-1.79,5,5,0,0,0,4.83-6ZM160.88,334.47a21.93,21.93,0,0,0-.49-2.49c-.2.81-.32,1.63-.52,2.49a4.94,4.94,0,0,1-.61,2.09,3.78,3.78,0,0,1-3.26,1.88,5,5,0,0,0-5,5.91,22.35,22.35,0,0,0,.5,2.54,20.39,20.39,0,0,0,.51-2.54,4.3,4.3,0,0,1,.72-2,3.78,3.78,0,0,1,3.35-1.78,5.2,5.2,0,0,0,4.68-3.3A4.86,4.86,0,0,0,160.88,334.47Zm74.46-61.89c-.2-.81-.3-1.62-.51-2.49a24.94,24.94,0,0,0-.5,2.49,5.29,5.29,0,0,1-.66,2.15,3.84,3.84,0,0,1-3.26,1.89,5,5,0,0,0-4.73,3.15,4.11,4.11,0,0,0-.25,2.74c.15.87.25,1.68.45,2.49a19.59,19.59,0,0,0,.51-2.49,5,5,0,0,1,.72-2,3.78,3.78,0,0,1,3.35-1.78,5.15,5.15,0,0,0,4.68-3.3A6.06,6.06,0,0,0,235.34,272.58ZM128.42,421.09c-.2-.87-.3-1.68-.52-2.49a21.51,21.51,0,0,0-.49,2.49,4.53,4.53,0,0,1-.67,2.09,3.7,3.7,0,0,1-3.25,1.88,5.17,5.17,0,0,0-4.74,3.15,4.91,4.91,0,0,0-.26,2.81c0,.13.05.28.08.41.28,0,.57,0,.85,0,0-.13.07-.25.1-.38a4.42,4.42,0,0,1,.66-2.1,3.8,3.8,0,0,1,3.36-1.77,5.08,5.08,0,0,0,4.68-3.31A5.24,5.24,0,0,0,128.42,421.09ZM229.7,225.31a4.62,4.62,0,0,1-1.95,1,3.74,3.74,0,0,1-3.6-1.11,5.18,5.18,0,0,0-5.65-1,5,5,0,0,0-2.09,1.83c-.46.72-1,1.38-1.43,2.14.77-.46,1.43-1,2.15-1.42a4.15,4.15,0,0,1,1.92-1,3.8,3.8,0,0,1,3.67.92,5,5,0,0,0,7.74-.62c.47-.71,1-1.38,1.38-2.14C231.08,224.34,230.41,224.86,229.7,225.31Zm-67.49,61.12a4,4,0,0,1-1.92,1,3.77,3.77,0,0,1-3.62-1.12,5.18,5.18,0,0,0-5.65-1,4.88,4.88,0,0,0-2.09,1.83c-.45.71-1,1.37-1.43,2.14.76-.47,1.43-1,2.14-1.43a4.23,4.23,0,0,1,1.94-1,3.79,3.79,0,0,1,3.66.91,5,5,0,0,0,5.54,1.16,5.1,5.1,0,0,0,2.2-1.77c.46-.72,1-1.38,1.37-2.15C163.59,285.47,162.93,286,162.21,286.43Zm-45.7,90a3.93,3.93,0,0,1-1.94,1,3.85,3.85,0,0,1-3.65-1.08,5,5,0,0,0-5.6-1,5.51,5.51,0,0,0-2.09,1.83,19,19,0,0,0-1.43,2.14,18.54,18.54,0,0,0,2.14-1.43,4.35,4.35,0,0,1,1.93-1,3.86,3.86,0,0,1,3.62,1,5.21,5.21,0,0,0,5.6,1.18,5.28,5.28,0,0,0,2.14-1.78c.45-.71,1-1.38,1.43-2.14A25.34,25.34,0,0,0,116.51,376.47Zm108.25-9.22a4.48,4.48,0,0,1-2,1,3.91,3.91,0,0,1-3.6-1.11,5,5,0,0,0-5.66-1,5.22,5.22,0,0,0-2.08,1.85c-.46.66-1,1.31-1.43,2.07a18.81,18.81,0,0,0,2.14-1.41,7,7,0,0,1,1.93-1,4,4,0,0,1,3.67,1,5,5,0,0,0,7.74-.61c.45-.72,1-1.38,1.36-2.15C226.13,366.24,225.48,366.74,224.76,367.25Zm60.86,37.25a4.88,4.88,0,0,1-1.92,1,4,4,0,0,1-3.67-1.11,5.08,5.08,0,0,0-5.6-1,4.64,4.64,0,0,0-2.09,1.82,24.9,24.9,0,0,0-1.43,2.14c.77-.46,1.43-1,2.14-1.42a4.79,4.79,0,0,1,1.95-1.07,3.79,3.79,0,0,1,3.6,1,5.22,5.22,0,0,0,5.6,1.16,5,5,0,0,0,2.14-1.78c.46-.71,1-1.38,1.43-2.14C287,403.53,286.34,404.05,285.62,404.5Z" style="fill: #fff"/>
      </g>
      <g>
        <g>
          <rect x="157.31" y="305.21" width="186.26" height="35.67" transform="translate(604.35 118.51) rotate(97.76)" style="fill: #37474f"/>
          <rect x="192.66" y="310.03" width="186.26" height="35.67" transform="translate(649.23 88.95) rotate(97.76)" style="fill: #263238"/>
          <rect x="233.03" y="369.32" width="17.36" height="35.67" transform="translate(657.96 199.93) rotate(97.76)" style="fill: #e11d48"/>
          <rect x="241.51" y="346.1" width="6.73" height="35.67" transform="translate(638.54 170.44) rotate(97.76)" style="fill: #e11d48"/>
        </g>
        <g>
          <rect x="197.53" y="310.84" width="200.15" height="32.15" transform="translate(661.71 76.18) rotate(97.76)" style="fill: #c7c7c7"/>
          <g>
            <rect x="298.38" y="233.67" width="19.46" height="32.15" transform="translate(597.17 -21.83) rotate(97.76)" style="fill: #e11d48"/>
            <rect x="301.22" y="254.48" width="8.12" height="32.15" transform="translate(614.58 4.6) rotate(97.76)" style="fill: #e11d48"/>
            <rect x="278.96" y="376.24" width="19.46" height="32.15" transform="translate(716.39 159.23) rotate(97.76)" style="fill: #e11d48"/>
          </g>
          <rect x="313.24" y="233.12" width="60.76" height="200.33" transform="translate(48.14 -43.34) rotate(7.76)" style="fill: #ebebeb"/>
        </g>
        <g>
          <rect x="242.06" y="323.39" width="184.78" height="26.71" transform="translate(713.27 50.83) rotate(97.76)" style="fill: #455a64"/>
          <rect x="280.23" y="316.78" width="184.78" height="50.34" transform="translate(761.75 18.91) rotate(97.76)" style="fill: #37474f"/>
          <rect x="242.06" y="326.17" width="184.78" height="21.17" transform="translate(713.27 50.83) rotate(97.76)" style="fill: #fff"/>
          <g>
            <polygon points="351.48 257.9 348.76 279.33 345.92 300.75 340.22 343.57 334.25 386.36 331.26 407.76 328.14 429.13 330.86 407.7 333.7 386.29 339.4 343.46 345.37 300.67 348.36 279.28 351.48 257.9" style="fill: #dbdbdb"/>
            <polygon points="347.36 257.34 344.65 278.77 341.8 300.18 336.11 343.01 330.14 385.8 327.15 407.2 324.03 428.57 326.75 407.14 329.59 385.73 335.29 342.9 341.26 300.11 344.25 278.72 347.36 257.34" style="fill: #dbdbdb"/>
            <polygon points="343.25 256.78 340.53 278.21 337.69 299.62 331.99 342.45 326.02 385.24 323.03 406.63 319.92 428.01 322.63 406.58 325.48 385.17 331.17 342.34 337.14 299.55 340.13 278.15 343.25 256.78" style="fill: #dbdbdb"/>
            <polygon points="339.13 256.22 336.42 277.65 333.57 299.06 327.88 341.89 321.91 384.68 318.92 406.07 315.8 427.45 318.51 406.02 321.36 384.61 327.06 341.78 333.03 298.99 336.02 277.59 339.13 256.22" style="fill: #dbdbdb"/>
          </g>
        </g>
      </g>
      <path d="M184.15,173.48c-2.79-3.37,15.21-13.3,19.9-9.54s28.33,62.19,20.65,125.58S90.88,421.17,86.25,411.7c-2-4,.54-15.1,3.61-18.65,4.33-5,95.37-60,104.36-99.3C202.22,258.8,191.26,182.07,184.15,173.48Z" style="fill: #455a64"/>
      <g>
        <g>
          <g>
            <path d="M152.69,218.37C114.32,311,79.6,441.06,117.67,459c25.29,11.91,75.59-83.62,76.07-85.37,1.65-5.95,2.8-83.2,4.62-153.87C200.05,154.45,169.83,177,152.69,218.37Z" style="fill: #e11d48"/>
            <path d="M180.74,253.1a4.68,4.68,0,0,1-2-.71,3.82,3.82,0,0,1-1.78-3.37,5.21,5.21,0,0,0-3.3-4.68,5.27,5.27,0,0,0-2.76-.15,23.3,23.3,0,0,0-2.54.51c.87.2,1.68.3,2.54.47a5.35,5.35,0,0,1,2.1.64,3.94,3.94,0,0,1,1.87,3.28,5.15,5.15,0,0,0,3.16,4.73,4.81,4.81,0,0,0,2.75.3c.87-.2,1.68-.3,2.49-.52A19.59,19.59,0,0,0,180.74,253.1Zm-63.89,69.32c0,.15-.07.31-.12.46a10,10,0,0,0,1.11-.26A7.88,7.88,0,0,0,116.85,322.42Zm48.52,69.66a5.21,5.21,0,0,1-2.1-.7A3.92,3.92,0,0,1,161.5,388a5.09,5.09,0,0,0-3.31-4.68,5.24,5.24,0,0,0-2.75-.2c-.87.2-1.68.3-2.49.51a19.59,19.59,0,0,0,2.49.5,4.57,4.57,0,0,1,2.09.66,3.89,3.89,0,0,1,1.94,3.26,5,5,0,0,0,3.11,4.73,4.75,4.75,0,0,0,2.79.27,25.19,25.19,0,0,0,2.49-.52C167,392.34,166.18,392.24,165.37,392.08Zm28.86-76.39a17.14,17.14,0,0,0,1.87.42c0-.25,0-.52,0-.78C195.49,315.44,194.87,315.54,194.23,315.69ZM180.74,187.86c-.16-.88-.26-1.69-.46-2.51a24.21,24.21,0,0,0-.52,2.51,5.3,5.3,0,0,1-.64,2.08,3.8,3.8,0,0,1-3.28,1.89,5.17,5.17,0,0,0-4.73,3.16,4.91,4.91,0,0,0-.3,2.78c.2.82.3,1.63.52,2.5a24.56,24.56,0,0,0,.5-2.5,4.39,4.39,0,0,1,.71-2.07,3.89,3.89,0,0,1,3.37-1.79,5,5,0,0,0,4.83-6ZM160.88,334.47a21.93,21.93,0,0,0-.49-2.49c-.2.81-.32,1.63-.52,2.49a4.94,4.94,0,0,1-.61,2.09,3.78,3.78,0,0,1-3.26,1.88,5,5,0,0,0-5,5.91,22.35,22.35,0,0,0,.5,2.54,20.39,20.39,0,0,0,.51-2.54,4.3,4.3,0,0,1,.72-2,3.78,3.78,0,0,1,3.35-1.78,5.2,5.2,0,0,0,4.68-3.3A4.86,4.86,0,0,0,160.88,334.47Zm-32.46,86.62c-.2-.87-.3-1.68-.52-2.49a21.51,21.51,0,0,0-.49,2.49,4.53,4.53,0,0,1-.67,2.09,3.7,3.7,0,0,1-3.25,1.88,5.17,5.17,0,0,0-4.74,3.15,4.91,4.91,0,0,0-.26,2.81c.17.81.26,1.62.51,2.49.2-.87.3-1.68.52-2.49a4.42,4.42,0,0,1,.66-2.1,3.8,3.8,0,0,1,3.36-1.77,5.08,5.08,0,0,0,4.68-3.31A5.24,5.24,0,0,0,128.42,421.09Zm33.79-134.66a4,4,0,0,1-1.92,1,3.77,3.77,0,0,1-3.62-1.12,5.18,5.18,0,0,0-5.65-1,4.88,4.88,0,0,0-2.09,1.83c-.45.71-1,1.37-1.43,2.14.76-.47,1.43-1,2.14-1.43a4.23,4.23,0,0,1,1.94-1,3.79,3.79,0,0,1,3.66.91,5,5,0,0,0,5.54,1.16,5.1,5.1,0,0,0,2.2-1.77c.46-.72,1-1.38,1.37-2.15C163.59,285.47,162.93,286,162.21,286.43Zm-45.7,90a3.93,3.93,0,0,1-1.94,1,3.85,3.85,0,0,1-3.65-1.08,5,5,0,0,0-5.6-1,1.27,1.27,0,0,0-.36.2c-.12.61-.22,1.23-.32,1.84a3.57,3.57,0,0,1,1.23-.51,3.86,3.86,0,0,1,3.62,1,5.21,5.21,0,0,0,5.6,1.18,5.28,5.28,0,0,0,2.14-1.78c.45-.71,1-1.38,1.43-2.14A25.34,25.34,0,0,0,116.51,376.47Z" style="fill: #fff"/>
          </g>
          <g>
            <path d="M201.25,273.93c-.57,4.24-1.1,8.5-1.53,12.76,0-1.05-.05-2.1-.1-3.15-.37-8.55-.83-17.1-1.28-25.64,0-.18-.3-.15-.3,0-.15,15.15-.45,30.3-.66,45.45S197,333.6,196,348.71c-.53,8.57-1.07,17.22-2.26,25.76,0,.18.26.23.29,0,1.24-7.54,2.56-15,3.42-22.61s1.55-15.06,1.94-22.6q.88-17.08.55-34.1A195.34,195.34,0,0,0,201.76,274C201.77,273.68,201.29,273.66,201.25,273.93Z" style="fill: #263238"/>
            <path d="M143,242q-5,12.22-9.76,24.56c.67-3.79,1.47-7.55,2.27-11.31.06-.24-.33-.39-.42-.14a56.23,56.23,0,0,0-3,14.44c-5.55,14.7-10.69,29.56-15.18,44.63-7.27,24.34-13,49.29-15.31,74.63a208.55,208.55,0,0,0,.07,42.32.18.18,0,0,0,.36,0,361.31,361.31,0,0,1,1.49-37.94,350.09,350.09,0,0,1,5.74-37.29c5.13-24.76,12.62-49,20.76-72.94,4.61-13.54,9.23-27.08,13.73-40.66C144,241.8,143.2,241.54,143,242Z" style="fill: #263238"/>
          </g>
        </g>
        <g>
          <g>
            <path d="M111.46,452.75c26.66,27.67,136.92,17,207.6-1.69,13.45-3.55-25.69-123.6-39.55-118.19C200.42,363.72,82.26,422.44,111.46,452.75Z" style="fill: #d3766a"/>
            <g>
              <path d="M416.42,332.11c-.58,13.31-8.69,11.48-8.69,11.48s7.6,5.2,9.35,13.87c2,9.92-12.69,17.42-12.69,17.42s6.6,6.85,7.53,16.19c1,9.7-12.78,19.37-12.78,19.37s2.64,9.76-2.35,18.41c-8.54,14.79-88,28.12-109.39,29.24L267.32,338.65s72.3-38.34,91.9-36.46C375.72,303.78,417.29,311.76,416.42,332.11Z" style="fill: #d3766a"/>
              <g>
                <path d="M407.47,343.2c-17.14-5.9-35.67-7.68-53.57-9.2a.31.31,0,0,0,0,.62c17.81,1.31,35.71,7.41,53.43,9.42A.44.44,0,0,0,407.47,343.2Z" style="fill: #263238"/>
                <path d="M404,373.51c-3.92-1.22-8.23-1.14-12.3-1.28-4.38-.16-8.76-.23-13.14-.24-8.77,0-17.54.16-26.3.6-.39,0-.45.62-.05.62,8.75,0,17.49.2,26.22.6q6.55.3,13.1.71c4.06.24,8.33.85,12.37.18A.62.62,0,0,0,404,373.51Z" style="fill: #263238"/>
                <path d="M398.77,410.43c-3.37-1.19-7.61-.63-11.13-.56q-6,.11-12,.16c-8,.06-16,.12-24-.1-.39,0-.44.61,0,.62,8.12.26,16.23.63,24.35.82q6,.15,12,.22c3.39,0,7.62.48,10.85-.76A.22.22,0,0,0,398.77,410.43Z" style="fill: #263238"/>
              </g>
            </g>
          </g>
          <g>
            <path d="M271.33,332.07l21.89,133.66s-173.1,22.76-186.37-19S271.33,332.07,271.33,332.07Z" style="fill: #e11d48"/>
            <path d="M226.89,418.1a4.76,4.76,0,0,1-2.08-.72A3.91,3.91,0,0,1,223,414a5.08,5.08,0,0,0-3.3-4.68,5.17,5.17,0,0,0-2.74-.15c-.82.15-1.68.27-2.49.47a23.81,23.81,0,0,0,2.49.49,5.32,5.32,0,0,1,2.07.67,3.87,3.87,0,0,1,1.95,3.25,5,5,0,0,0,3.1,4.74,4.87,4.87,0,0,0,2.79.31c.81-.2,1.63-.31,2.51-.51C228.52,418.35,227.7,418.25,226.89,418.1Zm41.53,40.8a5,5,0,0,1-2.07-.65,4,4,0,0,1-1.8-3.37,5.1,5.1,0,0,0-3.3-4.68,4.75,4.75,0,0,0-2.74-.2c-.82.2-1.7.31-2.51.51a21.85,21.85,0,0,0,2.51.5,5.54,5.54,0,0,1,2.07.61,4,4,0,0,1,1.95,3.26,5,5,0,0,0,3.1,4.78,4.76,4.76,0,0,0,2.79.27,24.61,24.61,0,0,0,2.49-.52C270.05,459.21,269.23,459.11,268.42,458.9Zm-103-66.82a5.21,5.21,0,0,1-2.1-.7A3.92,3.92,0,0,1,161.5,388a4.32,4.32,0,0,0-.14-1.08l-1.89,1.16a5,5,0,0,0,3.11,4.7,4.75,4.75,0,0,0,2.79.27,25.19,25.19,0,0,0,2.49-.52C167,392.34,166.18,392.24,165.37,392.08Zm111.79-24.41c-.42-.09-.85-.14-1.3-.22a4.21,4.21,0,0,1-2-.71,3.81,3.81,0,0,1-1.78-3.36,5.16,5.16,0,0,0-3.3-4.68,5.44,5.44,0,0,0-2.81-.15c-.81.15-1.63.25-2.49.45a22,22,0,0,0,2.49.51,4.87,4.87,0,0,1,2.14.67,3.82,3.82,0,0,1,1.88,3.25,5.13,5.13,0,0,0,3.1,4.73,4.73,4.73,0,0,0,2.81.3c.47-.11.93-.18,1.38-.26Zm-58.51,89.82a18,18,0,0,0-.51-2.49c-.2.81-.3,1.62-.5,2.49a5.31,5.31,0,0,1-.61,2.07,3.79,3.79,0,0,1-3.26,1.89,5.21,5.21,0,0,0-4.78,3.16,4.6,4.6,0,0,0-.27,2.74,22.89,22.89,0,0,0,.52,2.54,25.37,25.37,0,0,0,.51-2.54,4.23,4.23,0,0,1,.72-2,3.75,3.75,0,0,1,3.35-1.79,5.07,5.07,0,0,0,4.63-3.3A4.75,4.75,0,0,0,218.65,457.49Zm-90.23-36.4c-.2-.87-.3-1.68-.52-2.49a21.51,21.51,0,0,0-.49,2.49,4.53,4.53,0,0,1-.67,2.09,3.7,3.7,0,0,1-3.25,1.88,5.17,5.17,0,0,0-4.74,3.15,4.91,4.91,0,0,0-.26,2.81c.17.81.26,1.62.51,2.49.2-.87.3-1.68.52-2.49a4.42,4.42,0,0,1,.66-2.1,3.8,3.8,0,0,1,3.36-1.77,5.08,5.08,0,0,0,4.68-3.31A5.24,5.24,0,0,0,128.42,421.09Zm96.34-53.84a4.48,4.48,0,0,1-2,1,3.91,3.91,0,0,1-3.6-1.11,5,5,0,0,0-5.66-1,5.22,5.22,0,0,0-2.08,1.85c-.46.66-1,1.31-1.43,2.07a18.81,18.81,0,0,0,2.14-1.41,7,7,0,0,1,1.93-1,4,4,0,0,1,3.67,1,5,5,0,0,0,7.74-.61c.45-.72,1-1.38,1.36-2.15C226.13,366.24,225.48,366.74,224.76,367.25Zm58.59,38.26a4,4,0,0,1-3.32-1.16,5.08,5.08,0,0,0-5.6-1,4.64,4.64,0,0,0-2.09,1.82,24.9,24.9,0,0,0-1.43,2.14c.77-.46,1.43-1,2.14-1.42a4.79,4.79,0,0,1,1.95-1.07,3.79,3.79,0,0,1,3.6,1,5.28,5.28,0,0,0,5,1.36ZM183.23,432.79a4.75,4.75,0,0,1-2,1,3.94,3.94,0,0,1-3.6-1.13,5.1,5.1,0,0,0-5.65-1,5,5,0,0,0-2.09,1.83c-.46.71-1,1.38-1.43,2.09.77-.42,1.43-.91,2.14-1.38a5.24,5.24,0,0,1,1.93-1.06,3.94,3.94,0,0,1,3.67,1,5.12,5.12,0,0,0,5.55,1.16,5.44,5.44,0,0,0,2.19-1.77c.45-.72,1-1.38,1.38-2.14C184.61,431.78,184,432.35,183.23,432.79Z" style="fill: #fff"/>
            <g>
              <path d="M248.68,351.35c4.2,58.17,11.1,98.88,12.6,106.65a.17.17,0,0,0,.33,0c-2-40.79-11.26-103.09-12.26-106.76C249.25,350.81,248.65,351,248.68,351.35Z" style="fill: #263238"/>
              <path d="M273.33,335.61c-.49-1.55-1.31-5.92-2.05-5.63-2.61,1-5.28,1.8-7.88,2.82s-4.92,1.95-7.36,2.95c-5,2.06-10,4.23-15,6.44q-14.76,6.6-29.14,14t-28.3,15.62c-9.24,5.45-18.42,11.13-27.22,17.27l-1.66,1.16a62.5,62.5,0,0,0-10.93,3.21c-4.12,1.67-8.08,3.63-12,5.67a.15.15,0,0,0,.13.27,87.34,87.34,0,0,1,12.3-4.76c2.51-.77,5-1.55,7.54-2.3-8.38,5.89-16.7,11.9-24.63,18.39-.15.12,0,.32.19.22,9-6.1,17.91-12.32,27.12-18.08s18.27-11.4,27.59-16.79c18.53-10.73,37.5-20.69,57-29.63q8.16-3.75,16.41-7.24c2.82-1.2,5.63-2.4,8.46-3.56,2.41-1,4.28-1.89,6.7-2.89.36,1.11.71,2.11,1.09,3.22C272.13,337.31,273.77,337,273.33,335.61Z" style="fill: #263238"/>
            </g>
          </g>
        </g>
      </g>
      <g>
        <g>
          <path d="M284.44,95.48c-4.35,8.38-8.88,16.19-4,28.13,3.43,8.42,14.76,16.72,14.76,16.72l14.08-3.55s5.94-11.39,4.39-23c-1.65-12.32-14.26-21.4-14.26-21.4Z" style="fill: #263238"/>
          <path d="M295.36,138.42c-3.11,8.91-6.48,17.28,0,28.41,4.58,7.85,17,14.46,17,14.46l13.43-5.52s4.27-12.11,1.08-23.36c-3.38-11.95-17.15-19.16-17.15-19.16Z" style="fill: #263238"/>
          <path d="M311.82,180c.3,9.43.16,18.46,10.22,26.51,7.1,5.68,21,7.39,21,7.39l10.56-10s-.37-12.83-7.38-22.18c-7.46-9.94-22.9-11.72-22.9-11.72Z" style="fill: #263238"/>
          <path d="M343.08,213.89s-2,16.22,11.14,26.6,46.13,4,46.13,4-11.18-4-15.56-13.35-11-27.57-31.15-27.27Z" style="fill: #263238"/>
          <rect x="336.31" y="206.82" width="26.58" height="8.51" transform="translate(-48.24 303.23) rotate(-44.16)" style="fill: #e11d48"/>
        </g>
        <path d="M199.09,162.17c-20.77,9.09-10.1,36.4.8,49.75,12.29,15,33,24.25,39.46,21.08s-.51-23-.51-23,13.09,14.65,17.73,13-.6-28.92-13.24-42.79C229.57,165.12,211.11,156.91,199.09,162.17Z" style="fill: #fff"/>
        <g>
          <g>
            <path d="M198.5,174.07c2.13,3.79,19.39,32.78,38.72,32.94,6.3,0,8.06-34.32,8.06-34.32l.71-2.51,9.92-35.1-46.11-33S194.88,167.62,198.5,174.07Z" style="fill: #d3766a"/>
            <path d="M206,119.88a125.68,125.68,0,0,0,3.25,12.77c8.79,28.44,25.17,36.89,36.32,39.21l.46-1.69,9.92-35.1-46.12-33S208.08,109.65,206,119.88Z" style="fill: #263238"/>
          </g>
          <g>
            <path d="M191.92,105c-6.45,6.88-12.94,13.17-11.52,26,1,9,9.65,20.1,9.65,20.1l14.52.41s8.81-9.33,10.47-20.9c1.76-12.3-7.9-24.48-7.9-24.48Z" style="fill: #263238"/>
            <path d="M190.75,149.24c-5.41,7.73-10.94,14.87-7.71,27.35,2.27,8.8,12.41,18.53,12.41,18.53l14.43-1.65s7.39-10.5,7.39-22.18c0-12.43-11.29-23.11-11.29-23.11Z" style="fill: #263238"/>
            <path d="M195.28,193.73c-2.28,9.15-4.87,17.8,2.62,28.29,5.29,7.4,18.24,12.83,18.24,12.83L229,228.13s3.14-12.45-1.07-23.36c-4.46-11.59-18.84-17.51-18.84-17.51Z" style="fill: #263238"/>
            <path d="M216.14,234.85s-6.3,15.07,3.48,28.63,43.29,16.44,43.29,16.44-9.66-6.93-11.34-17.08-3.06-29.52-22.56-34.71Z" style="fill: #263238"/>
            <rect x="209.89" y="229.67" width="26.58" height="8.51" transform="translate(-84.35 134.16) rotate(-28.37)" style="fill: #e11d48"/>
          </g>
          <g>
            <path d="M313.05,77.85c9.68,65.25-28.3,78.41-42.38,80.48-12.77,1.89-56.51,6.67-72.88-57.23s10.91-89,39.9-94.88S303.37,12.6,313.05,77.85Z" style="fill: #d3766a"/>
            <g>
              <path d="M294.71,67.94a42.73,42.73,0,0,1-4.67-.5c-1.79-.21-3.24-.19-4.67-1.42a2.42,2.42,0,0,1-.3-2.94c1.32-1.87,3.58-2.16,5.75-2a8.8,8.8,0,0,1,5.82,2.54C298.29,65.21,296.83,68,294.71,67.94Z" style="fill: #263238"/>
              <path d="M249.17,72.61a45.59,45.59,0,0,0,4.47-1.43c1.72-.57,3.14-.84,4.29-2.33a2.41,2.41,0,0,0-.3-2.94c-1.67-1.57-3.94-1.4-6-.8a8.85,8.85,0,0,0-5.19,3.66C245.11,70.64,247.1,73.06,249.17,72.61Z" style="fill: #263238"/>
              <g>
                <path d="M255.58,81.75c-7.46.36-6.19,15.26.73,14.93S261.84,81.44,255.58,81.75Z" style="fill: #263238"/>
                <path d="M252.72,82.78c-1.23,1-2.37,2.56-3.93,2.85-1.8.33-3.3-1.11-4.62-2.51-.14-.15-.25,0-.24.19.2,2.86,1.55,5.7,4.65,5.86,2.82.15,4.61-2.55,5.08-5.48C253.75,83.15,253.22,82.4,252.72,82.78Z" style="fill: #263238"/>
              </g>
              <g>
                <path d="M290.27,77.58c7.39-1.14,9.13,13.71,2.29,14.77S284.08,78.54,290.27,77.58Z" style="fill: #263238"/>
                <path d="M293.49,78.2c1.26.65,2.59,1.94,4,1.87,1.64-.09,2.65-1.83,3.51-3.5.09-.17.22-.06.25.14.41,2.83-.18,5.9-2.84,6.76-2.43.79-4.55-1.43-5.55-4.18C292.67,78.78,293,77.93,293.49,78.2Z" style="fill: #263238"/>
              </g>
              <path d="M266,121.71c1.15,1,2.32,2.49,4,2.56a12.24,12.24,0,0,0,4.93-1.36.16.16,0,0,1,.21.22,6.22,6.22,0,0,1-5.77,2.75c-2.11-.28-3.22-2-3.81-3.94C265.51,121.67,265.86,121.56,266,121.71Z" style="fill: #263238"/>
              <path d="M283.68,103.16s1.63,6.79,1.94,10c0,.31-.74.53-1.84.7,0,0-.08,0-.12,0a15.55,15.55,0,0,1-15.57-4.31c-.25-.3.13-.67.44-.5,4.59,2.73,9.41,3.08,14.5,2.67.14-.92-3.17-11.67-2.66-11.63,2.2.15,6.1.74,7.55.95-1-4.44-4.29-16.9-6-25-.11-.51.66-.75.82-.29,4.4,11.93,6.5,18.22,8.79,27.73C291.69,104.29,285,103.59,283.68,103.16Z" style="fill: #263238"/>
              <g>
                <path d="M283.28,111.43s-2.23,4.91-6.2,7.36a8.48,8.48,0,0,1-5,1.4c-3.88-.17-4.7-3.52-4.64-6.55a20.57,20.57,0,0,1,.7-4.76A24.61,24.61,0,0,0,283.28,111.43Z" style="fill: #263238"/>
                <path d="M277.08,118.79a8.48,8.48,0,0,1-5,1.4c-3.88-.17-4.7-3.52-4.64-6.55C271.46,113.2,275.93,115,277.08,118.79Z" style="fill: #ff9bbc"/>
              </g>
            </g>
            <g>
              <path d="M202.1,98.34c12.28,1.4,15.08-26.71,15.08-26.71s52.12-9.49,56-52.06c0,0,9.28,27,36.78,38.93,0,0,2.49-51.92-39.46-55.2,0,0-52.26-14.6-77.6,22.1S193.86,97.4,202.1,98.34Z" style="fill: #263238"/>
              <path d="M273.35,16.42a46.29,46.29,0,0,1-2.09,19.44,48.25,48.25,0,0,1-9.65,17.29,40.43,40.43,0,0,1-3.48,3.57l-1.79,1.74c-.64.52-1.31,1-2,1.51-1.34,1-2.64,2-4,2.93s-2.88,1.63-4.33,2.4c-.73.39-1.44.81-2.18,1.16l-2.29.92L237,69.2c-3.15.91-6.33,1.67-9.49,2.37,3-1.35,6-2.37,9-3.72l4.29-2.16,2.15-1.07c.68-.4,1.34-.86,2-1.29,1.32-.88,2.65-1.75,4-2.58s2.48-2,3.72-3l1.84-1.48,1.67-1.68a38.87,38.87,0,0,0,3.25-3.42,55.35,55.35,0,0,0,9.76-16.12A58.33,58.33,0,0,0,271.94,26,55.38,55.38,0,0,0,273.35,16.42Z" style="fill: #263238"/>
            </g>
            <g style="opacity: 0.5">
              <circle cx="226.92" cy="105.3" r="1.02" style="fill: #263238"/>
              <path d="M245.13,102.49a1,1,0,1,1-1-1A1,1,0,0,1,245.13,102.49Z" style="fill: #263238"/>
              <path d="M256.9,102.15a1,1,0,0,1-2,0,1,1,0,1,1,2,0Z" style="fill: #263238"/>
              <path d="M261.89,110.41a1,1,0,1,1-1-1A1,1,0,0,1,261.89,110.41Z" style="fill: #263238"/>
              <path d="M236.79,112.54a1,1,0,1,1-1-1A1,1,0,0,1,236.79,112.54Z" style="fill: #263238"/>
              <path d="M250,113.56a1,1,0,1,1-1-1A1,1,0,0,1,250,113.56Z" style="fill: #263238"/>
              <path d="M235.77,97.38a1,1,0,1,1-1-1A1,1,0,0,1,235.77,97.38Z" style="fill: #263238"/>
              <path d="M294.54,101.07a1,1,0,0,1-2,0,1,1,0,1,1,2,0Z" style="fill: #263238"/>
              <path d="M309.19,96a1,1,0,1,1-1-1A1,1,0,0,1,309.19,96Z" style="fill: #263238"/>
              <path d="M313.07,90.65a1,1,0,0,1-2,0,1,1,0,1,1,2,0Z" style="fill: #263238"/>
              <path d="M305.23,104.24a1,1,0,0,1-2,0,1,1,0,1,1,2,0Z" style="fill: #263238"/>
              <path d="M312.43,102.15a1,1,0,1,1-1-1A1,1,0,0,1,312.43,102.15Z" style="fill: #263238"/>
              <path d="M299,94a1,1,0,1,1-2,0,1,1,0,0,1,2,0Z" style="fill: #263238"/>
            </g>
            <g>
              <path d="M251.9,113.58a23.73,23.73,0,1,1,23-29.63h0a23.76,23.76,0,0,1-23,29.62Zm-.07-44.3a20.56,20.56,0,1,0,19.95,15.46A20.68,20.68,0,0,0,251.83,69.28Z" style="fill: #dbdbdb"/>
              <path d="M303.89,106.86c-9.08,0-17.33-9.27-18.8-21.57a28.38,28.38,0,0,1,3-17.07c2.78-5,6.94-8,11.72-8.58s9.55,1.42,13.42,5.59a28.41,28.41,0,0,1,6.93,15.89c1.54,13-5.07,24.5-14.74,25.65A13.56,13.56,0,0,1,303.89,106.86Zm-2.48-44.14a9.66,9.66,0,0,0-1.2.07c-3.75.45-7.06,2.93-9.33,7a25.17,25.17,0,0,0-2.64,15.15c1.34,11.25,8.86,19.65,16.82,18.7s13.31-10.87,12-22.13a25.14,25.14,0,0,0-6.12-14.1C308.1,64.34,304.76,62.71,301.41,62.72Z" style="fill: #dbdbdb"/>
              <path d="M274.62,86.74l-1.95-1.83c2.71-2.89,9.28-7.12,14.74-2.5l-1.72,2C280.8,80.31,274.87,86.48,274.62,86.74Z" style="fill: #dbdbdb"/>
              <path d="M179.34,103.29l-2.5-.93c.44-1.17,4.45-11.46,10.26-13.13,5.44-1.55,41.44-2.44,43-2.48l.06,2.67c-10.32.25-38.09,1.17-42.29,2.38C184,92.9,180.41,100.47,179.34,103.29Z" style="fill: #dbdbdb"/>
            </g>
            <g>
              <path d="M210.91,100.18S194.8,79.88,185.5,85.76s3.71,35.92,15.26,39.44,15-7.11,15-7.11Z" style="fill: #d3766a"/>
              <path d="M189.44,94.28c-.18,0-.2.25,0,.3,8.11,2.73,12.73,9.82,16.11,17.26-2.53-2.79-5.83-4.2-9.59-1.16-.2.16,0,.47.24.41,3.2-.89,5.58-.47,7.93,2a34.39,34.39,0,0,1,4.1,6.07c.42.68,1.67.22,1.35-.57l-.07-.18C209.05,108.29,200.35,94.64,189.44,94.28Z" style="fill: #263238"/>
            </g>
          </g>
        </g>
      </g>
    </g>
  </g>
</svg>
