<svg viewBox="0 0 512 324.18" xmlns="http://www.w3.org/2000/svg"><path d="m58.88 141.19a46.8 46.8 0 0 1 33.12-3.91c-11.81 10.72-33.12 3.91-33.12 3.91z" fill="#e0e0e0"/><path d="m111.42 125c3.27 11.11-1.94 21-1.94 21-4.97-8.32 1.94-21 1.94-21z" fill="#e0e0e0"/><path d="m109.59 151.18c-12.35 6.42-25.17 2.63-25.17 2.63 8.58-7.75 25.17-2.63 25.17-2.63z" fill="#e0e0e0"/><path d="m83.68 127.29c.16-.21 8.15 5.91 17.85 13.65s17.44 14.19 17.28 14.39-8.15-5.91-17.86-13.66-17.43-14.18-17.27-14.38z" fill="#e0e0e0"/><path d="m58 111.88s21.48 1.12 29.33 18.71a38.76 38.76 0 0 1 -29.33-18.71z" fill="#e0e0e0"/><path d="m87.93 105.4s16.58 13.74 12.41 32.52a38.78 38.78 0 0 1 -12.41-32.52z" fill="#e0e0e0"/><path d="m467.59 90.16a49.35 49.35 0 0 0 -34.59 6.28c15.21 7.19 34.59-6.28 34.59-6.28z" fill="#e0e0e0"/><path d="m409.6 90c.14 12.22 8.44 20.57 8.44 20.57 2.46-9.86-8.44-20.57-8.44-20.57z" fill="#e0e0e0"/><path d="m419.54 115.89c14.43 2.65 26.19-5.13 26.19-5.13-11.07-5.16-26.19 5.13-26.19 5.13z" fill="#e0e0e0"/><path d="m438.29 83.79c-.22-.15-6.4 8.48-13.79 19.28s-13.2 19.69-13 19.84 6.39-8.47 13.79-19.28 13.23-19.69 13-19.84z" fill="#e0e0e0"/><path d="m459.44 60.32s-21.32 7.8-23.81 27.93a40.87 40.87 0 0 0 23.81-27.93z" fill="#e0e0e0"/><path d="m427.24 63s-12.47 19-2.47 36.63a40.91 40.91 0 0 0 2.47-36.63z" fill="#e0e0e0"/><path d="m53.71 63.66h29.68v37.12h-29.68z" fill="#f5f5f5" transform="matrix(.10279254 -.99470282 .99470282 .10279254 -20.28 141.96)"/><path d="m55.56 64.96h25.94v34.51h-25.94z" fill="#ebebeb" transform="matrix(.10279254 -.99470282 .99470282 .10279254 -20.3 141.93)"/><path d="m50.03 93.35 13.65-14.8 6.39 10.8 5.59-4.85 8.7 12.39z" fill="#e0e0e0"/><path d="m74.46 77.68a2.72 2.72 0 1 1 -2.42-3 2.72 2.72 0 0 1 2.42 3z" fill="#e0e0e0"/><path d="m345.62 215.08h21.43v26.81h-21.43z" fill="#f5f5f5" transform="matrix(.15 -.99 .99 .15 78.5 547.84)"/><path d="m346.95 216.02h18.73v24.92h-18.73z" fill="#ebebeb" transform="matrix(.14521967 -.98939944 .98939944 .14521967 78.48 547.82)"/><path d="m342.63 235.94 10.3-10.25 4.28 7.99 4.18-3.33 5.89 9.21z" fill="#e0e0e0"/><path d="m360.74 225.39a2 2 0 1 1 -1.66-2.23 2 2 0 0 1 1.66 2.23z" fill="#e0e0e0"/><path d="m62.44 184.47h26.81v21.43h-26.81z" fill="#f5f5f5" transform="matrix(.88270166 -.46993381 .46993381 .88270166 -82.83 58.54)"/><path d="m63.37 185.82h24.92v18.73h-24.92z" fill="#ebebeb" transform="matrix(.88270166 -.46993381 .46993381 .88270166 -82.84 58.54)"/><path d="m69.23 209.31 2.21-14.37 8.18 3.9 1.4-5.16 10.21 3.92z" fill="#e0e0e0"/><path d="m77.55 190.08a2 2 0 1 1 -2.65-.81 2 2 0 0 1 2.65.81z" fill="#e0e0e0"/><path d="m401.31 288.28c0 .11-65.93.19-147.24.19s-147.26-.08-147.26-.19 65.91-.18 147.26-.18 147.24.08 147.24.18z" fill="#263238"/><path d="m194.19 91.28a7 7 0 1 0 -13 3.52c.27.44.6.77.94 1.24l4 5.35a1.26 1.26 0 0 0 2 0l4-5.26a16.08 16.08 0 0 0 1-1.34 6.88 6.88 0 0 0 1.06-3.51zm-7 3a3.06 3.06 0 1 1 3.07-3.06 3.06 3.06 0 0 1 -3.03 3.09z" fill="#f43f5e"/><path d="m124.78 148.48 8.84 17.65 39.11 32.88 9.62-12.52-38.41-32.06z" fill="#f43f5e"/><path d="m143.94 154.43a1.16 1.16 0 0 1 -1.46 1.13 3.52 3.52 0 0 1 -3.84 5.44 4.09 4.09 0 0 1 -5.08 5l-8.78-17.52z" fill="#fff" opacity=".7"/><path d="m128.34 155.58s3.72.64 4.29-4.66l-7.85-2.44z" fill="#f43f5e"/><path d="m138.64 161 38.52 31.88-4.43 6.12-39.11-32.88-.06-.13a3.86 3.86 0 0 0 1.79.1 4.21 4.21 0 0 0 2.12-1 4 4 0 0 0 1.29-2.53 4.18 4.18 0 0 0 -.12-1.56z" opacity=".3"/><path d="m142.48 155.56 38.63 32.53 1.24-1.6-38.41-32.06a1.23 1.23 0 0 1 -1.18 1.18 1 1 0 0 1 -.28-.05z" opacity=".3"/><path d="m134.39 160.12a.28.28 0 0 0 .17.12.43.43 0 0 0 .5-.29 1.62 1.62 0 0 0 0-1 1.14 1.14 0 0 0 -.35-.5.69.69 0 0 0 -.65-.11.94.94 0 0 0 -.47.56 2.84 2.84 0 0 0 -.15.84 4.61 4.61 0 0 0 .26 1.84 1.21 1.21 0 0 0 .65.7 1 1 0 0 0 .95-.22 2.7 2.7 0 0 0 .74-2 3.9 3.9 0 0 0 -2-3.53 1 1 0 0 0 -.9 0 1.9 1.9 0 0 0 -.64.62 5.27 5.27 0 0 0 -.68 1.48 5.86 5.86 0 0 0 -.19 2.36 6.25 6.25 0 0 0 .11.64l.05.22a4.45 4.45 0 0 1 -.21-.86 5.89 5.89 0 0 1 .17-2.38 5.11 5.11 0 0 1 .67-1.51 1.85 1.85 0 0 1 .68-.65 1.09 1.09 0 0 1 1 0 4.07 4.07 0 0 1 1.92 4.76 2.06 2.06 0 0 1 -.6.95 1.15 1.15 0 0 1 -1.05.23 1.29 1.29 0 0 1 -.71-.76 4.68 4.68 0 0 1 -.26-1.89 2.91 2.91 0 0 1 .16-.85 1 1 0 0 1 .52-.61.76.76 0 0 1 .72.12 1.06 1.06 0 0 1 .36.54 1.59 1.59 0 0 1 0 1 .45.45 0 0 1 -.54.29.25.25 0 0 1 -.23-.11z" fill="#fff"/><path d="m136 152.13a6 6 0 0 0 -.17.6 4.51 4.51 0 0 0 .06 1.69 10.71 10.71 0 0 0 .88 2.36 9.52 9.52 0 0 1 1 2.94 5.32 5.32 0 0 1 -.59 3 5.14 5.14 0 0 1 -1.69 1.88 5.31 5.31 0 0 1 -1.56.71 3.37 3.37 0 0 1 -.62.11h.16a4 4 0 0 0 .45-.11 5.79 5.79 0 0 0 1.52-.73 5.14 5.14 0 0 0 1.65-1.86 5.25 5.25 0 0 0 .57-3 9.32 9.32 0 0 0 -1-2.91 10.47 10.47 0 0 1 -.87-2.39 4.22 4.22 0 0 1 0-1.7 2.21 2.21 0 0 1 .21-.59z" fill="#fff"/><path d="m140.4 153.26a1.7 1.7 0 0 0 -.72.9 9.51 9.51 0 0 0 -.24 2.85 15.13 15.13 0 0 0 .36 2.85c.08.37.15.65.2.85a2.9 2.9 0 0 1 .08.32 1.85 1.85 0 0 1 -.12-.3c-.06-.2-.15-.49-.24-.85a13.52 13.52 0 0 1 -.39-2.87 13.75 13.75 0 0 1 0-1.59 4.69 4.69 0 0 1 .25-1.29 1.53 1.53 0 0 1 .51-.71.93.93 0 0 1 .31-.16z" fill="#fff"/><path d="m142.09 160.13a4.45 4.45 0 0 1 -.58-2.14 1.84 1.84 0 0 1 .71-1.39 1.13 1.13 0 0 1 .43-.2h.18a1.84 1.84 0 0 0 -.56.29 1.77 1.77 0 0 0 -.65 1.33 4 4 0 0 0 .26 1.51 4.84 4.84 0 0 1 .21.6z" fill="#fff"/><path d="m133.42 151.12a.41.41 0 0 1 0 .09 2.55 2.55 0 0 1 .1.25 1 1 0 0 1 .08.43 1.28 1.28 0 0 1 -.16.54 14.46 14.46 0 0 1 -.79 1.25 10.59 10.59 0 0 0 -.81 1.58 20.84 20.84 0 0 0 -1 3.11c-.08.35-.15.67-.22 1a1.85 1.85 0 0 1 -.1.35 1.56 1.56 0 0 1 .06-.35c0-.23.1-.57.19-1a18.64 18.64 0 0 1 .93-3.13 10 10 0 0 1 .83-1.6c.3-.46.61-.85.8-1.22a1.07 1.07 0 0 0 .11-.93 1.81 1.81 0 0 1 -.02-.37z" fill="#fff"/><path d="m180.1 111.14h35.52a8.47 8.47 0 0 1 8.47 8.47v44.1a8.47 8.47 0 0 1 -8.47 8.47h-35.52a0 0 0 0 1 0 0v-61a0 0 0 0 1 0 0z" fill="#455a64" transform="matrix(.89100652 -.4539905 .4539905 .89100652 -42.29 107.19)"/><path d="m211.24 150.25a9.28 9.28 0 0 1 -1.93 1.32 9.11 9.11 0 0 1 -7.17.46 9.79 9.79 0 0 1 -5.54-4.87 9.53 9.53 0 0 1 3.9-12.87 9.1 9.1 0 0 1 7.18-.46 10 10 0 0 1 6.22 12.17 9.24 9.24 0 0 1 -2.66 4.25zm-12.24-14.15a9 9 0 0 0 -1.84 10.76 9.09 9.09 0 0 0 5.16 4.53 8.39 8.39 0 0 0 10.89-5.55 9.16 9.16 0 0 0 -.63-6.84 9.2 9.2 0 0 0 -5.16-4.54 8.44 8.44 0 0 0 -6.65.43 7.91 7.91 0 0 0 -1.77 1.21z" fill="#fff"/><path d="m195.68 142.41h18.1v.67h-18.1z" fill="#fff" transform="matrix(.89100652 -.4539905 .4539905 .89100652 -42.49 108.51)"/><path d="m204.35 133.69h.67v18.7h-.67z" fill="#fff" transform="matrix(.89108575 -.45383498 .45383498 .89108575 -42.63 108.48)"/><path d="m209.2 151.47-.63-.23a17.14 17.14 0 0 0 1.23-6.84 10.59 10.59 0 0 0 -3.05-6.62c-1.71-1.6-4.12-2.28-6.25-2.87l.18-.65c2.21.62 4.7 1.32 6.53 3a11.11 11.11 0 0 1 3.25 7.07 18.33 18.33 0 0 1 -1.26 7.14z" fill="#fff"/><path d="m208.86 151.7a15.43 15.43 0 0 1 -6.61-2.9 11.1 11.1 0 0 1 -3.81-6.78c-.31-2.48.68-5.17 1.49-7.32l.62.23c-.77 2.09-1.74 4.69-1.44 7a10.57 10.57 0 0 0 3.56 6.36 15.07 15.07 0 0 0 6.34 2.76z" fill="#fff"/><path d="m207.07 136.76a19.92 19.92 0 0 1 -11.23 5l-.07-.67a19.23 19.23 0 0 0 12.7-6.7l.51.43a18.69 18.69 0 0 1 -1.91 1.94z" fill="#fff"/><path d="m213.92 144.84c-5.47.54-10.26 2.82-13.16 6.27l-.51-.43c3-3.58 8-6 13.6-6.51z" fill="#fff"/><path d="m199.3 177.43c-.05 0-6.26-12.09-13.89-27.05s-13.77-27.12-13.73-27.14 6.26 12.09 13.89 27.06 13.77 27.11 13.73 27.13z" fill="#263238"/><g fill="#fff"><path d="m225 156.36s-4.67 2.47-10.47 5.43-10.53 5.32-10.53 5.28 4.67-2.48 10.48-5.43 10.52-5.33 10.52-5.28z"/><path d="m223.45 159.67c0 .05-3.45 1.86-7.76 4.06s-7.82 3.94-7.84 3.89 3.45-1.85 7.76-4.05 7.82-3.94 7.84-3.9z"/><path d="m187.09 128.61a1.16 1.16 0 0 1 -.61 1.65l-.45.23.39.76-.73.37-1.48-2.89 1.18-.61a1.17 1.17 0 0 1 1.7.49zm-.74.37a.45.45 0 0 0 -.67-.19l-.41.21.43.84.41-.2a.45.45 0 0 0 .24-.64z"/><path d="m189.69 128.87-1.09.56.08.66-.75.38-.33-3.47.72-.37 2.62 2.31-.76.39zm-.52-.49-.8-.76.13 1.09z"/><path d="m190.84 128.67-.07-.73a1.74 1.74 0 0 0 1-.15c.3-.15.37-.31.3-.45-.23-.46-1.53.63-2.08-.45-.26-.52-.1-1.13.67-1.52a2 2 0 0 1 1.06-.23l.09.72a1.55 1.55 0 0 0 -.83.15c-.31.15-.36.33-.29.47.23.44 1.53-.64 2.07.43.26.5.1 1.13-.67 1.52a2.11 2.11 0 0 1 -1.25.24z"/><path d="m193.23 127.45-.07-.73a1.74 1.74 0 0 0 1-.15c.31-.15.38-.31.3-.45-.23-.46-1.53.63-2.08-.45-.26-.52-.1-1.13.67-1.52a2.08 2.08 0 0 1 1.07-.23l.08.73a1.48 1.48 0 0 0 -.83.14c-.31.15-.36.33-.28.47.22.44 1.52-.64 2.06.43.26.51.1 1.13-.67 1.52a2.11 2.11 0 0 1 -1.25.24z"/><path d="m197.34 123.38a1.16 1.16 0 0 1 -.6 1.66l-.46.23.39.75-.73.38-1.48-2.9 1.19-.6a1.15 1.15 0 0 1 1.69.48zm-.74.38a.44.44 0 0 0 -.67-.19l-.41.2.44.85.4-.21a.44.44 0 0 0 .24-.65z"/><path d="m197.79 123.63a1.62 1.62 0 1 1 2.21.77 1.61 1.61 0 0 1 -2.21-.77zm2.14-1.09a.8.8 0 1 0 -.28 1.18.83.83 0 0 0 .28-1.18z"/><path d="m202.53 122.07-.4.2.39.77-.73.37-1.47-2.89 1.18-.6a1.16 1.16 0 0 1 1.7.48 1.09 1.09 0 0 1 0 1.17l1 .63-.79.4zm-.75-1.49-.4.21.43.85.41-.21a.44.44 0 0 0 .24-.65.46.46 0 0 0 -.68-.2z"/><path d="m203.9 119.51-.8.41-.33-.65 2.32-1.18.33.65-.79.4 1.14 2.24-.73.38z"/><path d="m220.2 136.64a2.75 2.75 0 0 1 -2.14 3.3 2.86 2.86 0 0 1 2.14-3.3z"/><path d="m220.76 140.69a2.42 2.42 0 0 1 -2.76 2.07 2.51 2.51 0 0 1 2.76-2.07z"/><path d="m220.26 144.21a2.57 2.57 0 0 1 -3.43 1.32 2.68 2.68 0 0 1 3.43-1.32z"/><path d="m215.7 139.61a2.41 2.41 0 0 1 2.43 2.44 2.51 2.51 0 0 1 -2.43-2.44z"/><path d="m216.54 142.26a1.83 1.83 0 0 1 .73 2.54 1.91 1.91 0 0 1 -.73-2.54z"/><path d="m217.94 134.45a2.18 2.18 0 0 1 -.69 3 2.27 2.27 0 0 1 .69-3z"/><path d="m214.13 134a2.13 2.13 0 0 1 2.22 2.09 2.21 2.21 0 0 1 -2.22-2.09z"/><path d="m214.53 137.22a2.52 2.52 0 0 1 3.25 1.57 2.63 2.63 0 0 1 -3.25-1.57z"/><path d="m215.63 146.86.07-.06.26-.24a7.08 7.08 0 0 0 .84-1 7 7 0 0 0 .87-1.73 7.07 7.07 0 0 0 .3-1.1v-.3-.15s0-.1 0-.15v-.31-.31-.63-.3a.76.76 0 0 0 0-.15v-.15-.29l-.06-.29v-.14-.13l-.07-.27a7.84 7.84 0 0 0 -.72-1.8 7 7 0 0 0 -.72-1.09l-.22-.28-.06-.07.06.07.23.27a8.4 8.4 0 0 1 .73 1.09 7.84 7.84 0 0 1 .72 1.8l.07.27v.14.14.28.3.15.15.3.31.63.31s0 .11 0 .16v.15.29a8.54 8.54 0 0 1 -.3 1.11 7.33 7.33 0 0 1 -.88 1.73 6.93 6.93 0 0 1 -.85 1c-.11.11-.21.19-.27.24l-.07.06z"/><path d="m190.89 151.58a2.74 2.74 0 0 0 3.93.2 2.87 2.87 0 0 0 -3.93-.2z"/><path d="m193.84 154.41a2.4 2.4 0 0 0 3.29-1 2.51 2.51 0 0 0 -3.29 1z"/><path d="m197 156.07a2.56 2.56 0 0 0 3.08-2 2.67 2.67 0 0 0 -3.08 2z"/><path d="m195.94 149.68a2.41 2.41 0 0 0 .54 3.4 2.51 2.51 0 0 0 -.54-3.4z"/><path d="m197.59 151.92a1.82 1.82 0 0 0 1.62 2.08 1.91 1.91 0 0 0 -1.62-2.08z"/><path d="m190.44 148.45a2.19 2.19 0 0 0 2.87 1.24 2.28 2.28 0 0 0 -2.87-1.24z"/><path d="m192.35 145.14a2.12 2.12 0 0 0 .39 3 2.22 2.22 0 0 0 -.39-3z"/><path d="m194.69 147.33a2.53 2.53 0 0 0 -.64 3.56 2.64 2.64 0 0 0 .64-3.56z"/><path d="m201.85 153.88h-.09l-.35.07a6.5 6.5 0 0 1 -1.31.09 7.2 7.2 0 0 1 -1.91-.31 8.84 8.84 0 0 1 -1.07-.4l-.27-.14-.13-.06-.13-.08-.27-.15-.27-.18-.13-.08-.12-.1-.25-.18-.23-.2-.12-.1-.11-.1-.21-.2-.2-.21-.1-.1-.09-.11-.18-.21a8 8 0 0 1 -1-1.64 9.77 9.77 0 0 1 -.46-1.22c0-.15-.06-.27-.08-.35v-.09.09c0 .08.05.2.08.35a8 8 0 0 0 .46 1.23 7.29 7.29 0 0 0 1 1.64l.18.22.09.1.1.11.2.21.21.2.11.1.12.1.23.2.25.19.13.09.13.09.26.17.27.15.14.08.13.07.27.13a9.08 9.08 0 0 0 1.08.41 7.57 7.57 0 0 0 1.91.3 7.17 7.17 0 0 0 1.31-.1l.35-.08h.09z"/></g><path d="m376.36 195.53-1.6 4s-23.34-17.81-41.34-16.3a3.71 3.71 0 0 1 -3.18.58l-6.71-1.66a3.77 3.77 0 0 1 -2.8-2.74s-13.59-11.22-32-9.48l-6.86.29 29-48.1 79.25 12.77z" fill="#455a64"/><path d="m382.48 191.16-2.67 7.31s-21.81-21.47-52.38-16.74l18.29-33.27s37.28 34.54 36.76 42.7z" fill="#ebebeb"/><path d="m405 139.35s-24.77-30.18-57.57-10.15l-19.95 52.53s36.51-14.64 57.44 12z" fill="#fff"/><path d="m405 139.35s-.11.34-.34 1-.6 1.64-1.05 2.9c-.94 2.56-2.3 6.28-4 11l-14.61 39.51-.1.26-.17-.22a40.44 40.44 0 0 0 -24.47-14.92 55.65 55.65 0 0 0 -16-.71 69.41 69.41 0 0 0 -8.26 1.29 63.21 63.21 0 0 0 -8.18 2.33l-.29.11-.39.15.15-.38 20-52.53h.05a48.19 48.19 0 0 1 12.57-5.48 39.55 39.55 0 0 1 12.31-1.31 39.15 39.15 0 0 1 10.71 2.09 46.78 46.78 0 0 1 8.45 3.84 55.4 55.4 0 0 1 10.4 7.72c1.09 1 1.88 1.88 2.4 2.46.27.29.46.51.58.67l.19.23-.2-.22c-.15-.15-.34-.36-.6-.65-.54-.56-1.34-1.39-2.44-2.42a56.7 56.7 0 0 0 -10.46-7.7 47.2 47.2 0 0 0 -8.43-3.78 39 39 0 0 0 -22.88-.71 47.7 47.7 0 0 0 -12.47 5.47l.06-.08c-5.86 15.46-12.68 33.44-19.93 52.54l-.24-.24.3-.11a62.58 62.58 0 0 1 8.24-2.35 67.91 67.91 0 0 1 8.29-1.29 56.05 56.05 0 0 1 16.16.72 40.8 40.8 0 0 1 24.65 15.07h-.27c6-16.31 11.09-29.87 14.62-39.37l4.11-11 1.1-2.91c.25-.64.44-.98.44-.98z" fill="#263238"/><path d="m327.12 181.64s-22-23-46.46-14.32l21.62-46.85 44.42 10.53z" fill="#f5f5f5"/><path d="m327.25 182.28-.38-.4c-.22-.23-22.14-22.73-46.09-14.23l-.79.28 22.09-47.87.28.07 44.81 10.63-.15.38zm-35.25-17.28c17.82 0 32.49 13.5 35 16l19.23-49.75-43.74-10.38-21.15 45.84a34 34 0 0 1 10.66-1.71z" fill="#263238"/><path d="m347.38 129.2s-4.46-20.51-24.78-25.33l-13.13-2.74-22.83 46.72s32.81 7.12 40.83 33.56z" fill="#fff"/><path d="m347.38 129.2s0 .08-.08.25l-.26.72c-.24.64-.59 1.58-1 2.81l-4 10.64c-3.47 9.17-8.43 22.23-14.36 37.85l-.16.44-.14-.45a39.65 39.65 0 0 0 -5-10.44c-.53-.85-1.17-1.64-1.77-2.46s-1.27-1.61-2-2.35a47.07 47.07 0 0 0 -4.52-4.4 68.35 68.35 0 0 0 -23.4-12.65c-1.35-.43-2.7-.82-4-1.13l-.23-.05.1-.21c8.41-17.17 16.23-33.15 22.86-46.71l.06-.11h.12l10.7 2.24a35 35 0 0 1 9.37 3 32.6 32.6 0 0 1 12 10.4 38.72 38.72 0 0 1 4.77 9.08c.41 1.12.67 2 .83 2.58s.21.9.21.9l-.06-.22-.19-.67c-.18-.58-.45-1.45-.87-2.55a39.93 39.93 0 0 0 -4.84-9 32.58 32.58 0 0 0 -11.95-10.29 35.18 35.18 0 0 0 -9.33-3l-10.7-2.22.17-.08-22.91 46.81-.12-.26c1.36.32 2.71.71 4.07 1.14a75 75 0 0 1 12.63 5.34 61.55 61.55 0 0 1 10.9 7.39 48.8 48.8 0 0 1 4.54 4.43c.72.76 1.34 1.59 2 2.38s1.25 1.62 1.79 2.48a40.47 40.47 0 0 1 5 10.54h-.31c6-15.59 11-28.62 14.48-37.77 1.76-4.57 3.14-8.16 4.1-10.62l1.09-2.81.29-.72c.08-.17.12-.25.12-.25z" fill="#263238"/><path d="m314.37 111.69c0 .16 2.07.51 5.27 1.61a41.22 41.22 0 0 1 11.44 6.13 36.27 36.27 0 0 1 8.45 9.1c1.66 2.62 2.33 4.38 2.51 4.35s0-.46-.31-1.27a18.52 18.52 0 0 0 -1.52-3.33 32.28 32.28 0 0 0 -8.45-9.52 37.49 37.49 0 0 0 -11.93-6.08 26.39 26.39 0 0 0 -4-.89 4.18 4.18 0 0 0 -1.46-.1z" fill="#e0e0e0"/><path d="m310.9 116.69c0 .17 2.07.51 5.26 1.61a41.66 41.66 0 0 1 11.45 6.13 36.12 36.12 0 0 1 8.45 9.11c1.66 2.62 2.32 4.38 2.51 4.34s0-.46-.31-1.27a18.49 18.49 0 0 0 -1.52-3.32 32.21 32.21 0 0 0 -8.46-9.53 37.35 37.35 0 0 0 -11.92-6.08 26.39 26.39 0 0 0 -4-.89 4.89 4.89 0 0 0 -1.46-.1z" fill="#e0e0e0"/><path d="m308.51 122.61c0 .17 2.07.52 5.27 1.61a41.94 41.94 0 0 1 11.45 6.13 36.48 36.48 0 0 1 8.45 9.11c1.66 2.62 2.32 4.38 2.5 4.34s0-.46-.3-1.26a18.39 18.39 0 0 0 -1.53-3.33 32 32 0 0 0 -8.45-9.52 37.39 37.39 0 0 0 -11.9-6.08 25.2 25.2 0 0 0 -4-.89 4.75 4.75 0 0 0 -1.49-.11z" fill="#e0e0e0"/><path d="m305.28 127.78c0 .16 2.07.51 5.26 1.61a41.4 41.4 0 0 1 11.46 6.13 36.46 36.46 0 0 1 8.45 9.1c1.66 2.62 2.32 4.38 2.51 4.35s0-.46-.31-1.27a19.26 19.26 0 0 0 -1.52-3.33 32.19 32.19 0 0 0 -8.46-9.52 37.45 37.45 0 0 0 -11.92-6.08 26.39 26.39 0 0 0 -4-.89 4.17 4.17 0 0 0 -1.47-.1z" fill="#e0e0e0"/><path d="m301.74 133.18c0 .16 2.06.51 5.26 1.61a41.4 41.4 0 0 1 11.45 6.13 36.46 36.46 0 0 1 8.45 9.1c1.66 2.62 2.32 4.38 2.51 4.35s0-.46-.31-1.27a18.7 18.7 0 0 0 -1.53-3.33 32 32 0 0 0 -8.45-9.52 37.45 37.45 0 0 0 -11.92-6.08 26.47 26.47 0 0 0 -4-.89 4.12 4.12 0 0 0 -1.46-.1z" fill="#e0e0e0"/><path d="m297.48 139.13c0 .16 2.25.53 5.71 1.78a50.44 50.44 0 0 1 5.89 2.57 58.17 58.17 0 0 1 6.64 4.08 51.7 51.7 0 0 1 5.84 4.93 36.34 36.34 0 0 1 3.91 4.62c2 2.78 2.66 4.7 2.86 4.66s-.06-.49-.37-1.37a10.61 10.61 0 0 0 -.69-1.56 14.83 14.83 0 0 0 -1.14-2 31.52 31.52 0 0 0 -3.84-4.85 47 47 0 0 0 -5.93-5.11 53.29 53.29 0 0 0 -6.84-4.12 42.36 42.36 0 0 0 -6.13-2.45 20.82 20.82 0 0 0 -2.44-.67 15.25 15.25 0 0 0 -1.87-.37 4.86 4.86 0 0 0 -1.6-.14z" fill="#e0e0e0"/><path d="m295.42 144.34c0 .17 2.26.53 5.72 1.83a48.16 48.16 0 0 1 5.85 2.7 58.05 58.05 0 0 1 6.53 4.27 55.28 55.28 0 0 1 5.7 5.1 38.25 38.25 0 0 1 3.78 4.76c1.93 2.81 2.64 4.74 2.83 4.7s-.06-.5-.37-1.38a10.48 10.48 0 0 0 -.68-1.57 16.42 16.42 0 0 0 -1.12-2 32.63 32.63 0 0 0 -3.73-4.94 49.61 49.61 0 0 0 -5.78-5.27 50.88 50.88 0 0 0 -6.74-4.31 40 40 0 0 0 -6.09-2.59 21.74 21.74 0 0 0 -2.45-.71 13.58 13.58 0 0 0 -1.88-.38 4.8 4.8 0 0 0 -1.57-.21z" fill="#e0e0e0"/><path d="m341 171c.12.15 2-.93 5.37-1.94a34.94 34.94 0 0 1 14.16-1.06 38.48 38.48 0 0 1 13.86 4.71c3.27 1.87 5 3.41 5.12 3.3s-.33-.47-1.11-1.16a27.66 27.66 0 0 0 -3.62-2.67 35.75 35.75 0 0 0 -14.21-5.1 32.12 32.12 0 0 0 -14.51 1.37 22.8 22.8 0 0 0 -3.82 1.71c-.84.47-1.24.84-1.24.84z" fill="#e0e0e0"/><path d="m343.79 164.32c.11.15 2-.93 5.36-1.94a34.76 34.76 0 0 1 14.13-1.07 38.28 38.28 0 0 1 13.87 4.69c3.27 1.87 5 3.41 5.12 3.3s-.33-.47-1.11-1.16a27.44 27.44 0 0 0 -3.62-2.67 35.65 35.65 0 0 0 -14.22-5.1 32.08 32.08 0 0 0 -14.5 1.37 22.54 22.54 0 0 0 -3.82 1.7c-.84.56-1.25.83-1.21.88z" fill="#e0e0e0"/><path d="m346.55 157.64c.11.14 2-.93 5.36-1.94a34.76 34.76 0 0 1 14.09-1.07 38.35 38.35 0 0 1 13.86 4.7c3.27 1.88 5 3.42 5.13 3.3s-.33-.46-1.12-1.16a29.12 29.12 0 0 0 -3.61-2.67 36 36 0 0 0 -14.22-5.1 32.12 32.12 0 0 0 -14.51 1.38 21.6 21.6 0 0 0 -3.81 1.7c-.8.49-1.21.81-1.17.86z" fill="#e0e0e0"/><path d="m349.3 151c.12.14 2-.94 5.37-1.94a34.59 34.59 0 0 1 14.13-1.06 38.42 38.42 0 0 1 13.86 4.7c3.27 1.87 5 3.41 5.13 3.3s-.34-.46-1.12-1.16a27.66 27.66 0 0 0 -3.62-2.67 35.9 35.9 0 0 0 -14.21-5.1 32.14 32.14 0 0 0 -14.51 1.37 22.8 22.8 0 0 0 -3.82 1.71c-.83.44-1.25.76-1.21.85z" fill="#e0e0e0"/><path d="m352.06 144.28c.12.14 2-.94 5.37-1.94a34.55 34.55 0 0 1 14.12-1.07 38.28 38.28 0 0 1 13.87 4.7c3.27 1.87 5 3.41 5.12 3.3s-.33-.46-1.11-1.16a28.38 28.38 0 0 0 -3.62-2.67 35.81 35.81 0 0 0 -14.21-5.1 32.11 32.11 0 0 0 -14.51 1.37 22.42 22.42 0 0 0 -3.82 1.71c-.84.48-1.27.81-1.21.86z" fill="#e0e0e0"/><path d="m354.82 137.59c.11.15 2-.93 5.36-1.94a34.94 34.94 0 0 1 14.13-1.07 38.47 38.47 0 0 1 13.87 4.71c3.27 1.87 5 3.41 5.12 3.3s-.33-.47-1.12-1.16a27.21 27.21 0 0 0 -3.61-2.67 35.8 35.8 0 0 0 -14.22-5.1 32.14 32.14 0 0 0 -14.51 1.34 22.63 22.63 0 0 0 -3.81 1.71c-.84.51-1.25.83-1.21.88z" fill="#e0e0e0"/><rect fill="#263238" height="38.62" rx="4.98" width="10.76" x="167.04" y="241.65"/><path d="m210.18 288.28h-20.18c-6.19 0-12.85.71-15.53-2.94-2.11-2.85-1.74-6.62-1.58-10q.67-14.42 1.36-28.83a20.82 20.82 0 0 1 1.35-7.69c1.09-2.43 6-36.11 8.94-36.67h25z" fill="#263238"/><path d="m204.93 272.88c0 .11-6.69.19-15 .19s-15-.08-15-.19 6.69-.18 15-.18 15 .08 15 .18z" fill="#455a64"/><path d="m193 233.85c.1 0 .18 8.73.18 19.48s-.08 19.49-.18 19.49-.18-8.72-.18-19.49.1-19.48.18-19.48z" fill="#455a64"/><path d="m174.32 278s0-.12 0-.36 0-.61-.05-1c0-.89-.07-2.18-.11-3.77-.07-3.2-.11-7.6-.07-12.47s.16-9.28.28-12.47c.06-1.6.12-2.89.17-3.78l.07-1a1.41 1.41 0 0 1 .05-.35s0 .12 0 .36v1c0 .95 0 2.23-.06 3.78 0 3.24-.1 7.63-.17 12.47s0 9.22 0 12.46v3.78 1a1.77 1.77 0 0 1 -.11.35z" fill="#455a64"/><path d="m312.54 153.38s11 2.09 16.55 19.8c6.38 20.25 17.15 61.77 17.07 66.57s-12.3 12.46-12.3 12.46l-17.5-5.83-9.19-34.55z" fill="#f43f5e"/><path d="m312.54 153.38-27-10-1.84-2.38-34.81 1.07-2.63 1.67s-26.16 5.74-28.87 6.09c-6.34.81-13 9.54-13 9.54-.67.82-33.55 48.63-33.55 48.63l7.69 30.09s3.62 1.28 14-5.55c8.24-5.41 14.65-14 17-17.3v73h102l-5.66-46.24z" fill="#f43f5e"/><path d="m307.36 201.5s0-.12 0-.36.12-.61.2-1c.18-.94.44-2.21.75-3.75.63-3.17 1.44-7.56 2.17-12.43s1.25-9.31 1.58-12.53c.16-1.56.29-2.85.39-3.8 0-.42.08-.76.11-1s0-.36.07-.36a2.12 2.12 0 0 1 0 .37c0 .28 0 .62-.05 1 0 .9-.13 2.21-.27 3.82-.27 3.22-.74 7.67-1.48 12.55s-1.58 9.27-2.28 12.43c-.34 1.58-.64 2.85-.86 3.73-.11.4-.2.74-.27 1a1.2 1.2 0 0 1 -.06.33z" fill="#263238"/><path d="m206.26 182a1.5 1.5 0 0 1 .1.44c0 .33.11.75.19 1.27.17 1.1.38 2.7.62 4.68.49 4 1.06 9.44 1.51 15.5s.67 11.58.76 15.56c.05 2 .07 3.61.06 4.72v1.29a2.28 2.28 0 0 1 0 .45 1.66 1.66 0 0 1 -.05-.45c0-.33 0-.76-.06-1.28 0-1.16-.11-2.76-.18-4.72-.16-4-.43-9.48-.87-15.54s-1-11.54-1.39-15.5c-.21-2-.38-3.54-.51-4.69 0-.53-.09-1-.13-1.28a3 3 0 0 1 -.05-.45z" fill="#263238"/><path d="m285.53 147a2.07 2.07 0 0 1 -.36.35q-.36.34-1.08 1c-1 .81-2.35 2-4.15 3.31a42.36 42.36 0 0 1 -6.66 4.22 25.85 25.85 0 0 1 -9.38 2.22 23.08 23.08 0 0 1 -9.55-1.31 16.13 16.13 0 0 1 -6.39-4.58 12.91 12.91 0 0 1 -2.52-4.67 9.9 9.9 0 0 1 -.3-1.42 3.75 3.75 0 0 1 0-.5 2.75 2.75 0 0 1 .13.49 12.05 12.05 0 0 0 .36 1.39 13.36 13.36 0 0 0 2.58 4.54 16.07 16.07 0 0 0 6.31 4.44 23.23 23.23 0 0 0 9.41 1.25 26.07 26.07 0 0 0 9.26-2.15 44.79 44.79 0 0 0 6.65-4.13c1.81-1.31 3.23-2.44 4.21-3.22l1.13-.89a2 2 0 0 1 .35-.34z" fill="#263238"/><path d="m233.46 180.8c-4.06 2.81-4.55 8.51-4.79 13.45-.94 20.27-13.88 59-19.2 78.57 16.75-25.88 27.02-61.34 23.99-92.02z" opacity=".3"/><path d="m234.57 146.28s-1.36 43.63-5.1 69.81-21.88 61-21.88 61l-2.92-5.71s10-29.08 14.57-53.45c3.2-17.22 0-69.12 0-69.12a20.59 20.59 0 0 1 15.33-2.53z" fill="#263238"/><path d="m224.94 189.49c-.1 0 .13-9.09.53-20.29s.79-20.28.89-20.28-.13 9.09-.52 20.29-.84 20.28-.9 20.28z" fill="#455a64"/><path d="m168.42 192-3.48 9s-4.61 9.4-4.25 15.79 8.41 29.74 24.68 22.17 8.15-19.87 8.15-19.87l-7.64-20.93-12-7.9a3.69 3.69 0 0 0 -5.46 1.74z" fill="#f43f5e"/><path d="m187.63 167c1.07 1.42 7.22-.21 8.61 2.67a5.29 5.29 0 0 1 0 5 5.88 5.88 0 0 1 .62 6.32 8.13 8.13 0 0 1 .66 4.26 6.31 6.31 0 0 1 -2.07 3.72 3.93 3.93 0 0 1 -1.61 3.91c-2.13 1.42-7.71 2.49-7.71 2.49l-2.31 4.25s-3.18 3.55-7.13 2-6.62-9.46-6.62-9.46c.18-1 4.61-8.35 4.61-8.35s.89-10.93 2.84-13.59a13.39 13.39 0 0 1 2.84-3.2s1.7-3.64 1.7-5.21-1.46-6.57-.59-7.59 4.46-.31 6 3.83.16 8.95.16 8.95z" fill="#ffbf9d"/><path d="m196 174.38c0 .11-2.11-.26-4.72-.27s-4.7.32-4.72.21a4.9 4.9 0 0 1 1.44-.32 20.48 20.48 0 0 1 3.36-.24 22.28 22.28 0 0 1 3.36.28 4.71 4.71 0 0 1 1.28.34z" fill="#ff9a6c"/><path d="m196.53 181.6c0 .11-2-.29-4.45-.29s-4.43.36-4.45.25a12.48 12.48 0 0 1 4.45-.62 12.26 12.26 0 0 1 4.45.66z" fill="#ff9a6c"/><path d="m196 188.89a11 11 0 0 1 -3.86.82 10.61 10.61 0 0 1 -3.94-.25c0-.11 1.76 0 3.91-.11s3.89-.57 3.89-.46z" fill="#ff9a6c"/><path d="m190.64 194.12a5.31 5.31 0 0 1 -1.63.72 12.77 12.77 0 0 1 -8.48-.31 5.08 5.08 0 0 1 -1.57-.85 15.42 15.42 0 0 0 11.68.44z" fill="#ff9a6c"/><path d="m190.7 167.92c0 .11-2.28-.37-5.09-.27s-5 .71-5.07.59a5 5 0 0 1 1.43-.47 17.19 17.19 0 0 1 3.62-.48 18.21 18.21 0 0 1 3.65.24 5.26 5.26 0 0 1 1.46.39z" fill="#ff9a6c"/><path d="m191.93 229.56s.18-.44.49-1.24a16 16 0 0 0 .94-3.52 17 17 0 0 0 -.07-5.36 15.87 15.87 0 0 0 -2.41-6.08 37 37 0 0 1 -3.5-5.68 23.16 23.16 0 0 1 -1.48-5.26c-.25-1.53-.37-2.78-.45-3.64 0-.4-.06-.73-.08-1a1.55 1.55 0 0 1 0-.35 1.49 1.49 0 0 1 .08.34c0 .27.08.6.14 1 .12.86.28 2.1.57 3.61a23.35 23.35 0 0 0 1.53 5.17 38.46 38.46 0 0 0 3.5 5.62 16 16 0 0 1 2.44 6.22 16.28 16.28 0 0 1 0 5.46 14.82 14.82 0 0 1 -1.05 3.53c-.17.4-.34.69-.45.9s-.19.29-.2.28z" fill="#263238"/><path d="m185.59 197.23c.09.38.21.75.33 1.12 0-.39 0-.78 0-1.16z" opacity=".3"/><path d="m192.58 209.82c-2.41-3.72-5.3-7.29-6.66-11.47 0 3.56.17 7.18 1.65 10.4a53.53 53.53 0 0 0 3.73 5.89 11 11 0 0 1 2.11 6.52 7.83 7.83 0 0 0 -.06 2.46c.2.8 1 1.54 1.8 1.26a2 2 0 0 0 1-1.47c1.24-4.67-.94-9.54-3.57-13.59z" opacity=".3"/><path d="m302.62 105.45c-1.62.91-3.78-.26-4.52-2a7.88 7.88 0 0 1 .17-5.43 22.35 22.35 0 0 0 1.44-5.34 7.88 7.88 0 0 0 -5.29-7.68 7.37 7.37 0 0 0 .52-10.61c-1.35-1.3-3.15-2-4.72-3a16.73 16.73 0 0 1 -2.49-2 10.14 10.14 0 0 0 4.28.13 6.92 6.92 0 0 0 5-4.4 6.28 6.28 0 0 0 -1.52-6.44 5.74 5.74 0 0 0 -6.47-1c-2 1.07-3.14 3.28-4.13 5.35l-.89 1.89c-2.86-3.79-5.55-7.7-9.95-9-4-1.2-8.3.14-12.46-.16-3-.22-5.94-1.31-9-1.65s-6.46.32-8.25 2.78c-1 1.44-1.37 3.32-2.43 4.75-2.19 3-6.91 3.37-8.71 6.59-1.46 2.61-.34 5.91-1 8.84-.69 3.18-3.31 5.51-5.46 8s-4 5.8-2.82 8.83c1.06 2.66 4.17 4.09 5.18 6.78.74 2 .2 4.12.16 6.21s.8 4.57 2.84 5l23.26 6.11c8 3.24 16.22 6.54 24.84 6.53s17.81-4.15 21.21-12.07a5 5 0 0 1 -3.33-1.49 8.28 8.28 0 0 0 4.54-5.52z" fill="#263238"/><path d="m283.62 112.73a107.45 107.45 0 0 0 4.67-17.93c.87-6.11.69-12.49-1.47-18.29-.32-.88-3.11-6.77-4-6.68-.66.07 1.05 5.57.71 6.15-3.21 5.52-4.09 12.16-3.57 18.53a83.6 83.6 0 0 0 3.7 18.22" fill="#263238"/><path d="m260.64 60.37-1.44.07a27.72 27.72 0 0 0 -26.2 26.93c-.36 13.43-.86 26.32-.38 33.49 1 14.84 16.22 16.39 16.22 16.39v7.66c.66 7.82 10.78 9.22 14.62 8.88 13.26 0 20.17-10.84 20.17-10.84l.62-53.81c.49-15.49-8.11-28.7-23.61-28.77z" fill="#ffbf9d"/><path d="m248.82 137.22a35.93 35.93 0 0 0 19-6.75s-4.14 11.05-19 10.51z" fill="#ff9a6c"/><path d="m239.82 99.55a2.12 2.12 0 0 0 2.16 2 2 2 0 0 0 2.08-2 2.13 2.13 0 0 0 -2.16-2 2 2 0 0 0 -2.08 2z" fill="#263238"/><path d="m236.48 93.36c.28.26 1.83-1 4.11-1.13s4 .94 4.25.65c.11-.13-.18-.62-.94-1.11a5.86 5.86 0 0 0 -3.42-.86 5.6 5.6 0 0 0 -3.25 1.25c-.67.57-.88 1.08-.75 1.2z" fill="#263238"/><path d="m260.47 99.6a2.13 2.13 0 0 0 2.16 2 2 2 0 0 0 2.08-2 2.12 2.12 0 0 0 -2.15-2 2 2 0 0 0 -2.09 2z" fill="#263238"/><path d="m258.89 93.09c.28.26 1.83-1 4.11-1.13s4 .93 4.25.64c.11-.13-.18-.61-.94-1.11a5.79 5.79 0 0 0 -3.42-.85 5.6 5.6 0 0 0 -3.25 1.24c-.64.58-.88 1.12-.75 1.21z" fill="#263238"/><path d="m251.65 111.07c0-.14-1.43-.3-3.75-.48-.58 0-1.14-.11-1.26-.5a2.94 2.94 0 0 1 .3-1.75q.7-2.16 1.48-4.53c2.06-6.45 3.51-11.74 3.25-11.82s-2.14 5.08-4.19 11.53c-.5 1.59-1 3.1-1.41 4.55a3.34 3.34 0 0 0 -.18 2.31 1.47 1.47 0 0 0 1 .8 4.06 4.06 0 0 0 1 .08 15.22 15.22 0 0 0 3.76-.19z" fill="#263238"/><path d="m258.45 112.28c-.37 0-.25 2.48-2.27 4.35s-4.68 1.74-4.68 2.09c0 .16.61.45 1.73.42a6.2 6.2 0 0 0 3.91-1.6 5.38 5.38 0 0 0 1.75-3.64c.04-1.04-.27-1.64-.44-1.62z" fill="#263238"/><path d="m258.52 83.82c.26.61 2.52.19 5.22.37s4.9.79 5.22.22c.15-.28-.26-.84-1.16-1.4a9.08 9.08 0 0 0 -8-.44c-.92.43-1.39.96-1.28 1.25z" fill="#263238"/><path d="m237 85.72c.43.5 2-.12 3.86-.25s3.51.16 3.85-.4c.15-.27-.13-.78-.85-1.23a5.39 5.39 0 0 0 -3.19-.68 5.32 5.32 0 0 0 -3 1.21c-.67.56-.84 1.11-.67 1.35z" fill="#263238"/><path d="m283.61 100.21c.25-.13 10-3.57 10.26 6.6s-10 8.3-10.06 8-.2-14.6-.2-14.6z" fill="#ffbf9d"/><path d="m286.84 110.89s.18.12.48.26a1.8 1.8 0 0 0 1.32 0c1.07-.41 1.94-2.14 1.95-4a6 6 0 0 0 -.55-2.53 2 2 0 0 0 -1.37-1.33.9.9 0 0 0 -1 .51c-.13.28-.06.49-.12.5s-.22-.16-.15-.58a1.16 1.16 0 0 1 .39-.65 1.38 1.38 0 0 1 1-.28 2.49 2.49 0 0 1 1.88 1.54 6.09 6.09 0 0 1 .68 2.82c0 2-1 4-2.49 4.45a1.89 1.89 0 0 1 -1.63-.24c-.37-.22-.43-.45-.39-.47z" fill="#ff9a6c"/><path d="m239.35 70.43c-1.66-.89 3.21-6.28 7.23-8.17 6.08-2.85 15.4-4.68 21.06-3.16 6.81 1.84 12.5 5.15 16 11.28a40.1 40.1 0 0 1 4.76 20.38 12.17 12.17 0 0 1 -1.4 6.24c-1.39 2.27-4.1 3.72-3.94 6.82a4.25 4.25 0 0 1 -1 3.12c-1.83 2-4.13.17-5.2-1.68-2.29-4-2.6-8.71-2.86-13.27-.18-3.25-.35-6.56.52-9.69.48-1.7 1.26-3.31 1.64-5a6.12 6.12 0 0 0 -.79-5.07 6.44 6.44 0 0 0 -.83-.82 10.63 10.63 0 0 0 -10.54-1.92c-5.7 2.1-15.44 5.25-18 3.34-3.72-2.75-4.62-4.56-4.62-4.56z" fill="#263238"/><path d="m267.09 57.73a22.36 22.36 0 0 0 -17.18 1.16c-2.75 1.48-5.23 3.81-6 6.84s.52 6.71 3.44 7.85l.2.13c4.36 1.4 7.17.78 11.48-.77 3.62-1.31 6.83-3.59 10.46-4.88a20.64 20.64 0 0 1 12.1-.51 33.78 33.78 0 0 0 -14.5-9.82z" fill="#263238"/><path d="m286.44 67.79c-.09.08-.91-.9-2.56-2a14.77 14.77 0 0 0 -3.09-1.66 9.63 9.63 0 0 0 -4.14-.69 13.77 13.77 0 0 0 -7.09 2.93c-1.57 1.25-2.3 2.29-2.4 2.22s.11-.31.44-.78a10.71 10.71 0 0 1 1.65-1.81 13.16 13.16 0 0 1 7.35-3.24 9.67 9.67 0 0 1 4.42.79 13.84 13.84 0 0 1 3.14 1.85 7.8 7.8 0 0 1 2.28 2.39z" fill="#455a64"/><path d="m287.45 71.39a8.71 8.71 0 0 1 -.77 2.91 21.26 21.26 0 0 1 -9.5 10.7 8.77 8.77 0 0 1 -2.79 1.11c-.12-.2 4.27-1.87 8-6.09s4.85-8.72 5.06-8.63z" fill="#455a64"/><path d="m291.59 73a3.67 3.67 0 0 1 0 1.16 18.13 18.13 0 0 1 -.44 3.12 21.24 21.24 0 0 1 -13.15 15.21 19.08 19.08 0 0 1 -3 .87 3.14 3.14 0 0 1 -1.15.11c0-.12 1.6-.4 4-1.43a22.41 22.41 0 0 0 12.93-14.83c.63-2.53.69-4.21.81-4.21z" fill="#455a64"/><path d="m255.44 56.8a27.1 27.1 0 0 1 -2.7 1 22.84 22.84 0 0 0 -5.89 3.48 22.22 22.22 0 0 0 -4.54 5.12 27.9 27.9 0 0 1 -1.52 2.45 8 8 0 0 1 1.1-2.7 19.4 19.4 0 0 1 4.53-5.39 18.9 18.9 0 0 1 6.16-3.41 7.93 7.93 0 0 1 2.86-.55z" fill="#455a64"/><path d="m294.78 58.08c.17 0-.28 3-2.58 5.66s-5.1 3.69-5.13 3.52 2.46-1.36 4.61-4 2.9-5.26 3.1-5.18z" fill="#455a64"/><path d="m262.59 105.78a.38.38 0 1 1 -.38-.38.38.38 0 0 1 .38.38z" fill="#ff9a6c"/><circle cx="265.01" cy="105.78" fill="#ff9a6c" r=".38"/><rect fill="#455a64" height="65.91" rx="2" transform="matrix(.96 .29 -.29 .96 69.46 -71.16)" width="48.52" x="253.98" y="169.16"/><path d="m248.23 218.22a3.81 3.81 0 0 1 -3.09-3.89 3.83 3.83 0 0 1 7.66.27h-.71a3.12 3.12 0 1 0 -3.72 2.95z" fill="#263238"/><path d="m249.81 213a3.83 3.83 0 1 1 4.57-3.62h-.71a3.12 3.12 0 1 0 -3.72 3z" fill="#263238"/><path d="m251.39 207.83a3.79 3.79 0 0 1 -3.09-3.89 3.83 3.83 0 0 1 7.66.27h-.71a3.12 3.12 0 0 0 -5.25-2.4 3.12 3.12 0 0 0 1.53 5.35z" fill="#263238"/><path d="m253 202.64a3.83 3.83 0 1 1 4.57-3.62h-.71a3.11 3.11 0 0 0 -3-3.23 3.13 3.13 0 0 0 -.71 6.19z" fill="#263238"/><path d="m254.55 197.45a3.83 3.83 0 0 1 .88-7.59 3.85 3.85 0 0 1 3.69 4h-.71a3.13 3.13 0 0 0 -3-3.23 3.13 3.13 0 0 0 -.71 6.19z" fill="#263238"/><path d="m256.13 192.26a3.84 3.84 0 0 1 -1.87-6.57 3.87 3.87 0 0 1 2.75-1 3.84 3.84 0 0 1 3.69 4h-.71a3.12 3.12 0 0 0 -5.25-2.4 3.12 3.12 0 0 0 1.53 5.35z" fill="#263238"/><path d="m257.71 187.06a3.8 3.8 0 0 1 -3.09-3.89 3.84 3.84 0 0 1 3.83-3.7h.14a3.83 3.83 0 0 1 3.69 4h-.71a3.12 3.12 0 1 0 -3.72 3z" fill="#263238"/><path d="m259.29 181.87a3.81 3.81 0 0 1 -3.09-3.9 3.83 3.83 0 0 1 7.66.28h-.71a3.11 3.11 0 0 0 -3-3.23 3.13 3.13 0 0 0 -.71 6.19z" fill="#263238"/><path d="m260.87 176.67a3.83 3.83 0 0 1 -1.87-6.56 3.87 3.87 0 0 1 2.75-1 3.83 3.83 0 0 1 3.69 4h-.71a3.14 3.14 0 0 0 -3-3.24 3.13 3.13 0 0 0 -.73 6.13z" fill="#263238"/><path d="m262.45 171.48a3.83 3.83 0 1 1 4.57-3.62h-.71a3.12 3.12 0 1 0 -3.72 3z" fill="#263238"/><path d="m246.65 223.42a3.84 3.84 0 0 1 -1.87-6.57 3.83 3.83 0 0 1 6.44 2.94h-.71a3.12 3.12 0 0 0 -5.25-2.4 3.12 3.12 0 0 0 1.53 5.35z" fill="#263238"/><path d="m252 219.38c.78-2 9.22-31.7 13.08-43.9a5.47 5.47 0 0 1 6.72-3.48l43.37 12.89a5.13 5.13 0 0 1 3.33 6.29l-19.17 66.41a5.12 5.12 0 0 1 -6.26 3.53l-44.19-12a5.11 5.11 0 0 1 -3.59-6.34l6.59-23.22z" fill="#fff"/><path d="m267.47 170.58a3.35 3.35 0 0 0 -4.08 2.26c-3.23 10.58-13.65 44.66-14.42 46.78l-7.69 25.18a3.37 3.37 0 0 0 2.37 4.24l47.61 12.38a3.36 3.36 0 0 0 4.08-2.32l20.75-72a3.36 3.36 0 0 0 -2.36-4.18z" fill="#e0e0e0"/><path d="m267.47 170.58.68.16 2 .51 7.56 2 27.79 7.38 4.5 1.2 2.33.62 1.18.32a4 4 0 0 1 1.19.46 3.5 3.5 0 0 1 1.55 2 3.46 3.46 0 0 1 .13 1.32 7.35 7.35 0 0 1 -.3 1.27c-.48 1.66-1 3.34-1.46 5.06-2 6.86-4.08 14.19-6.3 21.9s-4.55 15.81-7 24.2l-3.69 12.8q-.94 3.26-1.89 6.55l-.24.82a3.6 3.6 0 0 1 -.36.83 3.71 3.71 0 0 1 -1.29 1.26 3.54 3.54 0 0 1 -1.74.46 4 4 0 0 1 -.91-.11l-.84-.22-26.17-6.81-12.45-3.24-6-1.57-1.49-.39a5.69 5.69 0 0 1 -1.48-.52 3.51 3.51 0 0 1 -1.74-2.53 3.59 3.59 0 0 1 .11-1.56l.43-1.42.87-2.83c.57-1.87 1.14-3.71 1.69-5.53q1.68-5.46 3.24-10.58c2.11-6.82 4.07-13.17 5.86-19 3.6-11.59 6.51-21 8.52-27.46l1.35-4.31a6.62 6.62 0 0 1 .67-1.69 3.38 3.38 0 0 1 3-1.52 2.57 2.57 0 0 1 .68.13s-.23-.06-.68-.09a3.41 3.41 0 0 0 -1.92.51 3.27 3.27 0 0 0 -1.05 1 7.09 7.09 0 0 0 -.64 1.67l-1.29 4.37-8.41 27.5c-1.78 5.8-3.73 12.16-5.82 19l-3.22 10.58c-.55 1.82-1.12 3.66-1.69 5.53-.28.94-.57 1.88-.86 2.83-.14.47-.28.95-.43 1.42a3.19 3.19 0 0 0 1.48 3.7 6.08 6.08 0 0 0 1.4.48l1.49.38 6 1.57 12.45 3.23 26.18 6.8a6.25 6.25 0 0 0 1.65.32 3.14 3.14 0 0 0 2.71-1.54 6.28 6.28 0 0 0 .57-1.56q.94-3.3 1.89-6.55l3.69-12.8c2.42-8.39 4.76-16.48 7-24.19l6.33-21.9c.5-1.71 1-3.4 1.46-5.05a6.38 6.38 0 0 0 .3-1.22 3.21 3.21 0 0 0 -1.54-3.07 3.82 3.82 0 0 0 -1.11-.43l-1.18-.32-2.33-.62-4.5-1.21-27.76-7.5-7.54-2.06-2-.54z" fill="#263238"/><path d="m270.87 240.43-28.22-2.17a7 7 0 0 0 3.88 4.73 20.56 20.56 0 0 0 6.09 1.68l9.59 1.59a6.52 6.52 0 0 1 3.43 1.28c1 .9 1.31 2.31 2.08 3.4 1.26 1.79 3.51 2.53 5.61 3.15a247.71 247.71 0 0 0 25.26 6.26 17.37 17.37 0 0 0 7.17.24c2.34-.57 4.55-2.31 4.95-4.69z" opacity=".3"/><path d="m269.44 171.79c.1 0-5.24 17.36-11.93 38.71s-12.18 38.62-12.28 38.59 5.24-17.35 11.93-38.7 12.19-38.63 12.28-38.6z" fill="#263238"/><path d="m272.32 191.68h28.67v14.35h-28.67z" fill="#fff" transform="matrix(.95817286 .2861901 -.2861901 .95817286 68.88 -73.7)"/><path d="m274.89 220.16s-7-9.28-9.49-11.39-12.95-.43-12.95-.43l-4.54 4.77s.9 3.63 5.13 1.84l1.17-.89h4.85l3 3.5-9.43-.16s-4.64-3-5.69-3-3.6 2-1.76 5.61c0 0-3.53 1.14-2.31 5.94 0 0-3 .81-.26 6.51l.34.65s-3.09 1.46-1.06 4.72 7.16 4.23 8.71 4.15 29.4 4.02 29.4 4.02l7.52-19.54z" fill="#ffbf9d"/><path d="m253.81 224.91a4 4 0 0 1 -1.49-.07 10.89 10.89 0 0 1 -3.41-1.19 11 11 0 0 1 -2.82-2.25 3.8 3.8 0 0 1 -.86-1.23 17.31 17.31 0 0 0 3.86 3.15 17.74 17.74 0 0 0 4.72 1.59z" fill="#ff9a6c"/><path d="m249.35 231.16a3.66 3.66 0 0 1 -1.25-.36 12.16 12.16 0 0 1 -2.72-1.6 11.9 11.9 0 0 1 -2.19-2.26 3.5 3.5 0 0 1 -.65-1.14 25.82 25.82 0 0 0 3.07 3.11 26.53 26.53 0 0 0 3.74 2.25z" fill="#ff9a6c"/><path d="m249.37 236.83a9 9 0 0 1 -3.69-1.27 8.89 8.89 0 0 1 -3-2.43c.07-.08 1.35 1.1 3.21 2.11s3.51 1.48 3.48 1.59z" fill="#ff9a6c"/><path d="m345 232.56-30.23-4.7-35.54-6.72-8.31 27.94s42.47 12.45 54.1 14c12.43 1.64 17.25 0 21.19-8.17 2.46-5.22.9-15.67-1.21-22.35z" fill="#f43f5e"/><path d="m316.79 261.46a1 1 0 0 1 -.23 0l-.66-.17-2.56-.66-9.57-2.52-32.95-8.82-.17-.05.05-.17c1.66-5.58 3.45-11.61 5.3-17.85 1-3.46 2-6.85 3-10.09l.05-.16h.16l38.92 7.7 11.5 2.32 3.1.64.8.17.27.07h-.28l-.81-.14-3.1-.57-11.52-2.21-38.95-7.59.21-.12c-1 3.24-2 6.63-3 10.08-1.86 6.24-3.65 12.27-5.31 17.85l-.13-.22 32.92 8.94 9.54 2.63 2.54.72.66.19z" fill="#263238"/></svg>