<svg id="Layer_1" data-name="Layer 1" xmlns="http://www.w3.org/2000/svg" viewBox="0 0 512 324.18">
  <g>
    <g>
      <path d="M58.88,141.19A46.8,46.8,0,0,1,92,137.28C80.19,148,58.88,141.19,58.88,141.19Z" style="fill: #e0e0e0"/>
      <path d="M111.42,125c3.27,11.11-1.94,21-1.94,21C104.51,137.68,111.42,125,111.42,125Z" style="fill: #e0e0e0"/>
      <path d="M109.59,151.18c-12.35,6.42-25.17,2.63-25.17,2.63C93,146.06,109.59,151.18,109.59,151.18Z" style="fill: #e0e0e0"/>
      <path d="M83.68,127.29c.16-.21,8.15,5.91,17.85,13.65s17.44,14.19,17.28,14.39-8.15-5.91-17.86-13.66S83.52,127.49,83.68,127.29Z" style="fill: #e0e0e0"/>
      <path d="M58,111.88S79.48,113,87.33,130.59A38.76,38.76,0,0,1,58,111.88Z" style="fill: #e0e0e0"/>
      <path d="M87.93,105.4s16.58,13.74,12.41,32.52A38.78,38.78,0,0,1,87.93,105.4Z" style="fill: #e0e0e0"/>
    </g>
    <g>
      <path d="M467.59,90.16A49.35,49.35,0,0,0,433,96.44C448.21,103.63,467.59,90.16,467.59,90.16Z" style="fill: #e0e0e0"/>
      <path d="M409.6,90c.14,12.22,8.44,20.57,8.44,20.57C420.5,100.71,409.6,90,409.6,90Z" style="fill: #e0e0e0"/>
      <path d="M419.54,115.89c14.43,2.65,26.19-5.13,26.19-5.13C434.66,105.6,419.54,115.89,419.54,115.89Z" style="fill: #e0e0e0"/>
      <path d="M438.29,83.79c-.22-.15-6.4,8.48-13.79,19.28s-13.2,19.69-13,19.84,6.39-8.47,13.79-19.28S438.52,83.94,438.29,83.79Z" style="fill: #e0e0e0"/>
      <path d="M459.44,60.32s-21.32,7.8-23.81,27.93A40.87,40.87,0,0,0,459.44,60.32Z" style="fill: #e0e0e0"/>
      <path d="M427.24,63s-12.47,19-2.47,36.63A40.91,40.91,0,0,0,427.24,63Z" style="fill: #e0e0e0"/>
    </g>
    <g>
      <rect x="53.71" y="63.66" width="29.68" height="37.12" transform="translate(-20.28 141.96) rotate(-84.1)" style="fill: #f5f5f5"/>
      <rect x="55.56" y="64.96" width="25.94" height="34.51" transform="translate(-20.3 141.93) rotate(-84.1)" style="fill: #ebebeb"/>
      <polygon points="50.03 93.35 63.68 78.55 70.07 89.35 75.66 84.5 84.36 96.89 50.03 93.35" style="fill: #e0e0e0"/>
      <path d="M74.46,77.68a2.72,2.72,0,1,1-2.42-3A2.72,2.72,0,0,1,74.46,77.68Z" style="fill: #e0e0e0"/>
    </g>
    <g>
      <rect x="345.62" y="215.08" width="21.43" height="26.81" transform="matrix(0.15, -0.99, 0.99, 0.15, 78.5, 547.84)" style="fill: #f5f5f5"/>
      <rect x="346.95" y="216.02" width="18.73" height="24.92" transform="translate(78.48 547.82) rotate(-81.65)" style="fill: #ebebeb"/>
      <polygon points="342.63 235.94 352.93 225.69 357.21 233.68 361.39 230.35 367.28 239.56 342.63 235.94" style="fill: #e0e0e0"/>
      <path d="M360.74,225.39a2,2,0,1,1-1.66-2.23A2,2,0,0,1,360.74,225.39Z" style="fill: #e0e0e0"/>
    </g>
    <g>
      <rect x="62.44" y="184.47" width="26.81" height="21.43" transform="translate(-82.83 58.54) rotate(-28.03)" style="fill: #f5f5f5"/>
      <rect x="63.37" y="185.82" width="24.92" height="18.73" transform="translate(-82.84 58.54) rotate(-28.03)" style="fill: #ebebeb"/>
      <polygon points="69.23 209.31 71.44 194.94 79.62 198.84 81.02 193.68 91.23 197.6 69.23 209.31" style="fill: #e0e0e0"/>
      <path d="M77.55,190.08a2,2,0,1,1-2.65-.81A2,2,0,0,1,77.55,190.08Z" style="fill: #e0e0e0"/>
    </g>
    <path d="M401.31,288.28c0,.11-65.93.19-147.24.19s-147.26-.08-147.26-.19,65.91-.18,147.26-.18S401.31,288.18,401.31,288.28Z" style="fill: #263238"/>
    <path d="M194.19,91.28a7,7,0,1,0-13,3.52h0l0,0c.27.44.6.77.94,1.24l4,5.35a1.26,1.26,0,0,0,2,0l4-5.26a16.08,16.08,0,0,0,1-1.34l0,0h0A6.88,6.88,0,0,0,194.19,91.28Zm-7,3a3.06,3.06,0,1,1,3.07-3.06A3.06,3.06,0,0,1,187.23,94.31Z" style="fill: #f43f5e"/>
    <g>
      <g>
        <polygon points="124.78 148.48 133.62 166.13 172.73 199.01 182.35 186.49 143.94 154.43 124.78 148.48" style="fill: #f43f5e"/>
        <g style="opacity: 0.7000000000000001">
          <path d="M143.94,154.43a1.16,1.16,0,0,1-1.46,1.13,3.52,3.52,0,0,1-3.84,5.44,4.09,4.09,0,0,1-5.08,5l-8.78-17.52Z" style="fill: #fff"/>
        </g>
        <path d="M128.34,155.58s3.72.64,4.29-4.66l-7.85-2.44Z" style="fill: #f43f5e"/>
      </g>
      <g style="opacity: 0.30000000000000004">
        <path d="M138.64,161l38.52,31.88L172.73,199l-39.11-32.88-.06-.13a3.86,3.86,0,0,0,1.79.1,4.21,4.21,0,0,0,2.12-1,4,4,0,0,0,1.29-2.53A4.18,4.18,0,0,0,138.64,161Z"/>
      </g>
      <g style="opacity: 0.30000000000000004">
        <path d="M142.48,155.56l38.63,32.53,1.24-1.6-38.41-32.06a1.23,1.23,0,0,1-1.18,1.18A1,1,0,0,1,142.48,155.56Z"/>
      </g>
      <path d="M134.39,160.12a.28.28,0,0,0,.17.12.43.43,0,0,0,.5-.29,1.62,1.62,0,0,0,0-1,1.14,1.14,0,0,0-.35-.5.69.69,0,0,0-.65-.11.94.94,0,0,0-.47.56,2.84,2.84,0,0,0-.15.84,4.61,4.61,0,0,0,.26,1.84,1.21,1.21,0,0,0,.65.7,1,1,0,0,0,.95-.22,2.7,2.7,0,0,0,.74-2,3.9,3.9,0,0,0-2-3.53,1,1,0,0,0-.9,0,1.9,1.9,0,0,0-.64.62,5.27,5.27,0,0,0-.68,1.48,5.86,5.86,0,0,0-.19,2.36,6.25,6.25,0,0,0,.11.64l.05.22a4.45,4.45,0,0,1-.21-.86,5.89,5.89,0,0,1,.17-2.38,5.11,5.11,0,0,1,.67-1.51,1.85,1.85,0,0,1,.68-.65,1.09,1.09,0,0,1,1,0,4.07,4.07,0,0,1,1.92,4.76,2.06,2.06,0,0,1-.6.95,1.15,1.15,0,0,1-1.05.23,1.29,1.29,0,0,1-.71-.76,4.68,4.68,0,0,1-.26-1.89,2.91,2.91,0,0,1,.16-.85,1,1,0,0,1,.52-.61.76.76,0,0,1,.72.12,1.06,1.06,0,0,1,.36.54,1.59,1.59,0,0,1,0,1,.45.45,0,0,1-.54.29A.25.25,0,0,1,134.39,160.12Z" style="fill: #fff"/>
      <path d="M136,152.13a6,6,0,0,0-.17.6,4.51,4.51,0,0,0,.06,1.69,10.71,10.71,0,0,0,.88,2.36,9.52,9.52,0,0,1,1,2.94,5.32,5.32,0,0,1-.59,3,5.14,5.14,0,0,1-1.69,1.88,5.31,5.31,0,0,1-1.56.71,3.37,3.37,0,0,1-.62.11l.16,0a4,4,0,0,0,.45-.11,5.79,5.79,0,0,0,1.52-.73,5.14,5.14,0,0,0,1.65-1.86,5.25,5.25,0,0,0,.57-3,9.32,9.32,0,0,0-1-2.91,10.47,10.47,0,0,1-.87-2.39,4.22,4.22,0,0,1,0-1.7A2.21,2.21,0,0,1,136,152.13Z" style="fill: #fff"/>
      <path d="M140.4,153.26a1.7,1.7,0,0,0-.72.9,9.51,9.51,0,0,0-.24,2.85,15.13,15.13,0,0,0,.36,2.85c.08.37.15.65.2.85a2.9,2.9,0,0,1,.08.32,1.85,1.85,0,0,1-.12-.3c-.06-.2-.15-.49-.24-.85a13.52,13.52,0,0,1-.39-2.87,13.75,13.75,0,0,1,0-1.59,4.69,4.69,0,0,1,.25-1.29,1.53,1.53,0,0,1,.51-.71A.93.93,0,0,1,140.4,153.26Z" style="fill: #fff"/>
      <path d="M142.09,160.13a4.45,4.45,0,0,1-.58-2.14,1.84,1.84,0,0,1,.71-1.39,1.13,1.13,0,0,1,.43-.2c.12,0,.18,0,.18,0a1.84,1.84,0,0,0-.56.29,1.77,1.77,0,0,0-.65,1.33,4,4,0,0,0,.26,1.51A4.84,4.84,0,0,1,142.09,160.13Z" style="fill: #fff"/>
      <path d="M133.42,151.12a.41.41,0,0,1,0,.09,2.55,2.55,0,0,1,.1.25,1,1,0,0,1,.08.43,1.28,1.28,0,0,1-.16.54,14.46,14.46,0,0,1-.79,1.25,10.59,10.59,0,0,0-.81,1.58,20.84,20.84,0,0,0-1,3.11c-.08.35-.15.67-.22,1a1.85,1.85,0,0,1-.1.35,1.56,1.56,0,0,1,.06-.35c0-.23.1-.57.19-1a18.64,18.64,0,0,1,.93-3.13,10,10,0,0,1,.83-1.6c.3-.46.61-.85.8-1.22a1.07,1.07,0,0,0,.11-.93A1.81,1.81,0,0,1,133.42,151.12Z" style="fill: #fff"/>
    </g>
    <g>
      <path d="M180.1,111.14h35.52a8.47,8.47,0,0,1,8.47,8.47v44.1a8.47,8.47,0,0,1-8.47,8.47H180.1a0,0,0,0,1,0,0v-61a0,0,0,0,1,0,0Z" transform="translate(-42.29 107.19) rotate(-27)" style="fill: #455a64"/>
      <g>
        <path d="M211.24,150.25a9.28,9.28,0,0,1-1.93,1.32,9.11,9.11,0,0,1-7.17.46,9.79,9.79,0,0,1-5.54-4.87,9.53,9.53,0,0,1,3.9-12.87,9.1,9.1,0,0,1,7.18-.46A10,10,0,0,1,213.9,146,9.24,9.24,0,0,1,211.24,150.25ZM199,136.1a9,9,0,0,0-1.84,10.76,9.09,9.09,0,0,0,5.16,4.53,8.39,8.39,0,0,0,10.89-5.55,9.16,9.16,0,0,0-.63-6.84h0a9.2,9.2,0,0,0-5.16-4.54,8.44,8.44,0,0,0-6.65.43A7.91,7.91,0,0,0,199,136.1Z" style="fill: #fff"/>
        <rect x="195.68" y="142.41" width="18.1" height="0.67" transform="translate(-42.49 108.51) rotate(-27)" style="fill: #fff"/>
        <rect x="204.35" y="133.69" width="0.67" height="18.7" transform="translate(-42.63 108.48) rotate(-26.99)" style="fill: #fff"/>
        <path d="M209.2,151.47l-.63-.23a17.14,17.14,0,0,0,1.23-6.84,10.59,10.59,0,0,0-3.05-6.62c-1.71-1.6-4.12-2.28-6.25-2.87l.18-.65c2.21.62,4.7,1.32,6.53,3a11.11,11.11,0,0,1,3.25,7.07A18.33,18.33,0,0,1,209.2,151.47Z" style="fill: #fff"/>
        <path d="M208.86,151.7a15.43,15.43,0,0,1-6.61-2.9,11.1,11.1,0,0,1-3.81-6.78c-.31-2.48.68-5.17,1.49-7.32l.62.23c-.77,2.09-1.74,4.69-1.44,7a10.57,10.57,0,0,0,3.56,6.36,15.07,15.07,0,0,0,6.34,2.76Z" style="fill: #fff"/>
        <path d="M207.07,136.76a19.92,19.92,0,0,1-11.23,5l-.07-.67a19.23,19.23,0,0,0,12.7-6.7l.51.43A18.69,18.69,0,0,1,207.07,136.76Z" style="fill: #fff"/>
        <path d="M213.92,144.84c-5.47.54-10.26,2.82-13.16,6.27l-.51-.43c3-3.58,8-6,13.6-6.51Z" style="fill: #fff"/>
      </g>
      <path d="M199.3,177.43c-.05,0-6.26-12.09-13.89-27.05s-13.77-27.12-13.73-27.14,6.26,12.09,13.89,27.06S199.34,177.41,199.3,177.43Z" style="fill: #263238"/>
      <path d="M225,156.36s-4.67,2.47-10.47,5.43S204,167.11,204,167.07s4.67-2.48,10.48-5.43S225,156.31,225,156.36Z" style="fill: #fff"/>
      <path d="M223.45,159.67c0,.05-3.45,1.86-7.76,4.06s-7.82,3.94-7.84,3.89,3.45-1.85,7.76-4.05S223.43,159.63,223.45,159.67Z" style="fill: #fff"/>
      <g>
        <path d="M187.09,128.61a1.16,1.16,0,0,1-.61,1.65l-.45.23.39.76-.73.37-1.48-2.89,1.18-.61A1.17,1.17,0,0,1,187.09,128.61Zm-.74.37a.45.45,0,0,0-.67-.19l-.41.21.43.84.41-.2A.45.45,0,0,0,186.35,129Z" style="fill: #fff"/>
        <path d="M189.69,128.87l-1.09.56.08.66-.75.38L187.6,127l.72-.37,2.62,2.31-.76.39Zm-.52-.49-.8-.76.13,1.09Z" style="fill: #fff"/>
        <path d="M190.84,128.67l-.07-.73a1.74,1.74,0,0,0,1-.15c.3-.15.37-.31.3-.45-.23-.46-1.53.63-2.08-.45-.26-.52-.1-1.13.67-1.52a2,2,0,0,1,1.06-.23l.09.72a1.55,1.55,0,0,0-.83.15c-.31.15-.36.33-.29.47.23.44,1.53-.64,2.07.43.26.5.1,1.13-.67,1.52A2.11,2.11,0,0,1,190.84,128.67Z" style="fill: #fff"/>
        <path d="M193.23,127.45l-.07-.73a1.74,1.74,0,0,0,1-.15c.31-.15.38-.31.3-.45-.23-.46-1.53.63-2.08-.45-.26-.52-.1-1.13.67-1.52a2.08,2.08,0,0,1,1.07-.23l.08.73a1.48,1.48,0,0,0-.83.14c-.31.15-.36.33-.28.47.22.44,1.52-.64,2.06.43.26.51.1,1.13-.67,1.52A2.11,2.11,0,0,1,193.23,127.45Z" style="fill: #fff"/>
        <path d="M197.34,123.38a1.16,1.16,0,0,1-.6,1.66l-.46.23.39.75-.73.38-1.48-2.9,1.19-.6A1.15,1.15,0,0,1,197.34,123.38Zm-.74.38a.44.44,0,0,0-.67-.19l-.41.2.44.85.4-.21A.44.44,0,0,0,196.6,123.76Z" style="fill: #fff"/>
        <path d="M197.79,123.63a1.62,1.62,0,1,1,2.21.77A1.61,1.61,0,0,1,197.79,123.63Zm2.14-1.09a.8.8,0,1,0-.28,1.18A.83.83,0,0,0,199.93,122.54Z" style="fill: #fff"/>
        <path d="M202.53,122.07l-.4.2.39.77-.73.37-1.47-2.89,1.18-.6a1.16,1.16,0,0,1,1.7.48,1.09,1.09,0,0,1,0,1.17l1,.63-.79.4Zm-.75-1.49-.4.21.43.85.41-.21a.44.44,0,0,0,.24-.65A.46.46,0,0,0,201.78,120.58Z" style="fill: #fff"/>
        <path d="M203.9,119.51l-.8.41-.33-.65,2.32-1.18.33.65-.79.4,1.14,2.24-.73.38Z" style="fill: #fff"/>
      </g>
      <g>
        <path d="M220.2,136.64a2.75,2.75,0,0,1-2.14,3.3A2.86,2.86,0,0,1,220.2,136.64Z" style="fill: #fff"/>
        <path d="M220.76,140.69a2.42,2.42,0,0,1-2.76,2.07A2.51,2.51,0,0,1,220.76,140.69Z" style="fill: #fff"/>
        <path d="M220.26,144.21a2.57,2.57,0,0,1-3.43,1.32A2.68,2.68,0,0,1,220.26,144.21Z" style="fill: #fff"/>
        <path d="M215.7,139.61a2.41,2.41,0,0,1,2.43,2.44A2.51,2.51,0,0,1,215.7,139.61Z" style="fill: #fff"/>
        <path d="M216.54,142.26a1.83,1.83,0,0,1,.73,2.54A1.91,1.91,0,0,1,216.54,142.26Z" style="fill: #fff"/>
        <path d="M217.94,134.45a2.18,2.18,0,0,1-.69,3A2.27,2.27,0,0,1,217.94,134.45Z" style="fill: #fff"/>
        <path d="M214.13,134a2.13,2.13,0,0,1,2.22,2.09A2.21,2.21,0,0,1,214.13,134Z" style="fill: #fff"/>
        <path d="M214.53,137.22a2.52,2.52,0,0,1,3.25,1.57A2.63,2.63,0,0,1,214.53,137.22Z" style="fill: #fff"/>
        <path d="M215.63,146.86l0,0,.07-.06.26-.24a7.08,7.08,0,0,0,.84-1,7,7,0,0,0,.87-1.73,7.07,7.07,0,0,0,.3-1.1l0-.3,0-.15s0-.1,0-.15l0-.31,0-.31v-.63l0-.3a.76.76,0,0,0,0-.15l0-.15,0-.29-.06-.29,0-.14,0-.13-.07-.27a7.84,7.84,0,0,0-.72-1.8,7,7,0,0,0-.72-1.09l-.22-.28-.06-.07,0,0,0,0,.06.07.23.27a8.4,8.4,0,0,1,.73,1.09,7.84,7.84,0,0,1,.72,1.8l.07.27,0,.14,0,.14,0,.28,0,.3,0,.15c0,.05,0,.1,0,.15l0,.3c0,.11,0,.21,0,.31v.63l0,.31s0,.11,0,.16l0,.15,0,.29a8.54,8.54,0,0,1-.3,1.11,7.33,7.33,0,0,1-.88,1.73,6.93,6.93,0,0,1-.85,1c-.11.11-.21.19-.27.24l-.07.06Z" style="fill: #fff"/>
      </g>
      <g>
        <path d="M190.89,151.58a2.74,2.74,0,0,0,3.93.2A2.87,2.87,0,0,0,190.89,151.58Z" style="fill: #fff"/>
        <path d="M193.84,154.41a2.4,2.4,0,0,0,3.29-1A2.51,2.51,0,0,0,193.84,154.41Z" style="fill: #fff"/>
        <path d="M197,156.07a2.56,2.56,0,0,0,3.08-2A2.67,2.67,0,0,0,197,156.07Z" style="fill: #fff"/>
        <path d="M195.94,149.68a2.41,2.41,0,0,0,.54,3.4A2.51,2.51,0,0,0,195.94,149.68Z" style="fill: #fff"/>
        <path d="M197.59,151.92a1.82,1.82,0,0,0,1.62,2.08A1.91,1.91,0,0,0,197.59,151.92Z" style="fill: #fff"/>
        <path d="M190.44,148.45a2.19,2.19,0,0,0,2.87,1.24A2.28,2.28,0,0,0,190.44,148.45Z" style="fill: #fff"/>
        <path d="M192.35,145.14a2.12,2.12,0,0,0,.39,3A2.22,2.22,0,0,0,192.35,145.14Z" style="fill: #fff"/>
        <path d="M194.69,147.33a2.53,2.53,0,0,0-.64,3.56A2.64,2.64,0,0,0,194.69,147.33Z" style="fill: #fff"/>
        <path d="M201.85,153.88h0l-.09,0-.35.07a6.5,6.5,0,0,1-1.31.09,7.2,7.2,0,0,1-1.91-.31,8.84,8.84,0,0,1-1.07-.4l-.27-.14-.13-.06-.13-.08-.27-.15-.27-.18-.13-.08-.12-.1-.25-.18-.23-.2-.12-.1-.11-.1-.21-.2-.2-.21-.1-.1-.09-.11-.18-.21a8,8,0,0,1-1-1.64,9.77,9.77,0,0,1-.46-1.22c0-.15-.06-.27-.08-.35l0-.09v0l0,.09c0,.08.05.2.08.35a8,8,0,0,0,.46,1.23,7.29,7.29,0,0,0,1,1.64l.18.22.09.1.1.11.2.21.21.2.11.1.12.1.23.2.25.19.13.09.13.09.26.17.27.15.14.08.13.07.27.13a9.08,9.08,0,0,0,1.08.41,7.57,7.57,0,0,0,1.91.3,7.17,7.17,0,0,0,1.31-.1l.35-.08.09,0Z" style="fill: #fff"/>
      </g>
    </g>
    <g>
      <path d="M376.36,195.53l-1.6,4s-23.34-17.81-41.34-16.3h0a3.71,3.71,0,0,1-3.18.58l-6.71-1.66a3.77,3.77,0,0,1-2.8-2.74h0s-13.59-11.22-32-9.48l-6.86.29,29-48.1,79.25,12.77Z" style="fill: #455a64"/>
      <path d="M382.48,191.16l-2.67,7.31S358,177,327.43,181.73l18.29-33.27S383,183,382.48,191.16Z" style="fill: #ebebeb"/>
      <g>
        <path d="M405,139.35s-24.77-30.18-57.57-10.15l-19.95,52.53s36.51-14.64,57.44,12Z" style="fill: #fff"/>
        <path d="M405,139.35s-.11.34-.34,1-.6,1.64-1.05,2.9c-.94,2.56-2.3,6.28-4,11L385,193.76l-.1.26-.17-.22a40.44,40.44,0,0,0-24.47-14.92,55.65,55.65,0,0,0-16-.71,69.41,69.41,0,0,0-8.26,1.29,63.21,63.21,0,0,0-8.18,2.33l-.29.11-.39.15.15-.38,20-52.53,0,0,.05,0a48.19,48.19,0,0,1,12.57-5.48,39.55,39.55,0,0,1,12.31-1.31,39.15,39.15,0,0,1,10.71,2.09,46.78,46.78,0,0,1,8.45,3.84A55.4,55.4,0,0,1,401.78,136c1.09,1,1.88,1.88,2.4,2.46.27.29.46.51.58.67l.19.23-.2-.22c-.15-.15-.34-.36-.6-.65-.54-.56-1.34-1.39-2.44-2.42a56.7,56.7,0,0,0-10.46-7.7,47.2,47.2,0,0,0-8.43-3.78,39,39,0,0,0-22.88-.71,47.7,47.7,0,0,0-12.47,5.47l.06-.08c-5.86,15.46-12.68,33.44-19.93,52.54l-.24-.24.3-.11a62.58,62.58,0,0,1,8.24-2.35,67.91,67.91,0,0,1,8.29-1.29,56.05,56.05,0,0,1,16.16.72A40.8,40.8,0,0,1,385,193.61l-.27,0c6-16.31,11.09-29.87,14.62-39.37l4.11-11,1.1-2.91C404.81,139.69,405,139.35,405,139.35Z" style="fill: #263238"/>
      </g>
      <g>
        <path d="M327.12,181.64s-22-23-46.46-14.32l21.62-46.85L346.7,131Z" style="fill: #f5f5f5"/>
        <path d="M327.25,182.28l-.38-.4c-.22-.23-22.14-22.73-46.09-14.23l-.79.28,22.09-47.87.28.07,44.81,10.63-.15.38ZM292,165c17.82,0,32.49,13.5,35,16l19.23-49.75-43.74-10.38-21.15,45.84A34,34,0,0,1,292,165Z" style="fill: #263238"/>
      </g>
      <g>
        <path d="M347.38,129.2s-4.46-20.51-24.78-25.33l-13.13-2.74-22.83,46.72s32.81,7.12,40.83,33.56Z" style="fill: #fff"/>
        <path d="M347.38,129.2s0,.08-.08.25l-.26.72c-.24.64-.59,1.58-1,2.81l-4,10.64c-3.47,9.17-8.43,22.23-14.36,37.85l-.16.44-.14-.45a39.65,39.65,0,0,0-5-10.44c-.53-.85-1.17-1.64-1.77-2.46s-1.27-1.61-2-2.35a47.07,47.07,0,0,0-4.52-4.4,68.35,68.35,0,0,0-23.4-12.65c-1.35-.43-2.7-.82-4-1.13l-.23-.05.1-.21c8.41-17.17,16.23-33.15,22.86-46.71l.06-.11.12,0,10.7,2.24a35,35,0,0,1,9.37,3,32.6,32.6,0,0,1,12,10.4,38.72,38.72,0,0,1,4.77,9.08c.41,1.12.67,2,.83,2.58s.21.9.21.9l-.06-.22-.19-.67c-.18-.58-.45-1.45-.87-2.55a39.93,39.93,0,0,0-4.84-9,32.58,32.58,0,0,0-11.95-10.29,35.18,35.18,0,0,0-9.33-3l-10.7-2.22.17-.08L286.8,147.93l-.12-.26c1.36.32,2.71.71,4.07,1.14a75,75,0,0,1,12.63,5.34,61.55,61.55,0,0,1,10.9,7.39,48.8,48.8,0,0,1,4.54,4.43c.72.76,1.34,1.59,2,2.38s1.25,1.62,1.79,2.48a40.47,40.47,0,0,1,5,10.54h-.31c6-15.59,11-28.62,14.48-37.77,1.76-4.57,3.14-8.16,4.1-10.62l1.09-2.81.29-.72C347.34,129.28,347.38,129.2,347.38,129.2Z" style="fill: #263238"/>
      </g>
      <path d="M314.37,111.69c0,.16,2.07.51,5.27,1.61a41.22,41.22,0,0,1,11.44,6.13,36.27,36.27,0,0,1,8.45,9.1c1.66,2.62,2.33,4.38,2.51,4.35s0-.46-.31-1.27a18.52,18.52,0,0,0-1.52-3.33,32.28,32.28,0,0,0-8.45-9.52,37.49,37.49,0,0,0-11.93-6.08,26.39,26.39,0,0,0-4-.89A4.18,4.18,0,0,0,314.37,111.69Z" style="fill: #e0e0e0"/>
      <path d="M310.9,116.69c0,.17,2.07.51,5.26,1.61a41.66,41.66,0,0,1,11.45,6.13,36.12,36.12,0,0,1,8.45,9.11c1.66,2.62,2.32,4.38,2.51,4.34s0-.46-.31-1.27a18.49,18.49,0,0,0-1.52-3.32,32.21,32.21,0,0,0-8.46-9.53,37.35,37.35,0,0,0-11.92-6.08,26.39,26.39,0,0,0-4-.89A4.89,4.89,0,0,0,310.9,116.69Z" style="fill: #e0e0e0"/>
      <path d="M308.51,122.61c0,.17,2.07.52,5.27,1.61a41.94,41.94,0,0,1,11.45,6.13,36.48,36.48,0,0,1,8.45,9.11c1.66,2.62,2.32,4.38,2.5,4.34s0-.46-.3-1.26a18.39,18.39,0,0,0-1.53-3.33,32,32,0,0,0-8.45-9.52A37.39,37.39,0,0,0,314,123.61a25.2,25.2,0,0,0-4-.89A4.75,4.75,0,0,0,308.51,122.61Z" style="fill: #e0e0e0"/>
      <path d="M305.28,127.78c0,.16,2.07.51,5.26,1.61A41.4,41.4,0,0,1,322,135.52a36.46,36.46,0,0,1,8.45,9.1c1.66,2.62,2.32,4.38,2.51,4.35s0-.46-.31-1.27a19.26,19.26,0,0,0-1.52-3.33,32.19,32.19,0,0,0-8.46-9.52,37.45,37.45,0,0,0-11.92-6.08,26.39,26.39,0,0,0-4-.89A4.17,4.17,0,0,0,305.28,127.78Z" style="fill: #e0e0e0"/>
      <path d="M301.74,133.18c0,.16,2.06.51,5.26,1.61a41.4,41.4,0,0,1,11.45,6.13,36.46,36.46,0,0,1,8.45,9.1c1.66,2.62,2.32,4.38,2.51,4.35s0-.46-.31-1.27a18.7,18.7,0,0,0-1.53-3.33,32,32,0,0,0-8.45-9.52,37.45,37.45,0,0,0-11.92-6.08,26.47,26.47,0,0,0-4-.89A4.12,4.12,0,0,0,301.74,133.18Z" style="fill: #e0e0e0"/>
      <path d="M297.48,139.13c0,.16,2.25.53,5.71,1.78a50.44,50.44,0,0,1,5.89,2.57,58.17,58.17,0,0,1,6.64,4.08,51.7,51.7,0,0,1,5.84,4.93,36.34,36.34,0,0,1,3.91,4.62c2,2.78,2.66,4.7,2.86,4.66s-.06-.49-.37-1.37a10.61,10.61,0,0,0-.69-1.56,14.83,14.83,0,0,0-1.14-2,31.52,31.52,0,0,0-3.84-4.85,47,47,0,0,0-5.93-5.11,53.29,53.29,0,0,0-6.84-4.12,42.36,42.36,0,0,0-6.13-2.45,20.82,20.82,0,0,0-2.44-.67,15.25,15.25,0,0,0-1.87-.37A4.86,4.86,0,0,0,297.48,139.13Z" style="fill: #e0e0e0"/>
      <path d="M295.42,144.34c0,.17,2.26.53,5.72,1.83a48.16,48.16,0,0,1,5.85,2.7,58.05,58.05,0,0,1,6.53,4.27,55.28,55.28,0,0,1,5.7,5.1A38.25,38.25,0,0,1,323,163c1.93,2.81,2.64,4.74,2.83,4.7s-.06-.5-.37-1.38a10.48,10.48,0,0,0-.68-1.57,16.42,16.42,0,0,0-1.12-2,32.63,32.63,0,0,0-3.73-4.94,49.61,49.61,0,0,0-5.78-5.27,50.88,50.88,0,0,0-6.74-4.31,40,40,0,0,0-6.09-2.59,21.74,21.74,0,0,0-2.45-.71,13.58,13.58,0,0,0-1.88-.38A4.8,4.8,0,0,0,295.42,144.34Z" style="fill: #e0e0e0"/>
      <path d="M341,171c.12.15,2-.93,5.37-1.94A34.94,34.94,0,0,1,360.53,168a38.48,38.48,0,0,1,13.86,4.71c3.27,1.87,5,3.41,5.12,3.3s-.33-.47-1.11-1.16a27.66,27.66,0,0,0-3.62-2.67,35.75,35.75,0,0,0-14.21-5.1,32.12,32.12,0,0,0-14.51,1.37,22.8,22.8,0,0,0-3.82,1.71C341.4,170.63,341,171,341,171Z" style="fill: #e0e0e0"/>
      <path d="M343.79,164.32c.11.15,2-.93,5.36-1.94a34.76,34.76,0,0,1,14.13-1.07A38.28,38.28,0,0,1,377.15,166c3.27,1.87,5,3.41,5.12,3.3s-.33-.47-1.11-1.16a27.44,27.44,0,0,0-3.62-2.67,35.65,35.65,0,0,0-14.22-5.1,32.08,32.08,0,0,0-14.5,1.37,22.54,22.54,0,0,0-3.82,1.7C344.16,164,343.75,164.27,343.79,164.32Z" style="fill: #e0e0e0"/>
      <path d="M346.55,157.64c.11.14,2-.93,5.36-1.94A34.76,34.76,0,0,1,366,154.63a38.35,38.35,0,0,1,13.86,4.7c3.27,1.88,5,3.42,5.13,3.3s-.33-.46-1.12-1.16a29.12,29.12,0,0,0-3.61-2.67,36,36,0,0,0-14.22-5.1,32.12,32.12,0,0,0-14.51,1.38,21.6,21.6,0,0,0-3.81,1.7C346.92,157.27,346.51,157.59,346.55,157.64Z" style="fill: #e0e0e0"/>
      <path d="M349.3,151c.12.14,2-.94,5.37-1.94A34.59,34.59,0,0,1,368.8,148a38.42,38.42,0,0,1,13.86,4.7c3.27,1.87,5,3.41,5.13,3.3s-.34-.46-1.12-1.16a27.66,27.66,0,0,0-3.62-2.67,35.9,35.9,0,0,0-14.21-5.1,32.14,32.14,0,0,0-14.51,1.37,22.8,22.8,0,0,0-3.82,1.71C349.68,150.59,349.26,150.91,349.3,151Z" style="fill: #e0e0e0"/>
      <path d="M352.06,144.28c.12.14,2-.94,5.37-1.94a34.55,34.55,0,0,1,14.12-1.07,38.28,38.28,0,0,1,13.87,4.7c3.27,1.87,5,3.41,5.12,3.3s-.33-.46-1.11-1.16a28.38,28.38,0,0,0-3.62-2.67,35.81,35.81,0,0,0-14.21-5.1,32.11,32.11,0,0,0-14.51,1.37,22.42,22.42,0,0,0-3.82,1.71C352.43,143.9,352,144.23,352.06,144.28Z" style="fill: #e0e0e0"/>
      <path d="M354.82,137.59c.11.15,2-.93,5.36-1.94a34.94,34.94,0,0,1,14.13-1.07,38.47,38.47,0,0,1,13.87,4.71c3.27,1.87,5,3.41,5.12,3.3s-.33-.47-1.12-1.16a27.21,27.21,0,0,0-3.61-2.67,35.8,35.8,0,0,0-14.22-5.1A32.14,32.14,0,0,0,359.84,135a22.63,22.63,0,0,0-3.81,1.71C355.19,137.22,354.78,137.54,354.82,137.59Z" style="fill: #e0e0e0"/>
    </g>
    <g>
      <g>
        <rect x="167.04" y="241.65" width="10.76" height="38.62" rx="4.98" style="fill: #263238"/>
        <path d="M210.18,288.28H190c-6.19,0-12.85.71-15.53-2.94-2.11-2.85-1.74-6.62-1.58-10q.67-14.42,1.36-28.83a20.82,20.82,0,0,1,1.35-7.69c1.09-2.43,6-36.11,8.94-36.67h25Z" style="fill: #263238"/>
        <path d="M204.93,272.88c0,.11-6.69.19-15,.19s-15-.08-15-.19,6.69-.18,15-.18S204.93,272.78,204.93,272.88Z" style="fill: #455a64"/>
        <path d="M193,233.85c.1,0,.18,8.73.18,19.48s-.08,19.49-.18,19.49-.18-8.72-.18-19.49S192.92,233.85,193,233.85Z" style="fill: #455a64"/>
        <path d="M174.32,278s0-.12,0-.36,0-.61-.05-1c0-.89-.07-2.18-.11-3.77-.07-3.2-.11-7.6-.07-12.47s.16-9.28.28-12.47c.06-1.6.12-2.89.17-3.78l.07-1a1.41,1.41,0,0,1,.05-.35s0,.12,0,.36v1c0,.95,0,2.23-.06,3.78,0,3.24-.1,7.63-.17,12.47s0,9.22,0,12.46v3.78c0,.41,0,.75,0,1A1.77,1.77,0,0,1,174.32,278Z" style="fill: #455a64"/>
      </g>
      <g>
        <path d="M312.54,153.38s11,2.09,16.55,19.8c6.38,20.25,17.15,61.77,17.07,66.57s-12.3,12.46-12.3,12.46l-17.5-5.83-9.19-34.55Z" style="fill: #f43f5e"/>
        <path d="M312.54,153.38l-27-10L283.7,141l-34.81,1.07-2.63,1.67s-26.16,5.74-28.87,6.09c-6.34.81-13,9.54-13,9.54-.67.82-33.55,48.63-33.55,48.63l7.69,30.09s3.62,1.28,14-5.55c8.24-5.41,14.65-14,17-17.3l0,73h102L305.87,242Z" style="fill: #f43f5e"/>
        <path d="M307.36,201.5s0-.12,0-.36.12-.61.2-1c.18-.94.44-2.21.75-3.75.63-3.17,1.44-7.56,2.17-12.43s1.25-9.31,1.58-12.53c.16-1.56.29-2.85.39-3.8,0-.42.08-.76.11-1s0-.36.07-.36a2.12,2.12,0,0,1,0,.37c0,.28,0,.62-.05,1,0,.9-.13,2.21-.27,3.82-.27,3.22-.74,7.67-1.48,12.55s-1.58,9.27-2.28,12.43c-.34,1.58-.64,2.85-.86,3.73-.11.4-.2.74-.27,1A1.2,1.2,0,0,1,307.36,201.5Z" style="fill: #263238"/>
        <path d="M206.26,182a1.5,1.5,0,0,1,.1.44c0,.33.11.75.19,1.27.17,1.1.38,2.7.62,4.68.49,4,1.06,9.44,1.51,15.5s.67,11.58.76,15.56c.05,2,.07,3.61.06,4.72,0,.53,0,1,0,1.29a2.28,2.28,0,0,1,0,.45,1.66,1.66,0,0,1-.05-.45c0-.33,0-.76-.06-1.28,0-1.16-.11-2.76-.18-4.72-.16-4-.43-9.48-.87-15.54s-1-11.54-1.39-15.5c-.21-2-.38-3.54-.51-4.69,0-.53-.09-1-.13-1.28A3,3,0,0,1,206.26,182Z" style="fill: #263238"/>
        <path d="M285.53,147a2.07,2.07,0,0,1-.36.35q-.36.34-1.08,1c-1,.81-2.35,2-4.15,3.31a42.36,42.36,0,0,1-6.66,4.22,25.85,25.85,0,0,1-9.38,2.22,23.08,23.08,0,0,1-9.55-1.31,16.13,16.13,0,0,1-6.39-4.58,12.91,12.91,0,0,1-2.52-4.67,9.9,9.9,0,0,1-.3-1.42,3.75,3.75,0,0,1,0-.5,2.75,2.75,0,0,1,.13.49,12.05,12.05,0,0,0,.36,1.39,13.36,13.36,0,0,0,2.58,4.54,16.07,16.07,0,0,0,6.31,4.44,23.23,23.23,0,0,0,9.41,1.25,26.07,26.07,0,0,0,9.26-2.15,44.79,44.79,0,0,0,6.65-4.13c1.81-1.31,3.23-2.44,4.21-3.22l1.13-.89A2,2,0,0,1,285.53,147Z" style="fill: #263238"/>
      </g>
      <g>
        <g style="opacity: 0.30000000000000004">
          <path d="M233.46,180.8c-4.06,2.81-4.55,8.51-4.79,13.45-.94,20.27-13.88,59-19.2,78.57C226.22,246.94,236.49,211.48,233.46,180.8Z"/>
        </g>
        <path d="M234.57,146.28s-1.36,43.63-5.1,69.81-21.88,61-21.88,61l-2.92-5.71s10-29.08,14.57-53.45c3.2-17.22,0-69.12,0-69.12A20.59,20.59,0,0,1,234.57,146.28Z" style="fill: #263238"/>
        <path d="M224.94,189.49c-.1,0,.13-9.09.53-20.29s.79-20.28.89-20.28-.13,9.09-.52,20.29S225,189.49,224.94,189.49Z" style="fill: #455a64"/>
      </g>
      <g>
        <g>
          <path d="M168.42,192l-3.48,9s-4.61,9.4-4.25,15.79,8.41,29.74,24.68,22.17,8.15-19.87,8.15-19.87l-7.64-20.93-12-7.9A3.69,3.69,0,0,0,168.42,192Z" style="fill: #f43f5e"/>
          <path d="M187.63,167c1.07,1.42,7.22-.21,8.61,2.67a5.29,5.29,0,0,1,0,5,5.88,5.88,0,0,1,.62,6.32,8.13,8.13,0,0,1,.66,4.26,6.31,6.31,0,0,1-2.07,3.72,3.93,3.93,0,0,1-1.61,3.91c-2.13,1.42-7.71,2.49-7.71,2.49l-2.31,4.25s-3.18,3.55-7.13,2-6.62-9.46-6.62-9.46c.18-1,4.61-8.35,4.61-8.35s.89-10.93,2.84-13.59a13.39,13.39,0,0,1,2.84-3.2s1.7-3.64,1.7-5.21-1.46-6.57-.59-7.59,4.46-.31,6,3.83S187.63,167,187.63,167Z" style="fill: #ffbf9d"/>
          <path d="M196,174.38c0,.11-2.11-.26-4.72-.27s-4.7.32-4.72.21A4.9,4.9,0,0,1,188,174a20.48,20.48,0,0,1,3.36-.24,22.28,22.28,0,0,1,3.36.28A4.71,4.71,0,0,1,196,174.38Z" style="fill: #ff9a6c"/>
          <path d="M196.53,181.6c0,.11-2-.29-4.45-.29s-4.43.36-4.45.25a12.48,12.48,0,0,1,4.45-.62A12.26,12.26,0,0,1,196.53,181.6Z" style="fill: #ff9a6c"/>
          <path d="M196,188.89a11,11,0,0,1-3.86.82,10.61,10.61,0,0,1-3.94-.25c0-.11,1.76,0,3.91-.11S196,188.78,196,188.89Z" style="fill: #ff9a6c"/>
          <path d="M190.64,194.12a5.31,5.31,0,0,1-1.63.72,12.77,12.77,0,0,1-8.48-.31,5.08,5.08,0,0,1-1.57-.85,15.42,15.42,0,0,0,11.68.44Z" style="fill: #ff9a6c"/>
          <path d="M190.7,167.92c0,.11-2.28-.37-5.09-.27s-5,.71-5.07.59a5,5,0,0,1,1.43-.47,17.19,17.19,0,0,1,3.62-.48,18.21,18.21,0,0,1,3.65.24A5.26,5.26,0,0,1,190.7,167.92Z" style="fill: #ff9a6c"/>
          <path d="M191.93,229.56s.18-.44.49-1.24a16,16,0,0,0,.94-3.52,17,17,0,0,0-.07-5.36,15.87,15.87,0,0,0-2.41-6.08,37,37,0,0,1-3.5-5.68,23.16,23.16,0,0,1-1.48-5.26c-.25-1.53-.37-2.78-.45-3.64,0-.4-.06-.73-.08-1a1.55,1.55,0,0,1,0-.35,1.49,1.49,0,0,1,.08.34c0,.27.08.6.14,1,.12.86.28,2.1.57,3.61a23.35,23.35,0,0,0,1.53,5.17,38.46,38.46,0,0,0,3.5,5.62,16,16,0,0,1,2.44,6.22,16.28,16.28,0,0,1,0,5.46,14.82,14.82,0,0,1-1.05,3.53c-.17.4-.34.69-.45.9S191.94,229.57,191.93,229.56Z" style="fill: #263238"/>
        </g>
        <g>
          <g style="opacity: 0.30000000000000004">
            <path d="M185.59,197.23c.09.38.21.75.33,1.12,0-.39,0-.78,0-1.16Z"/>
          </g>
          <g style="opacity: 0.30000000000000004">
            <path d="M192.58,209.82c-2.41-3.72-5.3-7.29-6.66-11.47,0,3.56.17,7.18,1.65,10.4a53.53,53.53,0,0,0,3.73,5.89,11,11,0,0,1,2.11,6.52,7.83,7.83,0,0,0-.06,2.46c.2.8,1,1.54,1.8,1.26a2,2,0,0,0,1-1.47C197.39,218.74,195.21,213.87,192.58,209.82Z"/>
          </g>
        </g>
      </g>
      <g>
        <g>
          <path d="M302.62,105.45c-1.62.91-3.78-.26-4.52-2a7.88,7.88,0,0,1,.17-5.43,22.35,22.35,0,0,0,1.44-5.34A7.88,7.88,0,0,0,294.42,85a7.37,7.37,0,0,0,.52-10.61c-1.35-1.3-3.15-2-4.72-3a16.73,16.73,0,0,1-2.49-2,10.14,10.14,0,0,0,4.28.13,6.92,6.92,0,0,0,5-4.4,6.28,6.28,0,0,0-1.52-6.44,5.74,5.74,0,0,0-6.47-1c-2,1.07-3.14,3.28-4.13,5.35L284,64.92c-2.86-3.79-5.55-7.7-9.95-9-4-1.2-8.3.14-12.46-.16-3-.22-5.94-1.31-9-1.65s-6.46.32-8.25,2.78c-1,1.44-1.37,3.32-2.43,4.75-2.19,3-6.91,3.37-8.71,6.59-1.46,2.61-.34,5.91-1,8.84-.69,3.18-3.31,5.51-5.46,8s-4,5.8-2.82,8.83c1.06,2.66,4.17,4.09,5.18,6.78.74,2,.2,4.12.16,6.21s.8,4.57,2.84,5L255.36,118c8,3.24,16.22,6.54,24.84,6.53s17.81-4.15,21.21-12.07a5,5,0,0,1-3.33-1.49A8.28,8.28,0,0,0,302.62,105.45Z" style="fill: #263238"/>
          <g>
            <g>
              <path d="M283.62,112.73a107.45,107.45,0,0,0,4.67-17.93c.87-6.11.69-12.49-1.47-18.29-.32-.88-3.11-6.77-4-6.68-.66.07,1.05,5.57.71,6.15-3.21,5.52-4.09,12.16-3.57,18.53a83.6,83.6,0,0,0,3.7,18.22" style="fill: #263238"/>
              <path d="M260.64,60.37l-1.44.07A27.72,27.72,0,0,0,233,87.37c-.36,13.43-.86,26.32-.38,33.49,1,14.84,16.22,16.39,16.22,16.39v7.66c.66,7.82,10.78,9.22,14.62,8.88,13.26,0,20.17-10.84,20.17-10.84l.62-53.81C284.74,73.65,276.14,60.44,260.64,60.37Z" style="fill: #ffbf9d"/>
              <path d="M248.82,137.22a35.93,35.93,0,0,0,19-6.75s-4.14,11.05-19,10.51Z" style="fill: #ff9a6c"/>
              <path d="M239.82,99.55a2.12,2.12,0,0,0,2.16,2,2,2,0,0,0,2.08-2,2.13,2.13,0,0,0-2.16-2A2,2,0,0,0,239.82,99.55Z" style="fill: #263238"/>
              <path d="M236.48,93.36c.28.26,1.83-1,4.11-1.13s4,.94,4.25.65c.11-.13-.18-.62-.94-1.11a5.86,5.86,0,0,0-3.42-.86,5.6,5.6,0,0,0-3.25,1.25C236.56,92.73,236.35,93.24,236.48,93.36Z" style="fill: #263238"/>
              <path d="M260.47,99.6a2.13,2.13,0,0,0,2.16,2,2,2,0,0,0,2.08-2,2.12,2.12,0,0,0-2.15-2A2,2,0,0,0,260.47,99.6Z" style="fill: #263238"/>
              <path d="M258.89,93.09c.28.26,1.83-1,4.11-1.13s4,.93,4.25.64c.11-.13-.18-.61-.94-1.11a5.79,5.79,0,0,0-3.42-.85,5.6,5.6,0,0,0-3.25,1.24C259,92.46,258.76,93,258.89,93.09Z" style="fill: #263238"/>
              <path d="M251.65,111.07c0-.14-1.43-.3-3.75-.48-.58,0-1.14-.11-1.26-.5a2.94,2.94,0,0,1,.3-1.75q.7-2.16,1.48-4.53c2.06-6.45,3.51-11.74,3.25-11.82s-2.14,5.08-4.19,11.53c-.5,1.59-1,3.1-1.41,4.55a3.34,3.34,0,0,0-.18,2.31,1.47,1.47,0,0,0,1,.8,4.06,4.06,0,0,0,1,.08A15.22,15.22,0,0,0,251.65,111.07Z" style="fill: #263238"/>
              <path d="M258.45,112.28c-.37,0-.25,2.48-2.27,4.35s-4.68,1.74-4.68,2.09c0,.16.61.45,1.73.42a6.2,6.2,0,0,0,3.91-1.6,5.38,5.38,0,0,0,1.75-3.64C258.93,112.86,258.62,112.26,258.45,112.28Z" style="fill: #263238"/>
              <path d="M258.52,83.82c.26.61,2.52.19,5.22.37s4.9.79,5.22.22c.15-.28-.26-.84-1.16-1.4a9.08,9.08,0,0,0-8-.44C258.88,83,258.41,83.53,258.52,83.82Z" style="fill: #263238"/>
              <path d="M237,85.72c.43.5,2-.12,3.86-.25s3.51.16,3.85-.4c.15-.27-.13-.78-.85-1.23a5.39,5.39,0,0,0-3.19-.68,5.32,5.32,0,0,0-3,1.21C237,84.93,236.83,85.48,237,85.72Z" style="fill: #263238"/>
              <path d="M283.61,100.21c.25-.13,10-3.57,10.26,6.6s-10,8.3-10.06,8S283.61,100.21,283.61,100.21Z" style="fill: #ffbf9d"/>
              <path d="M286.84,110.89s.18.12.48.26a1.8,1.8,0,0,0,1.32,0c1.07-.41,1.94-2.14,1.95-4a6,6,0,0,0-.55-2.53,2,2,0,0,0-1.37-1.33.9.9,0,0,0-1,.51c-.13.28-.06.49-.12.5s-.22-.16-.15-.58a1.16,1.16,0,0,1,.39-.65,1.38,1.38,0,0,1,1-.28,2.49,2.49,0,0,1,1.88,1.54,6.09,6.09,0,0,1,.68,2.82c0,2-1,4-2.49,4.45a1.89,1.89,0,0,1-1.63-.24C286.86,111.14,286.8,110.91,286.84,110.89Z" style="fill: #ff9a6c"/>
              <path d="M239.35,70.43c-1.66-.89,3.21-6.28,7.23-8.17,6.08-2.85,15.4-4.68,21.06-3.16,6.81,1.84,12.5,5.15,16,11.28a40.1,40.1,0,0,1,4.76,20.38A12.17,12.17,0,0,1,287,97c-1.39,2.27-4.1,3.72-3.94,6.82a4.25,4.25,0,0,1-1,3.12c-1.83,2-4.13.17-5.2-1.68-2.29-4-2.6-8.71-2.86-13.27-.18-3.25-.35-6.56.52-9.69.48-1.7,1.26-3.31,1.64-5a6.12,6.12,0,0,0-.79-5.07,6.44,6.44,0,0,0-.83-.82A10.63,10.63,0,0,0,264,69.49c-5.7,2.1-15.44,5.25-18,3.34-3.72-2.75-4.62-4.56-4.62-4.56Z" style="fill: #263238"/>
            </g>
            <path d="M267.09,57.73a22.36,22.36,0,0,0-17.18,1.16c-2.75,1.48-5.23,3.81-6,6.84s.52,6.71,3.44,7.85l.2.13c4.36,1.4,7.17.78,11.48-.77,3.62-1.31,6.83-3.59,10.46-4.88a20.64,20.64,0,0,1,12.1-.51A33.78,33.78,0,0,0,267.09,57.73Z" style="fill: #263238"/>
          </g>
          <path d="M286.44,67.79c-.09.08-.91-.9-2.56-2a14.77,14.77,0,0,0-3.09-1.66,9.63,9.63,0,0,0-4.14-.69,13.77,13.77,0,0,0-7.09,2.93c-1.57,1.25-2.3,2.29-2.4,2.22s.11-.31.44-.78A10.71,10.71,0,0,1,269.25,66a13.16,13.16,0,0,1,7.35-3.24,9.67,9.67,0,0,1,4.42.79,13.84,13.84,0,0,1,3.14,1.85A7.8,7.8,0,0,1,286.44,67.79Z" style="fill: #455a64"/>
          <path d="M287.45,71.39a8.71,8.71,0,0,1-.77,2.91,21.26,21.26,0,0,1-9.5,10.7,8.77,8.77,0,0,1-2.79,1.11c-.12-.2,4.27-1.87,8-6.09S287.24,71.3,287.45,71.39Z" style="fill: #455a64"/>
          <path d="M291.59,73a3.67,3.67,0,0,1,0,1.16,18.13,18.13,0,0,1-.44,3.12A21.24,21.24,0,0,1,278,92.49a19.08,19.08,0,0,1-3,.87,3.14,3.14,0,0,1-1.15.11c0-.12,1.6-.4,4-1.43a22.41,22.41,0,0,0,12.93-14.83C291.41,74.68,291.47,73,291.59,73Z" style="fill: #455a64"/>
          <path d="M255.44,56.8a27.1,27.1,0,0,1-2.7,1,22.84,22.84,0,0,0-5.89,3.48,22.22,22.22,0,0,0-4.54,5.12,27.9,27.9,0,0,1-1.52,2.45,8,8,0,0,1,1.1-2.7,19.4,19.4,0,0,1,4.53-5.39,18.9,18.9,0,0,1,6.16-3.41A7.93,7.93,0,0,1,255.44,56.8Z" style="fill: #455a64"/>
          <path d="M294.78,58.08c.17,0-.28,3-2.58,5.66s-5.1,3.69-5.13,3.52,2.46-1.36,4.61-4S294.58,58,294.78,58.08Z" style="fill: #455a64"/>
        </g>
        <path d="M262.59,105.78a.38.38,0,1,1-.38-.38A.38.38,0,0,1,262.59,105.78Z" style="fill: #ff9a6c"/>
        <circle cx="265.01" cy="105.78" r="0.38" style="fill: #ff9a6c"/>
      </g>
      <g>
        <g>
          <rect x="253.98" y="169.16" width="48.52" height="65.91" rx="2" transform="matrix(0.96, 0.29, -0.29, 0.96, 69.46, -71.16)" style="fill: #455a64"/>
          <path d="M248.23,218.22a3.81,3.81,0,0,1-3.09-3.89,3.83,3.83,0,0,1,7.66.27l-.71,0a3.12,3.12,0,1,0-3.72,2.95Z" style="fill: #263238"/>
          <path d="M249.81,213a3.83,3.83,0,1,1,4.57-3.62l-.71,0a3.12,3.12,0,1,0-3.72,3Z" style="fill: #263238"/>
          <path d="M251.39,207.83a3.79,3.79,0,0,1-3.09-3.89,3.83,3.83,0,0,1,7.66.27l-.71,0a3.12,3.12,0,0,0-5.25-2.4,3.12,3.12,0,0,0,1.53,5.35Z" style="fill: #263238"/>
          <path d="M253,202.64a3.83,3.83,0,1,1,4.57-3.62l-.71,0a3.11,3.11,0,0,0-3-3.23,3.13,3.13,0,0,0-.71,6.19Z" style="fill: #263238"/>
          <path d="M254.55,197.45a3.83,3.83,0,0,1,.88-7.59,3.85,3.85,0,0,1,3.69,4l-.71,0a3.13,3.13,0,0,0-3-3.23,3.13,3.13,0,0,0-.71,6.19Z" style="fill: #263238"/>
          <path d="M256.13,192.26a3.84,3.84,0,0,1-1.87-6.57,3.87,3.87,0,0,1,2.75-1,3.84,3.84,0,0,1,3.69,4l-.71,0a3.12,3.12,0,0,0-5.25-2.4,3.12,3.12,0,0,0,1.53,5.35Z" style="fill: #263238"/>
          <path d="M257.71,187.06a3.8,3.8,0,0,1-3.09-3.89,3.84,3.84,0,0,1,3.83-3.7h.14a3.83,3.83,0,0,1,3.69,4l-.71,0a3.12,3.12,0,1,0-3.72,3Z" style="fill: #263238"/>
          <path d="M259.29,181.87a3.81,3.81,0,0,1-3.09-3.9,3.83,3.83,0,0,1,7.66.28l-.71,0a3.11,3.11,0,0,0-3-3.23,3.13,3.13,0,0,0-.71,6.19Z" style="fill: #263238"/>
          <path d="M260.87,176.67a3.83,3.83,0,0,1-1.87-6.56,3.87,3.87,0,0,1,2.75-1,3.83,3.83,0,0,1,3.69,4l-.71,0a3.14,3.14,0,0,0-3-3.24A3.13,3.13,0,0,0,261,176Z" style="fill: #263238"/>
          <path d="M262.45,171.48a3.83,3.83,0,1,1,4.57-3.62l-.71,0a3.12,3.12,0,1,0-3.72,3Z" style="fill: #263238"/>
          <path d="M246.65,223.42a3.84,3.84,0,0,1-1.87-6.57,3.83,3.83,0,0,1,6.44,2.94l-.71,0a3.12,3.12,0,0,0-5.25-2.4,3.12,3.12,0,0,0,1.53,5.35Z" style="fill: #263238"/>
        </g>
        <path d="M252,219.38c.78-2,9.22-31.7,13.08-43.9A5.47,5.47,0,0,1,271.8,172l43.37,12.89a5.13,5.13,0,0,1,3.33,6.29l-19.17,66.41a5.12,5.12,0,0,1-6.26,3.53l-44.19-12a5.11,5.11,0,0,1-3.59-6.34l6.59-23.22Z" style="fill: #fff"/>
        <g>
          <path d="M267.47,170.58a3.35,3.35,0,0,0-4.08,2.26c-3.23,10.58-13.65,44.66-14.42,46.78l-7.69,25.18a3.37,3.37,0,0,0,2.37,4.24l47.61,12.38a3.36,3.36,0,0,0,4.08-2.32l20.75-72a3.36,3.36,0,0,0-2.36-4.18Z" style="fill: #e0e0e0"/>
          <path d="M267.47,170.58l.68.16,2,.51,7.56,2,27.79,7.38,4.5,1.2,2.33.62,1.18.32a4,4,0,0,1,1.19.46,3.5,3.5,0,0,1,1.55,2,3.46,3.46,0,0,1,.13,1.32,7.35,7.35,0,0,1-.3,1.27c-.48,1.66-1,3.34-1.46,5.06-2,6.86-4.08,14.19-6.3,21.9s-4.55,15.81-7,24.2l-3.69,12.8q-.94,3.26-1.89,6.55l-.24.82a3.6,3.6,0,0,1-.36.83,3.71,3.71,0,0,1-1.29,1.26,3.54,3.54,0,0,1-1.74.46,4,4,0,0,1-.91-.11l-.84-.22-26.17-6.81-12.45-3.24-6-1.57-1.49-.39a5.69,5.69,0,0,1-1.48-.52,3.51,3.51,0,0,1-1.74-2.53,3.59,3.59,0,0,1,.11-1.56l.43-1.42.87-2.83c.57-1.87,1.14-3.71,1.69-5.53q1.68-5.46,3.24-10.58c2.11-6.82,4.07-13.17,5.86-19,3.6-11.59,6.51-21,8.52-27.46l1.35-4.31a6.62,6.62,0,0,1,.67-1.69,3.38,3.38,0,0,1,3-1.52,2.57,2.57,0,0,1,.68.13s-.23-.06-.68-.09a3.41,3.41,0,0,0-1.92.51,3.27,3.27,0,0,0-1.05,1,7.09,7.09,0,0,0-.64,1.67L261.87,178l-8.41,27.5c-1.78,5.8-3.73,12.16-5.82,19l-3.22,10.58c-.55,1.82-1.12,3.66-1.69,5.53-.28.94-.57,1.88-.86,2.83-.14.47-.28.95-.43,1.42a3.19,3.19,0,0,0,1.48,3.7,6.08,6.08,0,0,0,1.4.48l1.49.38,6,1.57,12.45,3.23,26.18,6.8a6.25,6.25,0,0,0,1.65.32,3.14,3.14,0,0,0,2.71-1.54,6.28,6.28,0,0,0,.57-1.56q.94-3.3,1.89-6.55l3.69-12.8c2.42-8.39,4.76-16.48,7-24.19l6.33-21.9c.5-1.71,1-3.4,1.46-5.05a6.38,6.38,0,0,0,.3-1.22,3.21,3.21,0,0,0-1.54-3.07,3.82,3.82,0,0,0-1.11-.43l-1.18-.32-2.33-.62-4.5-1.21-27.76-7.5-7.54-2.06-2-.54Z" style="fill: #263238"/>
        </g>
        <g style="opacity: 0.30000000000000004">
          <path d="M270.87,240.43l-28.22-2.17a7,7,0,0,0,3.88,4.73,20.56,20.56,0,0,0,6.09,1.68l9.59,1.59a6.52,6.52,0,0,1,3.43,1.28c1,.9,1.31,2.31,2.08,3.4,1.26,1.79,3.51,2.53,5.61,3.15a247.71,247.71,0,0,0,25.26,6.26,17.37,17.37,0,0,0,7.17.24c2.34-.57,4.55-2.31,4.95-4.69Z"/>
        </g>
        <path d="M269.44,171.79c.1,0-5.24,17.36-11.93,38.71s-12.18,38.62-12.28,38.59,5.24-17.35,11.93-38.7S269.35,171.76,269.44,171.79Z" style="fill: #263238"/>
        <rect x="272.32" y="191.68" width="28.67" height="14.35" transform="translate(68.88 -73.7) rotate(16.63)" style="fill: #fff"/>
      </g>
      <g>
        <g>
          <path d="M274.89,220.16s-7-9.28-9.49-11.39-12.95-.43-12.95-.43l-4.54,4.77s.9,3.63,5.13,1.84l1.17-.89h4.85l3,3.5-9.43-.16s-4.64-3-5.69-3-3.6,2-1.76,5.61c0,0-3.53,1.14-2.31,5.94,0,0-3,.81-.26,6.51l.34.65s-3.09,1.46-1.06,4.72,7.16,4.23,8.71,4.15S280,246,280,246l7.52-19.54Z" style="fill: #ffbf9d"/>
          <path d="M253.81,224.91a4,4,0,0,1-1.49-.07,10.89,10.89,0,0,1-3.41-1.19,11,11,0,0,1-2.82-2.25,3.8,3.8,0,0,1-.86-1.23,17.31,17.31,0,0,0,3.86,3.15A17.74,17.74,0,0,0,253.81,224.91Z" style="fill: #ff9a6c"/>
          <path d="M249.35,231.16a3.66,3.66,0,0,1-1.25-.36,12.16,12.16,0,0,1-2.72-1.6,11.9,11.9,0,0,1-2.19-2.26,3.5,3.5,0,0,1-.65-1.14,25.82,25.82,0,0,0,3.07,3.11A26.53,26.53,0,0,0,249.35,231.16Z" style="fill: #ff9a6c"/>
          <path d="M249.37,236.83a9,9,0,0,1-3.69-1.27,8.89,8.89,0,0,1-3-2.43c.07-.08,1.35,1.1,3.21,2.11S249.4,236.72,249.37,236.83Z" style="fill: #ff9a6c"/>
        </g>
        <path d="M345,232.56l-30.23-4.7-35.54-6.72-8.31,27.94s42.47,12.45,54.1,14c12.43,1.64,17.25,0,21.19-8.17C348.67,249.69,347.11,239.24,345,232.56Z" style="fill: #f43f5e"/>
        <path d="M316.79,261.46a1,1,0,0,1-.23,0l-.66-.17-2.56-.66-9.57-2.52-32.95-8.82-.17-.05.05-.17c1.66-5.58,3.45-11.61,5.3-17.85,1-3.46,2-6.85,3-10.09l.05-.16.16,0,38.92,7.7,11.5,2.32,3.1.64.8.17.27.07-.28,0-.81-.14-3.1-.57-11.52-2.21-38.95-7.59.21-.12c-1,3.24-2,6.63-3,10.08-1.86,6.24-3.65,12.27-5.31,17.85l-.13-.22,32.92,8.94,9.54,2.63,2.54.72.66.19Z" style="fill: #263238"/>
      </g>
    </g>
  </g>
</svg>
